<?xml version="1.0" encoding="utf-8"?>
<!-- Generator: Adobe Illustrator 16.0.0, SVG Export Plug-In . SVG Version: 6.00 Build 0)  -->
<!DOCTYPE svg PUBLIC "-//W3C//DTD SVG 1.1//EN" "http://www.w3.org/Graphics/SVG/1.1/DTD/svg11.dtd">
<svg version="1.1" id="Layer_1" xmlns="http://www.w3.org/2000/svg" xmlns:xlink="http://www.w3.org/1999/xlink" x="0px" y="0px"
	 width="1404.989px" height="139.107px" viewBox="0 0 1404.989 139.107" enable-background="new 0 0 1404.989 139.107"
	 xml:space="preserve">
<g>
	<g>
		<path d="M284.871,120.767l-0.146-66.519l-24.561,56.285h-16.958l-24.561-56.285v66.519h-23.245V18.284h28.508l27.777,60.963
			l27.777-60.963h28.362v102.482H284.871z"/>
		<path d="M376.823,18.431c22.953,0,37.572,9.941,37.572,25.584c0,10.818-6.725,19.443-17.543,22.514
			c12.865,2.485,21.052,12.573,21.052,25.877c0,17.396-15.204,28.361-39.326,28.361h-50.145V18.431H376.823z M354.309,59.365h21.052
			c7.602,0,12.426-4.094,12.426-10.672c0-6.579-4.824-10.38-12.426-10.38h-21.052V59.365z M354.309,100.738h21.052
			c9.649,0,15.643-4.24,15.643-11.55c0-6.871-5.994-11.11-15.643-11.11h-21.052V100.738z"/>
		<path d="M512.636,28.664l-9.795,20.321c-10.818-6.287-24.415-10.672-32.748-10.672c-6.725,0-11.257,2.485-11.257,7.456
			c0,17.689,54.092,7.602,54.092,44.589c0,20.467-18.128,31.285-40.935,31.285c-17.105,0-34.648-6.433-46.782-16.374l10.087-20.028
			c10.526,9.21,26.315,15.351,36.987,15.351c8.187,0,13.304-3.07,13.304-8.918c0-18.128-54.092-7.31-54.092-43.566
			c0-18.859,16.228-30.847,40.789-30.847C487.052,17.261,502.11,21.793,512.636,28.664z"/>
		<path d="M607.514,91.966h-0.731h-19.736v28.801h-26.022V18.431h45.759c27.046,0,42.543,12.865,42.543,35.671
			c0,15.644-6.579,26.9-18.566,32.895l21.49,33.771h-29.531L607.514,91.966z M606.782,71.499c11.257,0,17.836-5.701,17.836-16.52
			c0-10.672-6.579-16.082-17.836-16.082h-19.736v32.602H606.782z"/>
		<path d="M692.889,38.897v20.321h48.829v20.467h-48.829V100.3h55.7v20.467h-81.723V18.431h80.115v20.467H692.889z"/>
		<path d="M834.842,98.983v21.783h-69.442V18.431h26.022v80.553H834.842z"/>
		<path d="M873.29,38.897v20.321h48.829v20.467H873.29V100.3h55.7v20.467h-81.723V18.431h80.115v20.467H873.29z"/>
		<path d="M969.045,101.907l-7.456,18.859h-26.754l44.151-102.336h26.753l43.128,102.336h-27.777l-7.31-18.859H969.045z
			 M991.559,44.307l-14.911,37.864h29.531L991.559,44.307z"/>
		<path d="M1137.605,28.664l-9.795,20.321c-10.818-6.287-24.414-10.672-32.747-10.672c-6.726,0-11.257,2.485-11.257,7.456
			c0,17.689,54.092,7.602,54.092,44.589c0,20.467-18.128,31.285-40.935,31.285c-17.104,0-34.648-6.433-46.782-16.374l10.087-20.028
			c10.526,9.21,26.315,15.351,36.987,15.351c8.188,0,13.304-3.07,13.304-8.918c0-18.128-54.092-7.31-54.092-43.566
			c0-18.859,16.228-30.847,40.788-30.847C1112.021,17.261,1127.08,21.793,1137.605,28.664z"/>
		<path d="M1152.077,120.767V18.431h26.022v102.336H1152.077z"/>
		<path d="M1270.055,120.767l-47.074-63.01v63.01h-24.415V18.431h22.953l47.221,63.156V18.431h24.268v102.336H1270.055z"/>
		<path d="M1403.966,68.722v39.911c-10.964,7.748-28.215,13.304-42.542,13.304c-31.14,0-54.677-22.515-54.677-52.338
			c0-29.678,24.122-52.045,56.431-52.045c15.204,0,31.286,5.848,41.812,15.204l-14.619,17.69
			c-7.456-6.871-17.836-11.111-27.338-11.111c-16.813,0-29.678,13.158-29.678,30.262c0,17.397,13.011,30.555,29.97,30.555
			c5.263,0,11.988-1.9,18.128-4.971V68.722H1403.966z"/>
	</g>
	<g>
		<rect x="46.37" fill="#0000FF" width="46.368" height="46.369"/>
		<rect x="92.738" y="46.369" fill="#FF0000" width="46.37" height="46.37"/>
		<rect y="46.369" fill="#00FF00" width="46.37" height="46.37"/>
		<rect x="46.37" y="92.739" fill="#FFFF00" width="46.368" height="46.368"/>
	</g>
</g>
</svg>
