<?xml version="1.0" encoding="utf-8"?>
<!-- Generator: Adobe Illustrator 16.0.0, SVG Export Plug-In . SVG Version: 6.00 Build 0)  -->
<!DOCTYPE svg PUBLIC "-//W3C//DTD SVG 1.1//EN" "http://www.w3.org/Graphics/SVG/1.1/DTD/svg11.dtd">
<svg version="1.1" id="Layer_1" xmlns="http://www.w3.org/2000/svg" xmlns:xlink="http://www.w3.org/1999/xlink" x="0px" y="0px"
	 width="1404.989px" height="139.107px" viewBox="0 0 1404.989 139.107" enable-background="new 0 0 1404.989 139.107"
	 xml:space="preserve">
<g>
	<g>
		<path fill="#FFFFFF" d="M284.871,120.767l-0.146-66.519l-24.561,56.285h-16.958l-24.561-56.285v66.519H195.4V18.284h28.508
			l27.777,60.963l27.777-60.963h28.362v102.481L284.871,120.767L284.871,120.767z"/>
		<path fill="#FFFFFF" d="M376.823,18.431c22.953,0,37.571,9.941,37.571,25.584c0,10.818-6.725,19.443-17.543,22.515
			c12.865,2.484,21.053,12.572,21.053,25.877c0,17.396-15.204,28.36-39.326,28.36h-50.145V18.431H376.823z M354.309,59.365h21.052
			c7.602,0,12.426-4.094,12.426-10.672c0-6.579-4.824-10.381-12.426-10.381h-21.052V59.365z M354.309,100.738h21.052
			c9.649,0,15.643-4.24,15.643-11.551c0-6.87-5.994-11.109-15.643-11.109h-21.052V100.738z"/>
		<path fill="#FFFFFF" d="M512.636,28.664l-9.795,20.321c-10.817-6.287-24.415-10.673-32.748-10.673
			c-6.725,0-11.257,2.485-11.257,7.456c0,17.689,54.092,7.603,54.092,44.59c0,20.467-18.128,31.284-40.935,31.284
			c-17.105,0-34.648-6.433-46.782-16.374l10.087-20.027c10.526,9.21,26.315,15.351,36.987,15.351c8.187,0,13.304-3.069,13.304-8.918
			c0-18.128-54.092-7.31-54.092-43.565c0-18.859,16.228-30.848,40.789-30.848C487.052,17.261,502.11,21.793,512.636,28.664z"/>
		<path fill="#FFFFFF" d="M607.514,91.966h-0.73h-19.736v28.801h-26.021V18.431h45.759c27.046,0,42.543,12.865,42.543,35.671
			c0,15.645-6.579,26.9-18.566,32.896l21.49,33.771H622.72L607.514,91.966z M606.782,71.499c11.257,0,17.836-5.701,17.836-16.521
			c0-10.672-6.579-16.081-17.836-16.081h-19.736v32.602H606.782z"/>
		<path fill="#FFFFFF" d="M692.889,38.897v20.32h48.829v20.467h-48.829V100.3h55.7v20.467h-81.722V18.431h80.115v20.468
			L692.889,38.897L692.889,38.897z"/>
		<path fill="#FFFFFF" d="M834.842,98.983v21.782h-69.441V18.431h26.021v80.554L834.842,98.983L834.842,98.983z"/>
		<path fill="#FFFFFF" d="M873.29,38.897v20.32h48.83v20.467h-48.83V100.3h55.701v20.467h-81.725V18.431h80.115v20.468
			L873.29,38.897L873.29,38.897z"/>
		<path fill="#FFFFFF" d="M969.045,101.907l-7.457,18.858h-26.754L978.987,18.43h26.752l43.129,102.336h-27.777l-7.311-18.858
			H969.045z M991.559,44.307l-14.91,37.864h29.529L991.559,44.307z"/>
		<path fill="#FFFFFF" d="M1137.606,28.664l-9.797,20.321c-10.816-6.287-24.412-10.673-32.746-10.673
			c-6.727,0-11.258,2.485-11.258,7.456c0,17.689,54.094,7.603,54.094,44.59c0,20.467-18.129,31.284-40.936,31.284
			c-17.104,0-34.648-6.433-46.783-16.374l10.088-20.027c10.525,9.21,26.314,15.351,36.986,15.351c8.189,0,13.305-3.069,13.305-8.918
			c0-18.128-54.092-7.31-54.092-43.565c0-18.859,16.229-30.848,40.787-30.848C1112.022,17.261,1127.081,21.793,1137.606,28.664z"/>
		<path fill="#FFFFFF" d="M1152.077,120.767V18.431h26.021v102.336H1152.077z"/>
		<path fill="#FFFFFF" d="M1270.055,120.767l-47.074-63.01v63.01h-24.414V18.431h22.953l47.221,63.156V18.431h24.268v102.336
			H1270.055z"/>
		<path fill="#FFFFFF" d="M1403.965,68.722v39.911c-10.963,7.748-28.215,13.305-42.541,13.305
			c-31.141,0-54.678-22.516-54.678-52.339c0-29.678,24.123-52.045,56.432-52.045c15.203,0,31.285,5.849,41.813,15.204l-14.619,17.69
			c-7.457-6.871-17.836-11.111-27.338-11.111c-16.814,0-29.678,13.158-29.678,30.262c0,17.397,13.01,30.556,29.969,30.556
			c5.264,0,11.988-1.9,18.129-4.972V68.722H1403.965z"/>
	</g>
	<g>
		<rect x="46.37" fill="#FFFFFF" width="46.368" height="46.369"/>
		<rect x="92.738" y="46.369" fill="#FFFFFF" width="46.37" height="46.37"/>
		<rect y="46.369" fill="#FFFFFF" width="46.37" height="46.37"/>
		<rect x="46.37" y="92.739" fill="#FFFFFF" width="46.368" height="46.368"/>
	</g>
</g>
</svg>
