<?xml version="1.0" encoding="utf-8"?>
<!-- Generator: Adobe Illustrator 16.0.0, SVG Export Plug-In . SVG Version: 6.00 Build 0)  -->
<!DOCTYPE svg PUBLIC "-//W3C//DTD SVG 1.1//EN" "http://www.w3.org/Graphics/SVG/1.1/DTD/svg11.dtd">
<svg version="1.1" id="Layer_1" xmlns="http://www.w3.org/2000/svg" xmlns:xlink="http://www.w3.org/1999/xlink" x="0px" y="0px"
	 width="1147.398px" height="139.107px" viewBox="0 0 1147.398 139.107" enable-background="new 0 0 1147.398 139.107"
	 xml:space="preserve">
<g>
	<g>
		<path d="M284.871,120.767l-0.146-66.52l-24.561,56.285h-16.958l-24.561-56.285v66.52H195.4V18.284h28.508l27.777,60.963
			l27.777-60.963h28.362v102.482L284.871,120.767L284.871,120.767z"/>
		<path d="M376.823,18.431c22.953,0,37.571,9.94,37.571,25.584c0,10.817-6.725,19.442-17.543,22.514
			c12.865,2.485,21.053,12.573,21.053,25.877c0,17.396-15.204,28.361-39.326,28.361h-50.145V18.431H376.823z M354.309,59.365h21.052
			c7.602,0,12.426-4.094,12.426-10.672c0-6.579-4.824-10.38-12.426-10.38h-21.052V59.365z M354.309,100.738h21.052
			c9.649,0,15.643-4.24,15.643-11.55c0-6.871-5.994-11.11-15.643-11.11h-21.052V100.738z"/>
		<path d="M512.636,28.664l-9.795,20.321c-10.817-6.287-24.415-10.672-32.748-10.672c-6.725,0-11.257,2.484-11.257,7.456
			c0,17.688,54.092,7.602,54.092,44.589c0,20.467-18.128,31.285-40.935,31.285c-17.105,0-34.648-6.434-46.782-16.374l10.087-20.028
			c10.526,9.21,26.315,15.351,36.987,15.351c8.187,0,13.304-3.069,13.304-8.918c0-18.128-54.092-7.31-54.092-43.565
			c0-18.859,16.228-30.848,40.789-30.848C487.052,17.26,502.11,21.793,512.636,28.664z"/>
		<path d="M640.699,28.664l-9.795,20.321c-10.818-6.287-24.414-10.672-32.747-10.672c-6.727,0-11.257,2.484-11.257,7.456
			c0,17.688,54.092,7.602,54.092,44.589c0,20.467-18.128,31.285-40.936,31.285c-17.104,0-34.647-6.434-46.781-16.374l10.087-20.028
			c10.525,9.21,26.314,15.351,36.986,15.351c8.188,0,13.305-3.069,13.305-8.918c0-18.128-54.093-7.31-54.093-43.565
			c0-18.859,16.229-30.848,40.788-30.848C615.115,17.26,630.174,21.793,640.699,28.664z"/>
		<path d="M699.761,18.431c26.169,0,41.228,12.864,41.228,35.671c0,23.977-15.059,37.863-41.228,37.863h-18.566v28.802h-26.022
			V18.431H699.761z M681.193,71.499h17.251c11.402,0,17.981-5.701,17.981-16.52c0-10.672-6.579-16.082-17.981-16.082h-17.251V71.499
			z"/>
		<path d="M858.525,69.452c0,29.824-23.685,52.484-55.407,52.484c-31.578,0-55.263-22.516-55.263-52.484
			c0-29.823,23.685-51.899,55.263-51.899C834.842,17.552,858.525,39.775,858.525,69.452z M774.464,69.599
			c0,17.251,13.304,30.555,28.946,30.555c15.789,0,28.361-13.304,28.361-30.555s-12.572-30.263-28.361-30.263
			S774.464,52.348,774.464,69.599z"/>
		<path d="M918.755,91.966h-0.731h-19.735v28.802h-26.022V18.431h45.76c27.046,0,42.543,12.864,42.543,35.671
			c0,15.644-6.579,26.899-18.566,32.895l21.49,33.771h-29.531L918.755,91.966z M918.023,71.499c11.257,0,17.836-5.701,17.836-16.52
			c0-10.672-6.579-16.082-17.836-16.082h-19.736v32.602H918.023z"/>
		<path d="M1025.475,39.336v81.431h-26.021V39.336h-30.555V18.284h87.424v21.052H1025.475z"/>
		<path d="M1147.105,28.664l-9.796,20.321c-10.817-6.287-24.413-10.672-32.747-10.672c-6.726,0-11.257,2.484-11.257,7.456
			c0,17.688,54.093,7.602,54.093,44.589c0,20.467-18.129,31.285-40.936,31.285c-17.104,0-34.647-6.434-46.782-16.374l10.087-20.028
			c10.526,9.21,26.315,15.351,36.987,15.351c8.188,0,13.304-3.069,13.304-8.918c0-18.128-54.092-7.31-54.092-43.565
			c0-18.859,16.229-30.848,40.788-30.848C1121.521,17.26,1136.58,21.793,1147.105,28.664z"/>
	</g>
	<g>
		<rect x="46.37" y="0" width="46.368" height="46.369"/>
		<rect x="92.738" y="46.369" width="46.37" height="46.37"/>
		<rect y="46.369" width="46.37" height="46.37"/>
		<rect x="46.37" y="92.739" width="46.368" height="46.368"/>
	</g>
</g>
</svg>
