<?xml version="1.0" encoding="utf-8"?>
<!-- Generator: Adobe Illustrator 16.0.0, SVG Export Plug-In . SVG Version: 6.00 Build 0)  -->
<!DOCTYPE svg PUBLIC "-//W3C//DTD SVG 1.1//EN" "http://www.w3.org/Graphics/SVG/1.1/DTD/svg11.dtd">
<svg version="1.1" id="Layer_1" xmlns="http://www.w3.org/2000/svg" xmlns:xlink="http://www.w3.org/1999/xlink" x="0px" y="0px"
	 width="1148.86px" height="139.107px" viewBox="0 0 1148.86 139.107" enable-background="new 0 0 1148.86 139.107"
	 xml:space="preserve">
<g>
	<g>
		<path d="M284.871,120.767l-0.146-66.519l-24.561,56.285h-16.958l-24.561-56.285v66.519h-23.245V18.284h28.508l27.777,60.963
			l27.777-60.963h28.362v102.482H284.871z"/>
		<path d="M376.823,18.431c22.953,0,37.572,9.941,37.572,25.584c0,10.818-6.725,19.443-17.543,22.514
			c12.865,2.485,21.052,12.573,21.052,25.877c0,17.396-15.204,28.361-39.326,28.361h-50.145V18.431H376.823z M354.309,59.365h21.052
			c7.602,0,12.426-4.094,12.426-10.672c0-6.579-4.824-10.38-12.426-10.38h-21.052V59.365z M354.309,100.738h21.052
			c9.649,0,15.643-4.24,15.643-11.55c0-6.871-5.994-11.11-15.643-11.11h-21.052V100.738z"/>
		<path d="M512.636,28.664l-9.795,20.321c-10.818-6.287-24.415-10.672-32.748-10.672c-6.725,0-11.257,2.485-11.257,7.456
			c0,17.689,54.092,7.602,54.092,44.589c0,20.467-18.128,31.285-40.935,31.285c-17.105,0-34.648-6.433-46.782-16.374l10.087-20.028
			c10.526,9.21,26.315,15.351,36.987,15.351c8.187,0,13.304-3.07,13.304-8.918c0-18.128-54.092-7.31-54.092-43.566
			c0-18.859,16.228-30.847,40.789-30.847C487.052,17.261,502.11,21.793,512.636,28.664z"/>
		<path d="M587.046,38.897v20.321h48.829v20.467h-48.829V100.3h55.7v20.467h-81.723V18.431h80.115v20.467H587.046z"/>
		<path d="M688.942,120.767L649.177,18.431h27.777l26.169,75.29l26.169-75.29h26.753l-40.203,102.336H688.942z"/>
		<path d="M792.151,38.897v20.321h48.829v20.467h-48.829V100.3h55.7v20.467h-81.723V18.431h80.115v20.467H792.151z"/>
		<path d="M936.151,120.767l-47.074-63.01v63.01h-24.415V18.431h22.953l47.221,63.156V18.431h24.268v102.336H936.151z"/>
		<path d="M1026.936,39.336v81.43h-26.022v-81.43h-30.555V18.284h87.424v21.052H1026.936z"/>
		<path d="M1148.567,28.664l-9.795,20.321c-10.818-6.287-24.414-10.672-32.747-10.672c-6.726,0-11.257,2.485-11.257,7.456
			c0,17.689,54.092,7.602,54.092,44.589c0,20.467-18.128,31.285-40.935,31.285c-17.104,0-34.648-6.433-46.782-16.374l10.087-20.028
			c10.526,9.21,26.315,15.351,36.987,15.351c8.188,0,13.304-3.07,13.304-8.918c0-18.128-54.092-7.31-54.092-43.566
			c0-18.859,16.228-30.847,40.788-30.847C1122.983,17.261,1138.042,21.793,1148.567,28.664z"/>
	</g>
	<g>
		<rect x="46.37" fill="#0000FF" width="46.368" height="46.369"/>
		<rect x="92.738" y="46.369" fill="#FF0000" width="46.37" height="46.37"/>
		<rect y="46.369" fill="#00FF00" width="46.37" height="46.37"/>
		<rect x="46.37" y="92.739" fill="#FFFF00" width="46.368" height="46.368"/>
	</g>
</g>
</svg>
