<?xml version="1.0" encoding="utf-8"?>
<!-- Generator: Adobe Illustrator 16.0.0, SVG Export Plug-In . SVG Version: 6.00 Build 0)  -->
<!DOCTYPE svg PUBLIC "-//W3C//DTD SVG 1.1//EN" "http://www.w3.org/Graphics/SVG/1.1/DTD/svg11.dtd">
<svg version="1.1" id="Layer_1" xmlns="http://www.w3.org/2000/svg" xmlns:xlink="http://www.w3.org/1999/xlink" x="0px" y="0px"
	 width="1211.283px" height="139.107px" viewBox="0 0 1211.283 139.107" enable-background="new 0 0 1211.283 139.107"
	 xml:space="preserve">
<g>
	<g>
		<path fill="#FFFFFF" d="M284.871,120.767l-0.146-66.52l-24.561,56.285h-16.958l-24.561-56.285v66.52H195.4V18.284h28.508
			l27.777,60.963l27.777-60.963h28.362v102.482L284.871,120.767L284.871,120.767z"/>
		<path fill="#FFFFFF" d="M376.823,18.431c22.953,0,37.571,9.94,37.571,25.584c0,10.817-6.725,19.442-17.543,22.514
			c12.865,2.485,21.053,12.573,21.053,25.877c0,17.396-15.204,28.361-39.326,28.361h-50.145V18.431H376.823z M354.309,59.365h21.052
			c7.602,0,12.426-4.094,12.426-10.672c0-6.579-4.824-10.38-12.426-10.38h-21.052V59.365z M354.309,100.738h21.052
			c9.649,0,15.643-4.24,15.643-11.55c0-6.871-5.994-11.11-15.643-11.11h-21.052V100.738z"/>
		<path fill="#FFFFFF" d="M512.636,28.664l-9.795,20.321c-10.817-6.287-24.415-10.672-32.748-10.672
			c-6.725,0-11.257,2.484-11.257,7.456c0,17.688,54.092,7.602,54.092,44.589c0,20.467-18.128,31.285-40.935,31.285
			c-17.105,0-34.648-6.434-46.782-16.374l10.087-20.028c10.526,9.21,26.315,15.351,36.987,15.351c8.187,0,13.304-3.069,13.304-8.918
			c0-18.128-54.092-7.31-54.092-43.565c0-18.859,16.228-30.848,40.789-30.848C487.052,17.26,502.11,21.793,512.636,28.664z"/>
		<path fill="#FFFFFF" d="M640.699,28.664l-9.795,20.321c-10.818-6.287-24.414-10.672-32.747-10.672
			c-6.727,0-11.257,2.484-11.257,7.456c0,17.688,54.092,7.602,54.092,44.589c0,20.467-18.128,31.285-40.936,31.285
			c-17.104,0-34.647-6.434-46.781-16.374l10.087-20.028c10.525,9.21,26.314,15.351,36.986,15.351c8.188,0,13.305-3.069,13.305-8.918
			c0-18.128-54.093-7.31-54.093-43.565c0-18.859,16.229-30.848,40.788-30.848C615.115,17.26,630.174,21.793,640.699,28.664z"/>
		<path fill="#FFFFFF" d="M702.538,39.336v81.431h-26.022V39.336h-30.555V18.284h87.424v21.052H702.538z"/>
		<path fill="#FFFFFF" d="M836.596,77.785c0,27.046-17.98,44.151-46.636,44.151c-28.801,0-47.221-17.105-47.221-44.151V18.431
			h26.021v59.354c0,13.889,8.918,22.368,21.345,22.368c12.28,0,20.613-8.479,20.613-22.368V18.431h25.876L836.596,77.785
			L836.596,77.785z"/>
		<path fill="#FFFFFF" d="M899.313,18.431c32.162,0,54.384,20.759,54.384,51.168c0,30.262-22.515,51.168-55.407,51.168h-42.981
			V18.431H899.313z M881.329,100.007h18.567c15.935,0,27.338-12.279,27.338-30.262c0-18.129-11.987-30.555-28.508-30.555h-17.397
			V100.007L881.329,100.007z"/>
		<path fill="#FFFFFF" d="M967.436,120.767V18.431h26.022v102.336H967.436z"/>
		<path fill="#FFFFFF" d="M1117.868,69.452c0,29.824-23.685,52.484-55.407,52.484c-31.578,0-55.262-22.516-55.262-52.484
			c0-29.823,23.684-51.899,55.262-51.899C1094.186,17.552,1117.868,39.775,1117.868,69.452z M1033.807,69.599
			c0,17.251,13.305,30.555,28.946,30.555c15.789,0,28.361-13.304,28.361-30.555s-12.572-30.263-28.361-30.263
			S1033.807,52.348,1033.807,69.599z"/>
		<path fill="#FFFFFF" d="M1211.283,28.664l-9.795,20.321c-10.818-6.287-24.414-10.672-32.747-10.672
			c-6.727,0-11.257,2.484-11.257,7.456c0,17.688,54.092,7.602,54.092,44.589c0,20.467-18.128,31.285-40.936,31.285
			c-17.104,0-34.647-6.434-46.781-16.374l10.087-20.028c10.525,9.21,26.314,15.351,36.987,15.351c8.188,0,13.304-3.069,13.304-8.918
			c0-18.128-54.093-7.31-54.093-43.565c0-18.859,16.229-30.848,40.788-30.848C1185.699,17.26,1200.758,21.793,1211.283,28.664z"/>
	</g>
	<g>
		<rect x="46.37" y="0" fill="#FFFFFF" width="46.368" height="46.369"/>
		<rect x="92.738" y="46.369" fill="#FFFFFF" width="46.37" height="46.37"/>
		<rect y="46.369" fill="#FFFFFF" width="46.37" height="46.37"/>
		<rect x="46.37" y="92.739" fill="#FFFFFF" width="46.368" height="46.368"/>
	</g>
</g>
</svg>
