<?xml version="1.0" encoding="utf-8"?>
<!-- Generator: Adobe Illustrator 16.0.0, SVG Export Plug-In . SVG Version: 6.00 Build 0)  -->
<!DOCTYPE svg PUBLIC "-//W3C//DTD SVG 1.1//EN" "http://www.w3.org/Graphics/SVG/1.1/DTD/svg11.dtd">
<svg version="1.1" id="Layer_1" xmlns="http://www.w3.org/2000/svg" xmlns:xlink="http://www.w3.org/1999/xlink" x="0px" y="0px"
	 width="1211.283px" height="139.107px" viewBox="0 0 1211.283 139.107" enable-background="new 0 0 1211.283 139.107"
	 xml:space="preserve">
<g>
	<g>
		<path d="M284.871,120.767l-0.146-66.519l-24.561,56.285h-16.958l-24.561-56.285v66.519h-23.245V18.284h28.508l27.777,60.963
			l27.777-60.963h28.362v102.482H284.871z"/>
		<path d="M376.823,18.431c22.953,0,37.572,9.941,37.572,25.584c0,10.818-6.725,19.443-17.543,22.514
			c12.865,2.485,21.052,12.573,21.052,25.877c0,17.396-15.204,28.361-39.326,28.361h-50.145V18.431H376.823z M354.309,59.365h21.052
			c7.602,0,12.426-4.094,12.426-10.672c0-6.579-4.824-10.38-12.426-10.38h-21.052V59.365z M354.309,100.738h21.052
			c9.649,0,15.643-4.24,15.643-11.55c0-6.871-5.994-11.11-15.643-11.11h-21.052V100.738z"/>
		<path d="M512.636,28.664l-9.795,20.321c-10.818-6.287-24.415-10.672-32.748-10.672c-6.725,0-11.257,2.485-11.257,7.456
			c0,17.689,54.092,7.602,54.092,44.589c0,20.467-18.128,31.285-40.935,31.285c-17.105,0-34.648-6.433-46.782-16.374l10.087-20.028
			c10.526,9.21,26.315,15.351,36.987,15.351c8.187,0,13.304-3.07,13.304-8.918c0-18.128-54.092-7.31-54.092-43.566
			c0-18.859,16.228-30.847,40.789-30.847C487.052,17.261,502.11,21.793,512.636,28.664z"/>
		<path d="M640.699,28.664l-9.795,20.321c-10.818-6.287-24.414-10.672-32.747-10.672c-6.726,0-11.257,2.485-11.257,7.456
			c0,17.689,54.092,7.602,54.092,44.589c0,20.467-18.128,31.285-40.935,31.285c-17.104,0-34.648-6.433-46.782-16.374l10.087-20.028
			c10.526,9.21,26.315,15.351,36.987,15.351c8.188,0,13.304-3.07,13.304-8.918c0-18.128-54.092-7.31-54.092-43.566
			c0-18.859,16.228-30.847,40.788-30.847C615.115,17.261,630.174,21.793,640.699,28.664z"/>
		<path d="M702.538,39.336v81.43h-26.022v-81.43h-30.555V18.284h87.424v21.052H702.538z"/>
		<path d="M836.596,77.785c0,27.046-17.981,44.151-46.636,44.151c-28.801,0-47.221-17.105-47.221-44.151V18.431h26.022v59.354
			c0,13.889,8.918,22.368,21.345,22.368c12.28,0,20.613-8.479,20.613-22.368V18.431h25.876V77.785z"/>
		<path d="M899.312,18.431c32.163,0,54.384,20.759,54.384,51.168c0,30.262-22.514,51.168-55.407,51.168h-42.981V18.431H899.312z
			 M881.329,100.007h18.567c15.935,0,27.338-12.28,27.338-30.262c0-18.129-11.987-30.555-28.508-30.555h-17.397V100.007z"/>
		<path d="M967.436,120.767V18.431h26.022v102.336H967.436z"/>
		<path d="M1117.868,69.452c0,29.824-23.684,52.484-55.407,52.484c-31.578,0-55.262-22.515-55.262-52.484
			c0-29.823,23.684-51.899,55.262-51.899C1094.185,17.553,1117.868,39.775,1117.868,69.452z M1033.807,69.599
			c0,17.251,13.304,30.555,28.946,30.555c15.789,0,28.361-13.304,28.361-30.555s-12.572-30.262-28.361-30.262
			S1033.807,52.348,1033.807,69.599z"/>
		<path d="M1211.283,28.664l-9.795,20.321c-10.818-6.287-24.414-10.672-32.747-10.672c-6.726,0-11.257,2.485-11.257,7.456
			c0,17.689,54.092,7.602,54.092,44.589c0,20.467-18.128,31.285-40.935,31.285c-17.104,0-34.648-6.433-46.782-16.374l10.087-20.028
			c10.526,9.21,26.315,15.351,36.987,15.351c8.188,0,13.304-3.07,13.304-8.918c0-18.128-54.092-7.31-54.092-43.566
			c0-18.859,16.228-30.847,40.788-30.847C1185.699,17.261,1200.758,21.793,1211.283,28.664z"/>
	</g>
	<g>
		<rect x="46.37" fill="#0000FF" width="46.368" height="46.369"/>
		<rect x="92.738" y="46.369" fill="#FF0000" width="46.37" height="46.37"/>
		<rect y="46.369" fill="#00FF00" width="46.37" height="46.37"/>
		<rect x="46.37" y="92.739" fill="#FFFF00" width="46.368" height="46.368"/>
	</g>
</g>
</svg>
