<?xml version="1.0" encoding="utf-8"?>
<!-- Generator: Adobe Illustrator 16.0.0, SVG Export Plug-In . SVG Version: 6.00 Build 0)  -->
<!DOCTYPE svg PUBLIC "-//W3C//DTD SVG 1.1//EN" "http://www.w3.org/Graphics/SVG/1.1/DTD/svg11.dtd">
<svg version="1.1" id="Layer_1" xmlns="http://www.w3.org/2000/svg" xmlns:xlink="http://www.w3.org/1999/xlink" x="0px" y="0px"
	 width="24.568px" height="24.568px" viewBox="0 0 24.568 24.568" enable-background="new 0 0 24.568 24.568" xml:space="preserve">
<g>
	<path fill="#4D4D4D" d="M24.568,18.593c0,3.286-2.688,5.976-5.975,5.976H5.975C2.688,24.568,0,21.879,0,18.593V5.974
		C0,2.688,2.688,0,5.975,0h12.619c3.286,0,5.975,2.688,5.975,5.974V18.593L24.568,18.593z"/>
</g>
<g id="Bus_1_">
	<path fill="#FFFFFF" d="M18.202,6.623c-0.177-0.886-0.743-1.238-1.593-1.593c-0.837-0.349-2.844-0.766-4.325-0.778
		c-1.48,0.013-3.487,0.43-4.325,0.778c-0.85,0.354-1.416,0.707-1.593,1.593l-0.637,4.905v6.759h1.097v1.061
		c0,1.292,1.891,1.292,1.891,0v-1.061h3.492h0.011h3.63v1.061c0,1.292,1.891,1.292,1.891,0v-1.061h1.097v-6.759L18.202,6.623z
		 M9.587,5.49h2.634h2.761c0.531,0,0.531,0.797,0,0.797h-2.768H9.587C9.057,6.287,9.057,5.49,9.587,5.49z M7.773,16.169
		c-0.501,0-0.907-0.406-0.907-0.907s0.406-0.908,0.907-0.908c0.501,0,0.907,0.407,0.907,0.908S8.274,16.169,7.773,16.169z
		 M12.221,12.045H7.408c-0.471,0-0.57-0.338-0.523-0.679l0.496-3.558c0.067-0.433,0.214-0.717,0.775-0.717h4.058h4.198
		c0.562,0,0.708,0.284,0.775,0.717l0.496,3.558c0.046,0.341-0.052,0.679-0.523,0.679H12.221z M16.795,16.169
		c-0.501,0-0.907-0.406-0.907-0.907s0.406-0.908,0.907-0.908s0.907,0.407,0.907,0.908S17.296,16.169,16.795,16.169z"/>
</g>
</svg>
