<?xml version="1.0" encoding="utf-8"?>
<!-- Generator: Adobe Illustrator 16.0.0, SVG Export Plug-In . SVG Version: 6.00 Build 0)  -->
<!DOCTYPE svg PUBLIC "-//W3C//DTD SVG 1.1//EN" "http://www.w3.org/Graphics/SVG/1.1/DTD/svg11.dtd">
<svg version="1.1" id="Layer_1" xmlns="http://www.w3.org/2000/svg" xmlns:xlink="http://www.w3.org/1999/xlink" x="0px" y="0px"
	 width="24.568px" height="24.568px" viewBox="0 0 24.568 24.568" enable-background="new 0 0 24.568 24.568" xml:space="preserve">
<g>
	<path fill="#4D4D4D" d="M24.568,18.593c0,3.286-2.688,5.976-5.975,5.976H5.975C2.688,24.568,0,21.879,0,18.593V5.974
		C0,2.688,2.688,0,5.975,0h12.619c3.286,0,5.975,2.688,5.975,5.974V18.593L24.568,18.593z"/>
</g>
<g>
	<path fill="#FFFFFF" d="M13.292,7.65h-2.016c-0.206,0-0.374,0.168-0.374,0.374v8.919c0,0.206,0.168,0.373,0.374,0.373h2.016
		c0.206,0,0.374-0.167,0.374-0.373V8.024C13.666,7.818,13.498,7.65,13.292,7.65z M13.181,11.92c0,0.293-0.238,0.531-0.532,0.531
		h-0.729c-0.293,0-0.532-0.238-0.532-0.531V9.364c0-0.294,0.238-0.531,0.532-0.531h0.729c0.293,0,0.532,0.237,0.532,0.531V11.92z"/>
	<path fill="#FFFFFF" d="M18.59,6.809c0-0.664-0.664-1.329-1.327-1.329l-4.979-0.663L7.306,5.479c-0.664,0-1.328,0.665-1.328,1.329
		l-0.996,8.629l0.664,2.655c0.221,1.106,0.664,1.659,1.328,1.659H7.97v-0.497H16.6v0.497h0.995c0.664,0,1.106-0.553,1.328-1.659
		l0.664-2.655L18.59,6.809z M7.396,17.328c-0.416,0-0.753-0.336-0.753-0.752s0.337-0.753,0.753-0.753s0.753,0.337,0.753,0.753
		S7.811,17.328,7.396,17.328z M9.298,14.011c0,0.354-0.166,0.531-0.498,0.531H6.443c-0.333,0-0.498-0.178-0.498-0.531l0.631-6.206
		C6.62,7.449,6.796,7.272,7.106,7.272H8.8c0.332,0,0.498,0.177,0.498,0.532V14.011L9.298,14.011z M14.289,17.565
		c0,0.205-0.169,0.374-0.375,0.374h-3.26c-0.206,0-0.374-0.169-0.374-0.374V7.401c0-0.206,0.168-0.373,0.374-0.373h3.26
		c0.205,0,0.375,0.167,0.375,0.373V17.565z M17.173,17.328c-0.416,0-0.753-0.336-0.753-0.752s0.337-0.753,0.753-0.753
		c0.417,0,0.754,0.337,0.754,0.753S17.589,17.328,17.173,17.328z M18.125,14.542H15.77c-0.333,0-0.498-0.178-0.498-0.531V7.805
		c0-0.355,0.166-0.532,0.498-0.532h1.692c0.31,0,0.487,0.177,0.531,0.532l0.631,6.206C18.624,14.364,18.458,14.542,18.125,14.542z"
		/>
</g>
</svg>
