<?xml version="1.0" encoding="utf-8"?>
<!-- Generator: Adobe Illustrator 16.0.0, SVG Export Plug-In . SVG Version: 6.00 Build 0)  -->
<!DOCTYPE svg PUBLIC "-//W3C//DTD SVG 1.1//EN" "http://www.w3.org/Graphics/SVG/1.1/DTD/svg11.dtd">
<svg version="1.1" id="Layer_1" xmlns="http://www.w3.org/2000/svg" xmlns:xlink="http://www.w3.org/1999/xlink" x="0px" y="0px"
	 width="24.568px" height="24.568px" viewBox="0 0 24.568 24.568" enable-background="new 0 0 24.568 24.568" xml:space="preserve">
<g>
	<path fill="#4D4D4D" d="M24.568,18.593c0,3.286-2.688,5.976-5.975,5.976H5.975C2.688,24.568,0,21.879,0,18.593V5.974
		C0,2.688,2.688,0,5.975,0h12.619c3.286,0,5.975,2.688,5.975,5.974V18.593L24.568,18.593z"/>
</g>
<path fill="#FFFFFF" d="M7.868,16.69l-2.739-1.498l0.899-0.897l2.139,0.299l3.337-3.338L4.83,7.621l1.198-1.198l8.171,2.095
	l3.357-3.314C17.8,4.961,18.103,4.84,18.466,4.84c0.364,0,0.667,0.122,0.909,0.363c0.243,0.242,0.363,0.545,0.363,0.908
	c0,0.365-0.12,0.667-0.363,0.91l-3.336,3.338l2.095,8.17l-1.197,1.199L13.3,13.054l-3.337,3.337l0.3,2.139l-0.898,0.898L7.868,16.69
	z"/>
</svg>
