<?xml version="1.0" encoding="utf-8"?>
<!-- Generator: Adobe Illustrator 16.0.0, SVG Export Plug-In . SVG Version: 6.00 Build 0)  -->
<!DOCTYPE svg PUBLIC "-//W3C//DTD SVG 1.1//EN" "http://www.w3.org/Graphics/SVG/1.1/DTD/svg11.dtd">
<svg version="1.1" id="Layer_1" xmlns="http://www.w3.org/2000/svg" xmlns:xlink="http://www.w3.org/1999/xlink" x="0px" y="0px"
	 width="24.568px" height="24.568px" viewBox="0 0 24.568 24.568" enable-background="new 0 0 24.568 24.568" xml:space="preserve">
<g>
	<path fill="#4D4D4D" d="M24.568,18.593c0,3.286-2.688,5.976-5.975,5.976H5.975C2.688,24.568,0,21.879,0,18.593V5.974
		C0,2.688,2.688,0,5.975,0h12.619c3.286,0,5.975,2.688,5.975,5.974V18.593L24.568,18.593z"/>
</g>
<path fill="#FFFFFF" d="M4.714,15.297l-2.642-3.639h2.642l1.623-2.102c0,0,0.074-0.061,0.225-0.168
	C6.717,9.28,7.011,9.264,7.011,9.264h2.102V8.525h0.954l0.536-1.252h0.69l-0.276,0.695l0.393,0.557h2.516v0.738h4.1
	c0,0,0.362,0,0.591,0.193c0.311,0.259,0.35,0.467,0.35,0.467l0.665,1.734h1.471l1.395,3.639c0,0-1.614-0.992-4.195-0.863
	c-2.102,0.125-2.922,0.847-5.317,0.847c-1.308,0-3.258-0.657-4.761-0.683C7.118,14.58,5.318,15.051,4.714,15.297 M5.867,16.954
	c0.88-0.216,2.085-0.578,4.199-0.134c1.044,0.216,2.034,0.448,3.004,0.475c1.264,0.004,1.963-0.215,2.944-0.457
	c0.88-0.229,1.907-0.419,2.684-0.41c1.355,0.021,2.391,0.237,2.964,0.491l-0.414-1.122c-1.122-0.38-3.034-0.6-5.235,0.031
	c-0.928,0.284-1.887,0.471-2.866,0.457c-0.884-0.018-1.735-0.151-2.606-0.342c-2.789-0.646-3.846-0.206-5.262,0.169L5.867,16.954z
	 M5.841,11.658h2.585v-1.575h-1.01c0,0-0.207,0.025-0.444,0.178c-0.143,0.085-0.428,0.474-0.428,0.474L5.841,11.658z M12.474,11.658
	h2.684v-1.575h-2.684V11.658z M18.184,10.468c0,0-0.069-0.173-0.181-0.255c-0.151-0.104-0.289-0.13-0.289-0.13H15.84v1.575h2.797
	L18.184,10.468z M9.112,11.658h2.702l-0.008-1.575H9.112V11.658z"/>
</svg>
