<?xml version="1.0" encoding="utf-8"?>
<!-- Generator: Adobe Illustrator 16.0.0, SVG Export Plug-In . SVG Version: 6.00 Build 0)  -->
<!DOCTYPE svg PUBLIC "-//W3C//DTD SVG 1.1//EN" "http://www.w3.org/Graphics/SVG/1.1/DTD/svg11.dtd">
<svg version="1.1" id="Layer_1" xmlns="http://www.w3.org/2000/svg" xmlns:xlink="http://www.w3.org/1999/xlink" x="0px" y="0px"
	 width="24.568px" height="24.568px" viewBox="0 0 24.568 24.568" enable-background="new 0 0 24.568 24.568" xml:space="preserve">
<g>
	<path fill="#4D4D4D" d="M24.568,18.593c0,3.286-2.688,5.977-5.976,5.977H5.975C2.688,24.568,0,21.879,0,18.593V5.974
		C0,2.688,2.688,0,5.975,0h12.618c3.286,0,5.976,2.688,5.976,5.975L24.568,18.593L24.568,18.593z"/>
</g>
<g>
	<path fill="#FFFFFF" d="M11.442,2.841c0.369,0,0.666,0.299,0.666,0.667c0,0.367-0.297,0.667-0.666,0.667
		c-0.368,0-0.666-0.299-0.666-0.667C10.777,3.139,11.075,2.841,11.442,2.841z"/>
	<path fill="#FFFFFF" d="M13.161,2.841c0.367,0,0.666,0.299,0.666,0.667c0,0.367-0.299,0.667-0.666,0.667
		c-0.369,0-0.667-0.299-0.667-0.667C12.496,3.139,12.793,2.841,13.161,2.841z"/>
	<path fill="#FFFFFF" d="M15.264,4.383h-5.96c-1.26,0-2.279,1.021-2.279,2.278v8.417c0,1.26,1.02,2.279,2.279,2.279h5.96
		c1.26,0,2.279-1.02,2.279-2.279V6.661C17.544,5.404,16.524,4.383,15.264,4.383z M10.777,5.26c0-0.212,0.172-0.386,0.386-0.386
		h2.279c0.213,0,0.386,0.174,0.386,0.386v0.666c0,0.213-0.173,0.384-0.386,0.384h-2.279c-0.213,0-0.386-0.172-0.386-0.384V5.26z
		 M9.339,16.13c-0.58,0-1.053-0.471-1.053-1.052s0.472-1.052,1.053-1.052c0.581,0,1.052,0.471,1.052,1.052S9.92,16.13,9.339,16.13z
		 M15.229,16.13c-0.581,0-1.051-0.471-1.051-1.052s0.47-1.052,1.051-1.052c0.58,0,1.053,0.471,1.053,1.052S15.81,16.13,15.229,16.13
		z M16.316,9.468c0,0.659-0.532,1.192-1.191,1.192H9.479c-0.658,0-1.191-0.533-1.191-1.192V7.96c0-0.658,0.533-1.193,1.191-1.193
		h5.646c0.658,0,1.191,0.535,1.191,1.193V9.468z"/>
	<polygon fill="#FFFFFF" points="17.16,21.728 15.033,18.571 9.534,18.571 7.408,21.728 6.361,21.02 8.863,17.307 15.706,17.307 
		18.208,21.02 	"/>
</g>
</svg>
