<?xml version="1.0" encoding="utf-8"?>
<!-- Generator: Adobe Illustrator 16.0.0, SVG Export Plug-In . SVG Version: 6.00 Build 0)  -->
<!DOCTYPE svg PUBLIC "-//W3C//DTD SVG 1.1//EN" "http://www.w3.org/Graphics/SVG/1.1/DTD/svg11.dtd">
<svg version="1.1" id="svg" xmlns="http://www.w3.org/2000/svg" xmlns:xlink="http://www.w3.org/1999/xlink" x="0px" y="0px"
	 width="369.754px" height="278.142px" viewBox="11.879 29.694 369.754 278.142"
	 enable-background="new 11.879 29.694 369.754 278.142" xml:space="preserve">
<g id="svgg">
	<path id="path0" fill="#4D4D4D" d="M78.401,30.001c-5.289,1.853-5.903,8.286-1.03,10.795c1.682,0.867,1.737,0.871,11.518,0.975
		l9.828,0.105l-0.169,0.916c-0.093,0.503-5.045,29.317-11.005,64.029l-10.835,63.114l-3.101,0.57
		c-18.239,3.354-36.35,13.199-44.108,23.975c-9.7,13.471-16.693,36.95-17.448,58.581l-0.172,4.933l1.149-3.062
		c10.227-27.238,36.139-39.353,61.799-28.892c14.915,6.08,25.826,21.438,28.293,39.826l0.427,3.182h65.322h65.32l0.625-2.807
		c6.744-30.314,28.632-47.633,54.666-43.254c18.967,3.191,34.091,19.989,38.638,42.913l0.623,3.146h24.416
		c26.718,0.002,25.799,0.068,27.556-2.02l0.92-1.093v-8.285c0-8.948-0.094-9.534-1.807-11.347c-2.035-2.152-3.08-2.409-9.844-2.418
		l-6.036-0.006v-22.791v-22.789h-33.164c-18.239,0-33.177-0.037-33.192-0.084s-3.423-35.212-7.568-78.146l-7.541-78.061l18.879-0.17
		c17.22-0.155,18.998-0.224,20.234-0.782c4.846-2.185,5.437-8.282,1.025-10.583l-1.36-0.71L200.34,29.703
		C116.557,29.662,79.108,29.754,78.401,30.001 M270.068,42.032c0,0.107,2.525,34.857,5.611,77.222
		c3.088,42.365,5.613,77.481,5.613,78.037v1.008h-23.641h-23.639v-30.701c0-34.662,0.209-32.031-2.699-34.094l-1.439-1.02h-6.516
		h-6.517l-4.255,34.608l-4.255,34.61h-26.445h-26.446v22.113v22.113l-12.299-0.09l-12.3-0.09l-15.596-29.389
		c-8.578-16.163-15.556-29.425-15.507-29.469c0.295-0.264,22.078-11.04,22.316-11.04c0.16,0,1.744,3.329,3.518,7.397
		c3.199,7.334,3.24,7.405,4.728,8.188c4.099,2.152,10.169-1.243,10.173-5.691c0.002-2.078-17.357-41.635-18.64-42.476
		c-2.171-1.422-6.38-0.817-8.666,1.246c-3.079,2.778-3.006,3.736,0.976,12.769c1.794,4.068,3.206,7.452,3.139,7.52
		c-0.184,0.183-22.938,11.728-23.116,11.728c-0.085,0-0.745-1.212-1.467-2.693l-1.314-2.693l9.819-64.654l9.819-64.653h79.521
		C234.283,41.837,270.068,41.924,270.068,42.032 M199.513,63.662c-13.627,2.602-18.846,20.04-8.962,29.946
		c9.591,9.613,26.574,4.882,29.674-8.266C223.23,72.594,212.354,61.209,199.513,63.662 M198.98,106.496
		c-3.013,0.588-5.773,2.278-8.844,5.415c-2.792,2.851-3.7,3.456-26.531,17.664c-13.001,8.091-24.289,15.241-25.083,15.889
		c-6.976,5.688-1.812,14.042,6.096,9.862c1.183-0.626,11.074-6.901,21.98-13.946c10.905-7.045,19.918-12.809,20.026-12.809
		c0.238,0,0.081,1.706-1.436,15.647c-2.397,22.03-3.341,27.299-5.839,32.599l-0.857,1.817l1.343,1.414
		c0.739,0.777,4.518,4.896,8.398,9.152c3.879,4.256,7.202,7.738,7.383,7.738c4.124,0,9.401-8.355,11.333-17.943
		c0.688-3.412,7.337-60.893,7.328-63.35C214.255,109.318,206.939,104.942,198.98,106.496 M157.577,181.207l-6.539,0.101
		l-9.753,12.663c-11.551,14.996-12.714,17.126-12.714,23.295c0,2.648,1.49,6.275,3.254,7.92l0.896,0.835l1.242-1.437
		c0.682-0.789,5.986-7.183,11.785-14.207l10.545-12.77l16.96,0.208c11.14,0.138,16.919,0.093,16.837-0.128
		c-0.068-0.186-3.553-4.027-7.744-8.536l-7.62-8.198l-5.305,0.078C166.503,181.072,161.173,181.152,157.577,181.207
		 M277.551,230.427c-0.281,0.068-1.658,0.31-3.061,0.537c-23.92,3.879-38.02,31.221-27.688,53.689
		c13.376,29.092,55.146,29.629,69.194,0.891c11.003-22.508-1.885-49.135-26.365-54.476
		C287.458,230.595,278.773,230.134,277.551,230.427 M51.559,231.645c-28.046,4.419-41.989,36.183-26.134,59.54
		c18.32,26.99,60.512,19.803,68.76-11.717C101.113,252.992,78.328,227.427,51.559,231.645"/>
</g>
</svg>
