<?xml version="1.0" encoding="utf-8"?>
<!-- Generator: Adobe Illustrator 16.0.0, SVG Export Plug-In . SVG Version: 6.00 Build 0)  -->
<!DOCTYPE svg PUBLIC "-//W3C//DTD SVG 1.1//EN" "http://www.w3.org/Graphics/SVG/1.1/DTD/svg11.dtd">
<svg version="1.1" id="Layer_1" xmlns="http://www.w3.org/2000/svg" xmlns:xlink="http://www.w3.org/1999/xlink" x="0px" y="0px"
	 width="36.357px" height="243.075px" viewBox="0 0 36.357 243.075" enable-background="new 0 0 36.357 243.075"
	 xml:space="preserve">
<circle fill="#4d4d4d" cx="18.177" cy="12.308" r="7.554"/>
<circle fill="#4d4d4d" cx="18.177" cy="32.168" r="7.554"/>
<rect x="18.177" y="19.861" fill="none" width="2.721" height="4.752"/>
<rect x="18.177" y="0" fill="none" width="2.721" height="4.752"/>
<circle fill="#4d4d4d" cx="18.177" cy="52.028" r="7.554"/>
<rect x="18.177" y="39.722" fill="none" width="2.721" height="4.752"/>
<circle fill="#4d4d4d" cx="18.177" cy="71.889" r="7.554"/>
<rect x="18.177" y="59.583" fill="none" width="2.721" height="4.752"/>
<circle fill="#4d4d4d" cx="18.177" cy="91.749" r="7.554"/>
<rect x="18.177" y="79.442" fill="none" width="2.721" height="4.752"/>
<rect x="18.177" y="99.303" fill="none" width="2.721" height="4.752"/>
<circle fill="#4d4d4d" cx="18.177" cy="111.609" r="7.554"/>
<circle fill="#4d4d4d" cx="18.177" cy="131.469" r="7.554"/>
<rect x="18.177" y="119.161" fill="none" width="2.721" height="4.752"/>
<circle fill="#4d4d4d" cx="18.177" cy="151.329" r="7.554"/>
<rect x="18.177" y="139.023" fill="none" width="2.721" height="4.752"/>
<circle fill="#4d4d4d" cx="18.177" cy="171.19" r="7.554"/>
<rect x="18.177" y="158.884" fill="none" width="2.721" height="4.752"/>
<circle fill="#4d4d4d" cx="18.177" cy="191.05" r="7.554"/>
<rect x="18.177" y="178.742" fill="none" width="2.721" height="4.752"/>
<rect x="18.177" y="198.604" fill="none" width="2.721" height="4.752"/>
<circle fill="#4d4d4d" cx="18.177" cy="210.909" r="7.554"/>
<circle fill="#4d4d4d" cx="18.177" cy="230.77" r="7.554"/>
<rect x="18.177" y="218.462" fill="none" width="2.721" height="4.752"/>
<rect x="18.177" y="238.323" fill="none" width="2.721" height="4.752"/>
</svg>
