<?xml version="1.0" encoding="utf-8"?>
<!-- Generator: Adobe Illustrator 16.0.0, SVG Export Plug-In . SVG Version: 6.00 Build 0)  -->
<!DOCTYPE svg PUBLIC "-//W3C//DTD SVG 1.1//EN" "http://www.w3.org/Graphics/SVG/1.1/DTD/svg11.dtd">
<svg version="1.1" id="Layer_1" xmlns="http://www.w3.org/2000/svg" xmlns:xlink="http://www.w3.org/1999/xlink" x="0px" y="0px"
	 width="390.029px" height="389.485px" viewBox="0 0 390.029 389.485" enable-background="new 0 0 390.029 389.485"
	 xml:space="preserve">
<path fill="#4D4D4D" d="M79.468,310.017L7.833,270.839l23.512-23.488l55.957,7.821l87.29-87.301L0,72.748l31.345-31.321
	l213.757,54.809L332.96,9.502C339.314,3.183,347.23,0,356.732,0c9.513,0,17.441,3.183,23.784,9.502
	c6.366,6.342,9.514,14.27,9.514,23.783c0,9.537-3.147,17.441-9.514,23.784l-87.278,87.313l54.809,213.746l-31.321,31.356
	l-95.123-174.591l-87.313,87.29l7.845,55.945l-23.5,23.511L79.468,310.017z"/>
</svg>
