<?xml version="1.0" encoding="utf-8"?>
<!-- Generator: Adobe Illustrator 16.0.0, SVG Export Plug-In . SVG Version: 6.00 Build 0)  -->
<!DOCTYPE svg PUBLIC "-//W3C//DTD SVG 1.1//EN" "http://www.w3.org/Graphics/SVG/1.1/DTD/svg11.dtd">
<svg version="1.1" id="Layer_1" xmlns="http://www.w3.org/2000/svg" xmlns:xlink="http://www.w3.org/1999/xlink" x="0px" y="0px"
	 width="36.357px" height="315.896px" viewBox="0 0 36.357 315.896" enable-background="new 0 0 36.357 315.896"
	 xml:space="preserve">
<path d="M25.799,55.108v-55.11h-15.24v55.11c-6.24,2.88-10.56,9.19-10.56,16.51c0,7.32,4.32,13.63,10.56,16.51v227.77h15.24V88.128
	c6.24-2.88,10.56-9.19,10.56-16.51C36.358,64.298,32.039,57.988,25.799,55.108z M18.179,83.106c-6.343,0-11.484-5.142-11.484-11.484
	c0-6.343,5.142-11.484,11.484-11.484c6.342,0,11.483,5.141,11.483,11.484C29.663,77.964,24.521,83.106,18.179,83.106z"/>
</svg>
