<?xml version="1.0" encoding="utf-8"?>
<!-- Generator: Adobe Illustrator 16.0.0, SVG Export Plug-In . SVG Version: 6.00 Build 0)  -->
<!DOCTYPE svg PUBLIC "-//W3C//DTD SVG 1.1//EN" "http://www.w3.org/Graphics/SVG/1.1/DTD/svg11.dtd">
<svg version="1.1" id="Layer_1" xmlns="http://www.w3.org/2000/svg" xmlns:xlink="http://www.w3.org/1999/xlink" x="0px" y="0px"
	 width="389.408px" height="620.773px" viewBox="0 0 389.408 620.773" enable-background="new 0 0 389.408 620.773"
	 xml:space="preserve">
<g>
	<path fill="#4D4D4D" d="M167.072,0c12.068,0,21.875,9.808,21.875,21.895c0,12.088-9.807,21.913-21.875,21.913
		c-12.125,0-21.914-9.825-21.914-21.913C145.158,9.808,154.947,0,167.072,0z"/>
	<path fill="#4D4D4D" d="M223.541,0c12.068,0,21.895,9.808,21.895,21.895c0,12.088-9.826,21.913-21.895,21.913
		c-12.125,0-21.912-9.825-21.912-21.913C201.629,9.808,211.416,0,223.541,0z"/>
	<path fill="#4D4D4D" d="M292.672,50.704H96.754c-41.379,0-74.916,33.537-74.916,74.916v276.618
		c0,41.378,33.537,74.896,74.916,74.896h195.918c41.379,0,74.916-33.518,74.916-74.896V125.62
		C367.588,84.241,334.051,50.704,292.672,50.704z M145.158,79.532c0-7.008,5.674-12.699,12.662-12.699h74.934
		c6.99,0,12.682,5.691,12.682,12.699v21.895c0,6.989-5.691,12.644-12.682,12.644H157.82c-6.988,0-12.662-5.654-12.662-12.644V79.532
		z M97.885,436.794c-19.076,0-34.574-15.498-34.574-34.556c0-19.114,15.498-34.594,34.574-34.594
		c19.113,0,34.594,15.479,34.594,34.594C132.479,421.296,116.998,436.794,97.885,436.794z M291.541,436.794
		c-19.113,0-34.594-15.498-34.594-34.556c0-19.114,15.48-34.594,34.594-34.594c19.076,0,34.557,15.479,34.557,34.594
		C326.098,421.296,310.617,436.794,291.541,436.794z M327.248,217.832c0,21.635-17.539,39.173-39.191,39.173H102.5
		c-21.635,0-39.189-17.538-39.189-39.173v-49.573c0-21.635,17.555-39.19,39.189-39.19h185.557c21.652,0,39.191,17.556,39.191,39.19
		V217.832z"/>
	<polygon fill="#4D4D4D" points="355,620.773 285.09,516.994 104.318,516.994 34.426,620.773 0,597.564 82.256,475.503 
		307.17,475.503 389.408,597.564 	"/>
</g>
</svg>
