<?xml version="1.0" encoding="utf-8"?>
<!-- Generator: Adobe Illustrator 16.0.0, SVG Export Plug-In . SVG Version: 6.00 Build 0)  -->
<!DOCTYPE svg PUBLIC "-//W3C//DTD SVG 1.1//EN" "http://www.w3.org/Graphics/SVG/1.1/DTD/svg11.dtd">
<svg version="1.1" id="Layer_1" xmlns="http://www.w3.org/2000/svg" xmlns:xlink="http://www.w3.org/1999/xlink" x="0px" y="0px"
	 width="266.541px" height="440.818px" viewBox="0 0 266.541 440.818" enable-background="new 0 0 266.541 440.818"
	 xml:space="preserve">
<path d="M20.504,440.818l57.404-289.097l-36.902,14.356v69.708H0v-96.368l103.537-44.08c4.785-2.053,9.832-3.244,15.127-3.584
	c5.297-0.341,10.332,0.34,15.127,2.052c4.766,1.702,9.291,4.095,13.576,7.169c4.285,3.083,7.768,7.008,10.512,11.793l20.502,32.807
	c8.871,14.347,20.924,26.14,36.143,35.37c15.197,9.221,32.535,13.836,52.018,13.836v41.006c-23.906,0-45.291-4.955-64.072-14.866
	s-34.859-22.556-48.174-37.933l-12.814,63.051l43.049,41.007v153.773h-41.008V307.548l-43.059-32.797l-36.9,166.067H20.504z
	 M153.773,82.013c-11.271,0-20.934-4.015-28.963-12.044c-8.029-8.028-12.043-17.689-12.043-28.963
	c0-11.272,4.014-20.934,12.043-28.962C132.84,4.015,142.502,0,153.773,0c11.273,0,20.943,4.015,28.953,12.044
	c8.049,8.028,12.055,17.689,12.055,28.962c0,11.273-4.006,20.935-12.055,28.963C174.717,77.998,165.047,82.013,153.773,82.013z"/>
</svg>
