<?xml version="1.0" encoding="utf-8"?>
<!-- Generator: Adobe Illustrator 16.0.0, SVG Export Plug-In . SVG Version: 6.00 Build 0)  -->
<!DOCTYPE svg PUBLIC "-//W3C//DTD SVG 1.1//EN" "http://www.w3.org/Graphics/SVG/1.1/DTD/svg11.dtd">
<svg version="1.1" id="Layer_1" xmlns="http://www.w3.org/2000/svg" xmlns:xlink="http://www.w3.org/1999/xlink" x="0px" y="0px"
	 width="2350.449px" height="642.25px" viewBox="0 0 2350.449 642.25" enable-background="new 0 0 2350.449 642.25"
	 xml:space="preserve">
<g>
	<path fill="#FFFFFF" d="M560.288,448.41c-2.142,0-3.924-0.77-5.353-2.319c-1.427-1.544-2.141-3.267-2.141-5.173
		c0-1.188,0.117-2.258,0.357-3.211l84.906-229.39c0.713-2.614,2.141-4.872,4.281-6.778c2.141-1.901,5.112-2.854,8.919-2.854h45.664
		c3.802,0,6.778,0.953,8.918,2.854c2.142,1.906,3.568,4.164,4.281,6.778l84.906,229.39c0.233,0.953,0.356,2.023,0.356,3.211
		c0,1.906-0.713,3.629-2.141,5.173c-1.427,1.55-3.21,2.319-5.352,2.319h-37.102c-3.566,0-6.188-0.831-7.849-2.497
		c-1.667-1.661-2.737-3.211-3.21-4.638l-15.34-39.956H623.789l-15.34,39.956c-0.479,1.427-1.551,2.977-3.211,4.638
		c-1.667,1.667-4.281,2.497-7.849,2.497H560.288z M636.989,355.298h73.847l-36.745-102.744L636.989,355.298z"/>
	<path fill="#FFFFFF" d="M902.057,451.978c-17.363,0-32.643-3.21-45.843-9.632c-13.2-6.421-23.606-15.752-31.215-28.005
		c-7.615-12.247-11.773-26.935-12.486-44.059c-0.239-3.801-0.356-8.618-0.356-14.448c0-5.825,0.117-10.641,0.356-14.448
		c0.713-17.357,4.816-32.164,12.309-44.416c7.491-12.247,17.894-21.583,31.216-28.005c13.316-6.421,28.656-9.632,46.021-9.632
		c15.932,0,29.487,2.202,40.669,6.6c11.177,4.403,20.334,9.933,27.47,16.589c7.135,6.661,12.426,13.618,15.876,20.87
		c3.443,7.258,5.289,13.618,5.528,19.086c0.234,2.38-0.534,4.459-2.318,6.242c-1.783,1.784-3.868,2.676-6.242,2.676h-38.173
		c-2.38,0-4.226-0.652-5.529-1.963c-1.31-1.305-2.559-3.148-3.746-5.529c-3.333-8.322-7.613-14.271-12.843-17.837
		c-5.234-3.567-11.773-5.352-19.622-5.352c-10.702,0-19.146,3.45-25.329,10.347c-6.188,6.9-9.515,17.603-9.989,32.106
		c-0.239,9.275-0.239,17.72,0,25.329c0.713,14.75,4.104,25.452,10.167,32.107c6.065,6.66,14.449,9.988,25.151,9.988
		c8.322,0,14.984-1.784,19.979-5.352s9.152-9.509,12.485-17.837c0.948-2.375,2.142-4.221,3.567-5.529
		c1.427-1.305,3.328-1.962,5.708-1.962h38.173c2.374,0,4.459,0.892,6.242,2.676s2.554,3.869,2.318,6.243
		c-0.238,4.047-1.371,8.802-3.39,14.271c-2.022,5.474-5.233,11.059-9.632,16.767c-4.403,5.708-10.05,11.003-16.945,15.875
		c-6.9,4.877-15.285,8.802-25.15,11.771C926.611,450.489,915.133,451.978,902.057,451.978z"/>
	<path fill="#FFFFFF" d="M1081.14,451.978c-12.607,0-23.9-2.44-33.891-7.313c-9.989-4.872-17.96-11.472-23.902-19.799
		c-5.947-8.322-8.919-17.599-8.919-27.827c0-16.884,6.834-30.201,20.514-39.956c13.674-9.749,31.688-16.411,54.048-19.978
		l46.733-6.778v-6.421c0-9.275-2.141-16.411-6.421-21.405c-4.28-4.995-11.772-7.492-22.476-7.492c-7.85,0-14.153,1.549-18.908,4.638
		c-4.76,3.094-8.443,7.135-11.059,12.129c-1.906,3.094-4.639,4.638-8.206,4.638h-33.892c-2.619,0-4.638-0.77-6.063-2.319
		c-1.428-1.544-2.023-3.389-1.784-5.529c0-4.042,1.544-8.796,4.638-14.271c3.088-5.468,7.85-10.881,14.271-16.232
		c6.421-5.351,14.626-9.811,24.614-13.378c9.989-3.568,22.235-5.352,36.745-5.352c14.983,0,27.827,1.784,38.529,5.352
		c10.702,3.567,19.265,8.562,25.687,14.983s11.177,13.857,14.271,22.297c3.088,8.445,4.638,17.542,4.638,27.292v110.235
		c0,2.62-0.836,4.761-2.496,6.422c-1.668,1.667-3.809,2.497-6.423,2.497h-34.961c-2.381,0-4.403-0.831-6.064-2.497
		c-1.666-1.661-2.497-3.802-2.497-6.422v-13.2c-3.094,4.521-7.258,8.741-12.486,12.665c-5.233,3.924-11.478,7.08-18.729,9.454
		C1099.39,450.785,1090.89,451.978,1081.14,451.978z M1095.41,414.875c7.849,0,14.859-1.661,21.048-4.994
		c6.182-3.328,11.06-8.438,14.627-15.34c3.567-6.896,5.353-15.575,5.353-26.043v-6.064l-33.179,5.352
		c-12.843,2.141-22.241,5.351-28.184,9.632c-5.947,4.281-8.919,9.515-8.919,15.697c0,4.521,1.366,8.444,4.103,11.772
		c2.731,3.333,6.36,5.831,10.882,7.492C1085.655,414.045,1090.416,414.875,1095.41,414.875z"/>
	<path fill="#FFFFFF" d="M1315.877,451.978c-17.364,0-32.643-3.21-45.843-9.632c-13.199-6.421-23.606-15.752-31.216-28.005
		c-7.614-12.247-11.772-26.935-12.486-44.059c-0.239-3.801-0.355-8.618-0.355-14.448c0-5.825,0.116-10.641,0.355-14.448
		c0.714-17.357,4.816-32.164,12.309-44.416c7.491-12.247,17.894-21.583,31.215-28.005c13.317-6.421,28.657-9.632,46.021-9.632
		c15.931,0,29.487,2.202,40.669,6.6c11.177,4.403,20.335,9.933,27.47,16.589c7.137,6.661,12.426,13.618,15.876,20.87
		c3.444,7.258,5.29,13.618,5.529,19.086c0.234,2.38-0.535,4.459-2.318,6.242c-1.784,1.784-3.868,2.676-6.243,2.676h-38.173
		c-2.38,0-4.225-0.652-5.528-1.963c-1.311-1.305-2.56-3.148-3.746-5.529c-3.333-8.322-7.614-14.271-12.844-17.837
		c-5.233-3.567-11.771-5.352-19.62-5.352c-10.703,0-19.147,3.45-25.329,10.347c-6.188,6.9-9.517,17.603-9.989,32.106
		c-0.24,9.275-0.24,17.72,0,25.329c0.713,14.75,4.103,25.452,10.167,32.107c6.064,6.66,14.448,9.988,25.151,9.988
		c8.321,0,14.982-1.784,19.978-5.352s9.153-9.509,12.486-17.837c0.947-2.375,2.141-4.221,3.566-5.529
		c1.428-1.305,3.328-1.962,5.708-1.962h38.173c2.375,0,4.459,0.892,6.243,2.676c1.783,1.784,2.554,3.869,2.318,6.243
		c-0.239,4.047-1.371,8.802-3.389,14.271c-2.023,5.474-5.234,11.059-9.634,16.767c-4.402,5.708-10.05,11.003-16.944,15.875
		c-6.901,4.877-15.284,8.802-25.151,11.771C1340.432,450.489,1328.954,451.978,1315.877,451.978z"/>
	<path fill="#FFFFFF" d="M1447.869,234.36c-2.38,0-4.403-0.831-6.064-2.497c-1.667-1.661-2.496-3.802-2.496-6.421v-28.54
		c0-2.614,0.829-4.816,2.496-6.6c1.661-1.784,3.686-2.675,6.064-2.675h37.459c2.613,0,4.816,0.892,6.6,2.675
		c1.784,1.784,2.676,3.986,2.676,6.6v28.54c0,2.62-0.892,4.76-2.676,6.421c-1.783,1.667-3.984,2.497-6.6,2.497H1447.869z
		 M1448.939,448.41c-2.381,0-4.403-0.831-6.064-2.497c-1.667-1.661-2.497-3.802-2.497-6.422V271.819c0-2.614,0.83-4.755,2.497-6.421
		c1.661-1.661,3.686-2.498,6.064-2.498h35.675c2.614,0,4.755,0.836,6.422,2.498c1.661,1.667,2.497,3.807,2.497,6.421v167.672
		c0,2.62-0.836,4.761-2.497,6.422c-1.667,1.667-3.808,2.497-6.422,2.497H1448.939z"/>
	<path fill="#FFFFFF" d="M1592.705,451.978c-12.608,0-23.901-2.44-33.891-7.313s-17.961-11.472-23.902-19.799
		c-5.948-8.322-8.919-17.599-8.919-27.827c0-16.884,6.834-30.201,20.513-39.956c13.674-9.749,31.689-16.411,54.049-19.978
		l46.733-6.778v-6.421c0-9.275-2.142-16.411-6.421-21.405c-4.281-4.995-11.773-7.492-22.477-7.492
		c-7.849,0-14.152,1.549-18.907,4.638c-4.761,3.094-8.444,7.135-11.06,12.129c-1.906,3.094-4.638,4.638-8.205,4.638h-33.892
		c-2.62,0-4.638-0.77-6.063-2.319c-1.429-1.544-2.023-3.389-1.785-5.529c0-4.042,1.545-8.796,4.639-14.271
		c3.088-5.468,7.849-10.881,14.271-16.232c6.42-5.351,14.625-9.811,24.614-13.378c9.989-3.568,22.235-5.352,36.745-5.352
		c14.982,0,27.827,1.784,38.529,5.352c10.701,3.567,19.265,8.562,25.686,14.983c6.422,6.421,11.178,13.857,14.271,22.297
		c3.088,8.445,4.638,17.542,4.638,27.292v110.235c0,2.62-0.836,4.761-2.497,6.422c-1.667,1.667-3.808,2.497-6.422,2.497h-34.961
		c-2.381,0-4.404-0.831-6.064-2.497c-1.666-1.661-2.498-3.802-2.498-6.422v-13.2c-3.094,4.521-7.258,8.741-12.485,12.665
		c-5.233,3.924-11.478,7.08-18.729,9.454C1610.955,450.785,1602.455,451.978,1592.705,451.978z M1606.977,414.875
		c7.849,0,14.859-1.661,21.047-4.994c6.183-3.328,11.061-8.438,14.627-15.34c3.567-6.896,5.353-15.575,5.353-26.043v-6.064
		l-33.178,5.352c-12.843,2.141-22.241,5.351-28.185,9.632c-5.947,4.281-8.918,9.515-8.918,15.697c0,4.521,1.365,8.444,4.103,11.772
		c2.731,3.333,6.36,5.831,10.881,7.492C1597.221,414.045,1601.98,414.875,1606.977,414.875z"/>
	<path fill="#FFFFFF" d="M1734.33,448.41c-2.141,0-3.924-0.77-5.352-2.319c-1.428-1.544-2.141-3.267-2.141-5.173
		c0-1.188,0.117-2.258,0.355-3.211l84.906-229.39c0.715-2.614,2.142-4.872,4.281-6.778c2.141-1.901,5.111-2.854,8.919-2.854h45.664
		c3.802,0,6.778,0.953,8.919,2.854c2.141,1.906,3.566,4.164,4.28,6.778l84.907,229.39c0.232,0.953,0.355,2.023,0.355,3.211
		c0,1.906-0.714,3.629-2.141,5.173c-1.428,1.55-3.211,2.319-5.353,2.319h-37.103c-3.566,0-6.188-0.831-7.849-2.497
		c-1.667-1.661-2.737-3.211-3.211-4.638l-15.34-39.956h-100.604l-15.34,39.956c-0.479,1.427-1.55,2.977-3.211,4.638
		c-1.666,1.667-4.281,2.497-7.849,2.497H1734.33z M1811.031,355.298h73.848l-36.745-102.744L1811.031,355.298z"/>
	<path fill="#FFFFFF" d="M2003.675,234.36c-2.38,0-4.403-0.831-6.063-2.497c-1.667-1.661-2.497-3.802-2.497-6.421v-28.54
		c0-2.614,0.83-4.816,2.497-6.6c1.66-1.784,3.685-2.675,6.063-2.675h37.459c2.614,0,4.816,0.892,6.601,2.675
		c1.783,1.784,2.676,3.986,2.676,6.6v28.54c0,2.62-0.893,4.76-2.676,6.421c-1.783,1.667-3.985,2.497-6.601,2.497H2003.675z
		 M2004.745,448.41c-2.38,0-4.403-0.831-6.063-2.497c-1.668-1.661-2.498-3.802-2.498-6.422V271.819c0-2.614,0.83-4.755,2.498-6.421
		c1.66-1.661,3.685-2.498,6.063-2.498h35.675c2.614,0,4.755,0.836,6.422,2.498c1.661,1.667,2.497,3.807,2.497,6.421v167.672
		c0,2.62-0.836,4.761-2.497,6.422c-1.666,1.667-3.808,2.497-6.422,2.497H2004.745z"/>
	<path fill="#FFFFFF" d="M2102.49,448.41c-2.38,0-4.403-0.831-6.064-2.497c-1.667-1.661-2.497-3.802-2.497-6.422V271.819
		c0-2.375,0.83-4.459,2.497-6.243c1.661-1.784,3.686-2.676,6.064-2.676h34.962c2.374,0,4.459,0.892,6.243,2.676
		c1.782,1.784,2.676,3.869,2.676,6.243v14.27c5.94-7.369,13.255-13.077,21.938-17.124c8.681-4.042,18.729-6.065,30.146-6.065h15.341
		c2.374,0,4.396,0.836,6.064,2.498c1.66,1.667,2.496,3.807,2.496,6.421V302.5c0,2.62-0.836,4.76-2.496,6.421
		c-1.668,1.667-3.69,2.497-6.064,2.497h-31.395c-10.47,0-18.675,2.916-24.615,8.741c-5.948,5.831-8.919,14.091-8.919,24.794v94.539
		c0,2.62-0.836,4.761-2.497,6.422c-1.667,1.667-3.809,2.497-6.422,2.497L2102.49,448.41L2102.49,448.41z"/>
</g>
<path fill="#FFFFFF" d="M335.001,343.708H238.43l-47.74,120.009c-5.03,12.645,1.246,26.987,13.946,31.873l48.772,18.763
	c12.7,4.888,27.207-1.461,32.237-14.104l63.107-158.634C344.402,342.975,339.783,343.708,335.001,343.708z"/>
<path fill="#FFFFFF" d="M290.633,293.213c-25.511,0-46.383-20.872-46.383-46.383v-70.101h-78.544
	c-19.156,0-34.829,15.673-34.829,34.829v73.562c0,19.156,15.673,34.829,34.829,34.829h157.089c16.371,0,30.189-11.451,33.863-26.736
	H290.633z"/>
<g>
	<path fill="#FFFFFF" d="M494.757,234.624c0,19.156-15.673,34.829-34.829,34.829H302.839c-19.156,0-34.829-15.673-34.829-34.829
		v-73.559c0-19.156,15.673-34.829,34.829-34.829h157.089c19.156,0,34.829,15.673,34.829,34.829V234.624z"/>
</g>
</svg>
