<?xml version="1.0" encoding="utf-8"?>
<!-- Generator: Adobe Illustrator 16.0.0, SVG Export Plug-In . SVG Version: 6.00 Build 0)  -->
<!DOCTYPE svg PUBLIC "-//W3C//DTD SVG 1.1//EN" "http://www.w3.org/Graphics/SVG/1.1/DTD/svg11.dtd">
<svg version="1.1" id="Layer_1" xmlns="http://www.w3.org/2000/svg" xmlns:xlink="http://www.w3.org/1999/xlink" x="0px" y="0px"
	 width="1428px" height="571px" viewBox="0 0 1428 571" enable-background="new 0 0 1428 571" xml:space="preserve">
<g>
	<path fill="#FAA61A" d="M557.921,171.699h56.14v24.06h-56.14c-13.207,0-21.762,4.01-25.664,12.03h81.804v24.06h-81.804
		c3.902,8.02,12.457,12.03,25.664,12.03h56.14v24.06h-56.14c-37.427,0-56.14-16.04-56.14-48.12
		C501.781,187.739,520.494,171.699,557.921,171.699z"/>
	<path fill="#FAA61A" d="M632.661,219.819c0-32.08,18.713-48.12,56.14-48.12h56.14v96.24H688.8
		C651.374,267.938,632.661,251.898,632.661,219.819z M688.8,195.759c-18.714,0-28.07,8.02-28.07,24.06
		c0,16.04,9.356,24.06,28.07,24.06h28.07v-48.12H688.8z"/>
	<path fill="#FAA61A" d="M807.65,171.699h68.17v24.06h-68.17c-10.694,0-16.04,1.337-16.04,4.01v4.01c0,2.674,5.346,4.01,16.04,4.01
		h24.06c29.406,0,44.11,9.357,44.11,28.07v4.01c0,18.714-14.704,28.07-44.11,28.07h-68.17v-24.06h68.17
		c10.693,0,16.04-1.335,16.04-4.01v-4.01c0-2.673-5.347-4.01-16.04-4.01h-24.06c-29.407,0-44.11-9.356-44.11-28.07v-4.01
		C763.541,181.056,778.243,171.699,807.65,171.699z"/>
	<path fill="#FAA61A" d="M950.56,243.878h24.06v24.06h-24.06c-37.427,0-56.14-16.04-56.14-48.12v-64.16h28.07v16.04h52.129v24.06
		H922.49v24.06C922.49,235.858,931.846,243.878,950.56,243.878z"/>
	<path fill="#FAA61A" d="M1049.359,171.699h56.14v24.06h-56.14c-13.206,0-21.762,4.01-25.664,12.03h81.804v24.06h-81.804
		c3.902,8.02,12.458,12.03,25.664,12.03h56.14v24.06h-56.14c-37.427,0-56.14-16.04-56.14-48.12
		C993.22,187.739,1011.933,171.699,1049.359,171.699z"/>
	<path fill="#FAA61A" d="M1180.238,171.699h24.06v24.06h-24.06c-18.714,0-28.069,8.02-28.069,24.06v48.12h-28.07v-48.12
		C1124.099,187.739,1142.812,171.699,1180.238,171.699z"/>
	<path fill="#FAA61A" d="M1250.969,219.819v48.12h-28.07v-48.12c0-32.08,18.713-48.12,56.14-48.12c37.426,0,56.14,16.04,56.14,48.12
		v48.12h-28.069v-48.12c0-16.04-9.357-24.06-28.07-24.06C1260.324,195.759,1250.969,203.779,1250.969,219.819z"/>
	<path fill="#F0731F" d="M501.781,324.841c0-32.08,18.713-48.12,56.14-48.12h56.14v96.24h-56.14
		C520.494,372.96,501.781,356.92,501.781,324.841z M557.921,300.781c-18.714,0-28.07,8.02-28.07,24.06
		c0,16.04,9.356,24.06,28.07,24.06h28.07v-48.12H557.921z"/>
	<path fill="#F0731F" d="M660.73,276.721v96.24h-28.07v-96.24H660.73z"/>
	<path fill="#F0731F" d="M735.47,276.721h24.06v24.06h-24.06c-18.714,0-28.07,8.02-28.07,24.06v48.12h-28.07v-48.12
		C679.331,292.761,698.043,276.721,735.47,276.721z"/>
	<path fill="#F0731F" d="M778.13,324.841v-48.12h28.07v48.12c0,16.04,6.683,24.06,20.05,24.06c13.366,0,20.05-8.02,20.05-24.06
		v-48.12h28.07v48.12c0,16.04,6.683,24.06,20.05,24.06c13.366,0,20.05-8.02,20.05-24.06v-48.12h28.07v48.12
		c0,32.08-16.04,48.12-48.12,48.12c-14.757,0-26.119-3.395-34.085-10.186c-7.967,6.791-19.328,10.186-34.085,10.186
		C794.17,372.96,778.13,356.92,778.13,324.841z"/>
	<path fill="#F0731F" d="M961.14,324.841c0-32.08,18.713-48.12,56.14-48.12h56.14v96.24h-56.14
		C979.853,372.96,961.14,356.92,961.14,324.841z M1017.279,300.781c-18.714,0-28.069,8.02-28.069,24.06
		c0,16.04,9.355,24.06,28.069,24.06h28.07v-48.12H1017.279z"/>
	<path fill="#F0731F" d="M1204.298,389h-28.069v-16.04h-28.07c-37.427,0-56.14-16.04-56.14-48.12v-48.12h28.07v48.12
		c0,16.04,9.355,24.06,28.069,24.06h28.07v-72.18h28.069V389z"/>
	<path fill="#F0731F" d="M1267.008,276.721h68.17v24.06h-68.17c-10.693,0-16.039,1.337-16.039,4.01v4.01
		c0,2.674,5.346,4.01,16.039,4.01h24.061c29.405,0,44.109,9.357,44.109,28.07v4.01c0,18.714-14.704,28.07-44.109,28.07h-68.17V348.9
		h68.17c10.692,0,16.04-1.335,16.04-4.01v-4.01c0-2.673-5.348-4.01-16.04-4.01h-24.061c-29.406,0-44.109-9.356-44.109-28.07v-4.01
		C1222.898,286.078,1237.602,276.721,1267.008,276.721z"/>
</g>
<g>
	<path fill="#2200FF" d="M643.183,402.416v63.708h-16.781v-25.219h-46.98v25.219H562.64v-63.708h16.781v25.218h46.98v-25.218
		H643.183z"/>
	<path fill="#2200FF" d="M675.716,415.684v11.949h47.005v13.271h-47.005v11.949h55.395v13.27h-72.176v-63.708h72.176v13.269H675.716
		z"/>
	<path fill="#2200FF" d="M810.689,452.89v13.271h-63.787v-63.708h16.781v50.438H810.689z"/>
	<path fill="#2200FF" d="M826.455,466.123v-63.708h16.781v63.708H826.455z"/>
	<path fill="#2200FF" d="M965.097,452.89v13.271h-63.786v-63.708h16.781v50.438H965.097z"/>
	<path fill="#2200FF" d="M980.862,466.123v-63.708h16.781v63.708H980.862z"/>
	<path fill="#2200FF" d="M1084.882,402.452v63.708h-17.286l-37.441-41.441v41.441h-16.781v-63.708h17.642l37.086,41.048v-41.048
		H1084.882z"/>
	<path fill="#2200FF" d="M1117.414,415.684v11.949h47.005v13.271h-47.005v11.949h55.395v13.27h-72.176v-63.708h72.176v13.269
		H1117.414z"/>
	<path fill="#2200FF" d="M1188.287,421.53c-0.112-3.948,1.586-11.369,13.529-16.705c6.85-3.061,15.855-4.887,25.338-5.042
		c4.512-0.091,8.98,0.233,13.239,0.938c9.609,1.586,18.691,5.704,26.37,11.879c0.838,0.673,1.587,1.327,2.15,1.911l-14.563,7.132
		c-0.858-0.712-10.651-8.294-27.729-7.771c-10.36,0.318-20.827,2.74-20.693,7.387c0.18,6.25,19.465,5.754,26.161,6.103
		c27.712,1.443,36.635,10.02,36.911,19.63c0.261,9.079-9.238,20.838-38.866,21.747c-25.648,0.786-41.152-10.8-44.457-14.653
		l14.501-7.075c4.133,4.48,16.855,7.855,30.481,7.437c12.972-0.397,20.807-3.435,20.699-7.183
		c-0.102-3.537-3.247-6.993-26.164-6.738C1201.101,440.794,1188.563,431.108,1188.287,421.53z"/>
</g>
<path fill="#FAA61A" d="M324.072,430.835c-82.359,19.03-128.03-1.066-128.03-1.066c-134.732-64.257-54.584-200.025-54.584-200.025
	c74.966-131.623,224.185-87.703,224.185-87.703l0,0l8.66-60.157c0,0-136.114-38.001-244.591,67.366
	c0,0-107.44,92.585-67.711,229.045c0,0,34.547,153.733,253.573,111.586L324.072,430.835L324.072,430.835z"/>
<path fill="#FAA61A" d="M359.973,420.539l9.425-64.009c-40.489,27.637-93.083,29.241-93.083,29.241
	c-86.615,0.939-92.143-71.609-92.143-71.609h148.329l7.601-55.745H192.021c74.842-127.601,198.187-43.141,198.187-43.141
	l9.314-63.263l84.985,134.179L359.973,420.539z"/>
</svg>
