<?xml version="1.0" encoding="utf-8"?>
<!-- Generator: Adobe Illustrator 16.0.0, SVG Export Plug-In . SVG Version: 6.00 Build 0)  -->
<!DOCTYPE svg PUBLIC "-//W3C//DTD SVG 1.1//EN" "http://www.w3.org/Graphics/SVG/1.1/DTD/svg11.dtd">
<svg version="1.1" id="Layer_1" xmlns="http://www.w3.org/2000/svg" xmlns:xlink="http://www.w3.org/1999/xlink" x="0px" y="0px"
	 width="1281.992px" height="421.984px" viewBox="0 0 1281.992 421.984" enable-background="new 0 0 1281.992 421.984"
	 xml:space="preserve">
<g>
	<path fill="#FFFFFF" d="M504.735,96.488h56.14v24.06h-56.14c-13.207,0-21.762,4.01-25.664,12.03h81.804v24.06h-81.804
		c3.902,8.02,12.457,12.03,25.664,12.03h56.14v24.06h-56.14c-37.427,0-56.14-16.04-56.14-48.12
		C448.596,112.528,467.309,96.488,504.735,96.488z"/>
	<path fill="#FFFFFF" d="M579.475,144.608c0-32.08,18.713-48.12,56.14-48.12h56.14v96.24h-56.14
		C598.188,192.728,579.475,176.688,579.475,144.608z M635.615,120.548c-18.714,0-28.07,8.02-28.07,24.06
		c0,16.04,9.356,24.06,28.07,24.06h28.07v-48.12H635.615z"/>
	<path fill="#FFFFFF" d="M754.464,96.488h68.17v24.06h-68.17c-10.694,0-16.04,1.337-16.04,4.01v4.01c0,2.674,5.346,4.01,16.04,4.01
		h24.06c29.406,0,44.11,9.357,44.11,28.07v4.01c0,18.714-14.704,28.07-44.11,28.07h-68.17v-24.06h68.17
		c10.693,0,16.04-1.335,16.04-4.01v-4.01c0-2.673-5.347-4.01-16.04-4.01h-24.06c-29.407,0-44.11-9.356-44.11-28.07v-4.01
		C710.354,105.845,725.057,96.488,754.464,96.488z"/>
	<path fill="#FFFFFF" d="M897.374,168.667h24.06v24.06h-24.06c-37.427,0-56.14-16.04-56.14-48.12v-64.16h28.07v16.04h52.129v24.06
		h-52.129v24.06C869.304,160.647,878.66,168.667,897.374,168.667z"/>
	<path fill="#FFFFFF" d="M996.174,96.488h56.14v24.06h-56.14c-13.206,0-21.762,4.01-25.664,12.03h81.804v24.06H970.51
		c3.902,8.02,12.458,12.03,25.664,12.03h56.14v24.06h-56.14c-37.427,0-56.14-16.04-56.14-48.12
		C940.034,112.528,958.747,96.488,996.174,96.488z"/>
	<path fill="#FFFFFF" d="M1127.053,96.488h24.06v24.06h-24.06c-18.714,0-28.069,8.02-28.069,24.06v48.12h-28.07v-48.12
		C1070.913,112.528,1089.626,96.488,1127.053,96.488z"/>
	<path fill="#FFFFFF" d="M1197.783,144.608v48.12h-28.07v-48.12c0-32.08,18.713-48.12,56.14-48.12c37.426,0,56.14,16.04,56.14,48.12
		v48.12h-28.069v-48.12c0-16.04-9.357-24.06-28.07-24.06C1207.139,120.548,1197.783,128.568,1197.783,144.608z"/>
	<path fill="#FFFFFF" d="M448.596,249.63c0-32.08,18.713-48.12,56.14-48.12h56.14v96.24h-56.14
		C467.309,297.75,448.596,281.709,448.596,249.63z M504.735,225.57c-18.714,0-28.07,8.02-28.07,24.06
		c0,16.04,9.356,24.06,28.07,24.06h28.07v-48.12H504.735z"/>
	<path fill="#FFFFFF" d="M607.545,201.51v96.24h-28.07v-96.24H607.545z"/>
	<path fill="#FFFFFF" d="M682.285,201.51h24.06v24.06h-24.06c-18.714,0-28.07,8.02-28.07,24.06v48.12h-28.07v-48.12
		C626.145,217.55,644.858,201.51,682.285,201.51z"/>
	<path fill="#FFFFFF" d="M724.944,249.63v-48.12h28.07v48.12c0,16.04,6.683,24.06,20.05,24.06c13.366,0,20.05-8.02,20.05-24.06
		v-48.12h28.07v48.12c0,16.04,6.683,24.06,20.05,24.06c13.366,0,20.05-8.02,20.05-24.06v-48.12h28.07v48.12
		c0,32.08-16.04,48.12-48.12,48.12c-14.757,0-26.119-3.395-34.085-10.186c-7.967,6.791-19.328,10.186-34.085,10.186
		C740.984,297.75,724.944,281.709,724.944,249.63z"/>
	<path fill="#FFFFFF" d="M907.954,249.63c0-32.08,18.713-48.12,56.14-48.12h56.14v96.24h-56.14
		C926.667,297.75,907.954,281.709,907.954,249.63z M964.094,225.57c-18.714,0-28.069,8.02-28.069,24.06
		c0,16.04,9.355,24.06,28.069,24.06h28.07v-48.12H964.094z"/>
	<path fill="#FFFFFF" d="M1151.112,313.79h-28.069v-16.04h-28.07c-37.427,0-56.14-16.04-56.14-48.12v-48.12h28.07v48.12
		c0,16.04,9.355,24.06,28.069,24.06h28.07v-72.18h28.069V313.79z"/>
	<path fill="#FFFFFF" d="M1213.822,201.51h68.17v24.06h-68.17c-10.693,0-16.039,1.337-16.039,4.01v4.01
		c0,2.674,5.346,4.01,16.039,4.01h24.061c29.405,0,44.109,9.357,44.109,28.07v4.01c0,18.714-14.704,28.07-44.109,28.07h-68.17
		v-24.06h68.17c10.692,0,16.04-1.335,16.04-4.01v-4.01c0-2.673-5.348-4.01-16.04-4.01h-24.061c-29.406,0-44.109-9.356-44.109-28.07
		v-4.01C1169.713,210.867,1184.416,201.51,1213.822,201.51z"/>
</g>
<g>
	<path fill="#FFFFFF" d="M589.997,327.205v63.708h-16.781v-25.219h-46.98v25.219h-16.781v-63.708h16.781v25.218h46.98v-25.218
		H589.997z"/>
	<path fill="#FFFFFF" d="M622.53,340.473v11.949h47.005v13.271H622.53v11.949h55.395v13.27h-72.176v-63.708h72.176v13.269H622.53z"
		/>
	<path fill="#FFFFFF" d="M757.504,377.679v13.271h-63.787v-63.708h16.781v50.438H757.504z"/>
	<path fill="#FFFFFF" d="M773.269,390.912v-63.708h16.781v63.708H773.269z"/>
	<path fill="#FFFFFF" d="M911.911,377.679v13.271h-63.786v-63.708h16.781v50.438H911.911z"/>
	<path fill="#FFFFFF" d="M927.677,390.912v-63.708h16.781v63.708H927.677z"/>
	<path fill="#FFFFFF" d="M1031.696,327.241v63.708h-17.286l-37.441-41.441v41.441h-16.781v-63.708h17.642l37.086,41.048v-41.048
		H1031.696z"/>
	<path fill="#FFFFFF" d="M1064.229,340.473v11.949h47.005v13.271h-47.005v11.949h55.395v13.27h-72.176v-63.708h72.176v13.269
		H1064.229z"/>
	<path fill="#FFFFFF" d="M1135.103,346.319c-0.112-3.948,1.586-11.369,13.528-16.705c6.851-3.061,15.856-4.887,25.339-5.042
		c4.512-0.091,8.98,0.233,13.239,0.938c9.609,1.586,18.691,5.704,26.37,11.879c0.838,0.673,1.587,1.327,2.15,1.911l-14.562,7.132
		c-0.859-0.712-10.652-8.294-27.73-7.771c-10.36,0.318-20.827,2.74-20.693,7.387c0.18,6.25,19.465,5.754,26.161,6.103
		c27.712,1.443,36.635,10.02,36.911,19.63c0.261,9.079-9.238,20.838-38.866,21.747c-25.648,0.786-41.152-10.8-44.457-14.653
		l14.501-7.075c4.133,4.48,16.855,7.855,30.481,7.437c12.972-0.397,20.807-3.435,20.699-7.183
		c-0.102-3.537-3.247-6.993-26.164-6.738C1147.916,365.583,1135.378,355.897,1135.103,346.319z"/>
</g>
<path fill="#FFFFFF" d="M270.887,355.624c-82.359,19.03-128.03-1.066-128.03-1.066C8.124,290.301,88.272,154.533,88.272,154.533
	C163.239,22.91,312.458,66.83,312.458,66.83l0,0l8.66-60.157c0,0-136.114-38.001-244.591,67.366c0,0-107.44,92.585-67.711,229.045
	c0,0,34.547,153.733,253.573,111.586L270.887,355.624L270.887,355.624z"/>
<path fill="#FFFFFF" d="M306.787,345.328l9.425-64.009c-40.489,27.637-93.083,29.241-93.083,29.241
	c-86.615,0.939-92.143-71.609-92.143-71.609h148.329l7.601-55.745H138.835c74.842-127.601,198.187-43.141,198.187-43.141
	l9.314-63.263l84.985,134.179L306.787,345.328z"/>
</svg>
