<?xml version="1.0" encoding="utf-8"?>
<!-- Generator: Adobe Illustrator 16.0.0, SVG Export Plug-In . SVG Version: 6.00 Build 0)  -->
<!DOCTYPE svg PUBLIC "-//W3C//DTD SVG 1.1//EN" "http://www.w3.org/Graphics/SVG/1.1/DTD/svg11.dtd">
<svg version="1.1" id="Layer_1" xmlns="http://www.w3.org/2000/svg" xmlns:xlink="http://www.w3.org/1999/xlink" x="0px" y="0px"
	 width="7092.363px" height="421.984px" viewBox="0 0 7092.363 421.984" enable-background="new 0 0 7092.363 421.984"
	 xml:space="preserve">
<g>
	<g>
		<path fill="#FFFFFF" d="M739.088,96.256h133.943v57.405H739.088c-31.51,0-51.923,9.568-61.231,28.703h195.177v57.405H677.857
			c9.309,19.135,29.722,28.701,61.231,28.701h133.943v57.404H739.088c-89.298,0-133.945-38.27-133.945-114.81
			C605.145,134.526,649.792,96.256,739.088,96.256z"/>
		<path fill="#FFFFFF" d="M917.409,211.065c0-76.54,44.646-114.808,133.945-114.808h133.944v229.618h-133.943
			C962.056,325.875,917.409,287.605,917.409,211.065z M1051.355,153.661c-44.647,0-66.973,19.135-66.973,57.405
			c0,38.271,22.323,57.405,66.973,57.405h66.974v-114.81H1051.355z"/>
		<path fill="#FFFFFF" d="M1334.916,96.256h162.646v57.405h-162.646c-25.517,0-38.271,3.189-38.271,9.568v9.567
			c0,6.381,12.754,9.567,38.271,9.567h57.403c70.16,0,105.242,22.325,105.242,66.973v9.566c0,44.65-35.082,66.973-105.242,66.973
			h-162.646v-57.404h162.646c25.515,0,38.273-3.186,38.273-9.566v-9.567c0-6.378-12.76-9.567-38.273-9.567h-57.403
			c-70.163,0-105.242-22.32-105.242-66.973v-9.567C1229.673,118.581,1264.752,96.256,1334.916,96.256z"/>
		<path fill="#FFFFFF" d="M1675.885,268.469h57.404v57.404h-57.404c-89.296,0-133.944-38.271-133.944-114.81V57.985h66.972v38.269
			h124.377v57.405h-124.377v57.404C1608.911,249.333,1631.237,268.469,1675.885,268.469z"/>
		<path fill="#FFFFFF" d="M1911.614,96.256h133.944v57.405h-133.945c-31.51,0-51.923,9.568-61.231,28.703h195.178v57.405h-195.178
			c9.31,19.135,29.723,28.701,61.231,28.701h133.945v57.404h-133.945c-89.298,0-133.944-38.27-133.944-114.81
			C1777.668,134.526,1822.315,96.256,1911.614,96.256z"/>
		<path fill="#FFFFFF" d="M2223.875,96.256h57.406v57.405h-57.406c-44.649,0-66.969,19.135-66.969,57.405v114.81h-66.974v-114.81
			C2089.931,134.526,2134.579,96.256,2223.875,96.256z"/>
		<path fill="#FFFFFF" d="M2392.632,211.065v114.81h-66.974v-114.81c0-76.54,44.646-114.808,133.945-114.808
			c89.293,0,133.943,38.269,133.943,114.808v114.81h-66.971v-114.81c0-38.27-22.323-57.405-66.971-57.405
			C2414.952,153.661,2392.632,172.796,2392.632,211.065z"/>
	</g>
	<g>
		<path fill="#FFFFFF" d="M2776.204,211.065c0-76.54,44.646-114.81,133.945-114.81h133.944v229.619h-133.944
			C2820.851,325.875,2776.204,287.604,2776.204,211.065z M2910.148,153.662c-44.648,0-66.974,19.134-66.974,57.403
			c0,38.271,22.324,57.404,66.975,57.404h66.971V153.662H2910.148z"/>
		<path fill="#FFFFFF" d="M3155.44,96.256v229.619h-66.972V96.256H3155.44z"/>
		<path fill="#FFFFFF" d="M3333.764,96.256h57.403v57.406h-57.403c-44.648,0-66.975,19.134-66.975,57.403v114.81h-66.973v-114.81
			C3199.818,134.526,3244.464,96.256,3333.764,96.256z"/>
		<path fill="#FFFFFF" d="M3435.543,211.065V96.256h66.971v114.81c0,38.271,15.947,57.404,47.841,57.404
			c31.887,0,47.834-19.134,47.834-57.404V96.256h66.971v114.81c0,38.271,15.947,57.404,47.842,57.404
			c31.889,0,47.836-19.134,47.836-57.404V96.256h66.971v114.81c0,76.54-38.268,114.81-114.807,114.81
			c-35.211,0-62.318-8.098-81.326-24.302c-19.008,16.204-46.113,24.302-81.32,24.302
			C3473.815,325.875,3435.543,287.604,3435.543,211.065z"/>
		<path fill="#FFFFFF" d="M3872.188,211.065c0-76.54,44.646-114.81,133.943-114.81h133.947v229.619h-133.947
			C3916.834,325.875,3872.188,287.604,3872.188,211.065z M4006.131,153.662c-44.648,0-66.969,19.134-66.969,57.403
			c0,38.271,22.318,57.404,66.969,57.404h66.973V153.662H4006.131z"/>
		<path fill="#FFFFFF" d="M4452.338,364.146h-66.973v-38.271h-66.973c-89.295,0-133.943-38.27-133.943-114.81V96.256h66.975v114.81
			c0,38.271,22.318,57.404,66.969,57.404h66.973V96.256h66.971v267.891H4452.338z"/>
		<path fill="#FFFFFF" d="M4601.957,96.256h162.646v57.406h-162.646c-25.514,0-38.268,3.189-38.268,9.567v9.567
			c0,6.379,12.754,9.567,38.268,9.567h57.406c70.156,0,105.238,22.326,105.238,66.973v9.566c0,44.652-35.082,66.973-105.238,66.973
			h-162.648V268.47h162.648c25.51,0,38.268-3.184,38.268-9.567v-9.565c0-6.378-12.758-9.567-38.268-9.567h-57.406
			c-70.16,0-105.242-22.323-105.242-66.973v-9.567C4496.717,118.582,4531.797,96.256,4601.957,96.256z"/>
	</g>
	<g>
		<path fill="#FFFFFF" d="M5245.533,115.409v188.005h-49.521v-74.422h-138.637v74.422h-49.523V115.409h49.523v74.418h138.637
			v-74.418H5245.533z"/>
		<path fill="#FFFFFF" d="M5341.541,154.561v35.263h138.711v39.165h-138.711v35.259h163.471v39.163h-212.994V115.406h212.994v39.155
			H5341.541z"/>
		<path fill="#FFFFFF" d="M5739.854,264.357v39.166h-188.24V115.519h49.521v148.84h138.717v-0.002H5739.854z"/>
		<path fill="#FFFFFF" d="M5786.379,303.411V115.406h49.516v188.005H5786.379z"/>
		<path fill="#FFFFFF" d="M6195.514,264.357v39.166h-188.234V115.519h49.521v148.84h138.713V264.357z"/>
		<path fill="#FFFFFF" d="M6242.037,303.411V115.406h49.521v188.005H6242.037z"/>
		<path fill="#FFFFFF" d="M6549.006,115.515V303.52h-51.016l-110.492-122.294V303.52h-49.52V115.515h52.063l109.443,121.133V115.515
			H6549.006z"/>
		<path fill="#FFFFFF" d="M6645.01,154.561v35.263h138.713v39.165H6645.01v35.259h163.473v39.163h-212.994V115.406h212.994v39.155
			H6645.01z"/>
		<path fill="#FFFFFF" d="M6854.16,171.815c-0.332-11.651,4.682-33.551,39.922-49.297c20.217-9.035,46.793-14.424,74.773-14.879
			c13.318-0.269,26.504,0.686,39.072,2.767c28.357,4.68,55.156,16.833,77.816,35.055c2.477,1.99,4.684,3.917,6.344,5.64
			l-42.973,21.047c-2.537-2.101-31.436-24.475-81.83-22.931c-30.574,0.937-61.461,8.086-61.066,21.798
			c0.529,18.444,57.439,16.979,77.201,18.011c81.779,4.258,108.111,29.569,108.928,57.929c0.77,26.794-27.264,61.493-114.697,64.177
			c-75.688,2.32-121.439-31.871-131.193-43.241l42.797-20.88c12.191,13.224,49.736,23.183,89.945,21.948
			c38.283-1.174,61.404-10.139,61.084-21.2c-0.301-10.438-9.58-20.637-77.211-19.881
			C6891.973,228.663,6854.973,200.081,6854.16,171.815z"/>
	</g>
</g>
<path fill="#FFFFFF" d="M270.887,355.624c-82.359,19.03-128.03-1.066-128.03-1.066C8.124,290.301,88.272,154.533,88.272,154.533
	C163.239,22.91,312.458,66.83,312.458,66.83l0,0l8.66-60.157c0,0-136.114-38.001-244.591,67.366c0,0-107.44,92.585-67.711,229.045
	c0,0,34.547,153.733,253.573,111.586L270.887,355.624L270.887,355.624z"/>
<path fill="#FFFFFF" d="M306.787,345.328l9.425-64.01c-40.489,27.638-93.083,29.24-93.083,29.24
	c-86.615,0.939-92.143-71.607-92.143-71.607h148.329l7.601-55.745H138.835c74.842-127.601,198.187-43.141,198.187-43.141
	l9.314-63.263l84.985,134.179L306.787,345.328z"/>
</svg>
