<?xml version="1.0" encoding="utf-8"?>
<!-- Generator: Adobe Illustrator 16.0.0, SVG Export Plug-In . SVG Version: 6.00 Build 0)  -->
<!DOCTYPE svg PUBLIC "-//W3C//DTD SVG 1.1//EN" "http://www.w3.org/Graphics/SVG/1.1/DTD/svg11.dtd">
<svg version="1.1" id="Layer_1" xmlns="http://www.w3.org/2000/svg" xmlns:xlink="http://www.w3.org/1999/xlink" x="0px" y="0px"
	 width="2694.782px" height="642.25px" viewBox="0 0 2694.782 642.25" enable-background="new 0 0 2694.782 642.25"
	 xml:space="preserve">
<g>
	<polygon fill="#BEE4E5" points="374.662,513.826 620.875,230.146 497.769,128.449 374.662,128.449 	"/>
	<polygon fill="#C9F1F4" points="374.662,513.826 128.449,230.146 251.556,128.449 374.662,128.449 	"/>
	<polygon fill="#A7DDE4" points="374.662,513.826 211.412,230.146 308.648,128.449 374.662,128.449 	"/>
	<polygon fill="#9DCED1" points="374.662,513.826 537.912,230.146 440.675,128.449 374.662,128.449 	"/>
	<polygon fill="#A7DDE4" points="128.449,230.146 251.556,128.449 374.662,128.449 374.662,230.146 	"/>
	<polygon fill="#C9F1F4" points="308.648,128.449 211.412,230.146 374.662,230.146 374.662,128.449 	"/>
	<polygon fill="#9DCED1" points="620.875,230.146 497.769,128.449 374.662,128.449 374.662,230.146 	"/>
	<polygon fill="#BEE4E5" points="440.675,128.449 537.912,230.146 374.662,230.146 374.662,128.449 	"/>
	<g>
		<path fill="#9DCED1" d="M936.822,311.617c0.214,3.269,0.327,6.538,0.327,9.807c0,16.13-2.891,31.331-8.663,45.602
			c-5.777,14.276-13.729,26.698-23.863,37.266c-10.134,10.573-22.178,18.909-36.122,25.007c-13.949,6.104-28.986,9.153-45.111,9.153
			c-16.13,0-31.331-3.049-45.602-9.153c-14.276-6.099-26.698-14.434-37.266-25.007c-10.573-10.568-18.909-22.99-25.008-37.266
			c-6.104-14.271-9.153-29.472-9.153-45.602c0-16.125,3.049-31.326,9.153-45.602c6.099-14.271,14.435-26.693,25.008-37.266
			c10.568-10.568,22.99-18.903,37.266-25.007c14.271-6.099,29.471-9.153,45.602-9.153c21.136,0,40.372,5.067,57.697,15.201
			c17.326,10.133,31.219,23.485,41.679,40.044l-38.247,24.517c-5.884-11.768-14.22-21.192-25.007-28.276
			c-10.788-7.08-22.832-10.624-36.122-10.624c-9.807,0-18.96,2.018-27.459,6.047c-8.5,4.035-15.911,9.48-22.229,16.345
			c-6.323,6.865-11.334,14.93-15.037,24.19c-3.708,9.265-5.557,19.123-5.557,29.584c0,10.46,1.849,20.324,5.557,29.584
			c3.703,9.265,8.714,17.325,15.037,24.19c6.318,6.865,13.729,12.315,22.229,16.345c8.499,4.035,17.652,6.048,27.459,6.048
			c7.846,0,15.252-1.308,22.229-3.923c6.972-2.615,13.183-6.318,18.633-11.114c5.445-4.791,10.185-10.405,14.22-16.835
			c4.03-6.425,7.028-13.566,8.989-21.412h-62.11l-20.921-42.496h131.412C936.275,305.079,936.602,308.348,936.822,311.617z"/>
		<path fill="#9DCED1" d="M1110.074,207.011l0.328,38.247h-107.549l-0.326,152.66h107.547v37.92H956.761V207.011H1110.074z
			 M1082.943,344.633h-50.996l-21.248-42.497h72.244V344.633z"/>
		<path fill="#9DCED1" d="M1309.149,207.011h35.305v29.42l-105.587,159.198l-59.822-89.896v130.104h-46.092V207.011h35.305
			l70.609,106.241L1309.149,207.011z M1298.362,435.837V315.54l46.092-31.708v152.006H1298.362z"/>
		<path fill="#9DCED1" d="M1470.961,302.137c10.46,2.835,20.104,5.997,28.93,9.48c8.826,3.489,16.452,7.738,22.883,12.749
			c6.426,5.016,11.441,11.007,15.037,17.979c3.596,6.977,5.394,15.256,5.394,24.844v0.981c0,10.46-2.125,20.053-6.374,28.767
			c-4.25,8.719-10.134,16.181-17.652,22.392s-16.345,11.007-26.479,14.383c-10.134,3.376-21.197,5.067-33.18,5.067
			c-11.114,0-21.739-1.354-31.872-4.055c-10.134-2.702-19.344-6.272-27.623-10.706c-8.285-4.434-15.527-9.459-21.738-15.083
			c-6.211-5.619-10.951-11.472-14.22-17.555l38.246-24.19c4.138,4.577,8.279,8.663,12.422,12.259c4.138,3.596,8.5,6.65,13.076,9.153
			c4.576,2.508,9.587,4.413,15.037,5.721c5.444,1.308,11.441,1.961,17.979,1.961c4.137,0,8.336-0.434,12.585-1.308
			c4.25-0.874,8.116-2.293,11.604-4.26c3.484-1.961,6.318-4.418,8.5-7.365c2.176-2.947,3.269-6.604,3.269-10.972
			c0-3.054-0.766-5.997-2.288-8.836c-1.527-2.84-4.143-5.624-7.846-8.351c-3.708-2.728-8.719-5.348-15.037-7.861
			c-6.323-2.513-14.276-4.97-23.863-7.371c-11.769-2.834-22.341-6.052-31.709-9.659c-9.372-3.601-17.325-7.968-23.863-13.096
			c-6.538-5.128-11.554-11.298-15.037-18.5c-3.488-7.202-5.23-15.716-5.23-25.544c0-10.695,2.013-20.354,6.048-28.976
			c4.03-8.622,9.644-15.885,16.835-21.779c7.191-5.895,15.635-10.42,25.334-13.586c9.695-3.167,20.104-4.75,31.219-4.75
			c11.549,0,22.01,1.308,31.382,3.923c9.368,2.615,17.76,5.94,25.171,9.97c7.406,4.035,13.894,8.612,19.45,13.729
			c5.558,5.123,10.186,10.083,13.894,14.874l-37.593,24.19c-9.373-8.933-18.256-15.201-26.643-18.796
			c-8.392-3.596-17.162-5.394-26.314-5.394c-5.67,0-10.518,0.71-14.547,2.125c-4.035,1.42-7.355,3.162-9.971,5.23
			c-2.615,2.074-4.633,4.413-6.048,7.028c-1.42,2.615-2.124,5.123-2.124,7.519c0,4.362,1.144,8.121,3.432,11.278
			c2.289,3.162,5.665,6.047,10.134,8.663c4.465,2.615,10.021,5.016,16.672,7.192C1454.887,297.78,1462.461,299.961,1470.961,302.137
			z"/>
		<path fill="#9DCED1" d="M1795.891,395.302h-104.606l-17.325,40.535h-49.034l93.818-228.826h49.361l-60.476,147.429h71.59
			l-32.362-78.455l36.938-31.709l78.128,191.561h-49.034L1795.891,395.302z"/>
		<path fill="#9DCED1" d="M1879.9,207.011h43.478v38.247H1879.9V207.011z M1879.9,435.837V272.39h43.478v163.447H1879.9z"/>
		<path fill="#9DCED1" d="M2076.362,278.927l-3.923,6.538l-16.671,29.748l-0.327-0.327c-7.191-4.137-14.93-6.211-23.21-6.211
			c-5.669,0-11.007,0.93-16.018,2.779c-5.016,1.854-9.479,4.469-13.402,7.845c-3.923,3.381-7.248,7.355-9.971,11.932
			c-2.728,4.577-4.525,9.48-5.394,14.71v89.896h-44.458V272.39h44.458v21.248c11.549-15.905,28.439-23.863,50.669-23.863
			c13.075,0,25.712,3.054,37.92,9.153H2076.362z"/>
		<path fill="#9DCED1" d="M2132.915,207.011v228.826h-43.478l0.327-228.826H2132.915z"/>
		<path fill="#9DCED1" d="M2152.525,207.011h43.478v38.247h-43.478V207.011z M2152.525,435.837V272.39h43.478v163.447H2152.525z"/>
		<path fill="#9DCED1" d="M2215.614,272.39h44.458v163.447h-44.458V272.39z M2366.64,291.35c5.445,6.757,9.368,15.256,11.769,25.498
			c2.396,10.246,3.596,22.883,3.596,37.92v81.07h-44.458v-81.279c0-6.119-0.163-11.962-0.49-17.535
			c-0.326-5.568-1.471-10.486-3.433-14.746c-1.961-4.26-5.123-7.59-9.479-9.996c-4.362-2.4-10.573-3.606-18.633-3.606
			c-7.631,0-14.711,1.634-21.248,4.903v0.327l-0.327-0.327l-16.018-28.246l0.326-0.322c11.329-10.154,25.498-15.236,42.497-15.236
			C2336.893,269.774,2355.525,276.966,2366.64,291.35z"/>
		<path fill="#9DCED1" d="M2481.705,269.774c11.549,0,22.443,2.237,32.689,6.701c10.241,4.469,19.175,10.517,26.806,18.143
			c7.626,7.631,13.674,16.564,18.143,26.806c4.464,10.246,6.701,21.248,6.701,33.016c0,6.324-0.653,12.422-1.961,18.306
			l-0.327,0.654h-83.031l-20.921-33.343h62.109c-3.054-9.153-8.121-16.671-15.2-22.556c-7.085-5.884-15.42-8.826-25.008-8.826
			c-5.884,0-11.441,1.195-16.671,3.585c-5.23,2.391-9.756,5.593-13.566,9.608c-3.815,4.015-6.813,8.795-8.99,14.332
			c-2.181,5.537-3.269,11.564-3.269,18.077c0,4.995,0.98,10.154,2.942,15.471c1.961,5.322,4.791,10.154,8.499,14.496
			c3.703,4.342,8.172,7.979,13.402,10.91s11.114,4.398,17.652,4.398c5.885,0,11.278-0.817,16.182-2.452
			c4.903-1.635,9.531-5.282,13.893-10.951l0.327-0.327l0.654,0.327l37.92,16.697l-0.654,0.664
			c-7.846,10.992-17.815,19.563-29.911,25.712c-12.095,6.155-24.9,9.23-38.41,9.23c-11.768,0-22.831-2.181-33.18-6.538
			c-10.354-4.357-19.343-10.348-26.969-17.979c-7.631-7.626-13.679-16.56-18.143-26.806c-4.47-10.241-6.701-21.136-6.701-32.689
			c0-11.768,2.231-22.77,6.701-33.016c4.464-10.241,10.512-19.174,18.143-26.806c7.626-7.625,16.615-13.673,26.969-18.143
			C2458.874,272.012,2469.938,269.774,2481.705,269.774z"/>
	</g>
</g>
</svg>
