<?xml version="1.0" encoding="utf-8"?>
<!-- Generator: Adobe Illustrator 16.0.0, SVG Export Plug-In . SVG Version: 6.00 Build 0)  -->
<!DOCTYPE svg PUBLIC "-//W3C//DTD SVG 1.1//EN" "http://www.w3.org/Graphics/SVG/1.1/DTD/svg11.dtd">
<svg version="1.1" id="Layer_1" xmlns="http://www.w3.org/2000/svg" xmlns:xlink="http://www.w3.org/1999/xlink" x="0px" y="0px"
	 width="2855.998px" height="319.836px" viewBox="0 0 2855.998 319.836" enable-background="new 0 0 2855.998 319.836"
	 xml:space="preserve">
<polygon fill="#FF8C0F" points="183.916,62.813 183.916,120.939 121.103,120.939 121.103,183.752 62.813,183.752 62.813,120.939 
	0,120.939 0,62.813 62.813,62.813 62.813,0 121.103,0 121.103,62.813 "/>
<polygon fill="#CE3D00" points="256.853,198.733 256.853,257.022 194.04,257.022 194.04,319.836 135.75,319.836 135.75,257.022 
	72.937,257.022 72.937,198.733 135.75,198.733 135.75,135.92 194.04,135.92 194.04,198.733 "/>
<g>
	<path fill="#FF8C0F" d="M337.224,71.823h17.521v73.549h89.277V71.823h17.522v175.332h-17.522v-84.623h-89.277v84.623h-17.521
		V71.823z"/>
	<path fill="#FF8C0F" d="M610.641,204.12l14.063,7.394c-4.608,9.059-9.941,16.373-15.982,21.94
		c-6.041,5.552-12.851,9.783-20.4,12.695c-7.55,2.895-16.106,4.34-25.652,4.34c-21.154,0-37.687-6.937-49.625-20.795
		c-11.921-13.871-17.883-29.539-17.883-47.03c0-16.437,5.032-31.095,15.146-43.979c12.801-16.358,29.932-24.553,51.417-24.553
		c22.099,0,39.762,8.383,52.96,25.151c9.39,11.843,14.156,26.627,14.314,44.34H512.32c0.315,15.067,5.127,27.416,14.438,37.042
		c9.298,9.625,20.796,14.453,34.479,14.453c6.606,0,13.023-1.147,19.282-3.444c6.245-2.295,11.545-5.348,15.918-9.153
		C600.825,218.731,605.558,212.598,610.641,204.12z M610.641,169.202c-2.218-8.902-5.458-16.012-9.723-21.327
		c-4.261-5.331-9.893-9.61-16.892-12.882c-6.999-3.255-14.36-4.877-22.068-4.877c-12.74,0-23.673,4.089-32.826,12.268
		c-6.685,5.961-11.735,14.896-15.147,26.818H610.641z"/>
	<path fill="#FF8C0F" d="M789.304,117.47v129.686h-16.437v-22.288c-6.998,8.51-14.849,14.895-23.547,19.188
		c-8.696,4.295-18.214,6.434-28.548,6.434c-18.354,0-34.022-6.653-47.013-19.96c-12.992-13.306-19.489-29.508-19.489-48.571
		c0-18.67,6.561-34.651,19.661-47.91c13.119-13.276,28.879-19.913,47.314-19.913c10.648,0,20.291,2.266,28.912,6.795
		c8.617,4.528,16.185,11.325,22.711,20.385V117.47H789.304z M722.629,130.226c-9.295,0-17.868,2.281-25.717,6.857
		c-7.863,4.563-14.107,10.963-18.749,19.221c-4.655,8.258-6.968,16.987-6.968,26.189c0,9.139,2.342,17.868,7.016,26.188
		c4.688,8.337,10.979,14.831,18.872,19.473c7.897,4.641,16.374,6.968,25.42,6.968c9.121,0,17.772-2.313,25.95-6.904
		c8.182-4.608,14.472-10.836,18.875-18.703c4.404-7.85,6.605-16.704,6.605-26.551c0-14.989-4.938-27.541-14.832-37.608
		C749.226,135.274,737.066,130.226,722.629,130.226z"/>
	<path fill="#FF8C0F" d="M826.737,117.47h16.673v22.414c5.82-8.258,11.779-14.299,17.9-18.12c8.445-5.081,17.303-7.629,26.612-7.629
		c6.29,0,12.254,1.243,17.899,3.696c5.647,2.469,10.271,5.741,13.842,9.831c3.586,4.106,6.684,9.957,9.311,17.585
		c5.554-10.177,12.489-17.901,20.81-23.186c8.321-5.285,17.288-7.927,26.866-7.927c8.966,0,16.878,2.266,23.734,6.795
		c6.859,4.528,11.938,10.854,15.272,18.952c3.332,8.098,4.986,20.258,4.986,36.477v70.797h-17.036V176.36
		c0-13.904-0.989-23.468-2.971-28.674c-1.981-5.191-5.364-9.391-10.16-12.568c-4.781-3.177-10.506-4.768-17.162-4.768
		c-8.083,0-15.46,2.375-22.161,7.158c-6.686,4.766-11.576,11.12-14.66,19.064c-3.099,7.941-4.641,21.217-4.641,39.809v50.773
		h-16.687v-66.391c0-15.651-0.975-26.284-2.911-31.884c-1.949-5.601-5.347-10.083-10.192-13.464
		c-4.858-3.381-10.617-5.066-17.285-5.066c-7.706,0-14.93,2.327-21.628,6.969c-6.717,4.657-11.688,10.917-14.911,18.779
		c-3.207,7.865-4.829,19.897-4.829,36.115v54.941h-16.674V117.47H826.737z"/>
	<path fill="#FF8C0F" d="M1056.049,117.47h16.688v23.845c6.591-9.06,14.172-15.854,22.745-20.385
		c8.573-4.531,18.135-6.795,28.689-6.795c18.418,0,34.179,6.639,47.281,19.913c13.087,13.259,19.646,29.238,19.646,47.91
		c0,19.063-6.499,35.263-19.473,48.571c-12.978,13.307-28.628,19.96-46.969,19.96c-10.316,0-19.802-2.139-28.468-6.434
		c-8.652-4.294-16.468-10.679-23.453-19.188v69.726h-16.688V117.47L1056.049,117.47z M1122.803,130.226
		c-14.438,0-26.582,5.048-36.443,15.132c-9.877,10.065-14.818,22.617-14.818,37.608c0,9.846,2.203,18.701,6.607,26.551
		c4.404,7.865,10.695,14.093,18.906,18.703c8.209,4.593,16.861,6.903,25.982,6.903c8.951,0,17.382-2.326,25.261-6.968
		c7.895-4.641,14.172-11.137,18.859-19.472c4.671-8.32,7.015-17.05,7.015-26.188c0-9.202-2.327-17.932-6.97-26.189
		c-4.624-8.258-10.866-14.66-18.717-19.22C1140.641,132.506,1132.069,130.226,1122.803,130.226z"/>
	<path fill="#FF8C0F" d="M1287.517,131.659l-10.728,11.089c-8.919-8.668-17.648-12.994-26.172-12.994
		c-5.409,0-10.051,1.792-13.919,5.364c-3.87,3.569-5.79,7.754-5.79,12.521c0,4.2,1.589,8.21,4.767,12.032
		c3.194,3.9,9.878,8.462,20.07,13.701c12.426,6.449,20.873,12.646,25.322,18.606c4.374,6.04,6.575,12.819,6.575,20.369
		c0,10.649-3.744,19.676-11.23,27.053c-7.471,7.394-16.83,11.089-28.046,11.089c-7.485,0-14.628-1.619-21.423-4.893
		c-6.813-3.257-12.439-7.738-16.893-13.463l10.475-11.923c8.525,9.626,17.57,14.424,27.131,14.424
		c6.687,0,12.381-2.138,17.081-6.433c4.688-4.295,7.047-9.327,7.047-15.131c0-4.766-1.558-9.027-4.656-12.756
		c-3.116-3.649-10.112-8.258-21.028-13.826c-11.702-6.04-19.663-12.003-23.893-17.883c-4.216-5.884-6.324-12.584-6.324-20.133
		c0-9.862,3.366-18.042,10.084-24.553c6.73-6.529,15.224-9.783,25.497-9.783C1263.404,114.135,1275.422,119.988,1287.517,131.659z"
		/>
	<path fill="#FF8C0F" d="M1331.619,69.324h16.672v48.146h26.471v14.424h-26.471v115.262h-16.672V131.894h-22.775V117.47h22.775
		V69.324z"/>
	<path fill="#FF8C0F" d="M1508.963,204.12l14.063,7.394c-4.609,9.059-9.94,16.373-15.982,21.94
		c-6.04,5.552-12.85,9.783-20.397,12.695c-7.551,2.895-16.106,4.34-25.654,4.34c-21.154,0-37.688-6.937-49.627-20.795
		c-11.921-13.871-17.883-29.539-17.883-47.03c0-16.437,5.033-31.095,15.146-43.979c12.804-16.358,29.931-24.553,51.418-24.553
		c22.1,0,39.764,8.383,52.96,25.151c9.39,11.843,14.155,26.627,14.313,44.34h-116.678c0.316,15.067,5.127,27.416,14.438,37.042
		c9.296,9.625,20.796,14.453,34.479,14.453c6.605,0,13.022-1.147,19.282-3.444c6.243-2.295,11.544-5.348,15.917-9.153
		C1499.15,218.731,1503.883,212.598,1508.963,204.12z M1508.963,169.202c-2.218-8.902-5.457-16.012-9.721-21.327
		c-4.263-5.331-9.896-9.61-16.893-12.882c-7-3.255-14.36-4.877-22.067-4.877c-12.741,0-23.673,4.089-32.827,12.268
		c-6.684,5.961-11.735,14.896-15.146,26.818H1508.963z"/>
	<path fill="#FF8C0F" d="M1687.629,117.47v129.686h-16.437v-22.288c-7.001,8.51-14.848,14.895-23.547,19.188
		c-8.695,4.295-18.214,6.434-28.547,6.434c-18.356,0-34.021-6.653-47.013-19.96c-12.993-13.306-19.489-29.508-19.489-48.571
		c0-18.67,6.558-34.651,19.661-47.91c13.118-13.276,28.879-19.913,47.314-19.913c10.648,0,20.29,2.266,28.906,6.795
		c8.621,4.528,16.186,11.325,22.716,20.385V117.47H1687.629z M1620.954,130.226c-9.296,0-17.868,2.281-25.716,6.857
		c-7.864,4.563-14.11,10.963-18.75,19.221c-4.654,8.258-6.967,16.987-6.967,26.189c0,9.139,2.344,17.868,7.013,26.188
		c4.689,8.337,10.979,14.831,18.874,19.473c7.896,4.641,16.375,6.968,25.418,6.968c9.124,0,17.773-2.313,25.953-6.904
		c8.18-4.608,14.471-10.836,18.875-18.703c4.404-7.85,6.606-16.704,6.606-26.551c0-14.989-4.937-27.541-14.833-37.608
		C1647.551,135.274,1635.393,130.226,1620.954,130.226z"/>
	<path fill="#FF8C0F" d="M1854.623,67.42v179.735h-16.452v-22.288c-7.001,8.51-14.851,14.895-23.547,19.188
		c-8.697,4.295-18.216,6.434-28.549,6.434c-18.356,0-34.021-6.653-47.014-19.96c-12.992-13.306-19.487-29.508-19.487-48.571
		c0-18.67,6.557-34.651,19.662-47.91c13.114-13.276,28.893-19.913,47.326-19.913c10.648,0,20.274,2.266,28.894,6.795
		c8.618,4.528,16.185,11.325,22.715,20.385V67.42H1854.623z M1787.933,130.226c-9.296,0-17.868,2.281-25.716,6.857
		c-7.867,4.563-14.109,10.963-18.749,19.221s-6.97,16.987-6.97,26.189c0,9.139,2.344,17.868,7.015,26.188
		c4.688,8.337,10.978,14.831,18.874,19.473c7.895,4.641,16.373,6.968,25.418,6.968c9.122,0,17.774-2.313,25.953-6.904
		c8.18-4.608,14.471-10.836,18.873-18.703c4.404-7.85,6.607-16.704,6.607-26.551c0-14.989-4.938-27.541-14.816-37.608
		C1814.53,135.274,1802.372,130.226,1787.933,130.226z"/>
</g>
<g>
	<path fill="#CE3D00" d="M2133.965,104.369l-13.824,10.6c-7.627-9.924-16.784-17.456-27.479-22.586
		c-10.679-5.111-22.43-7.676-35.219-7.676c-13.982,0-26.943,3.351-38.848,10.065c-11.925,6.716-21.154,15.73-27.715,27.054
		c-6.561,11.322-9.832,24.066-9.832,38.205c0,21.376,7.332,39.214,21.988,53.51c14.658,14.296,33.157,21.455,55.477,21.455
		c24.553,0,45.094-9.612,61.625-28.847l13.824,10.49c-8.744,11.118-19.645,19.724-32.716,25.809
		c-13.069,6.073-27.683,9.106-43.806,9.106c-30.669,0-54.861-10.207-72.588-30.623c-14.864-17.239-22.289-38.065-22.289-62.459
		c0-25.672,8.999-47.25,26.992-64.772c18.011-17.521,40.55-26.284,67.651-26.284c16.358,0,31.143,3.241,44.339,9.707
		C2114.728,83.605,2125.534,92.68,2133.965,104.369z"/>
	<path fill="#CE3D00" d="M2166.383,67.424h16.686v73.295c6.748-8.901,14.188-15.556,22.289-19.96
		c8.101-4.419,16.877-6.62,26.346-6.62c9.688,0,18.292,2.468,25.795,7.392c7.52,4.923,13.057,11.543,16.627,19.852
		c3.585,8.303,5.363,21.313,5.363,39.022v66.754h-16.689v-61.863c0-14.943-0.583-24.915-1.777-29.917
		c-2.078-8.573-5.82-15.036-11.263-19.363c-5.442-4.323-12.583-6.496-21.392-6.496c-10.096,0-19.141,3.335-27.115,10.004
		c-7.991,6.686-13.259,14.942-15.791,24.79c-1.604,6.371-2.393,18.12-2.393,35.28v47.563h-16.686V67.424L2166.383,67.424z"/>
	<path fill="#CE3D00" d="M2444.438,117.471v129.685H2428v-22.287c-6.999,8.51-14.85,14.896-23.547,19.188
		c-8.697,4.296-18.215,6.435-28.547,6.435c-18.354,0-34.022-6.652-47.014-19.96c-12.992-13.307-19.488-29.508-19.488-48.57
		c0-18.67,6.561-34.653,19.661-47.912c13.118-13.276,28.877-19.913,47.313-19.913c10.648,0,20.293,2.266,28.911,6.795
		c8.621,4.53,16.186,11.325,22.713,20.385v-23.844H2444.438L2444.438,117.471z M2377.762,130.227
		c-9.294,0-17.867,2.279-25.716,6.858c-7.863,4.56-14.108,10.964-18.749,19.22c-4.655,8.257-6.97,16.985-6.97,26.188
		c0,9.138,2.344,17.872,7.017,26.189c4.688,8.336,10.979,14.835,18.873,19.472c7.897,4.641,16.373,6.968,25.418,6.968
		c9.123,0,17.773-2.312,25.952-6.904c8.179-4.606,14.471-10.836,18.875-18.704c4.402-7.846,6.605-16.702,6.605-26.549
		c0-14.99-4.938-27.543-14.831-37.608C2404.361,135.276,2392.201,130.227,2377.762,130.227z"/>
	<path fill="#CE3D00" d="M2475.691,117.471h17.032v18.953c5.083-7.455,10.446-13.042,16.092-16.737
		c5.649-3.696,11.528-5.552,17.649-5.552c4.607,0,9.534,1.479,14.77,4.421l-8.699,14.062c-3.489-1.51-6.433-2.268-8.823-2.268
		c-5.552,0-10.915,2.282-16.091,6.858c-5.159,4.563-9.091,11.658-11.797,21.268c-2.06,7.393-3.096,22.334-3.096,44.812v43.868
		h-17.035V117.471H2475.691z"/>
	<path fill="#CE3D00" d="M2569.954,69.324h16.672v48.146h26.473v14.423h-26.473v115.262h-16.672V131.894h-22.775v-14.423h22.775
		V69.324z"/>
	<path fill="#CE3D00" d="M2747.296,204.12l14.063,7.393c-4.608,9.061-9.94,16.374-15.982,21.943
		c-6.039,5.551-12.849,9.785-20.399,12.693c-7.55,2.895-16.105,4.341-25.652,4.341c-21.154,0-37.687-6.938-49.623-20.794
		c-11.923-13.872-17.886-29.539-17.886-47.03c0-16.437,5.033-31.094,15.146-43.977c12.803-16.358,29.933-24.555,51.417-24.555
		c22.1,0,39.764,8.384,52.96,25.151c9.392,11.845,14.157,26.631,14.313,44.341h-116.677c0.315,15.065,5.127,27.416,14.44,37.042
		c9.296,9.625,20.794,14.453,34.478,14.453c6.604,0,13.024-1.147,19.282-3.444c6.246-2.297,11.545-5.347,15.919-9.154
		C2737.482,218.732,2742.216,212.598,2747.296,204.12z M2747.296,169.204c-2.216-8.902-5.458-16.013-9.72-21.331
		c-4.26-5.33-9.894-9.608-16.893-12.881c-6.997-3.256-14.359-4.875-22.067-4.875c-12.74,0-23.671,4.089-32.826,12.268
		c-6.685,5.961-11.733,14.894-15.146,26.819H2747.296z"/>
	<path fill="#CE3D00" d="M2790.456,117.471h17.034v18.953c5.081-7.455,10.445-13.042,16.089-16.737
		c5.649-3.696,11.53-5.552,17.65-5.552c4.606,0,9.53,1.479,14.769,4.421l-8.695,14.062c-3.493-1.51-6.436-2.268-8.824-2.268
		c-5.554,0-10.918,2.282-16.09,6.858c-5.161,4.563-9.094,11.658-11.8,21.268c-2.057,7.393-3.097,22.334-3.097,44.812v43.868h-17.035
		L2790.456,117.471L2790.456,117.471z"/>
</g>
</svg>
