<?xml version="1.0" encoding="utf-8"?>
<!-- Generator: Adobe Illustrator 16.0.0, SVG Export Plug-In . SVG Version: 6.00 Build 0)  -->
<!DOCTYPE svg PUBLIC "-//W3C//DTD SVG 1.1//EN" "http://www.w3.org/Graphics/SVG/1.1/DTD/svg11.dtd">
<svg version="1.1" id="Layer_1" xmlns="http://www.w3.org/2000/svg" xmlns:xlink="http://www.w3.org/1999/xlink" x="0px" y="0px"
	 width="1034.246px" height="309.713px" viewBox="0 0 1034.246 309.713" enable-background="new 0 0 1034.246 309.713"
	 xml:space="preserve">
<g>
	<polygon fill="#FFFFFF" points="183.916,62.813 183.916,120.939 121.103,120.939 121.103,183.752 62.813,183.752 62.813,120.939 
		0,120.939 0,62.813 62.813,62.813 62.813,0 121.103,0 121.103,62.813 	"/>
	<polygon fill="#FFFFFF" points="246.729,188.61 246.729,246.9 183.916,246.9 183.916,309.713 125.626,309.713 125.626,246.9 
		62.813,246.9 62.813,188.61 125.626,188.61 125.626,125.797 183.916,125.797 183.916,188.61 	"/>
	<g>
		<path fill="#FFFFFF" d="M245.224,22.802h9.111v38.244h46.423V22.802h9.111v91.169h-9.111V69.969h-46.423v44.002h-9.111V22.802z"/>
		<path fill="#FFFFFF" d="M387.396,91.594l7.312,3.844c-2.396,4.711-5.169,8.514-8.31,11.409c-3.141,2.887-6.682,5.087-10.608,6.601
			c-3.926,1.505-8.375,2.257-13.339,2.257c-11,0-19.596-3.607-25.804-10.813c-6.199-7.213-9.299-15.36-9.299-24.455
			c0-8.547,2.617-16.169,7.876-22.868c6.657-8.506,15.564-12.767,26.736-12.767c11.491,0,20.676,4.359,27.538,13.078
			c4.883,6.158,7.361,13.846,7.443,23.056h-60.67c0.164,7.835,2.666,14.256,7.508,19.261c4.834,5.005,10.813,7.516,17.928,7.516
			c3.435,0,6.772-0.597,10.027-1.791c3.247-1.194,6.003-2.781,8.277-4.76C382.292,99.192,384.753,96.002,387.396,91.594z
			 M387.396,73.437c-1.153-4.629-2.838-8.326-5.055-11.09c-2.216-2.772-5.145-4.997-8.784-6.698
			c-3.639-1.693-7.467-2.536-11.475-2.536c-6.625,0-12.309,2.126-17.069,6.379c-3.476,3.1-6.102,7.746-7.876,13.945H387.396z"/>
		<path fill="#FFFFFF" d="M480.298,46.537v67.434h-8.547v-11.589c-3.639,4.425-7.721,7.745-12.244,9.978
			c-4.522,2.233-9.471,3.345-14.844,3.345c-9.544,0-17.691-3.46-24.446-10.379c-6.756-6.919-10.134-15.343-10.134-25.256
			c0-9.708,3.411-18.018,10.224-24.913c6.821-6.903,15.016-10.354,24.602-10.354c5.537,0,10.551,1.178,15.033,3.533
			s8.416,5.889,11.81,10.6V46.537H480.298z M445.628,53.17c-4.833,0-9.291,1.186-13.372,3.566c-4.089,2.372-7.336,5.7-9.749,9.994
			c-2.421,4.294-3.623,8.833-3.623,13.618c0,4.752,1.218,9.291,3.647,13.618c2.438,4.335,5.709,7.712,9.814,10.125
			c4.106,2.413,8.514,3.623,13.217,3.623c4.744,0,9.242-1.202,13.495-3.59c4.253-2.396,7.524-5.635,9.814-9.725
			c2.29-4.082,3.435-8.686,3.435-13.806c0-7.794-2.568-14.321-7.712-19.556C459.458,55.795,453.136,53.17,445.628,53.17z"/>
		<path fill="#FFFFFF" d="M499.763,46.537h8.67v11.655c3.026-4.294,6.125-7.435,9.307-9.422c4.392-2.642,8.997-3.967,13.838-3.967
			c3.271,0,6.372,0.646,9.308,1.922c2.936,1.284,5.341,2.985,7.197,5.112c1.865,2.135,3.476,5.177,4.842,9.144
			c2.887-5.292,6.494-9.308,10.82-12.056c4.327-2.748,8.989-4.122,13.97-4.122c4.662,0,8.776,1.178,12.342,3.533
			s6.208,5.644,7.941,9.855s2.593,10.534,2.593,18.967v36.813h-8.858V77.159c0-7.23-0.515-12.203-1.545-14.91
			c-1.031-2.699-2.789-4.883-5.284-6.535c-2.486-1.652-5.463-2.479-8.923-2.479c-4.204,0-8.04,1.235-11.524,3.722
			c-3.476,2.478-6.02,5.782-7.623,9.913c-1.611,4.13-2.413,11.033-2.413,20.7v26.401h-8.677V79.449
			c0-8.138-0.507-13.667-1.513-16.579c-1.014-2.912-2.781-5.243-5.3-7.001c-2.527-1.758-5.521-2.634-8.989-2.634
			c-4.007,0-7.762,1.21-11.246,3.624c-3.492,2.421-6.077,5.676-7.753,9.765c-1.668,4.089-2.511,10.346-2.511,18.779v28.568h-8.67
			V46.537z"/>
		<path fill="#FFFFFF" d="M619.001,46.537h8.678v12.399c3.427-4.711,7.369-8.244,11.827-10.6s9.43-3.533,14.918-3.533
			c9.577,0,17.772,3.452,24.585,10.354c6.805,6.895,10.215,15.204,10.215,24.913c0,9.913-3.378,18.336-10.125,25.256
			c-6.748,6.919-14.885,10.379-24.422,10.379c-5.365,0-10.297-1.112-14.803-3.345c-4.499-2.233-8.563-5.553-12.195-9.978v36.256
			h-8.678V46.537z M653.712,53.17c-7.508,0-13.822,2.625-18.95,7.868c-5.136,5.234-7.705,11.761-7.705,19.556
			c0,5.12,1.145,9.724,3.435,13.806c2.29,4.089,5.562,7.328,9.831,9.725c4.269,2.388,8.768,3.59,13.511,3.59
			c4.654,0,9.038-1.21,13.135-3.623c4.105-2.413,7.369-5.791,9.806-10.125c2.429-4.327,3.648-8.866,3.648-13.618
			c0-4.785-1.21-9.324-3.624-13.618c-2.404-4.294-5.651-7.623-9.732-9.994C662.987,54.356,658.53,53.17,653.712,53.17z"/>
		<path fill="#FFFFFF" d="M739.36,53.915l-5.578,5.766c-4.637-4.507-9.176-6.756-13.609-6.756c-2.813,0-5.226,0.932-7.238,2.789
			c-2.012,1.856-3.01,4.032-3.01,6.51c0,2.184,0.826,4.269,2.478,6.257c1.661,2.028,5.137,4.4,10.437,7.124
			c6.461,3.354,10.853,6.576,13.167,9.675c2.274,3.141,3.419,6.666,3.419,10.592c0,5.537-1.947,10.231-5.84,14.067
			c-3.885,3.844-8.751,5.766-14.583,5.766c-3.893,0-7.606-0.842-11.14-2.544c-3.542-1.693-6.469-4.024-8.784-7.001l5.447-6.199
			c4.433,5.005,9.136,7.5,14.108,7.5c3.476,0,6.437-1.112,8.882-3.345c2.437-2.233,3.664-4.85,3.664-7.868
			c0-2.478-0.81-4.694-2.421-6.633c-1.62-1.897-5.259-4.294-10.935-7.189c-6.085-3.141-10.224-6.241-12.424-9.299
			c-2.192-3.059-3.288-6.543-3.288-10.469c0-5.128,1.75-9.381,5.243-12.767c3.5-3.395,7.917-5.087,13.258-5.087
			C726.822,44.803,733.071,47.846,739.36,53.915z"/>
		<path fill="#FFFFFF" d="M762.293,21.502h8.669v25.035h13.765v7.5h-13.765v59.934h-8.669V54.037h-11.843v-7.5h11.843V21.502z"/>
		<path fill="#FFFFFF" d="M854.509,91.594l7.312,3.844c-2.396,4.711-5.169,8.514-8.31,11.409c-3.141,2.887-6.682,5.087-10.607,6.601
			c-3.926,1.505-8.375,2.257-13.34,2.257c-11,0-19.596-3.607-25.804-10.813c-6.199-7.213-9.299-15.36-9.299-24.455
			c0-8.547,2.617-16.169,7.876-22.868c6.657-8.506,15.564-12.767,26.736-12.767c11.491,0,20.676,4.359,27.538,13.078
			c4.883,6.158,7.361,13.846,7.443,23.056h-60.67c0.164,7.835,2.666,14.256,7.508,19.261c4.834,5.005,10.813,7.516,17.928,7.516
			c3.435,0,6.772-0.597,10.027-1.791c3.246-1.194,6.003-2.781,8.276-4.76C849.406,99.192,851.867,96.002,854.509,91.594z
			 M854.509,73.437c-1.153-4.629-2.838-8.326-5.055-11.09c-2.217-2.772-5.145-4.997-8.784-6.698
			c-3.64-1.693-7.467-2.536-11.475-2.536c-6.625,0-12.309,2.126-17.069,6.379c-3.476,3.1-6.102,7.746-7.876,13.945H854.509z"/>
		<path fill="#FFFFFF" d="M947.412,46.537v67.434h-8.547v-11.589c-3.64,4.425-7.721,7.745-12.244,9.978
			c-4.521,2.233-9.471,3.345-14.844,3.345c-9.545,0-17.69-3.46-24.446-10.379c-6.756-6.919-10.134-15.343-10.134-25.256
			c0-9.708,3.41-18.018,10.224-24.913c6.821-6.903,15.017-10.354,24.602-10.354c5.537,0,10.551,1.178,15.032,3.533
			c4.482,2.355,8.416,5.889,11.811,10.6V46.537H947.412z M912.742,53.17c-4.834,0-9.291,1.186-13.372,3.566
			c-4.089,2.372-7.337,5.7-9.749,9.994c-2.421,4.294-3.623,8.833-3.623,13.618c0,4.752,1.219,9.291,3.647,13.618
			c2.438,4.335,5.709,7.712,9.814,10.125c4.106,2.413,8.515,3.623,13.217,3.623c4.744,0,9.242-1.202,13.495-3.59
			c4.253-2.396,7.524-5.635,9.814-9.725c2.29-4.082,3.436-8.686,3.436-13.806c0-7.794-2.568-14.321-7.713-19.556
			C926.572,55.795,920.25,53.17,912.742,53.17z"/>
		<path fill="#FFFFFF" d="M1034.246,20.512v93.459h-8.555v-11.589c-3.64,4.425-7.721,7.745-12.244,9.978
			c-4.522,2.233-9.471,3.345-14.844,3.345c-9.545,0-17.691-3.46-24.447-10.379c-6.755-6.919-10.133-15.343-10.133-25.256
			c0-9.708,3.41-18.018,10.224-24.913c6.82-6.903,15.024-10.354,24.609-10.354c5.537,0,10.543,1.178,15.024,3.533
			c4.482,2.355,8.416,5.889,11.811,10.6V20.512H1034.246z M999.568,53.17c-4.834,0-9.291,1.186-13.372,3.566
			c-4.09,2.372-7.337,5.7-9.749,9.994c-2.413,4.294-3.624,8.833-3.624,13.618c0,4.752,1.219,9.291,3.648,13.618
			c2.437,4.335,5.708,7.712,9.814,10.125c4.105,2.413,8.514,3.623,13.217,3.623c4.743,0,9.242-1.202,13.495-3.59
			c4.253-2.396,7.524-5.635,9.814-9.725c2.29-4.082,3.435-8.686,3.435-13.806c0-7.794-2.567-14.321-7.704-19.556
			C1013.398,55.795,1007.076,53.17,999.568,53.17z"/>
	</g>
	<g>
		<path fill="#FFFFFF" d="M500.639,215.601l-7.189,5.512c-3.966-5.161-8.727-9.078-14.288-11.745
			c-5.553-2.658-11.663-3.991-18.313-3.991c-7.271,0-14.01,1.742-20.201,5.234c-6.2,3.492-11,8.179-14.411,14.067
			s-5.112,12.514-5.112,19.866c0,11.115,3.812,20.39,11.434,27.824s17.241,11.156,28.846,11.156c12.767,0,23.449-4.997,32.044-15
			l7.189,5.455c-4.547,5.782-10.215,10.256-17.012,13.421c-6.796,3.157-14.395,4.735-22.778,4.735
			c-15.948,0-28.527-5.308-37.745-15.924c-7.729-8.964-11.589-19.793-11.589-32.478c0-13.348,4.678-24.569,14.035-33.68
			c9.365-9.111,21.085-13.667,35.177-13.667c8.506,0,16.194,1.685,23.056,5.046C490.636,204.804,496.255,209.523,500.639,215.601z"
			/>
		<path fill="#FFFFFF" d="M517.495,196.389h8.677v38.113c3.509-4.629,7.377-8.089,11.59-10.379
			c4.212-2.298,8.775-3.443,13.699-3.443c5.038,0,9.512,1.284,13.413,3.844c3.91,2.56,6.789,6.003,8.645,10.322
			c1.865,4.318,2.789,11.082,2.789,20.292v34.71h-8.678V257.68c0-7.77-0.303-12.955-0.924-15.556
			c-1.08-4.458-3.026-7.819-5.856-10.068s-6.543-3.378-11.123-3.378c-5.251,0-9.954,1.734-14.1,5.202
			c-4.155,3.476-6.895,7.77-8.211,12.89c-0.834,3.313-1.244,9.422-1.244,18.345v24.732h-8.677V196.389z"/>
		<path fill="#FFFFFF" d="M662.079,222.413v67.434h-8.547v-11.589c-3.639,4.425-7.721,7.746-12.244,9.978
			c-4.522,2.233-9.471,3.345-14.844,3.345c-9.544,0-17.691-3.459-24.446-10.379c-6.756-6.919-10.134-15.343-10.134-25.256
			c0-9.708,3.411-18.018,10.224-24.913c6.821-6.903,15.016-10.354,24.602-10.354c5.537,0,10.551,1.178,15.033,3.533
			c4.482,2.356,8.416,5.889,11.81,10.6v-12.399H662.079z M627.409,229.046c-4.833,0-9.291,1.186-13.372,3.566
			c-4.089,2.372-7.336,5.701-9.749,9.994c-2.421,4.294-3.624,8.833-3.624,13.618c0,4.752,1.219,9.292,3.648,13.618
			c2.438,4.335,5.709,7.713,9.814,10.125c4.106,2.413,8.514,3.623,13.217,3.623c4.744,0,9.242-1.202,13.495-3.59
			c4.253-2.396,7.524-5.635,9.814-9.725c2.29-4.081,3.435-8.686,3.435-13.806c0-7.794-2.568-14.321-7.712-19.556
			C641.24,231.672,634.917,229.046,627.409,229.046z"/>
		<path fill="#FFFFFF" d="M678.331,222.413h8.857v9.855c2.642-3.876,5.431-6.78,8.367-8.702c2.937-1.922,5.995-2.887,9.177-2.887
			c2.396,0,4.957,0.769,7.68,2.298l-4.523,7.312c-1.815-0.785-3.345-1.178-4.588-1.178c-2.887,0-5.676,1.186-8.367,3.566
			c-2.683,2.372-4.727,6.061-6.134,11.058c-1.071,3.844-1.611,11.614-1.611,23.301v22.811h-8.857V222.413z"/>
		<path fill="#FFFFFF" d="M727.346,197.378h8.669v25.035h13.765v7.5h-13.765v59.934h-8.669v-59.934h-11.843v-7.5h11.843V197.378z"/>
		<path fill="#FFFFFF" d="M819.561,267.47l7.312,3.844c-2.396,4.711-5.169,8.514-8.31,11.41c-3.141,2.887-6.682,5.087-10.608,6.6
			c-3.926,1.505-8.375,2.257-13.339,2.257c-11,0-19.597-3.607-25.804-10.813c-6.199-7.213-9.299-15.359-9.299-24.454
			c0-8.547,2.617-16.169,7.876-22.868c6.657-8.506,15.564-12.767,26.736-12.767c11.491,0,20.676,4.359,27.538,13.078
			c4.883,6.159,7.361,13.847,7.443,23.056h-60.67c0.163,7.835,2.666,14.256,7.508,19.261c4.834,5.005,10.813,7.516,17.928,7.516
			c3.435,0,6.772-0.597,10.027-1.791c3.247-1.194,6.003-2.781,8.277-4.76C814.458,275.068,816.919,271.878,819.561,267.47z
			 M819.561,249.313c-1.153-4.629-2.838-8.326-5.054-11.091c-2.216-2.772-5.145-4.997-8.784-6.698
			c-3.639-1.693-7.467-2.535-11.475-2.535c-6.625,0-12.309,2.126-17.069,6.379c-3.476,3.1-6.101,7.745-7.876,13.945H819.561z"/>
		<path fill="#FFFFFF" d="M842.003,222.413h8.857v9.855c2.643-3.876,5.432-6.78,8.367-8.702c2.937-1.922,5.995-2.887,9.177-2.887
			c2.396,0,4.956,0.769,7.68,2.298l-4.522,7.312c-1.816-0.785-3.346-1.178-4.588-1.178c-2.888,0-5.677,1.186-8.367,3.566
			c-2.683,2.372-4.728,6.061-6.135,11.058c-1.07,3.844-1.611,11.614-1.611,23.301v22.811h-8.857V222.413z"/>
	</g>
</g>
</svg>
