<?xml version="1.0" encoding="utf-8"?>
<!-- Generator: Adobe Illustrator 16.0.0, SVG Export Plug-In . SVG Version: 6.00 Build 0)  -->
<!DOCTYPE svg PUBLIC "-//W3C//DTD SVG 1.1//EN" "http://www.w3.org/Graphics/SVG/1.1/DTD/svg11.dtd">
<svg version="1.1" id="Layer_1" xmlns="http://www.w3.org/2000/svg" xmlns:xlink="http://www.w3.org/1999/xlink" x="0px" y="0px"
	 width="1760.713px" height="385.352px" viewBox="0 0 1760.713 385.352" enable-background="new 0 0 1760.713 385.352"
	 xml:space="preserve">
<polygon fill="#FFFFFF" points="256.899,128.449 256.899,256.898 385.353,256.898 385.353,385.352 0,385.352 0,256.898 
	128.449,256.898 128.449,128.449 0,128.449 0,0 385.353,0 385.353,128.449 "/>
<g enable-background="new    ">
	<path fill="#FFFFFF" d="M602.277,314.433h-47.24V70.917h47.24V314.433z"/>
	<path fill="#FFFFFF" d="M802.208,314.433h-43.888V209.285c0-6.296-0.972-11.834-2.91-16.61c-1.938-4.771-4.539-8.733-7.805-11.887
		c-3.267-3.147-6.991-5.485-11.172-7.01c-4.181-1.523-8.52-2.285-13.005-2.285c-6.734,0-13.367,1.171-19.896,3.505
		c-6.529,2.338-12.443,6.048-17.749,11.124v128.311h-43.888v-176.16h43.888l0.305,13.105c2.638-2.639,5.891-5.077,9.753-7.315
		c3.857-2.233,7.872-4.114,12.039-5.638c4.162-1.524,8.429-2.69,12.801-3.505c4.367-0.81,8.581-1.22,12.648-1.22
		c8.938,0,17.524,1.424,25.753,4.268c8.229,2.848,15.544,7.214,21.944,13.105c6.4,5.896,11.529,13.515,15.391,22.857
		c3.857,9.349,5.791,20.42,5.791,33.221V314.433z"/>
	<path fill="#FFFFFF" d="M933.867,310.471c-4.472,2.848-9.652,4.977-15.543,6.4c-5.896,1.419-11.787,2.133-17.678,2.133
		c-10.362,0-19.101-1.271-26.21-3.81c-7.115-2.538-12.801-6.447-17.067-11.733c-4.267-5.281-7.367-11.986-9.296-20.115
		c-1.933-8.124-2.896-17.677-2.896-28.649v-77.108h-23.163v-19.81c14.22-5.892,25.753-14.63,34.592-26.211
		c8.838-11.582,14.882-26.615,18.134-45.107h14.324v51.508h44.498v39.62h-44.498v80.156c0,4.472,0.559,8.129,1.677,10.972
		c1.114,2.849,2.591,5.082,4.419,6.705c1.829,1.629,3.91,2.743,6.248,3.353c2.334,0.61,4.824,0.915,7.467,0.915
		c3.453,0,7.62-0.609,12.496-1.829c4.877-1.219,9.039-3.248,12.496-6.096V310.471z"/>
	<path fill="#FFFFFF" d="M1086.254,156.559l-23.467,37.183c-4.268-4.672-8.991-8.786-14.172-12.343
		c-5.182-3.553-10.416-5.334-15.697-5.334c-2.848,0-5.942,0.662-9.295,1.981c-3.353,1.323-6.506,3.505-9.448,6.553
		c-2.948,3.047-5.438,7.062-7.467,12.038c-2.034,4.981-3.048,11.124-3.048,18.439v99.356h-43.888v-176.16h43.888v18.896
		c5.281-7.515,11.124-13.305,17.524-17.372c6.4-4.062,13.563-6.096,21.487-6.096c7.719,0,15.286,2.086,22.705,6.248
		C1072.792,144.115,1079.75,149.653,1086.254,156.559z"/>
	<path fill="#FFFFFF" d="M1244.734,314.433h-43.888v-9.448c-7.724,5.286-15.901,8.943-24.534,10.972
		c-8.639,2.029-17.525,3.048-26.668,3.048c-8.534,0-16.258-1.271-23.164-3.81c-6.909-2.538-12.904-6.195-17.98-10.972
		c-5.082-4.771-8.992-10.41-11.734-16.915c-2.743-6.5-4.115-13.715-4.115-21.639c0-9.953,2.182-18.64,6.553-26.059
		c4.367-7.415,10.311-13.61,17.83-18.592c7.515-4.977,16.306-8.686,26.363-11.124c10.057-2.438,20.877-3.657,32.459-3.657h25.296
		c0-10.362-3.353-18.592-10.058-24.687c-6.705-6.096-16.357-9.144-28.953-9.144c-6.096,0-12.396,1.119-18.896,3.353
		c-6.506,2.238-13.006,6.3-19.506,12.19l-25.906-26.21c9.344-8.938,20.163-15.849,32.459-20.725
		c12.291-4.877,24.939-7.315,37.944-7.315c12.19,0,23.044,1.934,32.563,5.791c9.515,3.862,17.201,8.839,23.054,14.935
		c7.667,7.724,13.063,16.357,16.19,25.905c3.125,9.553,4.691,21.744,4.691,36.573V314.433z M1200.847,270.545v-32.611h-20.115
		c-6.096,0-11.839,0.41-17.22,1.22c-5.387,0.814-10.059,2.186-14.02,4.114c-3.963,1.934-7.115,4.419-9.448,7.467
		c-2.339,3.048-3.505,6.705-3.505,10.972c0,6.096,2.386,11.077,7.162,14.935c4.771,3.862,10.92,5.791,18.439,5.791
		c6.5,0,12.952-1.015,19.353-3.048C1187.894,277.354,1194.342,274.407,1200.847,270.545z"/>
	<path fill="#FFFFFF" d="M1530.609,314.433h-51.812l-22.554-48.764h-118.253l-22.858,48.764h-51.812l115.205-243.82h36.878
		L1530.609,314.433z M1437.652,226.353l-40.535-87.775l-41.145,87.775H1437.652z"/>
	<path fill="#FFFFFF" d="M1594.61,107.49h-45.717V61.773h45.717V107.49z M1594.001,314.433h-44.497V137.968h44.497V314.433z"/>
	<path fill="#FFFFFF" d="M1760.713,156.559l-23.468,37.183c-4.267-4.672-8.991-8.786-14.172-12.343
		c-5.182-3.553-10.415-5.334-15.696-5.334c-2.848,0-5.943,0.662-9.296,1.981c-3.353,1.323-6.505,3.505-9.447,6.553
		c-2.948,3.047-5.438,7.062-7.468,12.038c-2.033,4.981-3.048,11.124-3.048,18.439v99.356h-43.888v-176.16h43.888v18.896
		c5.281-7.515,11.125-13.305,17.525-17.372c6.4-4.062,13.563-6.096,21.486-6.096c7.72,0,15.286,2.086,22.706,6.248
		C1747.25,144.115,1754.208,149.653,1760.713,156.559z"/>
</g>
</svg>
