<?xml version="1.0" encoding="utf-8"?>
<!-- Generator: Adobe Illustrator 16.0.0, SVG Export Plug-In . SVG Version: 6.00 Build 0)  -->
<!DOCTYPE svg PUBLIC "-//W3C//DTD SVG 1.1//EN" "http://www.w3.org/Graphics/SVG/1.1/DTD/svg11.dtd">
<svg version="1.1" id="Layer_1" xmlns="http://www.w3.org/2000/svg" xmlns:xlink="http://www.w3.org/1999/xlink" x="0px" y="0px"
	 width="3303.467px" height="385.352px" viewBox="0 0 3303.467 385.352" enable-background="new 0 0 3303.467 385.352"
	 xml:space="preserve">
<polygon fill="#FFFFFF" points="256.899,128.449 256.899,256.899 385.353,256.899 385.353,385.352 0,385.352 0,256.899 
	128.449,256.899 128.449,128.449 0,128.449 0,0 385.353,0 385.353,128.449 "/>
<g>
	<path fill="#FFFFFF" d="M602.277,314.433h-47.24V70.917h47.24V314.433z"/>
	<path fill="#FFFFFF" d="M802.208,314.433h-43.888V209.285c0-6.296-0.972-11.834-2.91-16.61c-1.938-4.772-4.538-8.734-7.805-11.886
		c-3.267-3.148-6.991-5.486-11.172-7.01c-4.181-1.524-8.52-2.286-13.005-2.286c-6.734,0-13.367,1.171-19.896,3.505
		c-6.529,2.338-12.443,6.048-17.749,11.125v128.311h-43.888V138.272h43.888l0.305,13.105c2.638-2.638,5.891-5.076,9.753-7.314
		c3.857-2.233,7.872-4.115,12.039-5.638c4.162-1.524,8.429-2.691,12.801-3.505c4.367-0.809,8.581-1.219,12.648-1.219
		c8.938,0,17.525,1.424,25.753,4.267c8.229,2.848,15.544,7.215,21.944,13.105c6.4,5.896,11.529,13.515,15.392,22.858
		c3.857,9.348,5.791,20.42,5.791,33.22V314.433z"/>
	<path fill="#FFFFFF" d="M933.868,310.471c-4.473,2.848-9.654,4.976-15.544,6.4c-5.896,1.419-11.786,2.134-17.677,2.134
		c-10.362,0-19.101-1.271-26.21-3.81c-7.115-2.538-12.801-6.448-17.067-11.734c-4.267-5.281-7.367-11.986-9.296-20.115
		c-1.933-8.125-2.896-17.677-2.896-28.649v-77.108h-23.163v-19.811c14.22-5.891,25.753-14.629,34.592-26.21
		c8.838-11.582,14.882-26.616,18.134-45.107h14.324v51.507h44.497v39.621h-44.497v80.156c0,4.472,0.558,8.129,1.677,10.972
		c1.114,2.848,2.59,5.081,4.419,6.705c1.829,1.628,3.91,2.743,6.248,3.353c2.333,0.609,4.824,0.914,7.467,0.914
		c3.453,0,7.62-0.609,12.496-1.829c4.875-1.219,9.038-3.248,12.497-6.095V310.471z"/>
	<path fill="#FFFFFF" d="M1086.255,156.559l-23.468,37.183c-4.267-4.671-8.991-8.786-14.172-12.343
		c-5.182-3.553-10.415-5.333-15.696-5.333c-2.848,0-5.943,0.662-9.296,1.981c-3.353,1.324-6.505,3.505-9.447,6.553
		c-2.948,3.048-5.438,7.062-7.468,12.039c-2.033,4.981-3.048,11.125-3.048,18.439v99.357h-43.888V138.272h43.888v18.896
		c5.281-7.515,11.125-13.306,17.525-17.373c6.4-4.062,13.563-6.095,21.486-6.095c7.72,0,15.286,2.085,22.706,6.248
		C1072.792,144.115,1079.75,149.654,1086.255,156.559z"/>
	<path fill="#FFFFFF" d="M1244.734,314.433h-43.888v-9.448c-7.725,5.286-15.901,8.943-24.534,10.972
		c-8.639,2.029-17.525,3.048-26.668,3.048c-8.534,0-16.258-1.271-23.163-3.81c-6.91-2.538-12.905-6.195-17.982-10.972
		c-5.081-4.771-8.99-10.41-11.733-16.915c-2.743-6.5-4.114-13.715-4.114-21.639c0-9.953,2.181-18.639,6.553-26.058
		c4.366-7.415,10.31-13.61,17.829-18.591c7.515-4.977,16.306-8.687,26.363-11.125s20.877-3.657,32.458-3.657h25.297
		c0-10.362-3.353-18.591-10.058-24.687c-6.705-6.095-16.358-9.143-28.954-9.143c-6.095,0-12.396,1.119-18.896,3.353
		c-6.505,2.238-13.006,6.3-19.506,12.191l-25.906-26.211c9.344-8.938,20.163-15.848,32.459-20.725
		c12.291-4.876,24.939-7.314,37.944-7.314c12.191,0,23.044,1.933,32.563,5.791c9.515,3.862,17.201,8.838,23.054,14.934
		c7.667,7.724,13.063,16.358,16.191,25.906c3.124,9.553,4.69,21.744,4.69,36.573V314.433z M1200.847,270.545v-32.611h-20.115
		c-6.096,0-11.839,0.409-17.22,1.219c-5.386,0.814-10.058,2.186-14.02,4.115c-3.963,1.933-7.115,4.419-9.448,7.467
		c-2.339,3.048-3.505,6.705-3.505,10.972c0,6.095,2.386,11.077,7.162,14.934c4.771,3.862,10.919,5.791,18.438,5.791
		c6.501,0,12.953-1.014,19.354-3.048C1187.894,277.354,1194.342,274.407,1200.847,270.545z"/>
	<path fill="#FFFFFF" d="M1530.609,314.433h-51.812l-22.554-48.764h-118.253l-22.858,48.764h-51.812l115.205-243.821h36.878
		L1530.609,314.433z M1437.653,226.353l-40.535-87.775l-41.146,87.775H1437.653z"/>
	<path fill="#FFFFFF" d="M1594.611,107.49h-45.717V61.773h45.717V107.49z M1594.002,314.433h-44.497V137.967h44.497V314.433z"/>
	<path fill="#FFFFFF" d="M1760.713,156.559l-23.468,37.183c-4.267-4.671-8.991-8.786-14.172-12.343
		c-5.182-3.553-10.415-5.333-15.696-5.333c-2.848,0-5.943,0.662-9.296,1.981c-3.353,1.324-6.505,3.505-9.447,6.553
		c-2.948,3.048-5.438,7.062-7.468,12.039c-2.033,4.981-3.048,11.125-3.048,18.439v99.357h-43.888V138.272h43.888v18.896
		c5.281-7.515,11.125-13.306,17.525-17.373c6.4-4.062,13.563-6.095,21.486-6.095c7.72,0,15.286,2.085,22.706,6.248
		C1747.25,144.115,1754.208,149.654,1760.713,156.559z"/>
	<path fill="#FFFFFF" d="M2049.329,152.597c0,11.582-2.19,22.401-6.571,32.458c-4.382,10.058-10.339,18.796-17.873,26.211
		c-7.533,7.419-16.396,13.21-26.577,17.372c-10.187,4.167-20.981,6.248-32.387,6.248h-40.331v79.546h-47.24V70.917h87.628
		c11.396,0,22.182,2.085,32.363,6.248c10.177,4.167,19.029,9.905,26.563,17.22c7.528,7.315,13.481,15.953,17.857,25.906
		C2047.139,130.248,2049.329,141.015,2049.329,152.597z M2002.089,151.987c0-6.296-1.172-12.191-3.505-17.677
		c-2.338-5.486-5.538-10.257-9.601-14.324c-4.066-4.063-8.839-7.315-14.324-9.753c-5.486-2.438-11.382-3.657-17.677-3.657h-31.393
		v92.042h31.393c6.295,0,12.19-1.267,17.677-3.81c5.485-2.538,10.258-5.943,14.324-10.21c4.063-4.267,7.263-9.191,9.601-14.782
		C2000.917,164.23,2002.089,158.288,2002.089,151.987z"/>
	<path fill="#FFFFFF" d="M2255.354,226.353c0,13.21-2.438,25.449-7.314,36.726c-4.876,11.276-11.581,21.029-20.115,29.258
		c-8.533,8.229-18.543,14.734-30.021,19.505c-11.481,4.772-23.725,7.163-36.726,7.163c-13.005,0-25.196-2.391-36.572-7.163
		c-11.382-4.771-21.335-11.324-29.868-19.658c-8.534-8.329-15.239-18.134-20.115-29.411c-4.877-11.276-7.314-23.415-7.314-36.42
		c0-12.801,2.485-24.839,7.467-36.116c4.977-11.276,11.733-21.129,20.268-29.563c8.533-8.429,18.486-15.034,29.868-19.811
		c11.376-4.771,23.468-7.162,36.268-7.162c13.001,0,25.244,2.391,36.726,7.162c11.478,4.776,21.487,11.277,30.021,19.506
		c8.534,8.229,15.239,18.034,20.115,29.411C2252.916,201.161,2255.354,213.352,2255.354,226.353z M2211.466,226.353
		c0-7.515-1.318-14.524-3.952-21.03c-2.634-6.5-6.229-12.191-10.786-17.067s-9.877-8.686-15.953-11.429
		c-6.076-2.743-12.558-4.114-19.443-4.114c-6.887,0-13.372,1.372-19.449,4.114c-6.076,2.743-11.396,6.553-15.953,11.429
		c-4.557,4.876-8.152,10.567-10.786,17.067c-2.633,6.505-3.947,13.515-3.947,21.03c0,7.519,1.314,14.529,3.947,21.029
		c2.634,6.505,6.229,12.191,10.786,17.067c4.558,4.876,9.877,8.686,15.953,11.429c6.077,2.743,12.563,4.115,19.449,4.115
		c6.886,0,13.367-1.372,19.443-4.115s11.396-6.553,15.953-11.429s8.152-10.562,10.786-17.067
		C2210.147,240.882,2211.466,233.872,2211.466,226.353z"/>
	<path fill="#FFFFFF" d="M2412.007,265.059c0,8.738-2.038,16.51-6.11,23.315c-4.076,6.81-9.371,12.496-15.886,17.067
		c-6.515,4.571-13.849,8.029-21.992,10.362c-8.147,2.333-16.19,3.505-24.129,3.505c-13.444,0-25.815-2.491-37.116-7.467
		c-11.306-4.976-21.229-12.953-29.782-23.925l26.516-26.82c5.281,6.705,11.376,11.939,18.286,15.696
		c6.905,3.762,14.324,5.638,22.249,5.638c6.904,0,12.647-1.267,17.22-3.81c4.571-2.539,6.857-6.348,6.857-11.429
		c0-5.281-3.253-9.701-9.753-13.258c-6.505-3.553-15.648-7.058-27.43-10.515c-6.91-2.029-13.615-4.619-20.115-7.772
		c-6.505-3.147-12.296-7.01-17.372-11.582c-5.082-4.571-9.144-9.8-12.191-15.696c-3.048-5.891-4.571-12.696-4.571-20.42
		c0-8.534,1.985-16.201,5.957-23.011c3.972-6.805,9.162-12.496,15.577-17.067c6.414-4.572,13.695-8.077,21.844-10.515
		c8.144-2.438,16.391-3.657,24.744-3.657c26.877,0,48.873,10.162,65.979,30.478l-26.21,26.516
		c-5.082-6.296-10.872-11.277-17.373-14.934c-6.505-3.657-13.614-5.486-21.334-5.486c-2.643,0-5.438,0.357-8.381,1.067
		c-2.948,0.714-5.691,1.729-8.229,3.048c-2.543,1.324-4.624,3.048-6.248,5.181c-1.628,2.133-2.438,4.524-2.438,7.162
		c0,4.677,3.095,8.739,9.295,12.191c6.196,3.458,15.087,6.91,26.668,10.363c7.515,2.238,14.63,5.081,21.335,8.534
		c6.705,3.457,12.596,7.467,17.677,12.039c5.076,4.572,9.091,9.753,12.038,15.543
		C2410.53,251.191,2412.007,257.744,2412.007,265.059z"/>
	<path fill="#FFFFFF" d="M2621.078,226.048c0,2.848-0.152,5.791-0.457,8.838s-0.662,6.2-1.066,9.448h-140.807
		c1.624,5.082,3.91,9.905,6.857,14.477c2.943,4.572,6.553,8.534,10.819,11.886c4.268,3.353,9.092,5.996,14.478,7.924
		c5.381,1.933,11.324,2.895,17.829,2.895c7.924,0,15.849-1.371,23.772-4.114s14.524-6.448,19.811-11.125l27.734,27.735
		c-12.19,9.143-24.13,15.596-35.811,19.353c-11.687,3.757-24.03,5.639-37.03,5.639c-13.211,0-25.554-2.438-37.03-7.315
		c-11.481-4.876-21.439-11.477-29.868-19.81c-8.434-8.329-15.087-18.134-19.963-29.411c-4.877-11.277-7.314-23.315-7.314-36.116
		c0-12.801,2.438-24.839,7.314-36.116c4.876-11.276,11.581-21.077,20.115-29.411c8.533-8.329,18.486-14.934,29.868-19.811
		c11.376-4.876,23.567-7.314,36.572-7.314c12.392,0,24.277,2.286,35.659,6.857c11.377,4.572,21.435,10.924,30.173,19.048
		c8.733,8.129,15.644,17.83,20.725,29.106C2618.535,199.989,2621.078,212.438,2621.078,226.048z M2575.058,208.98
		c-3.458-11.172-9.601-20.163-18.439-26.973c-8.838-6.805-18.849-10.21-30.021-10.21c-10.972,0-20.829,3.405-29.563,10.21
		c-8.739,6.81-14.834,15.801-18.287,26.973H2575.058z"/>
	<path fill="#FFFFFF" d="M2694.224,107.49h-45.717V61.773h45.717V107.49z M2693.614,314.433h-44.497V137.967h44.497V314.433z"/>
	<path fill="#FFFFFF" d="M2897.204,314.433h-44.802v-9.143c-5.691,4.676-11.887,8.076-18.592,10.21
		c-6.705,2.133-13.819,3.2-21.334,3.2c-12.396,0-23.772-2.491-34.135-7.467s-19.306-11.682-26.82-20.115
		c-7.52-8.429-13.363-18.234-17.525-29.411c-4.166-11.172-6.247-22.958-6.247-35.354c0-13.206,2.386-25.449,7.162-36.726
		c4.771-11.277,11.124-21.077,19.048-29.411c7.925-8.329,16.963-14.881,27.125-19.658c10.158-4.772,20.62-7.162,31.393-7.162
		c7.515,0,14.829,1.019,21.943,3.047c7.11,2.034,13.206,4.876,18.287,8.534V61.469h44.497V314.433z M2853.012,267.192v-84.728
		c-2.038-1.419-4.386-2.791-7.039-4.115c-2.652-1.319-5.404-2.438-8.257-3.353c-2.857-0.914-5.71-1.624-8.567-2.133
		c-2.857-0.505-5.405-0.762-7.647-0.762c-7.344,0-14.021,1.271-20.039,3.81c-6.02,2.543-11.268,6.2-15.754,10.972
		c-4.485,4.776-7.952,10.515-10.4,17.22c-2.447,6.705-3.671,14.124-3.671,22.249c0,7.924,1.224,15.191,3.671,21.792
		c2.448,6.605,5.811,12.295,10.096,17.067c4.281,4.776,9.43,8.486,15.448,11.124c6.015,2.643,12.592,3.962,19.729,3.962
		C2832.206,280.298,2843.016,275.931,2853.012,267.192z"/>
	<path fill="#FFFFFF" d="M3115.726,226.353c0,13.21-2.438,25.449-7.314,36.726c-4.876,11.276-11.581,21.029-20.115,29.258
		c-8.533,8.229-18.543,14.734-30.021,19.505c-11.481,4.772-23.725,7.163-36.726,7.163c-13.005,0-25.196-2.391-36.572-7.163
		c-11.382-4.771-21.335-11.324-29.868-19.658c-8.534-8.329-15.239-18.134-20.115-29.411c-4.877-11.276-7.314-23.415-7.314-36.42
		c0-12.801,2.485-24.839,7.467-36.116c4.977-11.276,11.733-21.129,20.268-29.563c8.533-8.429,18.486-15.034,29.868-19.811
		c11.376-4.771,23.468-7.162,36.268-7.162c13.001,0,25.244,2.391,36.726,7.162c11.478,4.776,21.487,11.277,30.021,19.506
		c8.534,8.229,15.239,18.034,20.115,29.411C3113.288,201.161,3115.726,213.352,3115.726,226.353z M3071.838,226.353
		c0-7.515-1.318-14.524-3.952-21.03c-2.634-6.5-6.229-12.191-10.786-17.067s-9.877-8.686-15.953-11.429
		c-6.076-2.743-12.558-4.114-19.443-4.114c-6.887,0-13.372,1.372-19.449,4.114c-6.076,2.743-11.396,6.553-15.953,11.429
		c-4.557,4.876-8.152,10.567-10.786,17.067c-2.633,6.505-3.947,13.515-3.947,21.03c0,7.519,1.314,14.529,3.947,21.029
		c2.634,6.505,6.229,12.191,10.786,17.067c4.558,4.876,9.877,8.686,15.953,11.429c6.077,2.743,12.563,4.115,19.449,4.115
		c6.886,0,13.367-1.372,19.443-4.115s11.396-6.553,15.953-11.429s8.152-10.562,10.786-17.067
		C3070.52,240.882,3071.838,233.872,3071.838,226.353z"/>
	<path fill="#FFFFFF" d="M3303.467,314.433h-43.888V209.285c0-6.296-0.972-11.834-2.91-16.61c-1.938-4.772-4.538-8.734-7.805-11.886
		c-3.267-3.148-6.991-5.486-11.172-7.01c-4.182-1.524-8.52-2.286-13.006-2.286c-6.733,0-13.367,1.171-19.896,3.505
		c-6.529,2.338-12.443,6.048-17.749,11.125v128.311h-43.888V138.272h43.888l0.306,13.105c2.638-2.638,5.891-5.076,9.752-7.314
		c3.857-2.233,7.872-4.115,12.039-5.638c4.162-1.524,8.429-2.691,12.801-3.505c4.366-0.809,8.581-1.219,12.648-1.219
		c8.938,0,17.524,1.424,25.753,4.267c8.229,2.848,15.544,7.215,21.944,13.105c6.4,5.896,11.528,13.515,15.391,22.858
		c3.857,9.348,5.791,20.42,5.791,33.22V314.433z"/>
</g>
</svg>
