<?xml version="1.0" encoding="utf-8"?>
<!-- Generator: Adobe Illustrator 16.0.0, SVG Export Plug-In . SVG Version: 6.00 Build 0)  -->
<!DOCTYPE svg PUBLIC "-//W3C//DTD SVG 1.1//EN" "http://www.w3.org/Graphics/SVG/1.1/DTD/svg11.dtd">
<svg version="1.1" id="Layer_1" xmlns="http://www.w3.org/2000/svg" xmlns:xlink="http://www.w3.org/1999/xlink" x="0px" y="0px"
	 width="2016.449px" height="642.25px" viewBox="0 0 2016.449 642.25" enable-background="new 0 0 2016.449 642.25"
	 xml:space="preserve">
<polygon fill="#4D4D4D" points="385.348,256.898 385.348,385.349 513.802,385.349 513.802,513.801 128.449,513.801 128.449,385.349 
	256.898,385.349 256.898,256.898 128.449,256.898 128.449,128.449 513.802,128.449 513.802,256.898 "/>
<g>
	<path fill="#4D4D4D" d="M730.727,391.933h-47.24V148.417h47.24V391.933z"/>
	<path fill="#4D4D4D" d="M930.658,391.933H886.77V286.785c0-6.296-0.972-11.834-2.91-16.61c-1.938-4.772-4.538-8.734-7.805-11.886
		c-3.267-3.148-6.991-5.486-11.172-7.01c-4.181-1.524-8.52-2.286-13.005-2.286c-6.734,0-13.367,1.171-19.896,3.505
		c-6.529,2.338-12.443,6.048-17.749,11.125v128.311h-43.888V215.772h43.888l0.305,13.105c2.638-2.638,5.891-5.076,9.753-7.314
		c3.857-2.233,7.872-4.115,12.039-5.638c4.162-1.524,8.429-2.691,12.801-3.505c4.367-0.809,8.581-1.219,12.648-1.219
		c8.938,0,17.525,1.424,25.753,4.267c8.229,2.848,15.544,7.215,21.944,13.105c6.4,5.896,11.529,13.515,15.392,22.858
		c3.857,9.348,5.791,20.42,5.791,33.22V391.933z"/>
	<path fill="#4D4D4D" d="M1062.317,387.971c-4.472,2.848-9.653,4.976-15.544,6.4c-5.896,1.419-11.786,2.134-17.678,2.134
		c-10.361,0-19.1-1.271-26.21-3.81c-7.114-2.538-12.801-6.448-17.067-11.734c-4.268-5.281-7.367-11.986-9.296-20.115
		c-1.933-8.125-2.896-17.677-2.896-28.649v-77.108h-23.163v-19.811c14.219-5.891,25.753-14.629,34.592-26.21
		c8.838-11.582,14.881-26.616,18.134-45.107h14.324v51.507h44.497v39.621h-44.497v80.156c0,4.472,0.558,8.129,1.677,10.972
		c1.114,2.848,2.59,5.081,4.419,6.705c1.829,1.628,3.909,2.743,6.248,3.353c2.333,0.609,4.823,0.914,7.467,0.914
		c3.452,0,7.62-0.609,12.496-1.829c4.876-1.219,9.038-3.248,12.496-6.095V387.971z"/>
	<path fill="#4D4D4D" d="M1214.704,234.059l-23.468,37.183c-4.267-4.671-8.991-8.786-14.172-12.343
		c-5.182-3.553-10.415-5.333-15.696-5.333c-2.848,0-5.943,0.662-9.296,1.981c-3.353,1.324-6.505,3.505-9.447,6.553
		c-2.948,3.048-5.438,7.062-7.468,12.039c-2.033,4.981-3.048,11.125-3.048,18.439v99.357h-43.888V215.772h43.888v18.896
		c5.281-7.515,11.125-13.306,17.525-17.373c6.4-4.062,13.563-6.095,21.486-6.095c7.72,0,15.286,2.085,22.706,6.248
		C1201.241,221.615,1208.199,227.154,1214.704,234.059z"/>
	<path fill="#4D4D4D" d="M1373.184,391.933h-43.888v-9.448c-7.725,5.286-15.901,8.943-24.534,10.972
		c-8.639,2.029-17.525,3.048-26.668,3.048c-8.534,0-16.258-1.271-23.163-3.81c-6.91-2.538-12.905-6.195-17.982-10.972
		c-5.081-4.771-8.99-10.41-11.733-16.915c-2.743-6.5-4.114-13.715-4.114-21.639c0-9.953,2.181-18.639,6.553-26.058
		c4.366-7.415,10.31-13.61,17.829-18.591c7.515-4.977,16.306-8.687,26.363-11.125s20.877-3.657,32.458-3.657h25.297
		c0-10.362-3.353-18.591-10.058-24.687c-6.705-6.095-16.358-9.143-28.954-9.143c-6.095,0-12.396,1.119-18.896,3.353
		c-6.505,2.238-13.006,6.3-19.506,12.191l-25.906-26.211c9.344-8.938,20.163-15.848,32.459-20.725
		c12.291-4.876,24.939-7.314,37.944-7.314c12.191,0,23.044,1.933,32.563,5.791c9.515,3.862,17.201,8.838,23.054,14.934
		c7.667,7.724,13.063,16.358,16.191,25.906c3.124,9.553,4.69,21.744,4.69,36.573V391.933z M1329.296,348.045v-32.611h-20.115
		c-6.096,0-11.839,0.409-17.22,1.219c-5.386,0.814-10.058,2.186-14.02,4.115c-3.963,1.933-7.115,4.419-9.448,7.467
		c-2.339,3.048-3.505,6.705-3.505,10.972c0,6.095,2.386,11.077,7.162,14.934c4.771,3.862,10.919,5.791,18.438,5.791
		c6.501,0,12.953-1.014,19.354-3.048C1316.343,354.854,1322.791,351.907,1329.296,348.045z"/>
	<path fill="#4D4D4D" d="M1659.059,391.933h-51.812l-22.554-48.764H1466.44l-22.858,48.764h-51.812l115.205-243.821h36.878
		L1659.059,391.933z M1566.103,303.853l-40.535-87.775l-41.146,87.775H1566.103z"/>
	<path fill="#4D4D4D" d="M1723.06,184.99h-45.717v-45.716h45.717V184.99z M1722.45,391.933h-44.497V215.467h44.497V391.933z"/>
	<path fill="#4D4D4D" d="M1889.162,234.059l-23.468,37.183c-4.267-4.671-8.991-8.786-14.172-12.343
		c-5.182-3.553-10.415-5.333-15.696-5.333c-2.848,0-5.943,0.662-9.296,1.981c-3.353,1.324-6.505,3.505-9.447,6.553
		c-2.948,3.048-5.438,7.062-7.468,12.039c-2.033,4.981-3.048,11.125-3.048,18.439v99.357h-43.888V215.772h43.888v18.896
		c5.281-7.515,11.125-13.306,17.525-17.373c6.4-4.062,13.563-6.095,21.486-6.095c7.72,0,15.286,2.085,22.706,6.248
		C1875.699,221.615,1882.657,227.154,1889.162,234.059z"/>
</g>
<g>
	<path fill="#4D4D4D" d="M782.45,556.092h-24.37v-55.659h-49.527v55.659h-24.37V430.467h24.37v49.841h49.527v-49.841h24.37V556.092z
		"/>
	<path fill="#4D4D4D" d="M896.753,510.496c0,1.469-0.079,2.987-0.236,4.56c-0.157,1.572-0.341,3.198-0.55,4.874h-72.639
		c0.838,2.621,2.017,5.11,3.538,7.468c1.519,2.358,3.38,4.402,5.582,6.132s4.69,3.093,7.469,4.088
		c2.776,0.997,5.842,1.494,9.198,1.494c4.088,0,8.176-0.708,12.264-2.123s7.493-3.327,10.22-5.739l14.308,14.308
		c-6.289,4.717-12.448,8.046-18.474,9.983c-6.029,1.938-12.396,2.909-19.103,2.909c-6.815,0-13.183-1.258-19.104-3.773
		c-5.923-2.516-11.06-5.921-15.408-10.22c-4.351-4.297-7.783-9.355-10.298-15.172s-3.773-12.028-3.773-18.632
		c0-6.604,1.258-12.814,3.773-18.631s5.975-10.873,10.377-15.172c4.402-4.297,9.537-7.704,15.408-10.22
		c5.869-2.516,12.158-3.773,18.868-3.773c6.392,0,12.524,1.179,18.396,3.538c5.869,2.358,11.058,5.636,15.565,9.827
		c4.505,4.193,8.07,9.198,10.691,15.015C895.442,497.053,896.753,503.475,896.753,510.496z M873.012,501.691
		c-1.784-5.763-4.953-10.401-9.512-13.915c-4.56-3.511-9.724-5.267-15.487-5.267c-5.66,0-10.746,1.756-15.251,5.267
		c-4.508,3.513-7.652,8.151-9.434,13.915H873.012z"/>
	<path fill="#4D4D4D" d="M949.267,555.62c-1.784,0.838-3.801,1.519-6.053,2.044c-2.255,0.523-4.587,0.786-6.997,0.786
		c-3.355,0-6.579-0.447-9.669-1.336c-3.093-0.893-5.792-2.332-8.097-4.324c-2.307-1.99-4.142-4.584-5.503-7.783
		c-1.363-3.195-2.044-7.048-2.044-11.556V425.593h23.112v103.928c0,3.773,0.759,6.368,2.28,7.783
		c1.519,1.415,3.327,2.123,5.424,2.123c2.619,0,5.135-0.786,7.547-2.358V555.62z"/>
	<path fill="#4D4D4D" d="M983.855,449.334h-23.584V425.75h23.584V449.334z M983.541,556.092h-22.955v-91.035h22.955V556.092z"/>
	<path fill="#4D4D4D" d="M1142.025,556.092h-85.061V430.467h24.842v102.041h60.219V556.092z"/>
	<path fill="#4D4D4D" d="M1176.614,449.334h-23.584V425.75h23.584V449.334z M1176.3,556.092h-22.955v-91.035h22.955V556.092z"/>
	<path fill="#4D4D4D" d="M1279.756,556.092h-22.642v-54.244c0-3.248-0.501-6.104-1.501-8.569c-0.999-2.461-2.341-4.505-4.026-6.132
		c-1.686-1.624-3.606-2.83-5.763-3.616c-2.157-0.786-4.396-1.179-6.71-1.179c-3.474,0-6.896,0.604-10.264,1.808
		c-3.368,1.206-6.419,3.12-9.156,5.739v66.193h-22.641v-90.877h22.641l0.157,6.761c1.361-1.361,3.039-2.619,5.031-3.773
		c1.99-1.152,4.062-2.123,6.211-2.909c2.146-0.786,4.348-1.388,6.604-1.808c2.253-0.417,4.427-0.629,6.524-0.629
		c4.611,0,9.041,0.734,13.286,2.201c4.245,1.469,8.019,3.722,11.32,6.761c3.302,3.042,5.947,6.972,7.94,11.792
		c1.989,4.823,2.987,10.534,2.987,17.138V556.092z"/>
	<path fill="#4D4D4D" d="M1390.913,510.496c0,1.469-0.079,2.987-0.236,4.56c-0.157,1.572-0.342,3.198-0.55,4.874h-72.64
		c0.838,2.621,2.018,5.11,3.538,7.468c1.518,2.358,3.38,4.402,5.581,6.132s4.69,3.093,7.469,4.088
		c2.775,0.997,5.842,1.494,9.197,1.494c4.088,0,8.176-0.708,12.264-2.123s7.493-3.327,10.22-5.739l14.309,14.308
		c-6.289,4.717-12.448,8.046-18.475,9.983c-6.028,1.938-12.396,2.909-19.104,2.909c-6.814,0-13.183-1.258-19.103-3.773
		c-5.923-2.516-11.061-5.921-15.408-10.22c-4.352-4.297-7.783-9.355-10.299-15.172s-3.773-12.028-3.773-18.632
		c0-6.604,1.258-12.814,3.773-18.631s5.975-10.873,10.377-15.172c4.402-4.297,9.537-7.704,15.408-10.22
		c5.869-2.516,12.158-3.773,18.867-3.773c6.393,0,12.524,1.179,18.396,3.538c5.869,2.358,11.058,5.636,15.566,9.827
		c4.505,4.193,8.069,9.198,10.691,15.015C1389.601,497.053,1390.913,503.475,1390.913,510.496z M1367.171,501.691
		c-1.783-5.763-4.952-10.401-9.512-13.915c-4.56-3.511-9.724-5.267-15.487-5.267c-5.66,0-10.745,1.756-15.251,5.267
		c-4.508,3.513-7.652,8.151-9.434,13.915H1367.171z"/>
	<path fill="#4D4D4D" d="M1471.727,530.621c0,4.508-1.051,8.517-3.151,12.027c-2.103,3.514-4.835,6.446-8.195,8.805
		c-3.361,2.358-7.145,4.143-11.346,5.347c-4.203,1.203-8.353,1.808-12.447,1.808c-6.936,0-13.318-1.285-19.147-3.853
		c-5.832-2.566-10.952-6.682-15.364-12.342l13.679-13.836c2.725,3.459,5.869,6.159,9.434,8.097c3.563,1.94,7.39,2.909,11.478,2.909
		c3.563,0,6.525-0.654,8.884-1.965c2.358-1.31,3.537-3.275,3.537-5.896c0-2.725-1.678-5.004-5.031-6.839
		c-3.355-1.833-8.072-3.641-14.15-5.424c-3.564-1.047-7.023-2.383-10.377-4.009c-3.355-1.624-6.343-3.617-8.962-5.975
		c-2.621-2.358-4.717-5.056-6.289-8.097c-1.572-3.039-2.358-6.549-2.358-10.534c0-4.402,1.024-8.357,3.073-11.871
		c2.049-3.511,4.727-6.446,8.036-8.805c3.309-2.358,7.065-4.167,11.269-5.424c4.201-1.258,8.456-1.887,12.765-1.887
		c13.866,0,25.213,5.243,34.037,15.723l-13.521,13.679c-2.621-3.248-5.608-5.817-8.962-7.704c-3.355-1.887-7.023-2.83-11.006-2.83
		c-1.363,0-2.806,0.184-4.323,0.55c-1.521,0.369-2.936,0.892-4.245,1.572c-1.313,0.683-2.386,1.572-3.224,2.673
		c-0.84,1.101-1.258,2.334-1.258,3.695c0,2.413,1.597,4.508,4.796,6.289c3.196,1.784,7.782,3.565,13.757,5.346
		c3.877,1.155,7.547,2.622,11.006,4.402c3.459,1.784,6.498,3.852,9.119,6.21c2.619,2.358,4.69,5.032,6.211,8.019
		C1470.966,523.467,1471.727,526.848,1471.727,530.621z"/>
</g>
</svg>
