<?xml version="1.0" encoding="utf-8"?>
<!-- Generator: Adobe Illustrator 16.0.0, SVG Export Plug-In . SVG Version: 6.00 Build 0)  -->
<!DOCTYPE svg PUBLIC "-//W3C//DTD SVG 1.1//EN" "http://www.w3.org/Graphics/SVG/1.1/DTD/svg11.dtd">
<svg version="1.1" id="Layer_1" xmlns="http://www.w3.org/2000/svg" xmlns:xlink="http://www.w3.org/1999/xlink" x="0px" y="0px"
	 width="856.45px" height="385.351px" viewBox="0 0 856.45 385.351" enable-background="new 0 0 856.45 385.351"
	 xml:space="preserve">
<path fill="#FFFFFF" d="M762.741,0H564.809c-51.539,0-93.711,42.169-93.711,93.71v197.931c0,51.54,42.17,93.71,93.711,93.71h197.932
	c51.539,0,93.709-42.17,93.709-93.71V93.71C856.45,42.169,814.282,0,762.741,0z M768.87,157.643h-70.064v70.063h70.064v70.063
	H558.678v-70.063h70.064v-70.063h-70.064V87.581H768.87V157.643z"/>
<g>
	<path fill="#FFFFFF" d="M257.531,63.591c-10.58,0-19.19,8.61-19.19,19.19c0,10.58,8.61,19.19,19.19,19.19
		c10.58,0,19.19-8.61,19.19-19.19C276.721,72.201,268.111,63.591,257.531,63.591z"/>
	<path fill="#FFFFFF" d="M127.821,283.332c-10.58,0-19.19,8.609-19.19,19.189s8.61,19.189,19.19,19.189
		c10.58,0,19.19-8.609,19.19-19.189S138.401,283.332,127.821,283.332z"/>
	<path fill="#FFFFFF" d="M385.35,291.641V93.71C385.35,42.169,343.181,0,291.64,0H93.71C42.169,0,0,42.169,0,93.71v197.931
		c0,51.54,42.169,93.71,93.71,93.71h197.931C343.182,385.351,385.351,343.181,385.35,291.641L385.35,291.641z M271.471,118.381
		v14.84c0,1.86-0.26,18.71-9.24,36.05c-8.79,16.95-27.39,37.16-66.12,37.16h-6.77c-20.21,0-33.8,7.27-41.54,22.21
		c-5.97,11.53-6.14,23.21-6.14,23.319v14.931c14.26,5.55,24.39,19.43,24.39,35.63c0,21.09-17.15,38.24-38.23,38.24
		c-21.08,0-38.24-17.15-38.24-38.24c0-16.199,10.14-30.08,24.4-35.641v-14.92c0-1.859,0.25-18.709,9.24-36.049
		c8.78-16.951,27.38-37.161,66.12-37.161h6.77c19.87,0,33.33-7.03,41.15-21.47c6.31-11.69,6.521-24.021,6.521-24.14v-14.68
		c-14.31-5.53-24.48-19.44-24.48-35.68c0-21.08,17.15-38.23,38.23-38.23c21.08,0,38.229,17.15,38.229,38.23
		C295.761,98.951,285.681,112.811,271.471,118.381z"/>
</g>
</svg>
