<?xml version="1.0" encoding="utf-8"?>
<!-- Generator: Adobe Illustrator 16.0.0, SVG Export Plug-In . SVG Version: 6.00 Build 0)  -->
<!DOCTYPE svg PUBLIC "-//W3C//DTD SVG 1.1//EN" "http://www.w3.org/Graphics/SVG/1.1/DTD/svg11.dtd">
<svg version="1.1" id="Layer_1" xmlns="http://www.w3.org/2000/svg" xmlns:xlink="http://www.w3.org/1999/xlink" x="0px" y="0px"
	 width="3404.956px" height="385.352px" viewBox="0 0 3404.956 385.352" enable-background="new 0 0 3404.956 385.352"
	 xml:space="preserve">
<polygon fill="#FFFFFF" points="256.899,128.449 256.899,256.898 385.353,256.898 385.353,385.352 0,385.352 0,256.898 
	128.449,256.898 128.449,128.449 0,128.449 0,0 385.353,0 385.353,128.449 "/>
<g enable-background="new    ">
	<path fill="#FFFFFF" d="M602.277,314.433h-47.24V70.917h47.24V314.433z"/>
	<path fill="#FFFFFF" d="M802.208,314.433h-43.888V209.285c0-6.296-0.972-11.834-2.91-16.61c-1.938-4.771-4.539-8.733-7.805-11.887
		c-3.267-3.147-6.991-5.485-11.172-7.01c-4.181-1.523-8.52-2.285-13.005-2.285c-6.734,0-13.367,1.171-19.896,3.505
		c-6.529,2.338-12.443,6.048-17.749,11.124v128.311h-43.888v-176.16h43.888l0.305,13.105c2.638-2.639,5.891-5.077,9.753-7.315
		c3.857-2.233,7.872-4.114,12.039-5.638c4.162-1.524,8.429-2.69,12.801-3.505c4.367-0.81,8.581-1.22,12.648-1.22
		c8.938,0,17.524,1.424,25.753,4.268c8.229,2.848,15.544,7.214,21.944,13.105c6.4,5.896,11.529,13.515,15.391,22.857
		c3.857,9.349,5.791,20.42,5.791,33.221V314.433z"/>
	<path fill="#FFFFFF" d="M933.867,310.471c-4.472,2.848-9.653,4.977-15.543,6.4c-5.896,1.419-11.786,2.133-17.677,2.133
		c-10.362,0-19.101-1.271-26.21-3.81c-7.115-2.538-12.801-6.447-17.067-11.733c-4.267-5.281-7.367-11.986-9.296-20.115
		c-1.933-8.124-2.896-17.677-2.896-28.649v-77.108h-23.163v-19.81c14.22-5.892,25.753-14.63,34.592-26.211
		c8.838-11.582,14.882-26.615,18.134-45.107h14.324v51.508h44.498v39.62h-44.498v80.156c0,4.472,0.558,8.129,1.676,10.972
		c1.115,2.849,2.591,5.082,4.419,6.705c1.829,1.629,3.91,2.743,6.248,3.353c2.333,0.61,4.824,0.915,7.467,0.915
		c3.453,0,7.62-0.609,12.496-1.829c4.876-1.219,9.039-3.248,12.496-6.096V310.471z"/>
	<path fill="#FFFFFF" d="M1086.254,156.559l-23.468,37.183c-4.267-4.672-8.991-8.786-14.172-12.343
		c-5.182-3.553-10.415-5.334-15.696-5.334c-2.848,0-5.943,0.662-9.295,1.981c-3.353,1.323-6.505,3.505-9.448,6.553
		c-2.948,3.047-5.438,7.062-7.467,12.038c-2.034,4.981-3.048,11.124-3.048,18.439v99.356h-43.888v-176.16h43.888v18.896
		c5.281-7.515,11.124-13.305,17.524-17.372c6.4-4.062,13.563-6.096,21.487-6.096c7.719,0,15.287,2.086,22.706,6.248
		C1072.792,144.115,1079.75,149.653,1086.254,156.559z"/>
	<path fill="#FFFFFF" d="M1244.734,314.433h-43.888v-9.448c-7.724,5.286-15.901,8.943-24.535,10.972
		c-8.639,2.029-17.524,3.048-26.668,3.048c-8.534,0-16.258-1.271-23.163-3.81c-6.91-2.538-12.905-6.195-17.981-10.972
		c-5.081-4.771-8.991-10.41-11.734-16.915c-2.743-6.5-4.115-13.715-4.115-21.639c0-9.953,2.181-18.64,6.553-26.059
		c4.367-7.415,10.31-13.61,17.83-18.592c7.515-4.977,16.306-8.686,26.363-11.124c10.057-2.438,20.877-3.657,32.458-3.657h25.296
		c0-10.362-3.353-18.592-10.058-24.687c-6.705-6.096-16.358-9.144-28.954-9.144c-6.096,0-12.396,1.119-18.896,3.353
		c-6.505,2.238-13.005,6.3-19.505,12.19l-25.906-26.21c9.344-8.938,20.163-15.849,32.459-20.725
		c12.291-4.877,24.939-7.315,37.944-7.315c12.191,0,23.044,1.934,32.563,5.791c9.515,3.862,17.201,8.839,23.054,14.935
		c7.667,7.724,13.063,16.357,16.191,25.905c3.124,9.553,4.691,21.744,4.691,36.573V314.433z M1200.847,270.545v-32.611h-20.115
		c-6.096,0-11.839,0.41-17.22,1.22c-5.386,0.814-10.058,2.186-14.02,4.114c-3.962,1.934-7.115,4.419-9.448,7.467
		c-2.338,3.048-3.505,6.705-3.505,10.972c0,6.096,2.386,11.077,7.163,14.935c4.771,3.862,10.919,5.791,18.439,5.791
		c6.5,0,12.953-1.015,19.353-3.048C1187.894,277.354,1194.341,274.407,1200.847,270.545z"/>
	<path fill="#FFFFFF" d="M1530.609,314.433h-51.812l-22.554-48.764h-118.253l-22.858,48.764h-51.812l115.205-243.82h36.878
		L1530.609,314.433z M1437.653,226.353l-40.535-87.775l-41.145,87.775H1437.653z"/>
	<path fill="#FFFFFF" d="M1594.61,107.49h-45.717V61.773h45.717V107.49z M1594.001,314.433h-44.497V137.968h44.497V314.433z"/>
	<path fill="#FFFFFF" d="M1760.713,156.559l-23.468,37.183c-4.267-4.672-8.991-8.786-14.172-12.343
		c-5.182-3.553-10.415-5.334-15.696-5.334c-2.848,0-5.943,0.662-9.296,1.981c-3.353,1.323-6.505,3.505-9.447,6.553
		c-2.948,3.047-5.438,7.062-7.468,12.038c-2.033,4.981-3.048,11.124-3.048,18.439v99.356h-43.888v-176.16h43.888v18.896
		c5.281-7.515,11.125-13.305,17.525-17.372c6.4-4.062,13.563-6.096,21.486-6.096c7.72,0,15.286,2.086,22.706,6.248
		C1747.25,144.115,1754.208,149.653,1760.713,156.559z"/>
	<path fill="#FFFFFF" d="M2068.834,314.433h-47.24V206.542h-96.005v107.891h-47.24V70.917h47.24v96.613h96.005V70.917h47.24V314.433
		z"/>
	<path fill="#FFFFFF" d="M2290.403,226.048c0,2.848-0.152,5.791-0.457,8.838c-0.305,3.048-0.662,6.201-1.066,9.448h-140.807
		c1.624,5.081,3.91,9.905,6.857,14.478c2.943,4.571,6.553,8.533,10.819,11.886c4.268,3.353,9.091,5.995,14.478,7.924
		c5.381,1.934,11.324,2.896,17.829,2.896c7.924,0,15.849-1.371,23.772-4.114s14.524-6.448,19.811-11.124l27.734,27.734
		c-12.19,9.144-24.13,15.596-35.811,19.354c-11.687,3.757-24.03,5.638-37.03,5.638c-13.211,0-25.554-2.438-37.03-7.314
		c-11.481-4.876-21.439-11.477-29.868-19.811c-8.434-8.329-15.087-18.134-19.963-29.41c-4.877-11.277-7.314-23.315-7.314-36.116
		s2.438-24.839,7.314-36.116c4.876-11.276,11.581-21.077,20.115-29.411c8.533-8.328,18.486-14.934,29.868-19.81
		c11.376-4.877,23.567-7.315,36.572-7.315c12.392,0,24.277,2.286,35.659,6.857c11.377,4.572,21.435,10.925,30.173,19.049
		c8.733,8.129,15.644,17.829,20.725,29.106C2287.86,199.989,2290.403,212.438,2290.403,226.048z M2244.383,208.98
		c-3.458-11.172-9.601-20.163-18.439-26.973c-8.838-6.806-18.849-10.21-30.021-10.21c-10.972,0-20.829,3.404-29.563,10.21
		c-8.739,6.81-14.834,15.801-18.287,26.973H2244.383z"/>
	<path fill="#FFFFFF" d="M2392.197,313.519c-3.457,1.624-7.366,2.942-11.733,3.962c-4.372,1.015-8.891,1.523-13.563,1.523
		c-6.505,0-12.753-0.866-18.744-2.59c-5.995-1.729-11.229-4.52-15.695-8.382c-4.472-3.857-8.029-8.886-10.667-15.086
		c-2.644-6.196-3.963-13.663-3.963-22.401V61.469h44.803v201.457c0,7.314,1.472,12.343,4.419,15.086
		c2.943,2.743,6.448,4.114,10.515,4.114c5.076,0,9.953-1.523,14.629-4.571V313.519z"/>
	<path fill="#FFFFFF" d="M2459.247,107.49h-45.717V61.773h45.717V107.49z M2458.638,314.433h-44.497V137.968h44.497V314.433z"/>
	<path fill="#FFFFFF" d="M2765.848,314.433h-164.884V70.917h48.155v197.799h116.729V314.433z"/>
	<path fill="#FFFFFF" d="M2832.897,107.49h-45.717V61.773h45.717V107.49z M2832.288,314.433h-44.497V137.968h44.497V314.433z"/>
	<path fill="#FFFFFF" d="M3032.83,314.433h-43.888V209.285c0-6.296-0.972-11.834-2.91-16.61c-1.938-4.771-4.538-8.733-7.805-11.887
		c-3.267-3.147-6.991-5.485-11.172-7.01c-4.182-1.523-8.52-2.285-13.006-2.285c-6.733,0-13.367,1.171-19.896,3.505
		c-6.529,2.338-12.443,6.048-17.749,11.124v128.311h-43.888v-176.16h43.888l0.306,13.105c2.638-2.639,5.891-5.077,9.752-7.315
		c3.857-2.233,7.872-4.114,12.039-5.638c4.162-1.524,8.429-2.69,12.801-3.505c4.366-0.81,8.581-1.22,12.648-1.22
		c8.938,0,17.524,1.424,25.753,4.268c8.229,2.848,15.544,7.214,21.944,13.105c6.4,5.896,11.528,13.515,15.391,22.857
		c3.857,9.349,5.791,20.42,5.791,33.221V314.433z"/>
	<path fill="#FFFFFF" d="M3248.302,226.048c0,2.848-0.152,5.791-0.457,8.838c-0.305,3.048-0.662,6.201-1.066,9.448h-140.807
		c1.624,5.081,3.91,9.905,6.857,14.478c2.943,4.571,6.553,8.533,10.819,11.886c4.268,3.353,9.091,5.995,14.478,7.924
		c5.381,1.934,11.324,2.896,17.829,2.896c7.924,0,15.849-1.371,23.772-4.114s14.524-6.448,19.811-11.124l27.734,27.734
		c-12.19,9.144-24.13,15.596-35.811,19.354c-11.687,3.757-24.03,5.638-37.03,5.638c-13.211,0-25.554-2.438-37.03-7.314
		c-11.481-4.876-21.439-11.477-29.868-19.811c-8.434-8.329-15.087-18.134-19.963-29.41c-4.877-11.277-7.314-23.315-7.314-36.116
		s2.438-24.839,7.314-36.116c4.876-11.276,11.581-21.077,20.115-29.411c8.533-8.328,18.486-14.934,29.868-19.81
		c11.376-4.877,23.567-7.315,36.572-7.315c12.392,0,24.277,2.286,35.659,6.857c11.377,4.572,21.435,10.925,30.173,19.049
		c8.733,8.129,15.644,17.829,20.725,29.106C3245.759,199.989,3248.302,212.438,3248.302,226.048z M3202.281,208.98
		c-3.458-11.172-9.601-20.163-18.439-26.973c-8.838-6.806-18.849-10.21-30.021-10.21c-10.972,0-20.829,3.404-29.563,10.21
		c-8.739,6.81-14.834,15.801-18.287,26.973H3202.281z"/>
	<path fill="#FFFFFF" d="M3404.956,265.059c0,8.739-2.038,16.511-6.11,23.315c-4.076,6.811-9.371,12.496-15.886,17.067
		c-6.515,4.572-13.849,8.029-21.992,10.362c-8.147,2.334-16.19,3.505-24.129,3.505c-13.444,0-25.815-2.49-37.116-7.467
		c-11.306-4.977-21.229-12.953-29.782-23.925l26.516-26.82c5.281,6.705,11.376,11.938,18.286,15.696
		c6.905,3.762,14.324,5.639,22.249,5.639c6.904,0,12.647-1.268,17.22-3.811c4.571-2.538,6.857-6.348,6.857-11.429
		c0-5.281-3.253-9.7-9.753-13.258c-6.505-3.553-15.648-7.058-27.43-10.515c-6.91-2.028-13.615-4.619-20.115-7.771
		c-6.505-3.148-12.296-7.01-17.372-11.582c-5.082-4.571-9.144-9.8-12.191-15.695c-3.048-5.892-4.571-12.696-4.571-20.421
		c0-8.533,1.985-16.2,5.957-23.01c3.972-6.806,9.162-12.496,15.577-17.067c6.414-4.572,13.695-8.077,21.844-10.516
		c8.144-2.438,16.391-3.657,24.744-3.657c26.877,0,48.873,10.163,65.979,30.478l-26.21,26.516
		c-5.082-6.295-10.872-11.276-17.373-14.934c-6.505-3.657-13.614-5.486-21.334-5.486c-2.643,0-5.438,0.357-8.381,1.067
		c-2.948,0.714-5.691,1.729-8.229,3.047c-2.543,1.324-4.624,3.048-6.248,5.182c-1.628,2.134-2.438,4.524-2.438,7.162
		c0,4.677,3.095,8.738,9.295,12.191c6.196,3.457,15.087,6.909,26.668,10.362c7.515,2.238,14.63,5.081,21.335,8.533
		c6.705,3.458,12.596,7.468,17.677,12.039c5.076,4.571,9.091,9.753,12.038,15.544
		C3403.479,251.191,3404.956,257.744,3404.956,265.059z"/>
</g>
</svg>
