<?xml version="1.0" encoding="utf-8"?>
<!-- Generator: Adobe Illustrator 16.0.0, SVG Export Plug-In . SVG Version: 6.00 Build 0)  -->
<!DOCTYPE svg PUBLIC "-//W3C//DTD SVG 1.1//EN" "http://www.w3.org/Graphics/SVG/1.1/DTD/svg11.dtd">
<svg version="1.1" id="Layer_1" xmlns="http://www.w3.org/2000/svg" xmlns:xlink="http://www.w3.org/1999/xlink" x="0px" y="0px"
	 width="2430.232px" height="385.351px" viewBox="0 0 2430.232 385.351" enable-background="new 0 0 2430.232 385.351"
	 xml:space="preserve">
<g>
	<path fill="#FFFFFF" d="M1031.851,297.77h-41.372V84.499h41.372V297.77z"/>
	<path fill="#FFFFFF" d="M1206.949,297.77h-38.438v-92.088c0-5.515-0.851-10.364-2.549-14.547c-1.697-4.179-3.975-7.649-6.835-10.41
		c-2.86-2.757-6.123-4.805-9.784-6.14c-3.662-1.334-7.462-2.001-11.391-2.001c-5.897,0-11.707,1.026-17.425,3.069
		c-5.719,2.048-10.898,5.297-15.544,9.743V297.77h-38.438V143.489h38.438l0.267,11.478c2.312-2.311,5.159-4.446,8.542-6.406
		c3.378-1.956,6.895-3.604,10.543-4.938c3.646-1.334,7.382-2.356,11.211-3.069c3.824-0.709,7.516-1.068,11.077-1.068
		c7.828,0,15.348,1.247,22.555,3.737c7.207,2.494,13.613,6.319,19.22,11.478c5.604,5.163,10.097,11.836,13.479,20.019
		c3.378,8.188,5.071,17.884,5.071,29.094L1206.949,297.77L1206.949,297.77z"/>
	<path fill="#FFFFFF" d="M1322.256,294.298c-3.916,2.494-8.454,4.359-13.612,5.605c-5.163,1.243-10.322,1.869-15.481,1.869
		c-9.075,0-16.729-1.113-22.955-3.336c-6.23-2.223-11.21-5.646-14.947-10.277c-3.737-4.625-6.452-10.498-8.142-17.617
		c-1.692-7.115-2.535-15.48-2.535-25.09v-67.531h-20.286v-17.35c12.453-5.159,22.555-12.813,30.296-22.955
		c7.74-10.143,13.033-23.31,15.882-39.504h12.545v45.109h38.972v34.7h-38.972v70.201c0,3.916,0.488,7.119,1.469,9.608
		c0.977,2.494,2.27,4.45,3.871,5.872c1.602,1.426,3.424,2.402,5.472,2.936c2.043,0.535,4.225,0.801,6.539,0.801
		c3.023,0,6.674-0.533,10.943-1.602c4.271-1.066,7.916-2.844,10.943-5.338L1322.256,294.298L1322.256,294.298z"/>
	<path fill="#FFFFFF" d="M1455.716,159.504l-20.554,32.564c-3.736-4.091-7.874-7.695-12.411-10.81
		c-4.538-3.111-9.121-4.671-13.747-4.671c-2.494,0-5.205,0.58-8.141,1.735c-2.938,1.159-5.697,3.069-8.274,5.739
		c-2.582,2.669-4.764,6.185-6.54,10.543c-1.78,4.362-2.669,9.743-2.669,16.147v87.018h-38.437v-154.28h38.437v16.549
		c4.625-6.582,9.742-11.653,15.349-15.215c5.604-3.558,11.878-5.338,18.817-5.338c6.761,0,13.388,1.827,19.886,5.472
		C1443.925,148.606,1450.02,153.457,1455.716,159.504z"/>
	<path fill="#FFFFFF" d="M1594.512,297.77h-38.437v-8.274c-6.765,4.629-13.927,7.834-21.487,9.609
		c-7.564,1.777-15.348,2.669-23.355,2.669c-7.474,0-14.237-1.114-20.285-3.336c-6.053-2.224-11.304-5.426-15.748-9.608
		c-4.45-4.18-7.874-9.117-10.276-14.814c-2.402-5.693-3.604-12.012-3.604-18.952c0-8.717,1.91-16.323,5.738-22.821
		c3.825-6.494,9.03-11.92,15.615-16.283c6.581-4.357,14.28-7.606,23.089-9.742c8.81-2.137,18.284-3.203,28.427-3.203h22.155
		c0-9.075-2.937-16.282-8.809-21.621c-5.872-5.339-14.326-8.008-25.357-8.008c-5.339,0-10.856,0.98-16.55,2.938
		c-5.697,1.96-11.391,5.518-17.083,10.677l-22.688-22.955c8.185-7.829,17.659-13.88,28.428-18.151
		c10.766-4.271,21.843-6.406,33.231-6.406c10.677,0,20.183,1.693,28.519,5.072c8.334,3.382,15.064,7.741,20.19,13.079
		c6.715,6.765,11.44,14.326,14.181,22.688c2.735,8.366,4.107,19.043,4.107,32.03V297.77L1594.512,297.77z M1556.075,259.333v-28.562
		h-17.616c-5.339,0-10.369,0.358-15.081,1.067c-4.718,0.713-8.81,1.916-12.279,3.604c-3.47,1.692-6.229,3.87-8.274,6.54
		c-2.047,2.669-3.068,5.872-3.068,9.609c0,5.338,2.09,9.701,6.271,13.078c4.181,3.383,9.563,5.072,16.149,5.072
		c5.692,0,11.345-0.889,16.949-2.67C1544.73,265.296,1550.378,262.714,1556.075,259.333z"/>
	<path fill="#FFFFFF" d="M1789.895,297.77h-45.56l-15.178-48.58c-1.597-5.338-3.595-10.231-5.988-14.681
		c-2.397-4.446-5.284-8.275-8.654-11.479c-3.374-3.203-7.411-5.693-12.116-7.474c-4.703-1.776-10.25-2.669-16.641-2.669h-15.443
		v84.881h-40.84V84.499l84.197-0.267c9.059,0,17.496,1.56,25.313,4.671c7.815,3.115,14.563,7.432,20.248,12.946
		c5.681,5.518,10.123,12.011,13.32,19.485c3.195,7.474,4.797,15.573,4.797,24.29c0,6.231-0.977,12.278-2.92,18.151
		c-1.943,5.872-4.684,11.302-8.22,16.282c-3.537,4.984-7.731,9.388-12.592,13.212c-4.862,3.829-10.21,6.719-16.04,8.675
		c6.715,2.494,12.195,6.097,16.439,10.81c4.246,4.718,7.604,10.369,10.081,16.951c1.234,3.027,2.386,6.051,3.444,9.074
		c1.061,3.028,2.165,6.186,3.316,9.477c1.149,3.295,2.39,6.853,3.715,10.677c1.326,3.829,2.781,8.053,4.375,12.679
		c1.957,5.872,3.778,10.902,5.473,15.081C1786.112,290.875,1787.936,294.566,1789.895,297.77z M1735.977,148.561
		c0-4.98-0.935-9.518-2.803-13.613c-1.867-4.091-4.404-7.649-7.607-10.677c-3.202-3.024-6.984-5.38-11.344-7.073
		c-4.361-1.689-9.033-2.536-14.014-2.536h-29.896v66.464h29.896c4.979,0,9.65-0.755,14.014-2.269
		c4.358-1.51,8.142-3.691,11.344-6.54c3.203-2.844,5.74-6.273,7.607-10.276C1735.042,158.036,1735.977,153.544,1735.977,148.561z"/>
	<path fill="#FFFFFF" d="M1969.53,220.628c0,11.57-2.136,22.289-6.406,32.164c-4.271,9.877-10.144,18.418-17.616,25.625
		c-7.474,7.207-16.24,12.903-26.292,17.082c-10.056,4.18-20.778,6.273-32.164,6.273c-11.39,0-22.065-2.094-32.03-6.273
		c-9.968-4.178-18.685-9.916-26.157-17.215c-7.476-7.295-13.347-15.883-17.617-25.759s-6.406-20.507-6.406-31.897
		c0-11.211,2.177-21.754,6.54-31.629c4.358-9.876,10.276-18.505,17.75-25.892c7.475-7.382,16.19-13.167,26.158-17.35
		c9.964-4.179,20.553-6.273,31.764-6.273c11.387,0,22.108,2.094,32.164,6.273c10.053,4.183,18.818,9.876,26.292,17.083
		s13.347,15.794,17.616,25.758C1967.396,198.566,1969.53,209.244,1969.53,220.628z M1931.094,220.628
		c0-6.582-1.154-12.721-3.462-18.418c-2.306-5.692-5.455-10.676-9.446-14.946c-3.99-4.271-8.648-7.607-13.972-10.01
		c-5.321-2.402-10.998-3.604-17.028-3.604c-6.031,0-11.712,1.201-17.033,3.604c-5.32,2.403-9.979,5.739-13.972,10.01
		c-3.991,4.271-7.141,9.254-9.446,14.946c-2.307,5.697-3.457,11.836-3.457,18.418c0,6.586,1.15,12.726,3.457,18.418
		c2.307,5.697,5.455,10.677,9.446,14.947s8.65,7.606,13.972,10.01c5.322,2.402,11.002,3.604,17.033,3.604
		c6.03,0,11.707-1.201,17.028-3.604c5.322-2.402,9.979-5.739,13.972-10.01c3.991-4.271,7.142-9.25,9.446-14.947
		C1929.938,233.354,1931.094,227.214,1931.094,220.628z"/>
	<path fill="#FFFFFF" d="M2130.218,297.77h-38.438v-11.745c-2.494,2.494-5.384,4.671-8.675,6.54
		c-3.295,1.869-6.766,3.47-10.41,4.806c-3.649,1.334-7.387,2.355-11.21,3.069c-3.829,0.709-7.434,1.067-10.812,1.067
		c-7.833,0-15.349-1.248-22.555-3.737c-7.207-2.489-13.571-6.313-19.085-11.478c-5.519-5.16-9.922-11.832-13.213-20.02
		c-3.296-8.184-4.938-17.884-4.938-29.096v-93.688h38.438v91.821c0,5.518,0.842,10.367,2.534,14.547
		c1.689,4.184,3.912,7.652,6.674,10.41c2.757,2.761,5.96,4.805,9.608,6.139c3.646,1.334,7.429,2.002,11.345,2.002
		c12.453,0,23.223-4.271,32.298-12.813V143.489h38.438V297.77z"/>
	<path fill="#FFFFFF" d="M2248.193,294.298c-3.916,2.494-8.454,4.359-13.612,5.605c-5.164,1.243-10.323,1.869-15.481,1.869
		c-9.075,0-16.729-1.113-22.955-3.336c-6.23-2.223-11.211-5.646-14.947-10.277c-3.737-4.625-6.452-10.498-8.143-17.617
		c-1.691-7.115-2.535-15.48-2.535-25.09v-67.531h-20.285v-17.35c12.453-5.159,22.555-12.813,30.296-22.955
		c7.739-10.143,13.032-23.31,15.882-39.504h12.545v45.109h38.971v34.7h-38.971v70.201c0,3.916,0.488,7.119,1.468,9.608
		c0.978,2.494,2.271,4.45,3.871,5.872c1.603,1.426,3.425,2.402,5.472,2.936c2.043,0.535,4.226,0.801,6.539,0.801
		c3.024,0,6.675-0.533,10.944-1.602c4.271-1.066,7.916-2.844,10.943-5.338L2248.193,294.298L2248.193,294.298z"/>
	<path fill="#FFFFFF" d="M2430.232,220.362c0,2.494-0.134,5.071-0.4,7.741c-0.268,2.669-0.579,5.43-0.934,8.273H2305.58
		c1.423,4.451,3.425,8.676,6.006,12.68c2.577,4.004,5.739,7.475,9.477,10.41c3.736,2.936,7.962,5.25,12.679,6.939
		c4.713,1.693,9.918,2.536,15.615,2.536c6.939,0,13.88-1.2,20.819-3.604c6.939-2.401,12.721-5.646,17.351-9.742l24.29,24.289
		c-10.677,8.009-21.133,13.66-31.363,16.951c-10.234,3.291-21.045,4.938-32.432,4.938c-11.569,0-22.379-2.135-32.431-6.406
		c-10.056-4.271-18.776-10.051-26.158-17.35c-7.387-7.294-13.213-15.883-17.483-25.758c-4.27-9.877-6.405-20.42-6.405-31.631
		s2.136-21.754,6.405-31.629c4.271-9.876,10.144-18.459,17.617-25.758c7.475-7.294,16.19-13.08,26.158-17.35
		c9.964-4.271,20.641-6.406,32.03-6.406c10.853,0,21.262,2.002,31.229,6.006c9.964,4.004,18.772,9.567,26.427,16.683
		c7.647,7.119,13.699,15.615,18.149,25.491C2428.006,197.541,2430.232,208.442,2430.232,220.362z M2389.928,205.416
		c-3.027-9.785-8.408-17.66-16.147-23.624c-7.741-5.96-16.509-8.942-26.292-8.942c-9.609,0-18.243,2.982-25.893,8.942
		c-7.652,5.964-12.99,13.838-16.016,23.624H2389.928z"/>
</g>
<path fill="#FFFFFF" d="M762.74,0H564.809c-51.539,0-93.71,42.169-93.71,93.71v197.931c0,51.54,42.169,93.71,93.71,93.71H762.74
	c51.54,0,93.71-42.17,93.71-93.71V93.71C856.45,42.169,814.281,0,762.74,0z M768.87,157.643h-70.065v70.063h70.065v70.063H558.679
	v-70.063h70.063v-70.063h-70.063V87.581H768.87V157.643z"/>
<g>
	<path fill="#FFFFFF" d="M127.821,283.332c-10.58,0-19.19,8.609-19.19,19.189s8.61,19.189,19.19,19.189
		c10.58,0,19.19-8.609,19.19-19.189S138.401,283.332,127.821,283.332z"/>
	<path fill="#FFFFFF" d="M257.531,63.591c-10.58,0-19.19,8.61-19.19,19.19c0,10.58,8.61,19.19,19.19,19.19
		c10.58,0,19.19-8.61,19.19-19.19C276.721,72.201,268.111,63.591,257.531,63.591z"/>
	<path fill="#FFFFFF" d="M385.35,291.641V93.71C385.35,42.169,343.181,0,291.64,0H93.71C42.169,0,0,42.169,0,93.71v197.931
		c0,51.54,42.169,93.71,93.71,93.71h197.931C343.182,385.351,385.351,343.181,385.35,291.641L385.35,291.641z M271.471,118.381
		v14.84c0,1.86-0.26,18.71-9.24,36.05c-8.79,16.95-27.39,37.16-66.12,37.16h-6.77c-20.21,0-33.8,7.27-41.54,22.21
		c-5.97,11.53-6.14,23.21-6.14,23.319v14.931c14.26,5.55,24.39,19.43,24.39,35.63c0,21.09-17.15,38.24-38.23,38.24
		c-21.08,0-38.24-17.15-38.24-38.24c0-16.199,10.14-30.08,24.4-35.641v-14.92c0-1.859,0.25-18.709,9.24-36.049
		c8.78-16.951,27.38-37.161,66.12-37.161h6.77c19.87,0,33.33-7.03,41.15-21.47c6.31-11.69,6.521-24.021,6.521-24.14v-14.68
		c-14.31-5.53-24.48-19.44-24.48-35.68c0-21.08,17.15-38.23,38.23-38.23c21.08,0,38.229,17.15,38.229,38.23
		C295.761,98.951,285.681,112.811,271.471,118.381z"/>
</g>
</svg>
