<?xml version="1.0" encoding="utf-8"?>
<!-- Generator: Adobe Illustrator 16.0.0, SVG Export Plug-In . SVG Version: 6.00 Build 0)  -->
<!DOCTYPE svg PUBLIC "-//W3C//DTD SVG 1.1//EN" "http://www.w3.org/Graphics/SVG/1.1/DTD/svg11.dtd">
<svg version="1.1" id="Layer_1" xmlns="http://www.w3.org/2000/svg" xmlnsXlink="http://www.w3.org/1999/xlink" x="0px" y="0px"
	 width="1412.064px" height="132.616px" viewBox="0 0 1412.064 132.616" enable-background="new 0 0 1412.064 132.616"
	 xmlSpace="preserve">
<g>
	<path fill="#FFFFFF" d="M1261.033,132.616h-28.089l13.123-61.703c0.767-3.835,1.151-6.367,1.151-7.598
		c0-2.608-0.885-4.296-2.647-5.065c-1.767-0.767-5.335-1.151-10.706-1.151h-22.563c-3.532,0-6.331,0.155-8.403,0.461
		c-2.072,0.309-3.724,0.96-4.95,1.957c-1.23,1-2.188,2.417-2.878,4.259s-1.346,4.224-1.957,7.138l-13.123,61.703h-28.319
		l21.182-99.462h28.319l-2.533,12.433c5.217-8.288,12.278-12.433,21.182-12.433h29.701c10.591,0,17.958,1.036,22.103,3.108
		s6.216,6.256,6.216,12.548c0,3.532-0.539,7.677-1.611,12.433L1261.033,132.616z"/>
	<path fill="#FFFFFF" d="M1335.397,132.616h-22.793c-10.591,0-17.959-1.036-22.103-3.108c-4.145-2.072-6.217-6.252-6.217-12.548
		c0-3.529,0.536-7.673,1.611-12.433L1307.999,0.23h28.319l-7.137,32.924h27.397l-5.295,23.944h-26.938l-8.059,37.759
		c-0.77,3.839-1.151,6.371-1.151,7.598c0,2.612,0.882,4.299,2.647,5.065c1.763,0.77,5.332,1.151,10.706,1.151h11.973
		L1335.397,132.616z"/>
	<path fill="#FFFFFF" d="M1383.746,132.616h-28.319l21.182-99.692h28.319L1383.746,132.616z M1407.23,22.793h-28.319L1383.746,0
		h28.318L1407.23,22.793z"/>
</g>
<g>
	<path fill="#FFFFFF" d="M28.319,132.616H0L28.088,0.23h28.319L28.319,132.616z"/>
	<path fill="#FFFFFF" d="M105.216,132.616H82.423c-10.591,0-17.958-1.036-22.103-3.108c-4.144-2.072-6.216-6.252-6.216-12.548
		c0-3.529,0.536-7.673,1.612-12.433L77.818,0.23h28.319L99,33.154h27.398l-5.295,23.944H94.165l-8.058,37.759
		c-0.77,3.839-1.151,6.371-1.151,7.598c0,2.612,0.881,4.299,2.648,5.065c1.763,0.77,5.331,1.151,10.706,1.151h11.973
		L105.216,132.616z"/>
	<path fill="#FFFFFF" d="M228.161,132.616h-73.215c-5.375,0-9.864-0.23-13.469-0.69c-3.608-0.461-6.526-1.267-8.749-2.418
		c-2.227-1.151-3.838-2.723-4.835-4.72c-1-1.993-1.497-4.604-1.497-7.828c0-3.529,0.536-7.673,1.612-12.433l1.151-5.525
		c1.381-5.986,2.914-10.821,4.605-14.505c1.687-3.684,3.989-6.522,6.907-8.519c2.914-1.993,6.562-3.339,10.937-4.029
		s9.86-1.036,16.462-1.036h32.923l-5.065,23.944h-30.622c-2.763,0-4.989,0.885-6.677,2.647c-1.691,1.767-2.533,3.724-2.533,5.871
		c0,3.533,2.072,5.296,6.217,5.296h42.593l8.059-37.759c0.766-3.835,1.151-6.367,1.151-7.598c0-2.608-0.885-4.296-2.647-5.065
		c-1.767-0.767-5.335-1.151-10.706-1.151h-58.02l5.065-23.944h68.61c5.371,0,9.86,0.23,13.469,0.69
		c3.604,0.461,6.522,1.267,8.749,2.418c2.223,1.151,3.834,2.727,4.835,4.72c0.996,1.996,1.496,4.604,1.496,7.828
		c0,3.532-0.54,7.677-1.611,12.433L228.161,132.616z"/>
	<path fill="#FFFFFF" d="M275.818,132.616H247.5L275.588,0.23h28.319L275.818,132.616z"/>
	<path fill="#FFFFFF" d="M323.937,132.616h-28.319l21.182-99.692h28.319L323.937,132.616z M347.421,22.793h-28.319L323.937,0h28.319
		L347.421,22.793z"/>
	<path fill="#FFFFFF" d="M446.652,132.616h-73.215c-5.375,0-9.864-0.23-13.469-0.69c-3.608-0.461-6.526-1.267-8.749-2.418
		c-2.227-1.151-3.838-2.723-4.835-4.72c-1-1.993-1.497-4.604-1.497-7.828c0-3.529,0.536-7.673,1.612-12.433l1.151-5.525
		c1.381-5.986,2.914-10.821,4.605-14.505c1.687-3.684,3.989-6.522,6.907-8.519c2.914-1.993,6.562-3.339,10.937-4.029
		s9.86-1.036,16.462-1.036h32.923l-5.065,23.944h-30.622c-2.763,0-4.989,0.885-6.677,2.647c-1.691,1.767-2.533,3.724-2.533,5.871
		c0,3.533,2.072,5.296,6.217,5.296h42.593l8.059-37.759c0.766-3.835,1.151-6.367,1.151-7.598c0-2.608-0.885-4.296-2.647-5.065
		c-1.767-0.767-5.335-1.151-10.706-1.151h-58.02l5.065-23.944h68.61c5.371,0,9.86,0.23,13.469,0.69
		c3.604,0.461,6.522,1.267,8.749,2.418c2.223,1.151,3.834,2.727,4.835,4.72c0.996,1.996,1.496,4.604,1.496,7.828
		c0,3.532-0.54,7.677-1.611,12.433L446.652,132.616z"/>
	<path fill="#FFFFFF" d="M575.123,132.616h-28.089l13.124-61.703c0.766-3.835,1.151-6.367,1.151-7.598
		c0-2.608-0.885-4.296-2.647-5.065c-1.767-0.767-5.335-1.151-10.706-1.151h-22.563c-3.533,0-6.332,0.155-8.404,0.461
		c-2.072,0.309-3.723,0.96-4.95,1.957c-1.23,1-2.187,2.417-2.878,4.259c-0.69,1.842-1.345,4.224-1.957,7.138l-13.124,61.703h-28.319
		l21.182-99.462h28.319l-2.533,12.433c5.216-8.288,12.278-12.433,21.182-12.433h29.701c10.591,0,17.958,1.036,22.103,3.108
		c4.144,2.072,6.216,6.256,6.216,12.548c0,3.532-0.54,7.677-1.612,12.433L575.123,132.616z"/>
	<path fill="#FFFFFF" d="M624.622,132.616h-28.319l21.182-99.692h28.319L624.622,132.616z M648.105,22.793h-28.319L624.622,0h28.319
		L648.105,22.793z"/>
	<path fill="#FFFFFF" d="M847.95,0.23l-64.236,132.386h-40.982L734.903,0.23h29.01l4.145,106.6L818.94,0.23H847.95z"/>
	<path fill="#FFFFFF" d="M949.711,104.527c-1.23,5.986-2.727,10.785-4.489,14.39c-1.767,3.608-4.069,6.447-6.907,8.519
		c-2.843,2.072-6.486,3.454-10.937,4.145c-4.454,0.69-9.979,1.036-16.577,1.036h-43.745c-10.591,0-17.958-1.036-22.103-3.108
		c-4.144-2.072-6.216-6.252-6.216-12.548c0-3.529,0.536-7.673,1.611-12.433l9.21-43.284c1.381-5.986,2.953-10.821,4.72-14.505
		c1.763-3.684,4.064-6.522,6.907-8.519c2.838-1.993,6.446-3.339,10.82-4.029c4.375-0.69,9.785-1.036,16.232-1.036h43.744
		c5.677,0,10.361,0.27,14.045,0.806c3.684,0.54,6.598,1.382,8.749,2.533c2.147,1.15,3.644,2.763,4.489,4.834
		c0.842,2.072,1.267,4.569,1.267,7.483c0,3.532-0.54,7.677-1.612,12.433L949.711,104.527z M923.695,94.857l5.065-23.944
		c0.766-3.835,1.15-6.367,1.15-7.598c0-2.608-0.885-4.296-2.647-5.065c-1.767-0.767-5.335-1.151-10.706-1.151h-22.563
		c-3.224,0-5.871,0.115-7.943,0.346s-3.763,0.806-5.065,1.727c-1.306,0.921-2.342,2.303-3.108,4.145
		c-0.77,1.842-1.46,4.374-2.072,7.598l-5.064,23.944c-0.771,3.839-1.151,6.371-1.151,7.598c0,2.612,0.881,4.299,2.647,5.065
		c1.763,0.77,5.331,1.151,10.706,1.151h22.563c3.528,0,6.331-0.151,8.403-0.461c2.072-0.306,3.72-0.957,4.95-1.957
		c1.227-0.996,2.188-2.378,2.878-4.144C922.428,100.347,923.08,97.929,923.695,94.857z"/>
	<path fill="#FFFFFF" d="M990,132.616h-28.318L989.771,0.23h28.318L990,132.616z"/>
</g>
<g>
	<path id="path32023_1_" inkscapeConnector-curvature="0" fill="#FFFFFF" d="M1098,132.376l13.68-56.879l-60.338,56.879"/>
	<path id="path32025_1_" inkscapeConnector-curvature="0" fill="#FFFFFF" d="M1122.421,33.539
		c-10.445,0-23.393,2.693-32.764,12.901l-82.396,85.936h31.375l86.949-84.629l-17.576,84.629h24.098l19.543-98.837"/>
</g>
</svg>
