<?xml version="1.0" encoding="utf-8"?>
<!-- Generator: Adobe Illustrator 16.0.0, SVG Export Plug-In . SVG Version: 6.00 Build 0)  -->
<!DOCTYPE svg PUBLIC "-//W3C//DTD SVG 1.1//EN" "http://www.w3.org/Graphics/SVG/1.1/DTD/svg11.dtd">
<svg version="1.1" id="Layer_1" xmlns="http://www.w3.org/2000/svg" xmlns:xlink="http://www.w3.org/1999/xlink" x="0px" y="0px"
	 width="1064.766px" height="132.617px" viewBox="173.649 0 1064.766 132.617" enable-background="new 173.649 0 1064.766 132.617"
	 xml:space="preserve">
<g>
	<path fill="#FFFFFF" d="M1124.53,116.308h-21.181l9.896-46.527c0.578-2.893,0.867-4.801,0.867-5.729
		c0-1.967-0.667-3.239-1.995-3.819c-1.333-0.578-4.022-0.868-8.073-0.868h-17.014c-2.663,0-4.773,0.117-6.336,0.347
		c-1.563,0.233-2.809,0.724-3.732,1.476c-0.928,0.754-1.65,1.822-2.17,3.211c-0.521,1.389-1.016,3.185-1.477,5.382l-9.895,46.527
		h-21.354l15.972-74.999h21.354l-1.91,9.375c3.935-6.25,9.259-9.375,15.973-9.375h22.396c7.985,0,13.541,0.781,16.666,2.344
		c3.126,1.562,4.688,4.717,4.688,9.462c0,2.663-0.407,5.789-1.215,9.375L1124.53,116.308z"/>
	<path fill="#FFFFFF" d="M1180.604,116.308h-17.187c-7.986,0-13.542-0.782-16.666-2.345c-3.127-1.562-4.688-4.714-4.688-9.461
		c0-2.661,0.404-5.786,1.214-9.375l16.668-78.646h21.354l-5.382,24.826h20.659l-3.993,18.055h-20.313l-6.077,28.472
		c-0.581,2.895-0.868,4.804-0.868,5.729c0,1.971,0.665,3.242,1.996,3.82c1.33,0.581,4.021,0.868,8.073,0.868h9.028L1180.604,116.308
		z"/>
	<path fill="#FFFFFF" d="M1217.062,116.308h-21.354l15.973-75.173h21.354L1217.062,116.308z M1234.771,33.496h-21.354l3.646-17.187
		h21.354L1234.771,33.496z"/>
</g>
<g>
	<path fill="#FFFFFF" d="M195.003,116.308h-21.354l21.18-99.826h21.354L195.003,116.308z"/>
	<path fill="#FFFFFF" d="M252.987,116.308H235.8c-7.986,0-13.542-0.782-16.667-2.345c-3.125-1.562-4.687-4.714-4.687-9.461
		c0-2.661,0.404-5.786,1.215-9.375l16.666-78.646h21.354L248.3,41.308h20.659l-3.993,18.055h-20.313l-6.076,28.472
		c-0.581,2.895-0.868,4.804-0.868,5.729c0,1.971,0.664,3.242,1.997,3.82c1.33,0.581,4.02,0.868,8.073,0.868h9.028L252.987,116.308z"
		/>
	<path fill="#FFFFFF" d="M345.694,116.308h-55.208c-4.053,0-7.438-0.174-10.156-0.521c-2.721-0.348-4.921-0.954-6.598-1.823
		c-1.679-0.867-2.894-2.053-3.646-3.558c-0.754-1.504-1.129-3.473-1.129-5.903c0-2.661,0.404-5.786,1.215-9.375l0.868-4.167
		c1.042-4.514,2.197-8.159,3.472-10.937c1.272-2.778,3.008-4.918,5.208-6.424c2.197-1.503,4.948-2.518,8.247-3.039
		c3.299-0.52,7.435-0.78,12.413-0.78h24.826l-3.82,18.055h-23.09c-2.083,0-3.762,0.667-5.035,1.995
		c-1.275,1.333-1.91,2.809-1.91,4.428c0,2.664,1.562,3.994,4.688,3.994h32.118l6.077-28.473c0.578-2.892,0.868-4.801,0.868-5.729
		c0-1.966-0.668-3.239-1.997-3.819c-1.332-0.578-4.023-0.868-8.072-0.868h-43.75l3.819-18.055h51.735
		c4.05,0,7.435,0.173,10.157,0.521c2.717,0.348,4.917,0.955,6.597,1.823c1.676,0.868,2.891,2.057,3.646,3.559
		c0.751,1.505,1.128,3.472,1.128,5.903c0,2.663-0.407,5.789-1.215,9.375L345.694,116.308z"/>
	<path fill="#FFFFFF" d="M381.629,116.308h-21.353l21.18-99.826h21.354L381.629,116.308z"/>
	<path fill="#FFFFFF" d="M417.914,116.308H396.56l15.972-75.173h21.354L417.914,116.308z M435.622,33.496h-21.354l3.646-17.187
		h21.354L435.622,33.496z"/>
	<path fill="#FFFFFF" d="M510.447,116.308h-55.208c-4.053,0-7.438-0.174-10.157-0.521c-2.72-0.348-4.921-0.954-6.597-1.823
		c-1.679-0.867-2.894-2.053-3.646-3.558c-0.754-1.504-1.129-3.473-1.129-5.903c0-2.661,0.404-5.786,1.216-9.375l0.868-4.167
		c1.042-4.514,2.197-8.159,3.472-10.937c1.272-2.778,3.008-4.918,5.208-6.424c2.197-1.503,4.948-2.518,8.247-3.039
		c3.299-0.52,7.435-0.78,12.413-0.78h24.826l-3.819,18.055h-23.091c-2.083,0-3.762,0.667-5.034,1.995
		c-1.275,1.333-1.91,2.809-1.91,4.428c0,2.664,1.563,3.994,4.688,3.994h32.117l6.077-28.473c0.577-2.892,0.868-4.801,0.868-5.729
		c0-1.966-0.668-3.239-1.996-3.819c-1.332-0.578-4.023-0.868-8.073-0.868h-43.75l3.819-18.055h51.736
		c4.05,0,7.435,0.173,10.156,0.521c2.718,0.348,4.918,0.955,6.597,1.823c1.676,0.868,2.891,2.057,3.646,3.559
		c0.751,1.505,1.128,3.472,1.128,5.903c0,2.663-0.407,5.789-1.215,9.375L510.447,116.308z"/>
	<path fill="#FFFFFF" d="M607.32,116.308H586.14l9.896-46.527c0.577-2.893,0.867-4.801,0.867-5.729c0-1.967-0.667-3.239-1.996-3.819
		c-1.333-0.578-4.022-0.868-8.073-0.868h-17.014c-2.664,0-4.775,0.117-6.337,0.347c-1.563,0.233-2.808,0.724-3.732,1.476
		c-0.928,0.754-1.649,1.822-2.17,3.211c-0.521,1.389-1.014,3.185-1.476,5.382l-9.896,46.527h-21.354l15.973-74.999h21.353
		l-1.91,9.375c3.934-6.25,9.259-9.375,15.973-9.375h22.396c7.986,0,13.541,0.781,16.667,2.344c3.125,1.562,4.688,4.717,4.688,9.462
		c0,2.663-0.408,5.789-1.216,9.375L607.32,116.308z"/>
	<path fill="#FFFFFF" d="M644.645,116.308h-21.354l15.973-75.173h21.354L644.645,116.308z M662.353,33.496h-21.354l3.646-17.187
		h21.354L662.353,33.496z"/>
	<path fill="#FFFFFF" d="M813.046,16.482l-48.438,99.826h-30.902l-5.903-99.826h21.874l3.126,80.382l38.367-80.382H813.046z"/>
	<path fill="#FFFFFF" d="M889.778,95.127c-0.928,4.514-2.057,8.132-3.386,10.851c-1.332,2.721-3.067,4.861-5.208,6.424
		c-2.144,1.562-4.891,2.604-8.247,3.126c-3.358,0.52-7.524,0.78-12.5,0.78h-32.985c-7.986,0-13.541-0.78-16.667-2.343
		c-3.125-1.563-4.687-4.715-4.687-9.463c0-2.66,0.404-5.785,1.214-9.375l6.945-32.638c1.042-4.514,2.227-8.16,3.56-10.938
		c1.329-2.778,3.063-4.918,5.207-6.424c2.141-1.503,4.861-2.518,8.159-3.038c3.299-0.521,7.379-0.781,12.24-0.781h32.984
		c4.281,0,7.813,0.204,10.591,0.608c2.778,0.407,4.976,1.042,6.598,1.91c1.619,0.867,2.748,2.083,3.385,3.645
		c0.635,1.562,0.955,3.445,0.955,5.643c0,2.663-0.406,5.789-1.215,9.375L889.778,95.127z M870.161,87.835l3.818-18.055
		c0.578-2.893,0.867-4.801,0.867-5.729c0-1.967-0.667-3.239-1.996-3.819c-1.332-0.578-4.022-0.868-8.072-0.868h-17.014
		c-2.432,0-4.427,0.086-5.989,0.261c-1.563,0.174-2.838,0.608-3.819,1.302c-0.985,0.694-1.766,1.736-2.344,3.125
		c-0.58,1.389-1.101,3.298-1.562,5.73l-3.819,18.054c-0.582,2.896-0.868,4.805-0.868,5.729c0,1.97,0.664,3.241,1.996,3.819
		c1.329,0.581,4.021,0.868,8.073,0.868h17.014c2.66,0,4.773-0.114,6.336-0.348c1.563-0.23,2.805-0.722,3.732-1.476
		c0.926-0.751,1.65-1.794,2.171-3.125C869.205,91.975,869.697,90.152,870.161,87.835z"/>
	<path fill="#FFFFFF" d="M920.158,116.308h-21.354l21.181-99.826h21.353L920.158,116.308z"/>
</g>
<g>
	<path id="path32023_1_" fill="#FFFFFF" d="M1001.595,116.126l10.315-42.889l-45.497,42.889"/>
	<path id="path32025_1_" fill="#FFFFFF" d="M1020.01,41.599c-7.876,0-17.64,2.031-24.705,9.728l-62.132,64.8h23.658l65.564-63.814
		l-13.253,63.814h18.171l14.736-74.528"/>
</g>
</svg>
