<?xml version="1.0" encoding="utf-8"?>
<!-- Generator: Adobe Illustrator 16.0.0, SVG Export Plug-In . SVG Version: 6.00 Build 0)  -->
<!DOCTYPE svg PUBLIC "-//W3C//DTD SVG 1.1//EN" "http://www.w3.org/Graphics/SVG/1.1/DTD/svg11.dtd">
<svg version="1.1" id="Layer_1" xmlns="http://www.w3.org/2000/svg" xmlns:xlink="http://www.w3.org/1999/xlink" x="0px" y="0px"
	 width="3266.491px" height="400.41px" viewBox="0 0 3266.491 400.41" enable-background="new 0 0 3266.491 400.41"
	 xml:space="preserve">
<g>
	<path fill="#FFFFFF" d="M691.324,172.515c-12.168,39.816-24.896,79.474-36.121,119.555c-3.006,10.725-9.016,9.865-16.691,9.844
		c-7.625-0.025-13.688,0.877-16.729-9.76c-10.793-37.789-23.109-75.139-37.332-112.458c0,3.886,0,7.765,0,11.657
		c0,51.801-0.158,103.609,0.166,155.413c0.055,7.721-1.624,10.927-9.943,10.286c-9.46-0.732-19.084-0.818-28.53,0.02
		c-8.91,0.791-10.613-2.504-10.568-10.848c0.347-67.426,0.197-134.847,0.197-202.267c0-29.716,0.239-59.428-0.182-89.132
		c-0.109-7.458,1.839-9.895,9.448-9.476c13.663,0.756,30.337-4.22,40.234,1.984c9.875,6.196,9.524,24.339,13.561,37.256
		c12.478,39.851,24.509,79.848,36.664,119.806c0.766,2.531,0.935,5.282,3.947,7.455c16.252-51.813,32.647-103.313,48.396-155.019
		c2.599-8.493,5.568-12.708,15.242-11.546c9.006,1.087,18.33,0.988,27.375,0.029c9.58-1.018,10.824,3.023,10.799,11.36
		c-0.266,96.372-0.276,192.744,0.021,289.122c0.024,8.572-1.58,12.229-10.951,11.285c-9.059-0.914-18.324-0.787-27.396-0.023
		c-8.073,0.685-9.334-2.685-9.301-9.771c0.244-54.475,0.139-108.939,0.139-163.416c0-3.77,0-7.545,0-11.32
		C692.947,172.538,692.136,172.526,691.324,172.515z"/>
	<path fill="#FFFFFF" d="M844.111,200.139c1.188-31.577-1.715-63.238,1.617-94.753c4.256-40.28,31.092-64.041,71.95-64.417
		c42.638-0.393,69.277,21.901,75.039,62.266c1.666,11.777,1.179,23.543,1.642,35.325c0.217,5.481-1.726,7.296-7.174,7.168
		c-13.328-0.301-26.658-0.301-39.984,0c-5.463,0.128-7.396-1.699-7.193-7.18c0.293-7.978,0.354-16.026-0.305-23.977
		c-1.021-12.297-8.352-19.298-19.586-19.639c-11.291-0.341-18.918,6.153-21.086,18.183c-0.467,2.601-0.455,5.308-0.455,7.968
		c-0.021,52.552-0.027,105.113,0.014,157.665c0.008,3.027,0.098,6.143,0.768,9.066c2.578,11.319,9.968,16.975,21.189,16.547
		c10.99-0.414,18.057-6.901,19.104-18.687c0.741-8.317,0.563-16.741,0.377-25.112c-0.104-4.834,1.436-6.795,6.506-6.695
		c13.707,0.257,27.422,0.128,41.135,0.06c3.758-0.019,6.685,0.218,6.656,5.296c-0.103,18.627,0.639,37.313-6.011,55.235
		c-12.069,32.601-44.088,49.501-82.491,43.47c-34.898-5.477-56.224-27.625-60.033-63.029
		C842.396,263.376,845.341,231.723,844.111,200.139z"/>
	<path fill="#FFFFFF" d="M1091.175,199.81c0-47.999,0.269-96.001-0.229-143.995c-0.084-8.815,2.395-10.875,10.801-10.477
		c29.252,1.399,58.682-2.261,87.82,2.237c36.69,5.661,57.998,30.093,58.383,67.268c0.193,18.611,1.768,37.315-1.666,55.856
		c-3.355,18.143-12.143,32.874-27.986,42.431c-6.256,3.771-6.932,6.95-4.694,13.563c13.506,39.896,26.168,80.098,39.862,119.932
		c3.261,9.479,0.814,11.023-7.916,10.382c-8.336-0.604-16.748-0.128-25.131-0.128c-20.844,0-20.813-0.011-26.793-20.413
		c-9.916-33.896-20.449-67.624-29.467-101.748c-2.838-10.735-9.434-8.88-16.189-8.522c-8.758,0.455-4.393,7.572-4.43,11.346
		c-0.375,36.563-0.492,73.141-0.018,109.704c0.11,8.202-2.277,10.326-10.129,9.81c-10.617-0.705-21.375-0.845-31.976,0.029
		c-9.108,0.754-10.479-2.871-10.42-10.995C1091.359,297.332,1091.175,248.564,1091.175,199.81z M1143.14,163.385
		c-0.772,9.17,1.72,12.281,11.563,12.148c36.59-0.498,37.766-2.237,38.932-38.633c1.424-44.193-11.133-40.632-42.842-40.58
		c-0.379,0-0.76,0.035-1.135-0.012c-5.104-0.607-6.519,1.914-6.416,6.671c0.24,10.633,0.072,21.277,0.072,31.921
		C1143.313,144.399,1143.925,153.951,1143.14,163.385z"/>
</g>
<g>
	<path fill="#FFFFFF" d="M321.701,184.46c0.028-2.993-0.73-3.859-3.803-3.863c-73.159-0.139-146.326-0.371-219.485-0.694
		c-3.28-0.012-4.134,0.906-4.106,4.138c0.164,16.857,0.204,33.725-0.02,50.582c-0.048,3.818,0.894,4.88,4.784,4.863
		c36.353-0.155,72.701-0.092,109.053-0.092c0,0.207,0,0.418,0,0.631c36.348,0,72.696-0.063,109.044,0.084
		c3.699,0.021,4.593-1.002,4.553-4.608C321.529,218.49,321.565,201.471,321.701,184.46z"/>
	<path fill="#FFFFFF" d="M365.24,69.157C323.19,22.949,269.938,1.177,213.04,0c-47.317,0.391-86.814,10.758-121.666,34.564
		C24.591,80.186-7.623,143.344,1.527,224.609c6.556,58.224,36.257,103.996,84.067,137.185
		c54.896,38.098,115.529,47.405,179.917,30.574c84.649-22.131,145.668-95.753,150.438-182.244
		C418.918,156.342,401.457,108.957,365.24,69.157z M359.104,310.006c0.016,4.254-1.229,5.088-5.155,4.977
		c-9.585-0.288-19.188-0.204-28.779-0.028c-2.865,0.052-3.659-0.759-3.603-3.62c0.188-8.973-0.096-17.948,0.156-26.918
		c0.096-3.395-0.687-4.373-4.25-4.359c-42.864,0.146-85.725,0.092-128.589,0.092c-0.002-0.244-0.002-0.488-0.002-0.729
		c-43.016,0-86.028-0.044-129.044,0.076c-3.44,0.012-4.497-0.772-4.374-4.337c0.375-10.514,0.04-21.055,0.523-31.563
		c2.374-51.583,0.407-103.196,0.93-154.787c0.04-4.07,0.966-5.184,5.048-5.036c9.273,0.332,18.571,0.26,27.849,0.024
		c3.536-0.092,4.721,0.742,4.665,4.513c-0.228,15.626,0.04,31.257-0.191,46.887c-0.056,3.847,0.954,4.836,4.816,4.836
		c73.343,0.02,146.686,0.188,220.032,0.343c11.604,0.024,23.208,0.171,34.813,0.184c3.539,0.004,5.199,0.686,5.183,5.107
		C358.921,200.447,358.941,255.229,359.104,310.006z"/>
</g>
<g>
	<path fill="#FFFFFF" d="M1587.638,107.029v108.202c0,13.3-1.994,25.68-5.983,37.147c-3.989,11.469-9.766,21.484-17.327,30.043
		c-7.565,8.563-16.79,15.294-27.674,20.194c-10.888,4.9-23.311,7.354-37.272,7.354c-13.631,0-25.929-2.411-36.898-7.229
		c-10.97-4.819-20.319-11.426-28.048-19.821c-7.729-8.391-13.673-18.281-17.826-29.668c-4.156-11.383-6.232-23.642-6.232-36.773
		V107.029h38.644v109.698c0,7.646,1.079,14.834,3.241,21.565c2.158,6.731,5.317,12.591,9.474,17.577
		c4.152,4.986,9.35,8.936,15.582,11.842c6.233,2.91,13.339,4.363,21.316,4.363c8.477,0,15.831-1.371,22.064-4.113
		c6.232-2.743,11.383-6.564,15.457-11.469c4.071-4.9,7.145-10.678,9.225-17.327c2.076-6.646,3.117-13.962,3.117-21.939V107.029
		H1587.638z"/>
	<path fill="#FFFFFF" d="M1718.525,177.336l-19.197,30.417c-3.49-3.822-7.354-7.188-11.593-10.098
		c-4.238-2.906-8.52-4.363-12.84-4.363c-2.329,0-4.861,0.542-7.604,1.621c-2.743,1.083-5.321,2.867-7.729,5.36
		c-2.411,2.494-4.448,5.777-6.107,9.848c-1.664,4.074-2.493,9.1-2.493,15.083v81.276h-35.901V162.377h35.901v15.458
		c4.319-6.147,9.1-10.884,14.335-14.211c5.235-3.323,11.095-4.986,17.577-4.986c6.314,0,12.504,1.707,18.573,5.111
		C1707.513,167.157,1713.204,171.688,1718.525,177.336z"/>
	<path fill="#FFFFFF" d="M1869.856,234.429c0,10.141-1.71,19.781-5.122,28.921c-3.417,9.143-8.208,17.163-14.371,24.059
		c-6.167,6.898-13.498,12.384-21.994,16.454c-8.5,4.071-17.83,6.108-27.989,6.108c-6.334,0-12.248-0.872-17.744-2.617
		c-5.501-1.746-10.666-4.527-15.496-8.353v7.479h-35.901V99.55h36.15l0.249,69.808c4.153-3.323,9.101-5.983,14.834-7.978
		c5.734-1.995,11.757-2.992,18.075-2.992c8.809,0,17.367,1.956,25.68,5.859c8.31,3.907,15.707,9.268,22.189,16.081
		c6.481,6.817,11.675,14.834,15.582,24.059C1867.901,213.611,1869.856,223.627,1869.856,234.429z M1833.457,234.429
		c0-6.646-1.001-12.715-3.004-18.2c-2.002-5.484-4.799-10.179-8.383-14.086c-3.588-3.903-7.842-6.895-12.762-8.975
		c-4.924-2.077-10.386-3.117-16.393-3.117c-3.841,0-8.263,0.791-13.265,2.369c-5.006,1.582-9.178,3.615-12.512,6.108v69.309
		c7.838,7.148,16.681,10.721,26.528,10.721c5.672,0,10.966-1.079,15.89-3.241c4.92-2.158,9.131-5.193,12.637-9.101
		c3.503-3.903,6.257-8.558,8.259-13.961C1832.456,246.855,1833.457,240.911,1833.457,234.429z"/>
	<path fill="#FFFFFF" d="M2009.222,306.48h-35.901v-7.729c-6.318,4.324-13.007,7.315-20.069,8.975
		c-7.066,1.66-14.336,2.493-21.814,2.493c-6.981,0-13.3-1.04-18.948-3.116c-5.652-2.076-10.557-5.067-14.71-8.975
		c-4.156-3.903-7.354-8.516-9.599-13.837c-2.243-5.317-3.365-11.22-3.365-17.702c0-8.142,1.784-15.247,5.36-21.315
		c3.572-6.065,8.434-11.134,14.585-15.209c6.146-4.07,13.338-7.105,21.565-9.1s17.078-2.992,26.552-2.992h20.693
		c0-8.477-2.743-15.207-8.228-20.194c-5.485-4.986-13.381-7.479-23.685-7.479c-4.986,0-10.141,0.916-15.458,2.742
		c-5.321,1.831-10.639,5.154-15.956,9.973l-21.191-21.441c7.643-7.312,16.493-12.964,26.552-16.953
		c10.055-3.989,20.401-5.984,31.04-5.984c9.973,0,18.851,1.582,26.638,4.737c7.783,3.159,14.07,7.23,18.857,12.216
		c6.272,6.318,10.686,13.381,13.245,21.191c2.556,7.814,3.837,17.787,3.837,29.918V306.48z M1973.32,270.579v-26.677h-16.454
		c-4.986,0-9.685,0.335-14.086,0.998c-4.406,0.666-8.228,1.788-11.469,3.365c-3.241,1.582-5.82,3.615-7.729,6.108
		c-1.913,2.493-2.867,5.484-2.867,8.976c0,4.986,1.951,9.061,5.858,12.216c3.903,3.159,8.933,4.737,15.084,4.737
		c5.317,0,10.596-0.83,15.831-2.493C1962.725,276.149,1967.999,273.738,1973.32,270.579z"/>
	<path fill="#FFFFFF" d="M2168.031,306.48h-35.901v-86.014c0-5.149-0.794-9.68-2.38-13.587c-1.585-3.903-3.712-7.145-6.385-9.724
		c-2.672-2.575-5.719-4.487-9.139-5.734s-6.969-1.87-10.639-1.87c-5.509,0-10.935,0.958-16.275,2.867
		c-5.341,1.913-10.18,4.947-14.519,9.1V306.48h-35.901V162.377h35.901l0.249,10.721c2.158-2.158,4.818-4.153,7.978-5.983
		c3.156-1.827,6.439-3.366,9.849-4.612c3.404-1.247,6.895-2.201,10.471-2.867c3.572-0.662,7.02-0.998,10.347-0.998
		c7.312,0,14.336,1.165,21.067,3.491c6.731,2.33,12.715,5.901,17.95,10.72c5.235,4.823,9.431,11.056,12.591,18.699
		c3.155,7.647,4.736,16.704,4.736,27.175V306.48z"/>
	<path fill="#FFFFFF" d="M2413.849,306.48H2278.97V107.279h39.392v161.804h95.487V306.48z"/>
	<path fill="#FFFFFF" d="M2558.948,306.48h-35.901v-10.97c-2.329,2.329-5.029,4.363-8.103,6.108
		c-3.077,1.745-6.318,3.241-9.724,4.487c-3.408,1.247-6.898,2.201-10.471,2.867c-3.576,0.662-6.941,0.997-10.098,0.997
		c-7.315,0-14.335-1.165-21.066-3.49s-12.676-5.897-17.826-10.721c-5.153-4.818-9.268-11.052-12.341-18.698
		c-3.077-7.644-4.612-16.704-4.612-27.175v-87.51h35.901v85.764c0,5.154,0.786,9.685,2.368,13.588
		c1.578,3.907,3.654,7.148,6.232,9.724c2.575,2.578,5.567,4.487,8.976,5.734c3.405,1.246,6.938,1.869,10.596,1.869
		c11.632,0,21.69-3.988,30.167-11.967V162.377h35.901V306.48z"/>
	<path fill="#FFFFFF" d="M2802.275,306.48h-35.9v-86.014c0-10.136-2.455-17.825-7.355-23.061
		c-4.904-5.236-10.931-7.854-18.075-7.854c-5.484,0-10.682,0.873-15.582,2.618c-4.904,1.746-9.685,4.612-14.335,8.602
		c1.495,5.82,2.243,12.384,2.243,19.695v86.014h-35.901v-86.014c0-10.136-2.454-17.825-7.354-23.061
		c-4.904-5.236-10.845-7.854-17.826-7.854c-5.484,0-10.308,0.958-14.46,2.867c-4.156,1.913-8.477,4.947-12.964,9.1V306.48h-35.901
		V162.377h35.901l0.043,10.721c4.491-4.32,9.773-7.811,15.847-10.471c6.073-2.657,12.271-3.989,18.597-3.989
		c6.989,0,14.017,1.582,21.091,4.737c7.074,3.159,13.272,7.729,18.598,13.712c7.486-6.646,15.056-11.382,22.711-14.21
		c7.654-2.825,16.057-4.239,25.211-4.239c7.487,0,14.604,1.122,21.344,3.366c6.739,2.244,12.603,5.82,17.597,10.721
		c4.99,4.904,8.982,11.137,11.979,18.699c2.996,7.565,4.495,16.666,4.495,27.299V306.48z"/>
	<path fill="#FFFFFF" d="M2978.289,234.18c0,2.329-0.124,4.736-0.374,7.229c-0.249,2.493-0.541,5.072-0.872,7.729h-115.184
		c1.329,4.156,3.198,8.103,5.61,11.842c2.407,3.74,5.36,6.981,8.851,9.724s7.437,4.904,11.842,6.482
		c4.402,1.581,9.264,2.368,14.585,2.368c6.482,0,12.965-1.122,19.446-3.366c6.482-2.243,11.882-5.274,16.206-9.1l22.688,22.688
		c-9.973,7.479-19.739,12.758-29.295,15.831c-9.56,3.074-19.656,4.612-30.291,4.612c-10.807,0-20.903-1.994-30.292-5.983
		c-9.392-3.988-17.537-9.388-24.433-16.205c-6.899-6.813-12.341-14.834-16.33-24.059s-5.983-19.072-5.983-29.544
		c0-10.471,1.994-20.319,5.983-29.543c3.989-9.225,9.474-17.242,16.455-24.06c6.98-6.813,15.122-12.216,24.433-16.205
		c9.307-3.989,19.278-5.984,29.917-5.984c10.137,0,19.859,1.87,29.17,5.61c9.307,3.74,17.534,8.936,24.683,15.582
		c7.145,6.649,12.797,14.585,16.953,23.81C2976.209,212.863,2978.289,223.046,2978.289,234.18z M2940.643,220.218
		c-2.828-9.139-7.853-16.493-15.083-22.064c-7.23-5.567-15.419-8.352-24.558-8.352c-8.976,0-17.039,2.785-24.184,8.352
		c-7.148,5.571-12.134,12.925-14.959,22.064H2940.643z"/>
	<path fill="#FFFFFF" d="M3133.362,162.377l-54.102,144.353h-35.402l-54.351-144.353h39.392l32.66,96.734l32.66-96.734H3133.362z"/>
	<path fill="#FFFFFF" d="M3266.491,306.48h-35.901v-7.729c-6.318,4.324-13.007,7.315-20.069,8.975
		c-7.066,1.66-14.336,2.493-21.814,2.493c-6.981,0-13.3-1.04-18.948-3.116c-5.652-2.076-10.557-5.067-14.71-8.975
		c-4.156-3.903-7.354-8.516-9.599-13.837c-2.243-5.317-3.365-11.22-3.365-17.702c0-8.142,1.784-15.247,5.36-21.315
		c3.572-6.065,8.434-11.134,14.585-15.209c6.146-4.07,13.338-7.105,21.565-9.1s17.078-2.992,26.552-2.992h20.693
		c0-8.477-2.743-15.207-8.228-20.194c-5.485-4.986-13.381-7.479-23.685-7.479c-4.986,0-10.141,0.916-15.458,2.742
		c-5.321,1.831-10.639,5.154-15.956,9.973l-21.191-21.441c7.643-7.312,16.493-12.964,26.552-16.953
		c10.055-3.989,20.401-5.984,31.04-5.984c9.973,0,18.851,1.582,26.638,4.737c7.783,3.159,14.07,7.23,18.857,12.216
		c6.272,6.318,10.686,13.381,13.245,21.191c2.556,7.814,3.837,17.787,3.837,29.918V306.48z M3230.59,270.579v-26.677h-16.454
		c-4.986,0-9.685,0.335-14.086,0.998c-4.406,0.666-8.228,1.788-11.469,3.365c-3.241,1.582-5.82,3.615-7.729,6.108
		c-1.913,2.493-2.867,5.484-2.867,8.976c0,4.986,1.951,9.061,5.858,12.216c3.903,3.159,8.933,4.737,15.084,4.737
		c5.317,0,10.596-0.83,15.831-2.493C3219.994,276.149,3225.269,273.738,3230.59,270.579z"/>
</g>
</svg>
