<?xml version="1.0" encoding="utf-8"?>
<!-- Generator: Adobe Illustrator 16.0.0, SVG Export Plug-In . SVG Version: 6.00 Build 0)  -->
<!DOCTYPE svg PUBLIC "-//W3C//DTD SVG 1.1//EN" "http://www.w3.org/Graphics/SVG/1.1/DTD/svg11.dtd">
<svg version="1.1" id="Layer_1" xmlns="http://www.w3.org/2000/svg" xmlns:xlink="http://www.w3.org/1999/xlink" x="0px" y="0px"
	 width="999.042px" height="400.41px" viewBox="0 0 999.042 400.41" enable-background="new 0 0 999.042 400.41"
	 xml:space="preserve">
<path fill-rule="evenodd" clip-rule="evenodd" fill="#FFFFFF" d="M610.104,180.372c-8.399,27.482-17.183,54.852-24.932,82.517
	c-2.075,7.402-6.221,6.808-11.521,6.792c-5.263-0.016-9.449,0.606-11.548-6.736c-7.45-26.081-15.949-51.859-25.766-77.617
	c0,2.682,0,5.359,0,8.045c0,35.753-0.108,71.511,0.116,107.265c0.036,5.327-1.122,7.541-6.864,7.099
	c-6.528-0.507-13.172-0.566-19.692,0.013c-6.149,0.546-7.326-1.729-7.294-7.486c0.239-46.536,0.136-93.071,0.136-139.603
	c0-20.51,0.167-41.017-0.124-61.519c-0.076-5.147,1.269-6.828,6.521-6.54c9.429,0.522,20.937-2.913,27.769,1.369
	c6.815,4.277,6.576,16.799,9.361,25.714c8.611,27.505,16.915,55.111,25.303,82.688c0.531,1.748,0.646,3.647,2.725,5.147
	c11.217-35.762,22.534-71.308,33.403-106.993c1.792-5.862,3.843-8.771,10.519-7.969c6.217,0.75,12.653,0.682,18.895,0.02
	c6.612-0.702,7.47,2.087,7.454,7.841c-0.184,66.515-0.192,133.031,0.012,199.55c0.02,5.917-1.089,8.439-7.558,7.789
	c-6.249-0.631-12.646-0.543-18.906-0.017c-5.575,0.472-6.444-1.852-6.42-6.743c0.167-37.598,0.096-75.19,0.096-112.788
	c0-2.602,0-5.208,0-7.813C611.222,180.388,610.663,180.38,610.104,180.372z"/>
<path fill-rule="evenodd" clip-rule="evenodd" fill="#FFFFFF" d="M715.554,199.438c0.822-21.795-1.182-43.646,1.117-65.398
	c2.938-27.801,21.46-44.201,49.66-44.46c29.429-0.271,47.816,15.116,51.791,42.976c1.152,8.128,0.814,16.249,1.133,24.381
	c0.148,3.783-1.189,5.036-4.951,4.948c-9.198-0.208-18.4-0.208-27.598,0c-3.771,0.088-5.104-1.173-4.965-4.956
	c0.204-5.506,0.244-11.061-0.211-16.548c-0.702-8.487-5.762-13.32-13.516-13.555c-7.793-0.235-13.057,4.246-14.553,12.55
	c-0.323,1.795-0.314,3.663-0.314,5.499c-0.017,36.272-0.021,72.549,0.008,108.821c0.004,2.087,0.067,4.238,0.53,6.257
	c1.78,7.813,6.88,11.715,14.624,11.42c7.586-0.287,12.463-4.764,13.185-12.896c0.511-5.742,0.388-11.556,0.26-17.334
	c-0.072-3.336,0.989-4.689,4.489-4.621c9.461,0.176,18.926,0.088,28.391,0.04c2.594-0.012,4.613,0.151,4.594,3.655
	c-0.068,12.857,0.442,25.753-4.146,38.124c-8.332,22.501-30.43,34.166-56.935,30.003c-24.089-3.779-38.806-19.066-41.436-43.503
	C714.372,243.084,716.403,221.237,715.554,199.438z"/>
<path fill-rule="evenodd" clip-rule="evenodd" fill="#FFFFFF" d="M365.24,69.157C323.19,22.949,269.938,1.177,213.04,0
	c-47.317,0.391-86.814,10.758-121.666,34.564C24.592,80.187-7.623,143.346,1.527,224.609
	c6.556,58.223,36.256,103.997,84.069,137.185c54.895,38.1,115.529,47.405,179.917,30.574
	c84.647-22.131,145.668-95.753,150.437-182.244C418.918,156.342,401.457,108.957,365.24,69.157z M359.103,310.007
	c0.016,4.254-1.229,5.088-5.155,4.973c-9.585-0.288-19.186-0.204-28.779-0.028c-2.865,0.052-3.659-0.759-3.603-3.62
	c0.188-8.97-0.096-17.948,0.156-26.918c0.096-3.392-0.687-4.373-4.25-4.361c-42.864,0.144-85.725,0.092-128.589,0.092
	c0-0.243,0-0.487,0-0.726c-43.016,0-86.028-0.044-129.044,0.076c-3.44,0.012-4.497-0.774-4.374-4.337
	c0.375-10.511,0.04-21.053,0.523-31.56c2.374-51.583,0.407-103.195,0.93-154.786c0.04-4.07,0.966-5.184,5.048-5.036
	c9.273,0.332,18.571,0.26,27.849,0.024c3.536-0.092,4.721,0.742,4.665,4.513c-0.228,15.626,0.04,31.257-0.191,46.887
	c-0.056,3.847,0.954,4.836,4.816,4.836c73.343,0.02,146.686,0.188,220.032,0.343c11.604,0.024,23.208,0.171,34.812,0.184
	c3.539,0.004,5.199,0.686,5.183,5.107C358.919,200.448,358.939,255.228,359.103,310.007z"/>
<path fill-rule="evenodd" clip-rule="evenodd" fill="#FFFFFF" d="M886.077,199.211c0-33.128,0.184-66.26-0.159-99.384
	c-0.06-6.085,1.651-7.506,7.454-7.231c20.191,0.966,40.502-1.56,60.613,1.544c25.326,3.907,40.031,20.77,40.295,46.428
	c0.135,12.845,1.221,25.754-1.149,38.551c-2.314,12.522-8.38,22.689-19.317,29.285c-4.317,2.602-4.784,4.797-3.24,9.361
	c9.322,27.538,18.061,55.283,27.514,82.776c2.25,6.544,0.563,7.609-5.463,7.166c-5.754-0.418-11.561-0.088-17.346-0.088
	c-14.386,0-14.365-0.008-18.492-14.089c-6.843-23.396-14.113-46.675-20.338-70.226c-1.959-7.41-6.509-6.129-11.174-5.882
	c-6.045,0.315-3.032,5.227-3.057,7.829c-0.259,25.235-0.339,50.482-0.012,75.717c0.076,5.662-1.572,7.127-6.99,6.771
	c-7.327-0.487-14.753-0.583-22.067,0.021c-6.288,0.519-7.234-1.983-7.194-7.59C886.205,266.52,886.077,232.861,886.077,199.211z
	 M921.942,174.071c-0.534,6.329,1.186,8.476,7.981,8.384c25.255-0.343,26.065-1.544,26.87-26.664
	c0.982-30.502-7.685-28.044-29.568-28.008c-0.263,0-0.526,0.024-0.785-0.008c-3.52-0.419-4.498,1.321-4.426,4.605
	c0.164,7.338,0.048,14.685,0.048,22.031C922.063,160.967,922.485,167.559,921.942,174.071z"/>
<path fill-rule="evenodd" clip-rule="evenodd" fill="#FFFFFF" d="M208.124,239.394c-36.352,0-72.7-0.064-109.053,0.092
	c-3.89,0.016-4.832-1.045-4.784-4.864c0.224-16.859,0.184-33.723,0.02-50.582c-0.028-3.232,0.826-4.15,4.106-4.138
	c73.159,0.323,146.326,0.555,219.485,0.694c3.073,0.004,3.831,0.87,3.803,3.863c-0.136,17.011-0.172,34.03,0.02,51.041
	c0.04,3.607-0.854,4.629-4.553,4.609c-36.348-0.144-72.696-0.084-109.044-0.084C208.124,239.813,208.124,239.601,208.124,239.394z"
	/>
</svg>
