<?xml version="1.0" encoding="utf-8"?>
<!-- Generator: Adobe Illustrator 16.0.0, SVG Export Plug-In . SVG Version: 6.00 Build 0)  -->
<!DOCTYPE svg PUBLIC "-//W3C//DTD SVG 1.1//EN" "http://www.w3.org/Graphics/SVG/1.1/DTD/svg11.dtd">
<svg version="1.1" id="Layer_1" xmlns="http://www.w3.org/2000/svg" xmlns:xlink="http://www.w3.org/1999/xlink" x="0px" y="0px"
	 width="2366.195px" height="400.41px" viewBox="0 0 2366.195 400.41" enable-background="new 0 0 2366.195 400.41"
	 xml:space="preserve">
<path fill="#1300FE" d="M365.24,69.157C323.19,22.949,269.938,1.177,213.04,0c-47.317,0.391-86.814,10.758-121.666,34.564
	C24.592,80.187-7.623,143.346,1.527,224.609c6.556,58.223,36.256,103.996,84.069,137.185c54.895,38.1,115.529,47.405,179.917,30.574
	c84.647-22.131,145.667-95.753,150.437-182.244C418.918,156.342,401.457,108.957,365.24,69.157z M359.103,310.007
	c0.016,4.254-1.229,5.088-5.155,4.974c-9.585-0.288-19.187-0.204-28.779-0.028c-2.865,0.052-3.659-0.759-3.603-3.62
	c0.188-8.971-0.096-17.948,0.156-26.918c0.096-3.393-0.687-4.373-4.25-4.361c-42.864,0.145-85.725,0.092-128.589,0.092
	c0-0.242,0-0.486,0-0.726c-43.016,0-86.028-0.044-129.044,0.076c-3.44,0.012-4.497-0.774-4.374-4.337
	c0.375-10.512,0.04-21.053,0.523-31.561c2.374-51.583,0.407-103.195,0.93-154.786c0.04-4.07,0.966-5.184,5.048-5.036
	c9.273,0.332,18.571,0.26,27.849,0.024c3.536-0.092,4.721,0.742,4.665,4.513c-0.228,15.626,0.04,31.257-0.191,46.887
	c-0.056,3.847,0.954,4.836,4.816,4.836c73.343,0.02,146.686,0.188,220.032,0.343c11.604,0.024,23.208,0.171,34.813,0.184
	c3.539,0.004,5.199,0.686,5.183,5.107C358.919,200.448,358.939,255.229,359.103,310.007z"/>
<path fill="#1300FE" d="M208.124,239.395c-36.352,0-72.7-0.064-109.053,0.092c-3.89,0.016-4.832-1.045-4.784-4.864
	c0.224-16.858,0.184-33.724,0.02-50.582c-0.028-3.232,0.826-4.15,4.106-4.138c73.159,0.323,146.326,0.555,219.485,0.694
	c3.073,0.004,3.831,0.87,3.803,3.863c-0.136,17.011-0.172,34.03,0.02,51.041c0.04,3.607-0.854,4.629-4.553,4.609
	c-36.348-0.145-72.696-0.084-109.044-0.084C208.124,239.813,208.124,239.602,208.124,239.395z"/>
<g enable-background="new    ">
	<path d="M601.363,262.445h-22.445v-78.852l-37.211,62.757l-35.734-63.348v79.442h-22.445v-118.13h25.841l32.781,58.622
		l34.258-58.622h24.955V262.445z"/>
	<path d="M731.453,241.182c-5.907,7.188-13.068,12.897-21.485,17.129s-17.696,6.35-27.834,6.35c-8.763,0-16.981-1.602-24.659-4.799
		c-7.679-3.198-14.36-7.554-20.041-13.068c-5.681-5.512-10.161-11.983-13.438-19.417c-3.276-7.432-4.914-15.431-4.914-23.995
		s1.638-16.562,4.914-23.995c3.276-7.432,7.757-13.929,13.438-19.491c5.68-5.561,12.362-9.917,20.041-13.068
		c7.678-3.149,15.896-4.726,24.659-4.726c10.138,0,19.418,2.118,27.834,6.35c8.417,4.233,15.431,9.746,21.042,16.538l-15.8,16.243
		c-3.643-5.217-8.343-9.425-14.102-12.625c-5.759-3.198-12.085-4.8-18.975-4.8c-5.514,0-10.705,1.06-15.578,3.175
		c-4.873,2.118-9.132,4.973-12.773,8.564c-3.643,3.595-6.522,7.778-8.638,12.552c-2.118,4.775-3.175,9.87-3.175,15.283
		c0,5.315,1.057,10.361,3.175,15.135c2.116,4.776,4.995,8.959,8.638,12.552c3.641,3.595,7.9,6.448,12.773,8.564
		c4.873,2.118,10.064,3.175,15.578,3.175c7.284,0,13.733-1.647,19.344-4.947c5.611-3.297,10.286-7.652,14.028-13.068
		L731.453,241.182z"/>
	<path d="M832.158,262.445h-25.204l-8.396-26.874c-0.884-2.954-1.989-5.66-3.313-8.122c-1.327-2.459-2.923-4.577-4.788-6.35
		c-1.866-1.771-4.1-3.149-6.702-4.134c-2.603-0.983-5.671-1.477-9.206-1.477h-8.543v46.956h-22.592V144.463l46.578-0.147
		c5.011,0,9.679,0.863,14.002,2.584c4.324,1.724,8.057,4.112,11.202,7.162c3.143,3.053,5.6,6.645,7.369,10.779
		c1.768,4.135,2.653,8.615,2.653,13.438c0,3.446-0.54,6.792-1.615,10.041c-1.075,3.248-2.591,6.252-4.547,9.007
		c-1.957,2.758-4.277,5.193-6.965,7.31c-2.69,2.118-5.648,3.717-8.874,4.799c3.714,1.38,6.746,3.373,9.095,5.98
		c2.349,2.609,4.206,5.735,5.577,9.376c0.683,1.676,1.32,3.349,1.906,5.021c0.586,1.675,1.198,3.421,1.834,5.241
		c0.637,1.823,1.322,3.791,2.056,5.907c0.733,2.117,1.539,4.455,2.42,7.014c1.082,3.248,2.09,6.031,3.027,8.343
		C830.065,258.632,831.074,260.674,832.158,262.445z M802.33,179.902c0-2.755-0.517-5.266-1.55-7.531
		c-1.034-2.263-2.437-4.231-4.208-5.906c-1.772-1.673-3.865-2.977-6.275-3.913c-2.414-0.935-4.998-1.402-7.752-1.402h-16.538v36.768
		h16.538c2.755,0,5.339-0.418,7.752-1.255c2.411-0.835,4.503-2.042,6.275-3.618c1.772-1.573,3.175-3.47,4.208-5.685
		S802.33,182.659,802.33,179.902z"/>
	<path d="M996.355,144.315v64.086c0,7.877-1.182,15.209-3.544,22.001c-2.363,6.793-5.784,12.725-10.263,17.794
		c-4.48,5.071-9.944,9.058-16.391,11.96c-6.448,2.902-13.806,4.356-22.075,4.356c-8.073,0-15.357-1.429-21.854-4.282
		c-6.497-2.854-12.035-6.768-16.612-11.739c-4.578-4.97-8.099-10.828-10.558-17.571c-2.462-6.742-3.691-14.003-3.691-21.78v-64.824
		h22.888v64.972c0,4.529,0.639,8.786,1.919,12.772c1.278,3.987,3.149,7.457,5.611,10.41c2.459,2.953,5.537,5.293,9.229,7.014
		c3.692,1.724,7.9,2.585,12.625,2.585c5.021,0,9.376-0.813,13.068-2.437c3.691-1.625,6.742-3.888,9.155-6.793
		c2.411-2.902,4.231-6.324,5.463-10.263c1.229-3.936,1.846-8.269,1.846-12.994v-65.267H996.355z"/>
	<path d="M1073.877,185.956l-11.37,18.015c-2.067-2.263-4.356-4.257-6.866-5.979c-2.51-1.722-5.046-2.584-7.604-2.584
		c-1.38,0-2.88,0.32-4.504,0.959c-1.625,0.642-3.152,1.698-4.578,3.175c-1.428,1.477-2.635,3.422-3.618,5.833
		c-0.985,2.413-1.477,5.39-1.477,8.934v48.138h-21.263v-85.349h21.263v9.155c2.559-3.641,5.39-6.446,8.491-8.417
		c3.101-1.968,6.571-2.953,10.41-2.953c3.74,0,7.406,1.011,11,3.027C1067.354,179.928,1070.725,182.611,1073.877,185.956z"/>
	<path d="M1163.506,219.771c0,6.005-1.013,11.716-3.034,17.128c-2.023,5.415-4.861,10.166-8.511,14.25
		c-3.652,4.086-7.995,7.334-13.027,9.745c-5.034,2.411-10.56,3.618-16.577,3.618c-3.751,0-7.254-0.517-10.509-1.551
		c-3.258-1.033-6.317-2.681-9.178-4.946v4.43h-21.263v-122.56h21.411l0.148,41.346c2.459-1.969,5.39-3.544,8.786-4.726
		c3.396-1.181,6.963-1.771,10.706-1.771c5.217,0,10.286,1.158,15.209,3.47c4.921,2.314,9.303,5.489,13.142,9.524
		c3.839,4.037,6.915,8.786,9.229,14.249C1162.348,207.441,1163.506,213.373,1163.506,219.771z M1141.947,219.771
		c0-3.937-0.593-7.531-1.779-10.78c-1.186-3.248-2.842-6.028-4.965-8.343c-2.125-2.312-4.645-4.083-7.559-5.315
		c-2.917-1.229-6.151-1.846-9.708-1.846c-2.275,0-4.894,0.468-7.856,1.402c-2.965,0.938-5.436,2.142-7.411,3.618v41.05
		c4.642,4.233,9.879,6.35,15.712,6.35c3.359,0,6.495-0.639,9.411-1.92c2.914-1.278,5.408-3.075,7.484-5.39
		c2.074-2.312,3.706-5.068,4.891-8.269C1141.354,227.131,1141.947,223.61,1141.947,219.771z"/>
	<path d="M1246.048,262.445h-21.263v-4.577c-3.743,2.561-7.705,4.333-11.888,5.315c-4.185,0.982-8.49,1.477-12.92,1.477
		c-4.134,0-7.876-0.616-11.222-1.846c-3.348-1.229-6.252-3.002-8.712-5.315c-2.462-2.313-4.356-5.044-5.685-8.195
		c-1.329-3.149-1.994-6.646-1.994-10.484c0-4.822,1.057-9.03,3.175-12.625c2.116-3.593,4.995-6.594,8.638-9.008
		c3.641-2.411,7.9-4.208,12.773-5.39c4.873-1.181,10.115-1.771,15.726-1.771h12.255c0-5.021-1.624-9.008-4.873-11.961
		c-3.248-2.953-7.925-4.43-14.027-4.43c-2.953,0-6.005,0.542-9.155,1.624c-3.152,1.085-6.301,3.053-9.451,5.907l-12.551-12.699
		c4.527-4.331,9.769-7.679,15.726-10.041c5.955-2.362,12.083-3.544,18.384-3.544c5.906,0,11.165,0.937,15.777,2.806
		c4.609,1.871,8.334,4.282,11.169,7.235c3.714,3.742,6.329,7.925,7.845,12.551c1.514,4.629,2.272,10.535,2.272,17.72V262.445z
		 M1224.785,241.182v-15.8h-9.746c-2.954,0-5.736,0.199-8.343,0.591c-2.609,0.395-4.873,1.06-6.792,1.993
		c-1.919,0.938-3.447,2.142-4.578,3.618c-1.133,1.477-1.698,3.248-1.698,5.315c0,2.954,1.156,5.367,3.47,7.235
		c2.312,1.872,5.291,2.806,8.934,2.806c3.149,0,6.276-0.491,9.377-1.477C1218.509,244.481,1221.633,243.053,1224.785,241.182z"/>
	<path d="M1340.106,262.445h-21.263v-50.943c0-3.05-0.471-5.733-1.41-8.048c-0.939-2.312-2.199-4.231-3.781-5.759
		c-1.583-1.524-3.387-2.657-5.413-3.396c-2.026-0.738-4.128-1.107-6.301-1.107c-3.263,0-6.477,0.568-9.64,1.698
		c-3.163,1.133-6.029,2.931-8.6,5.39v62.166h-21.263v-85.349h21.263l0.148,6.35c1.277-1.278,2.854-2.46,4.725-3.544
		c1.869-1.082,3.814-1.993,5.833-2.731c2.017-0.738,4.083-1.304,6.202-1.698c2.115-0.393,4.157-0.591,6.127-0.591
		c4.331,0,8.491,0.689,12.479,2.067c3.986,1.38,7.53,3.495,10.631,6.35c3.102,2.856,5.586,6.548,7.457,11.074
		c1.869,4.529,2.806,9.894,2.806,16.096V262.445z"/>
	<path d="M1484.663,231.437c0,4.43-0.959,8.638-2.879,12.625c-1.92,3.986-4.602,7.508-8.047,10.558
		c-3.447,3.053-7.531,5.489-12.256,7.31c-4.727,1.82-9.945,2.731-15.652,2.731c-5.119,0-9.723-0.295-13.807-0.886
		c-4.086-0.591-7.925-1.525-11.518-2.806c-3.595-1.278-7.04-2.928-10.337-4.946c-3.299-2.017-6.719-4.453-10.262-7.31l16.242-16.391
		c4.726,3.938,9.352,6.719,13.881,8.343c4.526,1.624,9.45,2.437,14.767,2.437c2.164,0,4.207-0.318,6.127-0.96
		c1.92-0.639,3.592-1.499,5.021-2.584c1.426-1.082,2.559-2.362,3.396-3.839c0.834-1.477,1.254-3.102,1.254-4.873
		c0-1.869-0.346-3.544-1.033-5.021c-0.689-1.477-1.92-2.902-3.691-4.282c-1.771-1.377-4.234-2.78-7.383-4.208
		c-3.152-1.426-7.188-3.027-12.109-4.8c-4.332-1.573-8.489-3.37-12.478-5.39c-3.986-2.017-7.481-4.452-10.483-7.309
		c-3.004-2.854-5.415-6.202-7.235-10.041c-1.822-3.84-2.732-8.366-2.732-13.585c0-5.021,1.009-9.646,3.027-13.881
		c2.018-4.231,4.773-7.849,8.27-10.853c3.493-3.002,7.579-5.339,12.256-7.015c4.674-1.672,9.72-2.51,15.136-2.51
		c9.055,0,16.686,1.182,22.887,3.544c6.203,2.362,11.715,5.81,16.539,10.336l-15.947,16.096c-2.953-2.854-6.254-5.044-9.895-6.571
		c-3.643-1.525-7.924-2.289-12.846-2.289c-2.266,0-4.355,0.347-6.275,1.034c-1.92,0.689-3.57,1.602-4.947,2.731
		c-1.38,1.133-2.487,2.462-3.322,3.987c-0.838,1.527-1.255,3.126-1.255,4.799c0,1.871,0.393,3.569,1.182,5.095
		c0.786,1.527,2.115,3.004,3.985,4.43c1.869,1.428,4.357,2.856,7.457,4.282c3.102,1.428,6.965,2.979,11.592,4.651
		c5.906,2.067,10.977,4.333,15.209,6.792c4.232,2.462,7.68,5.168,10.336,8.121c2.658,2.954,4.627,6.276,5.908,9.968
		C1484.022,222.65,1484.663,226.811,1484.663,231.437z"/>
	<path d="M1574.886,249.599c-4.333,4.924-9.55,8.664-15.652,11.223c-6.105,2.559-12.503,3.839-19.196,3.839
		c-6.202,0-12.058-1.133-17.564-3.396c-5.51-2.263-10.293-5.39-14.349-9.376c-4.057-3.987-7.259-8.735-9.605-14.25
		c-2.347-5.512-3.519-11.467-3.519-17.866c0-6.299,1.172-12.183,3.519-17.646c2.347-5.463,5.523-10.211,9.533-14.249
		c4.008-4.035,8.766-7.21,14.272-9.524c5.508-2.312,11.412-3.47,17.713-3.47c6.497,0,12.674,1.182,18.531,3.544
		c5.856,2.362,10.95,5.957,15.283,10.779l-14.323,14.618c-2.166-2.854-4.799-5.217-7.899-7.088
		c-3.102-1.868-6.866-2.806-11.297-2.806c-3.248,0-6.326,0.69-9.229,2.067c-2.904,1.38-5.464,3.226-7.679,5.538
		c-2.215,2.313-3.964,5.046-5.241,8.195c-1.281,3.151-1.92,6.497-1.92,10.041c0,3.543,0.639,6.892,1.92,10.041
		c1.277,3.151,3.001,5.883,5.168,8.194c2.164,2.314,4.725,4.16,7.678,5.538c2.954,1.379,6.055,2.067,9.303,2.067
		c4.231,0,8.071-1.009,11.518-3.027c3.445-2.017,6.202-4.601,8.27-7.753L1574.886,249.599z"/>
	<path d="M1654.622,262.445h-21.264v-4.577c-3.742,2.561-7.703,4.333-11.887,5.315c-4.186,0.982-8.49,1.477-12.92,1.477
		c-4.135,0-7.877-0.616-11.223-1.846c-3.348-1.229-6.253-3.002-8.712-5.315c-2.462-2.313-4.356-5.044-5.686-8.195
		c-1.328-3.149-1.993-6.646-1.993-10.484c0-4.822,1.057-9.03,3.175-12.625c2.116-3.593,4.995-6.594,8.639-9.008
		c3.641-2.411,7.899-4.208,12.772-5.39c4.873-1.181,10.115-1.771,15.726-1.771h12.256c0-5.021-1.624-9.008-4.872-11.961
		c-3.249-2.953-7.926-4.43-14.028-4.43c-2.953,0-6.006,0.542-9.155,1.624c-3.151,1.085-6.301,3.053-9.45,5.907l-12.551-12.699
		c4.526-4.331,9.769-7.679,15.726-10.041c5.955-2.362,12.083-3.544,18.384-3.544c5.906,0,11.165,0.937,15.777,2.806
		c4.609,1.871,8.333,4.282,11.169,7.235c3.715,3.742,6.329,7.925,7.845,12.551c1.514,4.629,2.272,10.535,2.272,17.72V262.445z
		 M1633.358,241.182v-15.8h-9.745c-2.953,0-5.736,0.199-8.343,0.591c-2.61,0.395-4.873,1.06-6.793,1.993
		c-1.92,0.938-3.447,2.142-4.577,3.618c-1.133,1.477-1.698,3.248-1.698,5.315c0,2.954,1.155,5.367,3.47,7.235
		c2.312,1.872,5.291,2.806,8.934,2.806c3.149,0,6.275-0.491,9.377-1.477C1627.083,244.481,1630.207,243.053,1633.358,241.182z"/>
	<path d="M1732.29,185.956l-11.37,18.015c-2.067-2.263-4.356-4.257-6.866-5.979c-2.511-1.722-5.046-2.584-7.604-2.584
		c-1.38,0-2.88,0.32-4.504,0.959c-1.624,0.642-3.151,1.698-4.577,3.175c-1.429,1.477-2.635,3.422-3.618,5.833
		c-0.985,2.413-1.477,5.39-1.477,8.934v48.138h-21.264v-85.349h21.264v9.155c2.559-3.641,5.39-6.446,8.49-8.417
		c3.102-1.968,6.571-2.953,10.41-2.953c3.74,0,7.406,1.011,11.001,3.027C1725.768,179.928,1729.138,182.611,1732.29,185.956z"/>
	<path d="M1821.919,219.771c0,6.005-1.013,11.716-3.034,17.128c-2.023,5.415-4.861,10.166-8.512,14.25
		c-3.652,4.086-7.994,7.334-13.026,9.745c-5.034,2.411-10.56,3.618-16.577,3.618c-3.752,0-7.254-0.517-10.51-1.551
		c-3.258-1.033-6.316-2.681-9.178-4.946v4.43h-21.264v-122.56h21.411l0.147,41.346c2.46-1.969,5.39-3.544,8.786-4.726
		c3.396-1.181,6.963-1.771,10.706-1.771c5.216,0,10.285,1.158,15.209,3.47c4.921,2.314,9.303,5.489,13.142,9.524
		c3.839,4.037,6.915,8.786,9.229,14.249C1820.761,207.441,1821.919,213.373,1821.919,219.771z M1800.36,219.771
		c0-3.937-0.593-7.531-1.779-10.78c-1.186-3.248-2.843-6.028-4.965-8.343c-2.125-2.312-4.645-4.083-7.559-5.315
		c-2.916-1.229-6.151-1.846-9.709-1.846c-2.274,0-4.894,0.468-7.855,1.402c-2.965,0.938-5.437,2.142-7.411,3.618v41.05
		c4.643,4.233,9.88,6.35,15.712,6.35c3.359,0,6.495-0.639,9.411-1.92c2.914-1.278,5.408-3.075,7.485-5.39
		c2.073-2.312,3.705-5.068,4.891-8.269C1799.768,227.131,1800.36,223.61,1800.36,219.771z"/>
	<path d="M1923.362,219.771c0,6.399-1.181,12.329-3.544,17.793c-2.362,5.463-5.61,10.188-9.745,14.176
		c-4.135,3.986-8.984,7.138-14.545,9.45c-5.563,2.312-11.494,3.47-17.793,3.47c-6.302,0-12.208-1.158-17.72-3.47
		c-5.515-2.313-10.336-5.486-14.471-9.524c-4.135-4.035-7.384-8.786-9.746-14.249c-2.362-5.464-3.544-11.345-3.544-17.646
		c0-6.202,1.205-12.035,3.618-17.498c2.411-5.464,5.685-10.237,9.819-14.323c4.135-4.084,8.957-7.284,14.471-9.599
		c5.512-2.312,11.37-3.47,17.572-3.47c6.299,0,12.23,1.158,17.793,3.47c5.561,2.314,10.41,5.464,14.545,9.45
		c4.135,3.987,7.383,8.738,9.745,14.25C1922.182,207.565,1923.362,213.473,1923.362,219.771z M1902.1,219.771
		c0-3.642-0.64-7.037-1.915-10.189c-1.276-3.149-3.019-5.906-5.227-8.269c-2.208-2.363-4.785-4.209-7.729-5.537
		c-2.944-1.329-6.084-1.994-9.421-1.994c-3.336,0-6.479,0.665-9.423,1.994c-2.943,1.328-5.521,3.174-7.729,5.537
		c-2.208,2.362-3.95,5.119-5.227,8.269c-1.275,3.152-1.912,6.548-1.912,10.189c0,3.643,0.637,7.039,1.912,10.188
		c1.276,3.151,3.019,5.906,5.227,8.269c2.208,2.363,4.785,4.209,7.729,5.537c2.944,1.329,6.087,1.994,9.423,1.994
		c3.337,0,6.477-0.665,9.421-1.994c2.943-1.328,5.521-3.174,7.729-5.537c2.208-2.362,3.95-5.117,5.227-8.269
		C1901.46,226.811,1902.1,223.414,1902.1,219.771z"/>
	<path d="M1997.932,185.956l-11.37,18.015c-2.067-2.263-4.356-4.257-6.866-5.979c-2.511-1.722-5.046-2.584-7.604-2.584
		c-1.38,0-2.88,0.32-4.504,0.959c-1.624,0.642-3.151,1.698-4.577,3.175c-1.429,1.477-2.635,3.422-3.618,5.833
		c-0.985,2.413-1.477,5.39-1.477,8.934v48.138h-21.264v-85.349h21.264v9.155c2.559-3.641,5.39-6.446,8.49-8.417
		c3.102-1.968,6.571-2.953,10.41-2.953c3.74,0,7.406,1.011,11.001,3.027C1991.409,179.928,1994.779,182.611,1997.932,185.956z"/>
	<path d="M2093.614,219.771c0,6.399-1.181,12.329-3.544,17.793c-2.362,5.463-5.61,10.188-9.745,14.176
		c-4.135,3.986-8.984,7.138-14.545,9.45c-5.563,2.312-11.494,3.47-17.793,3.47c-6.302,0-12.208-1.158-17.72-3.47
		c-5.515-2.313-10.336-5.486-14.471-9.524c-4.135-4.035-7.384-8.786-9.746-14.249c-2.362-5.464-3.544-11.345-3.544-17.646
		c0-6.202,1.205-12.035,3.618-17.498c2.411-5.464,5.685-10.237,9.819-14.323c4.135-4.084,8.957-7.284,14.471-9.599
		c5.512-2.312,11.37-3.47,17.572-3.47c6.299,0,12.23,1.158,17.793,3.47c5.561,2.314,10.41,5.464,14.545,9.45
		c4.135,3.987,7.383,8.738,9.745,14.25C2092.434,207.565,2093.614,213.473,2093.614,219.771z M2072.352,219.771
		c0-3.642-0.64-7.037-1.915-10.189c-1.276-3.149-3.019-5.906-5.227-8.269c-2.208-2.363-4.785-4.209-7.729-5.537
		c-2.944-1.329-6.084-1.994-9.421-1.994c-3.336,0-6.479,0.665-9.423,1.994c-2.943,1.328-5.521,3.174-7.729,5.537
		c-2.208,2.362-3.95,5.119-5.227,8.269c-1.275,3.152-1.912,6.548-1.912,10.189c0,3.643,0.637,7.039,1.912,10.188
		c1.276,3.151,3.019,5.906,5.227,8.269c2.208,2.363,4.785,4.209,7.729,5.537c2.944,1.329,6.087,1.994,9.423,1.994
		c3.337,0,6.477-0.665,9.421-1.994c2.943-1.328,5.521-3.174,7.729-5.537c2.208-2.362,3.95-5.117,5.227-8.269
		C2071.712,226.811,2072.352,223.414,2072.352,219.771z"/>
	<path d="M2182.507,262.445h-21.264v-6.497c-1.38,1.38-2.979,2.584-4.799,3.617c-1.823,1.034-3.742,1.92-5.759,2.658
		c-2.019,0.738-4.086,1.304-6.202,1.698c-2.118,0.393-4.111,0.591-5.98,0.591c-4.333,0-8.49-0.69-12.477-2.067
		c-3.987-1.377-7.508-3.493-10.559-6.35c-3.052-2.854-5.488-6.546-7.309-11.074c-1.823-4.527-2.732-9.894-2.732-16.096v-51.829
		h21.264v50.796c0,3.053,0.466,5.735,1.402,8.048c0.935,2.313,2.165,4.233,3.692,5.759c1.524,1.527,3.297,2.657,5.315,3.396
		c2.017,0.738,4.109,1.107,6.275,1.107c6.89,0,12.847-2.362,17.867-7.088v-62.018h21.264V262.445z"/>
	<path d="M2278.633,193.93h-9.008c2.264,4.431,3.396,9.155,3.396,14.176c0,3.84-0.716,7.557-2.142,11.148
		c-1.428,3.595-3.47,6.866-6.128,9.819c-2.657,2.954-5.883,5.464-9.672,7.531c-3.79,2.067-8.047,3.447-12.772,4.135
		c-3.248,0.493-5.685,1.255-7.31,2.288c-1.624,1.034-2.437,2.067-2.437,3.102c0,1.033,0.813,1.993,2.437,2.879
		c1.625,0.887,4.062,1.477,7.31,1.772c11.023,0.985,19.565,3.742,25.619,8.269c6.055,4.527,9.081,10.532,9.081,18.015
		c0,3.84-0.932,7.384-2.796,10.632c-1.864,3.249-4.536,6.055-8.018,8.417s-7.674,4.183-12.579,5.464
		c-4.905,1.277-10.396,1.919-16.476,1.919c-6.182,0-11.748-0.642-16.7-1.919c-4.953-1.281-9.196-3.078-12.727-5.39
		c-3.529-2.314-6.227-5.095-8.091-8.344c-1.864-3.248-2.794-6.843-2.794-10.779c0-5.906,1.684-10.853,5.055-14.84
		c3.371-3.986,8.866-6.963,16.487-8.934c-2.362-0.886-4.061-2.09-5.094-3.617c-1.034-1.525-1.503-3.076-1.403-4.651
		c0.097-1.574,0.762-3.076,1.993-4.504c1.23-1.426,2.979-2.533,5.249-3.322c-2.579-1.182-5.032-2.707-7.362-4.578
		c-2.33-1.868-4.437-4.035-6.319-6.497c-1.883-2.459-3.371-5.216-4.46-8.269c-1.091-3.051-1.636-6.299-1.636-9.746
		c0-4.626,0.983-8.956,2.953-12.994c1.969-4.035,4.626-7.554,7.974-10.558c3.346-3.002,7.235-5.364,11.666-7.088
		c4.43-1.721,9.104-2.584,14.027-2.584c4.822,0,9.303,0.738,13.438,2.215h29.237V193.93z M2255.745,277.063
		c0-3.446-1.742-5.957-5.222-7.53c-3.481-1.576-7.967-2.362-13.458-2.362c-5.883,0-10.519,0.835-13.9,2.51
		c-3.383,1.673-5.074,4.135-5.074,7.383c0,3.346,1.766,5.856,5.295,7.531c3.53,1.673,8.09,2.51,13.68,2.51
		c5.686,0,10.222-0.812,13.604-2.437C2254.052,283.044,2255.745,280.509,2255.745,277.063z M2251.758,208.105
		c0-2.164-0.415-4.183-1.243-6.054c-0.831-1.869-1.952-3.519-3.364-4.947c-1.414-1.426-3.073-2.559-4.975-3.396
		c-1.9-0.836-3.924-1.256-6.07-1.256c-2.146,0-4.144,0.42-5.996,1.256c-1.855,0.837-3.488,1.97-4.9,3.396
		c-1.414,1.429-2.536,3.078-3.364,4.947c-0.83,1.871-1.243,3.89-1.243,6.054c0,2.167,0.413,4.209,1.243,6.128
		c0.828,1.92,1.95,3.595,3.364,5.021c1.412,1.429,3.045,2.562,4.9,3.396c1.853,0.838,3.851,1.255,5.996,1.255
		c2.146,0,4.17-0.417,6.07-1.255c1.901-0.835,3.561-1.968,4.975-3.396c1.412-1.426,2.533-3.101,3.364-5.021
		C2251.343,212.314,2251.758,210.272,2251.758,208.105z"/>
	<path d="M2366.195,262.445h-21.264v-51.091c0-3.051-0.471-5.733-1.409-8.048c-0.939-2.312-2.176-4.231-3.708-5.759
		c-1.532-1.525-3.313-2.658-5.339-3.396s-4.128-1.107-6.301-1.107c-3.263,0-6.377,0.494-9.342,1.477
		c-2.968,0.985-5.833,2.363-8.602,4.135v63.79h-21.264V140.033h21.264l0.147,41.937c3.149-2.46,6.793-4.282,10.927-5.464
		c4.135-1.181,8.122-1.771,11.961-1.771c4.43,0,8.613,0.715,12.552,2.141c3.936,1.429,7.432,3.595,10.483,6.497
		c3.051,2.905,5.464,6.548,7.235,10.927c1.772,4.382,2.658,9.575,2.658,15.579V262.445z"/>
</g>
</svg>
