<?xml version="1.0" encoding="utf-8"?>
<!-- Generator: Adobe Illustrator 16.0.0, SVG Export Plug-In . SVG Version: 6.00 Build 0)  -->
<!DOCTYPE svg PUBLIC "-//W3C//DTD SVG 1.1//EN" "http://www.w3.org/Graphics/SVG/1.1/DTD/svg11.dtd">
<svg version="1.1" id="Layer_1" xmlns="http://www.w3.org/2000/svg" xmlns:xlink="http://www.w3.org/1999/xlink" x="0px" y="0px"
	 width="1990.696px" height="400.41px" viewBox="0 0 1990.696 400.41" enable-background="new 0 0 1990.696 400.41"
	 xml:space="preserve">
<path fill-rule="evenodd" clip-rule="evenodd" fill="#1300FE" d="M365.24,69.157C323.19,22.949,269.938,1.177,213.04,0
	c-47.317,0.391-86.814,10.758-121.666,34.564C24.592,80.187-7.623,143.346,1.527,224.609
	c6.556,58.223,36.256,103.997,84.069,137.185c54.895,38.1,115.529,47.405,179.917,30.574
	c84.647-22.131,145.668-95.753,150.437-182.244C418.918,156.342,401.457,108.957,365.24,69.157z M359.103,310.007
	c0.016,4.254-1.229,5.088-5.155,4.973c-9.585-0.288-19.186-0.204-28.779-0.028c-2.865,0.052-3.659-0.759-3.603-3.62
	c0.188-8.97-0.096-17.948,0.156-26.918c0.096-3.392-0.687-4.373-4.25-4.361c-42.864,0.144-85.725,0.092-128.589,0.092
	c0-0.243,0-0.487,0-0.726c-43.016,0-86.028-0.044-129.044,0.076c-3.44,0.012-4.497-0.774-4.374-4.337
	c0.375-10.511,0.04-21.053,0.523-31.56c2.374-51.583,0.407-103.195,0.93-154.786c0.04-4.07,0.966-5.184,5.048-5.036
	c9.273,0.332,18.571,0.26,27.849,0.024c3.536-0.092,4.721,0.742,4.665,4.513c-0.228,15.626,0.04,31.257-0.191,46.887
	c-0.056,3.847,0.954,4.836,4.816,4.836c73.343,0.02,146.686,0.188,220.032,0.343c11.604,0.024,23.208,0.171,34.812,0.184
	c3.539,0.004,5.199,0.686,5.183,5.107C358.919,200.448,358.939,255.228,359.103,310.007z"/>
<path fill-rule="evenodd" clip-rule="evenodd" fill="#1300FE" d="M208.124,239.394c-36.352,0-72.7-0.064-109.053,0.092
	c-3.89,0.016-4.832-1.045-4.784-4.864c0.224-16.859,0.184-33.723,0.02-50.582c-0.028-3.232,0.826-4.15,4.106-4.138
	c73.159,0.323,146.326,0.555,219.485,0.694c3.073,0.004,3.831,0.87,3.803,3.863c-0.136,17.011-0.172,34.03,0.02,51.041
	c0.04,3.607-0.854,4.629-4.553,4.609c-36.348-0.144-72.696-0.084-109.044-0.084C208.124,239.813,208.124,239.601,208.124,239.394z"
	/>
<g>
	<path d="M601.363,262.446h-22.445v-78.852l-37.21,62.756l-35.734-63.347v79.442h-22.445V144.316h25.842l32.78,58.622l34.258-58.622
		h24.955V262.446z"/>
	<path d="M731.453,241.183c-5.906,7.187-13.068,12.897-21.484,17.128c-8.417,4.231-17.697,6.35-27.835,6.35
		c-8.763,0-16.98-1.601-24.659-4.799s-14.36-7.554-20.041-13.068c-5.68-5.512-10.161-11.983-13.437-19.417
		c-3.276-7.432-4.915-15.431-4.915-23.995s1.639-16.561,4.915-23.995c3.275-7.431,7.757-13.929,13.437-19.491
		c5.681-5.561,12.362-9.917,20.041-13.068c7.679-3.149,15.896-4.726,24.659-4.726c10.138,0,19.418,2.118,27.835,6.35
		c8.416,4.234,15.431,9.746,21.041,16.538l-15.8,16.243c-3.643-5.217-8.343-9.425-14.102-12.625
		c-5.759-3.198-12.085-4.799-18.975-4.799c-5.514,0-10.705,1.059-15.578,3.175c-4.873,2.118-9.132,4.972-12.772,8.564
		c-3.644,3.594-6.522,7.777-8.639,12.551c-2.118,4.776-3.175,9.87-3.175,15.283c0,5.316,1.057,10.362,3.175,15.135
		c2.116,4.776,4.995,8.959,8.639,12.551c3.641,3.595,7.899,6.449,12.772,8.564c4.873,2.118,10.064,3.175,15.578,3.175
		c7.284,0,13.732-1.647,19.344-4.947c5.611-3.297,10.286-7.653,14.028-13.068L731.453,241.183z"/>
	<path d="M832.158,262.446h-25.204l-8.396-26.875c-0.884-2.953-1.989-5.66-3.313-8.122c-1.326-2.459-2.923-4.577-4.787-6.349
		c-1.867-1.772-4.101-3.149-6.703-4.135c-2.603-0.983-5.671-1.477-9.205-1.477h-8.544v46.957h-22.593V144.464l46.578-0.147
		c5.012,0,9.68,0.863,14.003,2.584c4.324,1.723,8.057,4.111,11.201,7.162c3.143,3.052,5.6,6.645,7.37,10.779
		c1.767,4.134,2.653,8.615,2.653,13.437c0,3.447-0.54,6.792-1.615,10.041s-2.591,6.253-4.548,9.007
		c-1.956,2.757-4.277,5.194-6.966,7.31c-2.689,2.118-5.647,3.717-8.873,4.799c3.715,1.38,6.746,3.373,9.095,5.98
		c2.349,2.609,4.206,5.736,5.577,9.376c0.683,1.675,1.319,3.348,1.905,5.021c0.586,1.675,1.197,3.421,1.834,5.242
		c0.637,1.823,1.322,3.791,2.056,5.906c0.734,2.118,1.539,4.455,2.421,7.014c1.082,3.249,2.09,6.031,3.027,8.343
		C830.065,258.632,831.074,260.674,832.158,262.446z M802.331,179.903c0-2.755-0.518-5.265-1.551-7.531
		c-1.033-2.264-2.437-4.231-4.208-5.907c-1.772-1.672-3.865-2.976-6.276-3.913c-2.413-0.934-4.997-1.402-7.752-1.402h-16.538v36.768
		h16.538c2.755,0,5.339-0.417,7.752-1.255c2.411-0.835,4.504-2.042,6.276-3.618c1.771-1.573,3.175-3.47,4.208-5.685
		C801.813,185.145,802.331,182.66,802.331,179.903z"/>
	<path d="M996.355,144.316v64.085c0,7.877-1.182,15.209-3.544,22.002s-5.784,12.724-10.263,17.793
		c-4.48,5.071-9.944,9.058-16.391,11.961c-6.448,2.902-13.807,4.356-22.075,4.356c-8.073,0-15.356-1.428-21.854-4.282
		c-6.497-2.854-12.034-6.767-16.611-11.739c-4.578-4.97-8.099-10.828-10.558-17.572c-2.462-6.742-3.692-14.002-3.692-21.78v-64.823
		h22.888v64.971c0,4.529,0.64,8.786,1.92,12.772c1.278,3.987,3.149,7.457,5.611,10.41c2.459,2.954,5.537,5.293,9.229,7.014
		c3.691,1.724,7.9,2.584,12.625,2.584c5.021,0,9.377-0.812,13.068-2.437c3.691-1.624,6.742-3.888,9.155-6.792
		c2.411-2.902,4.231-6.324,5.463-10.262c1.23-3.936,1.846-8.269,1.846-12.994v-65.267H996.355z"/>
	<path d="M1073.877,185.957l-11.37,18.015c-2.067-2.263-4.356-4.257-6.866-5.98c-2.511-1.721-5.046-2.584-7.604-2.584
		c-1.38,0-2.88,0.321-4.504,0.96c-1.624,0.641-3.151,1.698-4.577,3.175c-1.429,1.477-2.635,3.421-3.618,5.833
		c-0.985,2.413-1.477,5.39-1.477,8.934v48.138h-21.264v-85.349h21.264v9.155c2.559-3.641,5.39-6.447,8.49-8.417
		c3.102-1.968,6.571-2.953,10.41-2.953c3.74,0,7.406,1.01,11.001,3.027C1067.354,179.928,1070.726,182.611,1073.877,185.957z"/>
	<path d="M1163.506,219.771c0,6.006-1.013,11.716-3.034,17.129c-2.023,5.415-4.861,10.166-8.512,14.249
		c-3.652,4.086-7.994,7.335-13.026,9.746c-5.034,2.411-10.56,3.618-16.577,3.618c-3.752,0-7.254-0.517-10.51-1.551
		c-3.258-1.033-6.316-2.681-9.178-4.946v4.43h-21.264v-122.56h21.411l0.147,41.346c2.46-1.968,5.39-3.544,8.786-4.726
		c3.396-1.181,6.963-1.772,10.706-1.772c5.216,0,10.285,1.158,15.209,3.47c4.921,2.314,9.303,5.489,13.142,9.524
		c3.839,4.038,6.915,8.786,9.229,14.249C1162.348,207.442,1163.506,213.374,1163.506,219.771z M1141.947,219.771
		c0-3.936-0.593-7.531-1.779-10.779c-1.186-3.249-2.843-6.029-4.965-8.343c-2.125-2.312-4.645-4.084-7.559-5.316
		c-2.916-1.23-6.151-1.846-9.709-1.846c-2.274,0-4.894,0.468-7.855,1.403c-2.965,0.937-5.437,2.141-7.411,3.618v41.05
		c4.643,4.234,9.88,6.35,15.712,6.35c3.359,0,6.495-0.639,9.411-1.919c2.914-1.278,5.408-3.076,7.485-5.39
		c2.073-2.312,3.705-5.069,4.891-8.269C1141.354,227.131,1141.947,223.611,1141.947,219.771z"/>
	<path d="M1246.048,262.446h-21.264v-4.578c-3.742,2.561-7.703,4.333-11.887,5.316c-4.186,0.983-8.49,1.477-12.92,1.477
		c-4.135,0-7.877-0.616-11.223-1.846c-3.348-1.229-6.253-3.001-8.712-5.316c-2.462-2.312-4.356-5.043-5.686-8.195
		c-1.328-3.149-1.993-6.645-1.993-10.484c0-4.822,1.057-9.03,3.175-12.625c2.116-3.592,4.995-6.594,8.639-9.007
		c3.641-2.411,7.899-4.208,12.772-5.39c4.873-1.182,10.115-1.772,15.726-1.772h12.256c0-5.021-1.624-9.007-4.872-11.961
		c-3.249-2.953-7.926-4.43-14.028-4.43c-2.953,0-6.006,0.542-9.155,1.625c-3.151,1.084-6.301,3.052-9.45,5.906l-12.551-12.699
		c4.526-4.331,9.769-7.679,15.726-10.041c5.955-2.363,12.083-3.544,18.384-3.544c5.906,0,11.165,0.937,15.777,2.806
		c4.609,1.871,8.333,4.282,11.169,7.235c3.715,3.742,6.329,7.925,7.845,12.551c1.514,4.628,2.272,10.535,2.272,17.719V262.446z
		 M1224.784,241.183v-15.8h-9.745c-2.953,0-5.736,0.198-8.343,0.59c-2.61,0.395-4.873,1.059-6.793,1.994
		c-1.92,0.937-3.447,2.141-4.577,3.618c-1.133,1.477-1.698,3.249-1.698,5.316c0,2.953,1.155,5.367,3.47,7.235
		c2.312,1.871,5.291,2.806,8.934,2.806c3.149,0,6.275-0.492,9.377-1.477C1218.509,244.482,1221.633,243.054,1224.784,241.183z"/>
	<path d="M1340.107,262.446h-21.264v-50.943c0-3.05-0.471-5.733-1.41-8.048c-0.938-2.312-2.198-4.231-3.781-5.759
		c-1.583-1.525-3.387-2.658-5.412-3.396c-2.026-0.738-4.128-1.107-6.302-1.107c-3.262,0-6.477,0.567-9.64,1.698
		c-3.163,1.133-6.028,2.93-8.599,5.39v62.166h-21.264v-85.349h21.264l0.147,6.35c1.278-1.278,2.854-2.459,4.726-3.544
		c1.869-1.082,3.813-1.994,5.832-2.732c2.017-0.738,4.084-1.304,6.202-1.698c2.116-0.392,4.157-0.59,6.128-0.59
		c4.331,0,8.49,0.69,12.478,2.067c3.987,1.379,7.531,3.495,10.632,6.349c3.101,2.856,5.586,6.548,7.457,11.075
		c1.868,4.529,2.806,9.894,2.806,16.095V262.446z"/>
	<path d="M1485.698,262.446h-79.886V144.464h23.331v95.833h56.555V262.446z"/>
	<path d="M1571.637,262.446h-21.264v-6.497c-1.38,1.38-2.979,2.584-4.799,3.618c-1.823,1.034-3.742,1.919-5.759,2.658
		c-2.019,0.738-4.086,1.304-6.202,1.698c-2.118,0.392-4.111,0.591-5.98,0.591c-4.333,0-8.49-0.69-12.477-2.067
		c-3.987-1.377-7.508-3.493-10.559-6.35c-3.052-2.854-5.488-6.545-7.309-11.075c-1.823-4.526-2.732-9.893-2.732-16.095v-51.83
		h21.264v50.796c0,3.052,0.466,5.735,1.402,8.047c0.935,2.314,2.165,4.234,3.692,5.759c1.524,1.527,3.297,2.658,5.315,3.396
		c2.017,0.738,4.109,1.107,6.275,1.107c6.89,0,12.847-2.363,17.867-7.088v-62.018h21.264V262.446z"/>
	<path d="M1715.753,262.446h-21.264v-50.943c0-6.003-1.453-10.558-4.356-13.659c-2.904-3.101-6.474-4.651-10.705-4.651
		c-3.249,0-6.326,0.517-9.229,1.55c-2.905,1.034-5.736,2.732-8.491,5.094c0.886,3.447,1.329,7.335,1.329,11.666v50.943h-21.264
		v-50.943c0-6.003-1.453-10.558-4.355-13.659c-2.905-3.101-6.424-4.651-10.558-4.651c-3.249,0-6.105,0.567-8.564,1.698
		c-2.462,1.133-5.021,2.93-7.679,5.39v62.166h-21.264v-85.349h21.264l0.025,6.35c2.66-2.559,5.789-4.626,9.386-6.202
		c3.597-1.573,7.268-2.362,11.015-2.362c4.14,0,8.302,0.937,12.491,2.806c4.19,1.871,7.86,4.577,11.015,8.121
		c4.435-3.936,8.918-6.742,13.451-8.417c4.534-1.673,9.511-2.51,14.933-2.51c4.435,0,8.649,0.665,12.641,1.993
		c3.992,1.329,7.464,3.447,10.422,6.35c2.956,2.905,5.32,6.596,7.095,11.075c1.774,4.48,2.663,9.87,2.663,16.169V262.446z"/>
	<path d="M1820.002,219.624c0,1.379-0.073,2.805-0.222,4.282c-0.147,1.477-0.32,3.004-0.517,4.577h-68.22
		c0.787,2.462,1.895,4.799,3.322,7.014c1.426,2.215,3.175,4.134,5.242,5.759c2.067,1.624,4.404,2.905,7.014,3.839
		c2.607,0.937,5.487,1.403,8.639,1.403c3.839,0,7.679-0.665,11.518-1.994s7.037-3.124,9.598-5.39l13.438,13.437
		c-5.906,4.43-11.69,7.556-17.351,9.377c-5.661,1.82-11.642,2.731-17.94,2.731c-6.4,0-12.381-1.181-17.941-3.544
		c-5.563-2.362-10.387-5.56-14.471-9.598c-4.086-4.036-7.31-8.786-9.672-14.25s-3.544-11.296-3.544-17.498
		s1.182-12.035,3.544-17.498s5.611-10.211,9.746-14.25c4.135-4.035,8.956-7.235,14.471-9.598c5.512-2.363,11.418-3.544,17.72-3.544
		c6.003,0,11.762,1.107,17.276,3.322c5.512,2.215,10.385,5.293,14.618,9.229c4.231,3.938,7.579,8.638,10.041,14.102
		C1818.771,206.999,1820.002,213.03,1820.002,219.624z M1797.705,211.355c-1.675-5.413-4.651-9.769-8.934-13.068
		c-4.282-3.297-9.132-4.947-14.545-4.947c-5.315,0-10.092,1.65-14.323,4.947c-4.233,3.299-7.187,7.655-8.859,13.068H1797.705z"/>
	<path d="M1911.847,177.097l-32.043,85.496h-20.968l-32.19-85.496h23.331l19.344,57.293l19.344-57.293H1911.847z"/>
	<path d="M1990.696,262.446h-21.264v-4.578c-3.742,2.561-7.703,4.333-11.887,5.316c-4.186,0.983-8.49,1.477-12.92,1.477
		c-4.135,0-7.877-0.616-11.223-1.846c-3.348-1.229-6.253-3.001-8.712-5.316c-2.462-2.312-4.356-5.043-5.686-8.195
		c-1.328-3.149-1.993-6.645-1.993-10.484c0-4.822,1.057-9.03,3.175-12.625c2.116-3.592,4.995-6.594,8.639-9.007
		c3.641-2.411,7.899-4.208,12.772-5.39c4.873-1.182,10.115-1.772,15.726-1.772h12.256c0-5.021-1.624-9.007-4.872-11.961
		c-3.249-2.953-7.926-4.43-14.028-4.43c-2.953,0-6.006,0.542-9.155,1.625c-3.151,1.084-6.301,3.052-9.45,5.906l-12.551-12.699
		c4.526-4.331,9.769-7.679,15.726-10.041c5.955-2.363,12.083-3.544,18.384-3.544c5.906,0,11.165,0.937,15.777,2.806
		c4.609,1.871,8.333,4.282,11.169,7.235c3.715,3.742,6.329,7.925,7.845,12.551c1.514,4.628,2.272,10.535,2.272,17.719V262.446z
		 M1969.433,241.183v-15.8h-9.745c-2.953,0-5.736,0.198-8.343,0.59c-2.61,0.395-4.873,1.059-6.793,1.994
		c-1.92,0.937-3.447,2.141-4.577,3.618c-1.133,1.477-1.698,3.249-1.698,5.316c0,2.953,1.155,5.367,3.47,7.235
		c2.312,1.871,5.291,2.806,8.934,2.806c3.149,0,6.275-0.492,9.377-1.477C1963.157,244.482,1966.281,243.054,1969.433,241.183z"/>
</g>
</svg>
