<?xml version="1.0" encoding="utf-8"?>
<!-- Generator: Adobe Illustrator 16.0.0, SVG Export Plug-In . SVG Version: 6.00 Build 0)  -->
<!DOCTYPE svg PUBLIC "-//W3C//DTD SVG 1.1//EN" "http://www.w3.org/Graphics/SVG/1.1/DTD/svg11.dtd">
<svg version="1.1" id="Layer_1" xmlns="http://www.w3.org/2000/svg" xmlns:xlink="http://www.w3.org/1999/xlink" x="0px" y="0px"
	 width="3900.488px" height="400.41px" viewBox="0 0 3900.488 400.41" enable-background="new 0 0 3900.488 400.41"
	 xml:space="preserve">
<g>
	<path fill="#FFFFFF" d="M691.324,172.515c-12.168,39.816-24.896,79.474-36.121,119.555c-3.006,10.725-9.016,9.865-16.691,9.844
		c-7.625-0.025-13.688,0.877-16.729-9.76c-10.793-37.789-23.109-75.139-37.332-112.458c0,3.886,0,7.765,0,11.657
		c0,51.801-0.158,103.609,0.166,155.413c0.055,7.722-1.624,10.928-9.943,10.286c-9.46-0.731-19.084-0.817-28.529,0.021
		c-8.91,0.791-10.613-2.504-10.568-10.849c0.347-67.426,0.197-134.847,0.197-202.267c0-29.716,0.238-59.428-0.183-89.132
		c-0.108-7.458,1.839-9.895,9.448-9.476c13.663,0.756,30.337-4.22,40.234,1.984c9.875,6.196,9.523,24.339,13.561,37.256
		c12.479,39.851,24.509,79.848,36.664,119.806c0.766,2.531,0.936,5.282,3.947,7.455c16.252-51.813,32.646-103.313,48.396-155.019
		c2.6-8.493,5.568-12.708,15.242-11.546c9.006,1.087,18.33,0.988,27.375,0.029c9.58-1.018,10.824,3.023,10.799,11.36
		c-0.266,96.372-0.275,192.744,0.021,289.122c0.023,8.572-1.58,12.229-10.951,11.285c-9.06-0.914-18.324-0.787-27.396-0.023
		c-8.073,0.686-9.334-2.685-9.302-9.771c0.244-54.475,0.14-108.939,0.14-163.416c0-3.77,0-7.545,0-11.32
		C692.947,172.538,692.136,172.526,691.324,172.515z"/>
	<path fill="#FFFFFF" d="M844.111,200.139c1.188-31.577-1.715-63.238,1.617-94.753c4.256-40.28,31.092-64.041,71.949-64.417
		c42.639-0.393,69.277,21.901,75.039,62.266c1.666,11.777,1.18,23.543,1.643,35.325c0.217,5.481-1.727,7.296-7.174,7.168
		c-13.328-0.301-26.658-0.301-39.984,0c-5.463,0.128-7.396-1.699-7.193-7.18c0.293-7.978,0.354-16.026-0.305-23.977
		c-1.021-12.297-8.352-19.298-19.586-19.639c-11.291-0.341-18.918,6.153-21.086,18.183c-0.467,2.601-0.455,5.308-0.455,7.968
		c-0.021,52.552-0.027,105.113,0.014,157.665c0.008,3.027,0.098,6.143,0.769,9.066c2.577,11.318,9.968,16.975,21.188,16.547
		c10.99-0.414,18.057-6.901,19.104-18.688c0.741-8.316,0.563-16.74,0.377-25.111c-0.104-4.834,1.436-6.795,6.506-6.695
		c13.707,0.257,27.422,0.128,41.135,0.06c3.758-0.019,6.685,0.218,6.656,5.296c-0.104,18.627,0.639,37.313-6.011,55.235
		c-12.069,32.601-44.088,49.501-82.491,43.47c-34.898-5.477-56.224-27.625-60.033-63.029
		C842.396,263.376,845.341,231.723,844.111,200.139z"/>
	<path fill="#FFFFFF" d="M1091.175,199.81c0-47.999,0.27-96.001-0.229-143.995c-0.084-8.815,2.395-10.875,10.801-10.477
		c29.252,1.399,58.682-2.261,87.82,2.237c36.689,5.661,57.998,30.093,58.383,67.268c0.192,18.611,1.768,37.315-1.666,55.856
		c-3.355,18.143-12.144,32.874-27.986,42.431c-6.256,3.771-6.932,6.95-4.693,13.563c13.506,39.896,26.168,80.098,39.861,119.932
		c3.261,9.479,0.814,11.023-7.916,10.382c-8.336-0.604-16.748-0.128-25.131-0.128c-20.844,0-20.813-0.011-26.793-20.413
		c-9.916-33.896-20.449-67.624-29.467-101.748c-2.838-10.735-9.435-8.88-16.189-8.522c-8.758,0.455-4.393,7.572-4.43,11.347
		c-0.375,36.563-0.492,73.141-0.018,109.704c0.109,8.202-2.277,10.326-10.13,9.81c-10.616-0.705-21.375-0.845-31.976,0.029
		c-9.108,0.754-10.479-2.871-10.42-10.995C1091.359,297.332,1091.175,248.564,1091.175,199.81z M1143.14,163.385
		c-0.771,9.17,1.721,12.281,11.563,12.148c36.59-0.498,37.766-2.237,38.932-38.633c1.424-44.193-11.133-40.632-42.842-40.58
		c-0.379,0-0.76,0.035-1.135-0.012c-5.104-0.607-6.52,1.914-6.416,6.671c0.24,10.633,0.072,21.277,0.072,31.921
		C1143.313,144.399,1143.925,153.951,1143.14,163.385z"/>
</g>
<g>
	<path fill="#FFFFFF" d="M321.701,184.46c0.028-2.993-0.73-3.859-3.803-3.863c-73.159-0.139-146.326-0.371-219.485-0.694
		c-3.28-0.012-4.134,0.906-4.106,4.138c0.164,16.857,0.204,33.725-0.02,50.582c-0.048,3.818,0.894,4.88,4.784,4.863
		c36.353-0.155,72.701-0.092,109.053-0.092c0,0.207,0,0.418,0,0.631c36.348,0,72.696-0.063,109.044,0.084
		c3.699,0.021,4.593-1.002,4.553-4.608C321.529,218.49,321.565,201.471,321.701,184.46z"/>
	<path fill="#FFFFFF" d="M365.24,69.157C323.19,22.949,269.938,1.177,213.04,0c-47.317,0.391-86.814,10.758-121.666,34.564
		C24.591,80.186-7.623,143.344,1.527,224.609c6.556,58.224,36.257,103.996,84.067,137.185
		c54.896,38.098,115.529,47.405,179.917,30.574c84.649-22.131,145.668-95.753,150.438-182.244
		C418.918,156.342,401.457,108.957,365.24,69.157z M359.104,310.006c0.016,4.254-1.229,5.088-5.155,4.978
		c-9.585-0.288-19.188-0.204-28.779-0.028c-2.865,0.052-3.659-0.759-3.603-3.62c0.188-8.974-0.096-17.948,0.156-26.918
		c0.096-3.396-0.687-4.373-4.25-4.358c-42.864,0.146-85.725,0.092-128.589,0.092c-0.002-0.244-0.002-0.488-0.002-0.729
		c-43.016,0-86.028-0.044-129.044,0.076c-3.44,0.012-4.497-0.772-4.374-4.337c0.375-10.514,0.04-21.055,0.523-31.563
		c2.374-51.583,0.407-103.197,0.93-154.788c0.04-4.07,0.966-5.184,5.048-5.036c9.273,0.332,18.571,0.26,27.849,0.024
		c3.536-0.092,4.721,0.742,4.665,4.513c-0.228,15.626,0.04,31.257-0.191,46.887c-0.056,3.847,0.954,4.836,4.816,4.836
		c73.343,0.02,146.686,0.188,220.032,0.343c11.604,0.024,23.208,0.171,34.813,0.184c3.539,0.004,5.199,0.686,5.183,5.107
		C358.921,200.447,358.941,255.229,359.104,310.006z"/>
</g>
<g enable-background="new    ">
	<path fill="#FFFFFF" d="M1587.638,107.029v108.202c0,13.3-1.994,25.68-5.983,37.147c-3.989,11.469-9.766,21.484-17.327,30.043
		c-7.565,8.563-16.79,15.294-27.674,20.194c-10.888,4.9-23.311,7.354-37.272,7.354c-13.63,0-25.929-2.411-36.898-7.229
		c-10.97-4.819-20.319-11.426-28.048-19.821c-7.729-8.391-13.673-18.281-17.826-29.668c-4.156-11.383-6.232-23.642-6.232-36.773
		V107.029h38.644v109.698c0,7.646,1.079,14.834,3.241,21.565c2.158,6.731,5.318,12.591,9.474,17.577
		c4.153,4.986,9.349,8.936,15.582,11.842c6.233,2.91,13.338,4.363,21.316,4.363c8.477,0,15.832-1.371,22.064-4.113
		c6.233-2.743,11.383-6.564,15.458-11.469c4.071-4.9,7.144-10.678,9.225-17.327c2.076-6.646,3.116-13.962,3.116-21.939V107.029
		H1587.638z"/>
	<path fill="#FFFFFF" d="M1718.526,177.336l-19.197,30.416c-3.491-3.821-7.355-7.187-11.593-10.097
		c-4.238-2.906-8.52-4.363-12.84-4.363c-2.33,0-4.861,0.542-7.604,1.62c-2.742,1.083-5.321,2.867-7.729,5.36
		c-2.412,2.493-4.449,5.777-6.108,9.849c-1.663,4.074-2.493,9.1-2.493,15.083v81.276h-35.901V162.377h35.901v15.458
		c4.32-6.147,9.1-10.885,14.335-14.211c5.236-3.323,11.095-4.986,17.577-4.986c6.315,0,12.505,1.706,18.574,5.11
		C1707.513,167.157,1713.205,171.688,1718.526,177.336z"/>
	<path fill="#FFFFFF" d="M1869.856,234.429c0,10.141-1.71,19.781-5.123,28.921c-3.417,9.143-8.208,17.163-14.371,24.059
		c-6.167,6.898-13.498,12.384-21.994,16.454c-8.5,4.071-17.83,6.108-27.989,6.108c-6.334,0-12.248-0.872-17.744-2.617
		c-5.5-1.746-10.666-4.527-15.497-8.353v7.479h-35.901V99.55h36.15l0.249,69.809c4.153-3.323,9.1-5.984,14.834-7.979
		s11.757-2.992,18.075-2.992c8.808,0,17.366,1.956,25.679,5.859c8.309,3.907,15.707,9.268,22.189,16.081
		c6.482,6.816,11.675,14.834,15.582,24.059C1867.901,213.611,1869.856,223.627,1869.856,234.429z M1833.457,234.429
		c0-6.646-1.001-12.715-3.003-18.2c-2.002-5.484-4.799-10.179-8.383-14.086c-3.588-3.903-7.842-6.895-12.762-8.976
		c-4.924-2.076-10.386-3.116-16.393-3.116c-3.841,0-8.262,0.791-13.264,2.369c-5.006,1.581-9.178,3.614-12.513,6.107v69.31
		c7.838,7.148,16.681,10.721,26.529,10.721c5.672,0,10.966-1.079,15.89-3.241c4.92-2.158,9.131-5.193,12.637-9.101
		c3.502-3.903,6.256-8.558,8.258-13.961C1832.456,246.855,1833.457,240.911,1833.457,234.429z"/>
	<path fill="#FFFFFF" d="M2009.222,306.48h-35.901v-7.729c-6.319,4.324-13.007,7.315-20.07,8.975
		c-7.066,1.66-14.335,2.493-21.815,2.493c-6.981,0-13.299-1.04-18.948-3.116c-5.652-2.076-10.557-5.067-14.709-8.975
		c-4.157-3.903-7.355-8.516-9.599-13.837c-2.244-5.317-3.366-11.22-3.366-17.702c0-8.142,1.784-15.247,5.36-21.315
		c3.572-6.065,8.434-11.134,14.584-15.209c6.147-4.07,13.338-7.105,21.566-9.1c8.227-1.994,17.078-2.992,26.552-2.992h20.693
		c0-8.477-2.742-15.208-8.227-20.194s-13.381-7.479-23.685-7.479c-4.986,0-10.14,0.916-15.457,2.743
		c-5.321,1.831-10.639,5.153-15.957,9.973l-21.191-21.441c7.643-7.312,16.494-12.964,26.552-16.953
		c10.055-3.989,20.401-5.983,31.04-5.983c9.973,0,18.851,1.581,26.638,4.736c7.783,3.159,14.071,7.23,18.858,12.217
		c6.271,6.318,10.685,13.381,13.245,21.191c2.556,7.814,3.837,17.787,3.837,29.918V306.48z M1973.321,270.579v-26.677h-16.455
		c-4.986,0-9.685,0.335-14.086,0.998c-4.406,0.666-8.228,1.788-11.468,3.365c-3.241,1.582-5.82,3.615-7.729,6.108
		c-1.913,2.493-2.867,5.484-2.867,8.976c0,4.986,1.952,9.061,5.859,12.216c3.903,3.159,8.933,4.737,15.083,4.737
		c5.317,0,10.596-0.83,15.832-2.493C1962.725,276.149,1968,273.738,1973.321,270.579z"/>
	<path fill="#FFFFFF" d="M2168.031,306.48h-35.901v-86.014c0-5.149-0.795-9.68-2.38-13.587c-1.585-3.903-3.712-7.145-6.385-9.724
		c-2.673-2.575-5.719-4.487-9.139-5.734c-3.421-1.246-6.97-1.869-10.639-1.869c-5.509,0-10.935,0.958-16.276,2.867
		c-5.34,1.912-10.178,4.947-14.518,9.1V306.48h-35.901V162.377h35.901l0.249,10.721c2.158-2.158,4.819-4.152,7.978-5.983
		c3.156-1.827,6.439-3.366,9.848-4.612c3.405-1.247,6.896-2.201,10.472-2.867c3.572-0.662,7.021-0.997,10.347-0.997
		c7.313,0,14.336,1.164,21.066,3.49c6.732,2.329,12.716,5.901,17.951,10.721c5.236,4.822,9.432,11.056,12.59,18.698
		c3.156,7.646,4.737,16.704,4.737,27.175V306.48z"/>
	<path fill="#FFFFFF" d="M2412.103,254.125c0,7.479-1.62,14.584-4.861,21.315c-3.241,6.732-7.771,12.677-13.587,17.826
		c-5.82,5.154-12.716,9.268-20.693,12.341c-7.979,3.074-16.79,4.612-26.427,4.612c-8.645,0-16.416-0.498-23.312-1.495
		c-6.899-0.998-13.381-2.575-19.446-4.737c-6.069-2.158-11.885-4.943-17.452-8.352c-5.57-3.405-11.344-7.519-17.327-12.342
		l27.424-27.674c7.979,6.65,15.789,11.344,23.436,14.087c7.644,2.742,15.957,4.113,24.932,4.113c3.654,0,7.105-0.537,10.347-1.62
		c3.241-1.079,6.065-2.532,8.477-4.363c2.407-1.827,4.32-3.989,5.734-6.482c1.41-2.493,2.119-5.235,2.119-8.228
		c0-3.155-0.584-5.983-1.745-8.477c-1.165-2.493-3.241-4.9-6.232-7.229c-2.992-2.326-7.148-4.694-12.467-7.105
		c-5.32-2.408-12.134-5.111-20.443-8.103c-7.315-2.657-14.336-5.691-21.066-9.101c-6.732-3.404-12.633-7.519-17.701-12.341
		c-5.072-4.818-9.143-10.472-12.217-16.953c-3.078-6.482-4.612-14.125-4.612-22.938c0-8.477,1.702-16.287,5.11-23.436
		c3.405-7.144,8.061-13.252,13.963-18.324c5.896-5.068,12.796-9.014,20.692-11.842c7.892-2.825,16.411-4.239,25.555-4.239
		c15.29,0,28.172,1.995,38.644,5.984c10.471,3.988,19.777,9.809,27.923,17.451l-26.926,27.176
		c-4.986-4.819-10.557-8.516-16.704-11.095c-6.15-2.575-13.381-3.864-21.689-3.864c-3.826,0-7.355,0.584-10.596,1.745
		c-3.242,1.165-6.027,2.703-8.353,4.612c-2.329,1.913-4.2,4.156-5.61,6.731c-1.414,2.579-2.119,5.278-2.119,8.103
		c0,3.159,0.662,6.026,1.995,8.602c1.328,2.579,3.572,5.072,6.731,7.479c3.155,2.411,7.355,4.822,12.59,7.23
		c5.236,2.411,11.758,5.028,19.571,7.853c9.973,3.491,18.531,7.316,25.68,11.469c7.145,4.156,12.964,8.726,17.452,13.712
		c4.487,4.986,7.811,10.597,9.973,16.829C2411.021,239.29,2412.103,246.314,2412.103,254.125z"/>
	<path fill="#FFFFFF" d="M2564.434,284.79c-7.316,8.313-16.124,14.628-26.428,18.948c-10.308,4.32-21.109,6.481-32.41,6.481
		c-10.472,0-20.358-1.912-29.657-5.733c-9.303-3.822-17.378-9.101-24.227-15.832c-6.848-6.731-12.255-14.748-16.217-24.059
		c-3.962-9.307-5.94-19.36-5.94-30.167c0-10.635,1.979-20.568,5.94-29.793s9.326-17.241,16.097-24.059
		c6.767-6.813,14.799-12.174,24.098-16.081c9.299-3.903,19.268-5.858,29.906-5.858c10.97,0,21.397,1.994,31.288,5.983
		c9.887,3.989,18.488,10.059,25.805,18.2l-24.184,24.682c-3.658-4.818-8.103-8.808-13.339-11.967
		c-5.235-3.155-11.593-4.737-19.072-4.737c-5.484,0-10.682,1.165-15.582,3.49c-4.904,2.33-9.225,5.446-12.964,9.35
		c-3.74,3.907-6.693,8.52-8.851,13.837c-2.162,5.321-3.241,10.97-3.241,16.953s1.079,11.636,3.241,16.953
		c2.157,5.321,5.067,9.934,8.726,13.837c3.654,3.907,7.978,7.024,12.964,9.35c4.986,2.329,10.223,3.49,15.707,3.49
		c7.145,0,13.627-1.702,19.446-5.11c5.816-3.405,10.472-7.769,13.962-13.09L2564.434,284.79z"/>
	<path fill="#FFFFFF" d="M2699.061,306.48h-35.901v-7.729c-6.318,4.324-13.007,7.315-20.069,8.975
		c-7.066,1.66-14.336,2.493-21.814,2.493c-6.981,0-13.3-1.04-18.948-3.116c-5.652-2.076-10.557-5.067-14.71-8.975
		c-4.156-3.903-7.354-8.516-9.599-13.837c-2.243-5.317-3.365-11.22-3.365-17.702c0-8.142,1.784-15.247,5.36-21.315
		c3.572-6.065,8.434-11.134,14.585-15.209c6.146-4.07,13.338-7.105,21.565-9.1s17.078-2.992,26.552-2.992h20.693
		c0-8.477-2.743-15.208-8.228-20.194c-5.485-4.986-13.381-7.479-23.685-7.479c-4.986,0-10.141,0.916-15.458,2.743
		c-5.321,1.831-10.639,5.153-15.956,9.973l-21.191-21.441c7.643-7.312,16.493-12.964,26.552-16.953
		c10.055-3.989,20.401-5.983,31.04-5.983c9.973,0,18.851,1.581,26.638,4.736c7.783,3.159,14.07,7.23,18.857,12.217
		c6.272,6.318,10.686,13.381,13.245,21.191c2.556,7.814,3.837,17.787,3.837,29.918V306.48z M2663.159,270.579v-26.677h-16.454
		c-4.986,0-9.685,0.335-14.086,0.998c-4.406,0.666-8.228,1.788-11.469,3.365c-3.241,1.582-5.82,3.615-7.729,6.108
		c-1.913,2.493-2.867,5.484-2.867,8.976c0,4.986,1.951,9.061,5.858,12.216c3.903,3.159,8.933,4.737,15.084,4.737
		c5.317,0,10.596-0.83,15.831-2.493C2652.563,276.149,2657.838,273.738,2663.159,270.579z"/>
	<path fill="#FFFFFF" d="M2830.196,177.336l-19.197,30.416c-3.49-3.821-7.354-7.187-11.593-10.097
		c-4.238-2.906-8.52-4.363-12.84-4.363c-2.329,0-4.861,0.542-7.604,1.62c-2.743,1.083-5.321,2.867-7.729,5.36
		c-2.411,2.493-4.448,5.777-6.107,9.849c-1.664,4.074-2.493,9.1-2.493,15.083v81.276h-35.901V162.377h35.901v15.458
		c4.319-6.147,9.1-10.885,14.335-14.211c5.235-3.323,11.095-4.986,17.577-4.986c6.314,0,12.504,1.706,18.573,5.11
		C2819.184,167.157,2824.875,171.688,2830.196,177.336z"/>
	<path fill="#FFFFFF" d="M2981.527,234.429c0,10.141-1.71,19.781-5.122,28.921c-3.417,9.143-8.208,17.163-14.371,24.059
		c-6.167,6.898-13.498,12.384-21.994,16.454c-8.5,4.071-17.83,6.108-27.989,6.108c-6.334,0-12.248-0.872-17.744-2.617
		c-5.501-1.746-10.666-4.527-15.496-8.353v7.479h-35.901V99.55h36.15l0.249,69.809c4.153-3.323,9.101-5.984,14.834-7.979
		c5.734-1.994,11.757-2.992,18.075-2.992c8.809,0,17.367,1.956,25.68,5.859c8.31,3.907,15.707,9.268,22.189,16.081
		c6.481,6.816,11.675,14.834,15.582,24.059C2979.572,213.611,2981.527,223.627,2981.527,234.429z M2945.128,234.429
		c0-6.646-1.001-12.715-3.004-18.2c-2.002-5.484-4.799-10.179-8.383-14.086c-3.588-3.903-7.842-6.895-12.762-8.976
		c-4.924-2.076-10.386-3.116-16.393-3.116c-3.841,0-8.263,0.791-13.265,2.369c-5.006,1.581-9.178,3.614-12.512,6.107v69.31
		c7.838,7.148,16.681,10.721,26.528,10.721c5.672,0,10.966-1.079,15.89-3.241c4.92-2.158,9.131-5.193,12.637-9.101
		c3.503-3.903,6.257-8.558,8.259-13.961C2944.127,246.855,2945.128,240.911,2945.128,234.429z"/>
	<path fill="#FFFFFF" d="M3152.805,234.429c0,10.807-1.994,20.817-5.983,30.042s-9.474,17.203-16.454,23.935
		c-6.981,6.731-15.17,12.053-24.558,15.956c-9.393,3.903-19.408,5.858-30.043,5.858c-10.639,0-20.61-1.955-29.917-5.858
		c-9.311-3.903-17.452-9.264-24.433-16.081c-6.981-6.813-12.466-14.834-16.455-24.059s-5.983-19.154-5.983-29.793
		c0-10.471,2.033-20.319,6.108-29.544c4.07-9.225,9.599-17.284,16.579-24.183c6.98-6.896,15.122-12.299,24.433-16.206
		c9.307-3.903,19.197-5.858,29.668-5.858c10.635,0,20.65,1.955,30.043,5.858c9.388,3.907,17.576,9.225,24.558,15.956
		c6.98,6.731,12.465,14.753,16.454,24.059C3150.811,213.821,3152.805,223.794,3152.805,234.429z M3116.903,234.429
		c0-6.147-1.078-11.881-3.232-17.202c-2.154-5.317-5.096-9.973-8.824-13.962c-3.728-3.989-8.079-7.105-13.05-9.35
		c-4.971-2.243-10.272-3.365-15.905-3.365s-10.938,1.122-15.909,3.365c-4.971,2.244-9.322,5.36-13.05,9.35
		c-3.729,3.989-6.669,8.645-8.823,13.962c-2.154,5.321-3.229,11.055-3.229,17.202c0,6.151,1.075,11.886,3.229,17.203
		c2.154,5.321,5.095,9.972,8.823,13.961c3.728,3.989,8.079,7.105,13.05,9.35s10.276,3.365,15.909,3.365s10.935-1.121,15.905-3.365
		s9.322-5.36,13.05-9.35c3.729-3.989,6.67-8.64,8.824-13.961C3115.825,246.314,3116.903,240.58,3116.903,234.429z"/>
	<path fill="#FFFFFF" d="M3278.707,177.336l-19.197,30.416c-3.49-3.821-7.354-7.187-11.593-10.097
		c-4.238-2.906-8.52-4.363-12.84-4.363c-2.329,0-4.861,0.542-7.604,1.62c-2.743,1.083-5.321,2.867-7.729,5.36
		c-2.411,2.493-4.448,5.777-6.107,9.849c-1.664,4.074-2.493,9.1-2.493,15.083v81.276h-35.901V162.377h35.901v15.458
		c4.319-6.147,9.1-10.885,14.335-14.211c5.235-3.323,11.095-4.986,17.577-4.986c6.314,0,12.504,1.706,18.573,5.11
		C3267.694,167.157,3273.386,171.688,3278.707,177.336z"/>
	<path fill="#FFFFFF" d="M3440.26,234.429c0,10.807-1.994,20.817-5.983,30.042s-9.474,17.203-16.454,23.935
		c-6.981,6.731-15.17,12.053-24.558,15.956c-9.393,3.903-19.408,5.858-30.043,5.858c-10.639,0-20.61-1.955-29.917-5.858
		c-9.311-3.903-17.452-9.264-24.433-16.081c-6.981-6.813-12.466-14.834-16.455-24.059s-5.983-19.154-5.983-29.793
		c0-10.471,2.033-20.319,6.108-29.544c4.07-9.225,9.599-17.284,16.579-24.183c6.98-6.896,15.122-12.299,24.433-16.206
		c9.307-3.903,19.197-5.858,29.668-5.858c10.635,0,20.65,1.955,30.043,5.858c9.388,3.907,17.576,9.225,24.558,15.956
		c6.98,6.731,12.465,14.753,16.454,24.059C3438.266,213.821,3440.26,223.794,3440.26,234.429z M3404.358,234.429
		c0-6.147-1.078-11.881-3.232-17.202c-2.154-5.317-5.096-9.973-8.824-13.962c-3.728-3.989-8.079-7.105-13.05-9.35
		c-4.971-2.243-10.272-3.365-15.905-3.365s-10.938,1.122-15.909,3.365c-4.971,2.244-9.322,5.36-13.05,9.35
		c-3.729,3.989-6.669,8.645-8.823,13.962c-2.154,5.321-3.229,11.055-3.229,17.202c0,6.151,1.075,11.886,3.229,17.203
		c2.154,5.321,5.095,9.972,8.823,13.961c3.728,3.989,8.079,7.105,13.05,9.35s10.276,3.365,15.909,3.365s10.935-1.121,15.905-3.365
		s9.322-5.36,13.05-9.35c3.729-3.989,6.67-8.64,8.824-13.961C3403.28,246.314,3404.358,240.58,3404.358,234.429z"/>
	<path fill="#FFFFFF" d="M3590.346,306.48h-35.901v-10.97c-2.329,2.329-5.029,4.363-8.103,6.108
		c-3.077,1.745-6.318,3.241-9.724,4.487c-3.408,1.247-6.898,2.201-10.471,2.867c-3.576,0.662-6.941,0.997-10.098,0.997
		c-7.315,0-14.335-1.165-21.066-3.49s-12.676-5.897-17.826-10.721c-5.153-4.818-9.268-11.052-12.341-18.698
		c-3.077-7.644-4.612-16.704-4.612-27.175v-87.51h35.901v85.764c0,5.154,0.786,9.685,2.368,13.588
		c1.578,3.907,3.654,7.148,6.232,9.724c2.575,2.578,5.567,4.487,8.976,5.734c3.405,1.246,6.938,1.869,10.596,1.869
		c11.632,0,21.69-3.988,30.167-11.967V162.377h35.901V306.48z"/>
	<path fill="#FFFFFF" d="M3752.646,190.799h-15.208c3.821,7.479,5.733,15.458,5.733,23.935c0,6.481-1.207,12.758-3.614,18.823
		c-2.412,6.068-5.859,11.593-10.347,16.579c-4.488,4.986-9.934,9.225-16.33,12.715c-6.4,3.49-13.588,5.82-21.565,6.98
		c-5.485,0.834-9.599,2.119-12.342,3.864c-2.742,1.745-4.113,3.491-4.113,5.236s1.371,3.365,4.113,4.861
		c2.743,1.496,6.856,2.493,12.342,2.992c18.612,1.663,33.033,6.318,43.256,13.961c10.222,7.644,15.332,17.783,15.332,30.416
		c0,6.482-1.573,12.466-4.721,17.951c-3.147,5.484-7.659,10.222-13.537,14.211c-5.879,3.989-12.957,7.063-21.238,9.225
		c-8.282,2.158-17.554,3.241-27.818,3.241c-10.436,0-19.836-1.083-28.195-3.241c-8.364-2.162-15.528-5.197-21.488-9.101
		c-5.96-3.907-10.514-8.601-13.661-14.086c-3.147-5.484-4.718-11.554-4.718-18.2c0-9.972,2.844-18.324,8.535-25.056
		s14.971-11.757,27.837-15.083c-3.988-1.496-6.855-3.529-8.601-6.108c-1.745-2.575-2.536-5.193-2.369-7.854
		c0.164-2.657,1.286-5.192,3.366-7.604c2.076-2.407,5.029-4.277,8.862-5.609c-4.355-1.994-8.496-4.569-12.431-7.729
		c-3.935-3.155-7.491-6.813-10.67-10.97c-3.179-4.152-5.691-8.808-7.53-13.962c-1.843-5.149-2.762-10.635-2.762-16.454
		c0-7.811,1.659-15.123,4.986-21.94c3.323-6.813,7.811-12.754,13.463-17.825c5.648-5.068,12.217-9.058,19.696-11.968
		c7.479-2.905,15.371-4.362,23.685-4.362c8.142,0,15.706,1.246,22.688,3.739h49.364V190.799z M3714.003,331.162
		c0-5.819-2.941-10.058-8.816-12.715c-5.878-2.66-13.451-3.988-22.723-3.988c-9.934,0-17.759,1.41-23.47,4.238
		c-5.711,2.824-8.566,6.98-8.566,12.465c0,5.649,2.979,9.888,8.94,12.716c5.96,2.824,13.657,4.238,23.096,4.238
		c9.599,0,17.258-1.371,22.969-4.114C3711.144,341.26,3714.003,336.979,3714.003,331.162z M3707.271,214.733
		c0-3.654-0.701-7.063-2.101-10.223c-1.402-3.155-3.295-5.94-5.68-8.352c-2.388-2.407-5.188-4.32-8.398-5.734
		c-3.21-1.41-6.626-2.119-10.249-2.119s-6.996,0.709-10.124,2.119c-3.133,1.414-5.891,3.327-8.274,5.734
		c-2.388,2.411-4.281,5.196-5.68,8.352c-1.402,3.16-2.1,6.568-2.1,10.223c0,3.657,0.697,7.105,2.1,10.346
		c1.398,3.241,3.292,6.069,5.68,8.478c2.384,2.411,5.142,4.323,8.274,5.733c3.128,1.414,6.501,2.119,10.124,2.119
		s7.039-0.705,10.249-2.119c3.21-1.41,6.011-3.322,8.398-5.733c2.385-2.408,4.277-5.236,5.68-8.478
		C3706.57,221.839,3707.271,218.391,3707.271,214.733z"/>
	<path fill="#FFFFFF" d="M3900.488,306.48h-35.901v-86.263c0-5.149-0.794-9.681-2.38-13.588c-1.585-3.903-3.673-7.144-6.26-9.723
		c-2.587-2.575-5.594-4.487-9.015-5.734c-3.42-1.246-6.969-1.87-10.639-1.87c-5.508,0-10.767,0.834-15.772,2.493
		c-5.01,1.664-9.849,3.989-14.522,6.981V306.48h-35.901V99.8h35.901l0.249,70.805c5.317-4.152,11.469-7.23,18.449-9.225
		s13.712-2.992,20.194-2.992c7.479,0,14.542,1.208,21.191,3.615c6.646,2.411,12.548,6.069,17.701,10.97
		c5.15,4.904,9.225,11.056,12.217,18.449c2.992,7.397,4.487,16.167,4.487,26.303V306.48z"/>
</g>
</svg>
