<?xml version="1.0" encoding="utf-8"?>
<!-- Generator: Adobe Illustrator 16.0.0, SVG Export Plug-In . SVG Version: 6.00 Build 0)  -->
<!DOCTYPE svg PUBLIC "-//W3C//DTD SVG 1.1//EN" "http://www.w3.org/Graphics/SVG/1.1/DTD/svg11.dtd">
<svg version="1.1" id="Layer_1" xmlns="http://www.w3.org/2000/svg" xmlns:xlink="http://www.w3.org/1999/xlink" x="0px" y="0px"
	 width="1254.848px" height="400.41px" viewBox="0 0 1254.848 400.41" enable-background="new 0 0 1254.848 400.41"
	 xml:space="preserve">
<g>
	<path d="M691.324,172.515c-12.168,39.816-24.895,79.474-36.121,119.555c-3.006,10.725-9.016,9.865-16.691,9.844
		c-7.625-0.025-13.689,0.877-16.73-9.76c-10.793-37.789-23.109-75.139-37.332-112.458c0,3.886,0,7.765,0,11.657
		c0,51.801-0.158,103.609,0.166,155.413c0.055,7.72-1.624,10.926-9.943,10.286c-9.46-0.733-19.084-0.819-28.531,0.019
		c-8.91,0.791-10.613-2.504-10.568-10.847c0.347-67.426,0.197-134.847,0.197-202.267c0-29.716,0.24-59.428-0.181-89.132
		c-0.11-7.458,1.839-9.895,9.448-9.476c13.663,0.756,30.337-4.22,40.234,1.984c9.875,6.196,9.525,24.339,13.561,37.256
		c12.477,39.851,24.509,79.848,36.664,119.806c0.766,2.531,0.934,5.282,3.947,7.455c16.252-51.813,32.648-103.314,48.396-155.019
		c2.598-8.493,5.568-12.708,15.242-11.546c9.006,1.087,18.33,0.988,27.375,0.029c9.58-1.018,10.824,3.023,10.799,11.36
		c-0.266,96.372-0.277,192.744,0.021,289.122c0.025,8.572-1.58,12.228-10.951,11.285c-9.059-0.914-18.324-0.787-27.396-0.023
		c-8.074,0.684-9.334-2.685-9.301-9.771c0.244-54.475,0.139-108.94,0.139-163.416c0-3.77,0-7.545,0-11.32
		C692.947,172.538,692.136,172.526,691.324,172.515z"/>
	<path d="M844.111,200.139c1.189-31.577-1.715-63.238,1.617-94.753c4.256-40.28,31.092-64.041,71.951-64.417
		c42.637-0.393,69.277,21.901,75.039,62.266c1.666,11.777,1.178,23.543,1.641,35.325c0.217,5.481-1.725,7.296-7.174,7.168
		c-13.328-0.301-26.658-0.301-39.984,0c-5.463,0.128-7.396-1.699-7.193-7.18c0.293-7.978,0.354-16.026-0.305-23.977
		c-1.021-12.297-8.352-19.298-19.586-19.639c-11.291-0.341-18.918,6.153-21.086,18.183c-0.467,2.601-0.455,5.308-0.455,7.968
		c-0.021,52.552-0.027,105.113,0.014,157.665c0.008,3.027,0.098,6.143,0.768,9.066c2.578,11.32,9.967,16.975,21.189,16.547
		c10.99-0.414,18.057-6.901,19.104-18.686c0.742-8.318,0.564-16.742,0.377-25.113c-0.104-4.834,1.436-6.795,6.506-6.695
		c13.707,0.257,27.422,0.128,41.135,0.06c3.758-0.019,6.684,0.218,6.656,5.296c-0.102,18.627,0.639,37.312-6.01,55.235
		c-12.07,32.601-44.088,49.501-82.492,43.47c-34.898-5.477-56.223-27.625-60.033-63.029
		C842.396,263.376,845.341,231.723,844.111,200.139z"/>
	<path d="M1091.175,199.81c0-47.999,0.268-96.001-0.23-143.995c-0.084-8.815,2.395-10.875,10.801-10.477
		c29.252,1.399,58.682-2.261,87.82,2.237c36.691,5.661,57.998,30.093,58.383,67.268c0.193,18.611,1.768,37.315-1.666,55.856
		c-3.355,18.143-12.143,32.874-27.986,42.431c-6.256,3.771-6.932,6.95-4.695,13.563c13.506,39.896,26.168,80.098,39.863,119.932
		c3.26,9.479,0.814,11.023-7.916,10.382c-8.336-0.604-16.748-0.128-25.131-0.128c-20.844,0-20.813-0.011-26.793-20.413
		c-9.916-33.896-20.449-67.624-29.467-101.748c-2.838-10.735-9.434-8.88-16.189-8.522c-8.758,0.455-4.393,7.572-4.43,11.345
		c-0.375,36.562-0.492,73.141-0.018,109.704c0.111,8.202-2.277,10.326-10.129,9.81c-10.617-0.705-21.375-0.845-31.975,0.029
		c-9.109,0.754-10.479-2.871-10.42-10.995C1091.359,297.332,1091.175,248.564,1091.175,199.81z M1143.14,163.385
		c-0.773,9.17,1.719,12.281,11.563,12.148c36.59-0.498,37.766-2.237,38.932-38.633c1.424-44.193-11.133-40.632-42.842-40.58
		c-0.379,0-0.76,0.035-1.135-0.012c-5.104-0.607-6.518,1.914-6.416,6.671c0.24,10.633,0.072,21.277,0.072,31.921
		C1143.312,144.399,1143.925,153.951,1143.14,163.385z"/>
</g>
<g>
	<path fill="#1300FE" d="M321.701,184.46c0.028-2.993-0.73-3.859-3.803-3.863c-73.159-0.139-146.326-0.371-219.485-0.694
		c-3.28-0.012-4.134,0.906-4.106,4.138c0.164,16.857,0.204,33.725-0.02,50.582c-0.048,3.818,0.894,4.88,4.784,4.863
		c36.353-0.155,72.701-0.092,109.053-0.092c0,0.207,0,0.418,0,0.631c36.348,0,72.696-0.062,109.044,0.084
		c3.699,0.021,4.593-1.002,4.553-4.608C321.529,218.49,321.565,201.471,321.701,184.46z"/>
	<path fill="#1300FE" d="M365.24,69.157C323.19,22.949,269.938,1.177,213.04,0c-47.317,0.391-86.814,10.758-121.666,34.564
		C24.591,80.186-7.623,143.344,1.527,224.609c6.556,58.224,36.257,103.996,84.067,137.185
		c54.896,38.098,115.529,47.405,179.917,30.574c84.649-22.131,145.668-95.753,150.438-182.244
		C418.918,156.342,401.457,108.957,365.24,69.157z M359.104,310.006c0.016,4.254-1.229,5.088-5.155,4.976
		c-9.585-0.288-19.188-0.204-28.779-0.028c-2.865,0.052-3.659-0.759-3.603-3.62c0.188-8.972-0.096-17.948,0.156-26.918
		c0.096-3.394-0.687-4.373-4.25-4.36c-42.864,0.146-85.725,0.092-128.589,0.092c-0.002-0.244-0.002-0.488-0.002-0.729
		c-43.016,0-86.028-0.044-129.044,0.076c-3.44,0.012-4.497-0.773-4.374-4.337c0.375-10.513,0.04-21.054,0.523-31.562
		c2.374-51.583,0.407-103.196,0.93-154.787c0.04-4.07,0.966-5.184,5.048-5.036c9.273,0.332,18.571,0.26,27.849,0.024
		c3.536-0.092,4.721,0.742,4.665,4.513c-0.228,15.626,0.04,31.257-0.191,46.887c-0.056,3.847,0.954,4.836,4.816,4.836
		c73.343,0.02,146.686,0.188,220.032,0.343c11.604,0.024,23.208,0.171,34.813,0.184c3.539,0.004,5.199,0.686,5.183,5.107
		C358.921,200.447,358.941,255.229,359.104,310.006z"/>
</g>
</svg>
