<?xml version="1.0" encoding="utf-8"?>
<!-- Generator: Adobe Illustrator 16.0.0, SVG Export Plug-In . SVG Version: 6.00 Build 0)  -->
<!DOCTYPE svg PUBLIC "-//W3C//DTD SVG 1.1//EN" "http://www.w3.org/Graphics/SVG/1.1/DTD/svg11.dtd">
<svg version="1.1" id="Layer_1" xmlns="http://www.w3.org/2000/svg" xmlns:xlink="http://www.w3.org/1999/xlink" x="0px" y="0px"
	 width="2469.461px" height="385.352px" viewBox="0 0 2469.461 385.352" enable-background="new 0 0 2469.461 385.352"
	 xml:space="preserve">
<path fill="#FFFFFF" d="M333.503,279.93V105.422c0-27.275,13.404-51.562,33.94-66.63C350.37,15.328,322.71,0,291.64,0H93.71
	C42.169,0,0,42.169,0,93.71v197.931c0,51.541,42.169,93.71,93.71,93.71h197.93c31.07,0,58.729-15.328,75.804-38.792
	C346.908,331.492,333.503,307.206,333.503,279.93z M295.661,271.525v26.684h-81.849v-27.582
	c14.99-5.195,27.133-14.391,36.427-27.584c9.295-13.191,13.941-28.979,13.941-47.369c0-15.59-3.05-29.232-9.145-40.924
	c-6.1-11.693-14.592-20.688-25.484-26.983c-10.896-6.296-23.234-9.444-37.025-9.444c-13.792,0-26.084,3.148-36.877,9.444
	c-10.794,6.296-19.24,15.29-25.334,26.983c-6.101,11.691-9.145,25.334-9.145,40.924c0,18.391,4.647,34.178,13.942,47.369
	c9.293,13.193,21.436,22.389,36.427,27.584v27.582H89.391v-26.684h34.777c-12.395-8.592-21.787-19.684-28.182-33.279
	c-6.399-13.59-9.594-28.48-9.594-44.672c0-20.387,4.694-38.675,14.091-54.865c9.393-16.189,22.187-28.828,38.376-37.926
	c16.19-9.092,34.075-13.641,53.667-13.641c19.586,0,37.522,4.549,53.815,13.641c16.288,9.098,29.128,21.736,38.526,37.926
	c9.393,16.19,14.091,34.479,14.091,54.865c0,16.191-3.251,31.082-9.744,44.672c-6.497,13.596-15.941,24.688-28.332,33.279H295.661z"
	/>
<g>
	<g>
		<path fill="#FFFFFF" d="M957.983,189.123c0,16.083-3.129,31.229-9.388,45.437c-6.258,14.212-14.799,26.554-25.633,37.023
			c-10.833,10.474-23.438,18.748-37.82,24.822c-14.383,6.074-29.695,9.115-45.941,9.115c-16.25,0-31.61-3.042-46.086-9.115
			c-14.475-6.074-27.127-14.348-37.961-24.822c-10.833-10.47-19.375-22.763-25.633-36.883c-6.258-14.116-9.383-29.31-9.383-45.578
			c0-16.268,3.125-31.506,9.383-45.718c6.258-14.208,14.8-26.549,25.633-37.023c10.833-10.47,23.486-18.695,37.961-24.682
			c14.476-5.982,29.836-8.976,46.086-8.976c16.246,0,31.559,2.993,45.941,8.976c14.383,5.986,26.987,14.26,37.82,24.822
			c10.834,10.566,19.375,22.907,25.633,37.023C954.854,157.665,957.983,172.854,957.983,189.123z M914.51,189.123
			c0-10.281-1.968-19.958-5.903-29.03c-3.936-9.067-9.321-17.013-16.158-23.84c-6.837-6.824-14.848-12.245-24.024-16.268
			c-9.178-4.019-18.92-6.03-29.223-6.03c-10.491,0-20.33,2.011-29.507,6.03c-9.177,4.023-17.188,9.444-24.025,16.268
			c-6.836,6.828-12.223,14.773-16.158,23.84c-3.935,9.072-5.898,18.749-5.898,29.03c0,10.097,1.963,19.729,5.898,28.889
			c3.936,9.164,9.322,17.157,16.158,23.981c6.837,6.828,14.848,12.249,24.025,16.268c9.177,4.023,19.016,6.03,29.507,6.03
			c10.303,0,20.045-2.007,29.223-6.03c9.177-4.019,17.188-9.44,24.024-16.268c6.837-6.824,12.223-14.817,16.158-23.981
			C912.542,208.852,914.51,199.22,914.51,189.123z"/>
		<path fill="#FFFFFF" d="M1215.741,301.313h-42.633V151.539l-70.68,119.203l-67.876-120.325v150.897H991.92V76.932h49.083
			l62.268,111.35l65.07-111.35h47.4V301.313z"/>
		<path fill="#FFFFFF" d="M1405.904,301.313h-148.092V77.212h148.092v35.901h-105.46v53.571h104.058v35.06h-104.058v61.705h105.46
			V301.313z"/>
		<path fill="#FFFFFF" d="M1645.992,260.083c-6.359,7.853-13.279,14.633-20.756,20.334c-7.48,5.706-15.286,10.426-23.42,14.164
			c-8.134,3.743-16.456,6.499-24.962,8.274c-8.511,1.775-16.97,2.665-25.384,2.665c-16.645,0-32.255-2.993-46.84-8.975
			s-27.303-14.208-38.145-24.682c-10.847-10.47-19.449-22.811-25.804-37.023c-6.359-14.208-9.537-29.542-9.537-45.999
			c0-16.079,3.13-31.177,9.396-45.297c6.263-14.116,14.865-26.409,25.804-36.883c10.938-10.47,23.7-18.744,38.285-24.822
			c14.585-6.074,30.195-9.116,46.84-9.116c19.257,0,36.786,3.927,52.59,11.78c15.799,7.854,29.213,18.327,40.248,31.414
			l-29.401,30.011c-8.401-11.403-17.828-19.585-28.28-24.542c-10.457-4.952-22.123-7.433-35.003-7.433
			c-10.641,0-20.628,1.963-29.963,5.89c-9.334,3.926-17.499,9.304-24.502,16.127c-7.003,6.828-12.508,14.773-16.522,23.84
			c-4.014,9.072-6.017,18.748-6.017,29.029c0,10.474,2.003,20.243,6.017,29.31c4.011,9.072,9.515,17.065,16.514,23.981
			c6.994,6.92,15.159,12.341,24.489,16.268c9.325,3.927,19.309,5.89,29.945,5.89c10.075,0,19.59-1.867,28.547-5.61
			c8.954-3.738,16.978-8.695,24.068-14.865v-21.597h-45.998v-37.023h87.79V260.083z"/>
		<path fill="#FFFFFF" d="M1901.783,301.313h-47.681l-20.756-44.876h-108.825l-21.035,44.876h-47.682l106.021-224.382h33.938
			L1901.783,301.313z M1816.238,220.255l-37.304-80.777l-37.864,80.777H1816.238z"/>
		<path fill="#FFFFFF" d="M2074.557,220.255c0,11.408-1.924,22.254-5.763,32.536c-3.844,10.286-9.234,19.309-16.167,27.066
			c-6.938,7.761-15.186,13.932-24.744,18.512c-9.563,4.58-20.059,6.872-31.487,6.872c-7.126,0-13.778-0.982-19.963-2.945
			c-6.188-1.963-11.999-5.092-17.433-9.396v8.415h-40.389V68.517h40.669l0.28,78.534c4.672-3.738,10.237-6.731,16.688-8.975
			c6.451-2.244,13.227-3.366,20.335-3.366c9.908,0,19.537,2.2,28.889,6.591c9.348,4.396,17.67,10.426,24.963,18.091
			c7.292,7.669,13.134,16.688,17.529,27.066C2072.356,196.835,2074.557,208.103,2074.557,220.255z M2033.606,220.255
			c0-7.477-1.126-14.304-3.379-20.475c-2.252-6.171-5.398-11.452-9.431-15.847c-4.036-4.391-8.822-7.757-14.357-10.097
			c-5.539-2.336-11.684-3.506-18.441-3.506c-4.32,0-9.295,0.89-14.922,2.665c-5.632,1.779-10.325,4.067-14.076,6.872v77.973
			c8.817,8.042,18.766,12.061,29.844,12.061c6.381,0,12.337-1.214,17.877-3.646c5.534-2.428,10.272-5.842,14.216-10.238
			c3.94-4.391,7.039-9.628,9.291-15.707C2032.48,234.235,2033.606,227.548,2033.606,220.255z"/>
		<path fill="#FFFFFF" d="M2243.403,301.313h-40.39v-12.341c-2.62,2.621-5.657,4.908-9.115,6.872
			c-3.462,1.963-7.108,3.646-10.938,5.048c-3.835,1.402-7.762,2.476-11.78,3.226c-4.022,0.745-7.81,1.122-11.359,1.122
			c-8.23,0-16.127-1.311-23.7-3.927s-14.261-6.635-20.054-12.061c-5.798-5.421-10.426-12.433-13.884-21.036
			c-3.462-8.599-5.189-18.792-5.189-30.572v-98.448h40.39v96.484c0,5.798,0.885,10.895,2.664,15.286
			c1.775,4.396,4.11,8.042,7.012,10.938c2.897,2.901,6.263,5.049,10.098,6.451c3.83,1.402,7.805,2.104,11.92,2.104
			c13.086,0,24.401-4.488,33.938-13.463V139.197h40.39V301.313z"/>
		<path fill="#FFFFFF" d="M2395.979,255.876c0,8.042-1.876,15.194-5.622,21.457c-3.752,6.267-8.625,11.5-14.62,15.707
			c-5.995,4.207-12.744,7.389-20.238,9.536c-7.499,2.147-14.9,3.226-22.206,3.226c-12.372,0-23.758-2.292-34.157-6.872
			c-10.403-4.58-19.537-11.92-27.407-22.017l24.401-24.682c4.86,6.17,10.47,10.987,16.828,14.444
			c6.354,3.462,13.183,5.189,20.476,5.189c6.354,0,11.64-1.166,15.847-3.506c4.207-2.336,6.311-5.842,6.311-10.518
			c0-4.86-2.993-8.927-8.976-12.201c-5.986-3.27-14.4-6.495-25.242-9.676c-6.359-1.867-12.53-4.251-18.512-7.152
			c-5.986-2.897-11.315-6.451-15.987-10.658c-4.676-4.207-8.414-9.019-11.22-14.445c-2.805-5.421-4.207-11.684-4.207-18.792
			c0-7.853,1.828-14.909,5.482-21.176c3.655-6.263,8.433-11.5,14.335-15.707c5.903-4.207,12.604-7.433,20.103-9.676
			c7.494-2.244,15.085-3.366,22.771-3.366c24.734,0,44.978,9.352,60.719,28.048l-24.121,24.401
			c-4.676-5.793-10.005-10.377-15.987-13.743c-5.986-3.366-12.529-5.049-19.633-5.049c-2.433,0-5.005,0.329-7.713,0.982
			c-2.713,0.657-5.237,1.591-7.573,2.805c-2.34,1.218-4.256,2.805-5.75,4.768c-1.499,1.963-2.244,4.164-2.244,6.591
			c0,4.304,2.849,8.042,8.555,11.219c5.702,3.182,13.884,6.359,24.542,9.536c6.916,2.06,13.463,4.676,19.634,7.853
			c6.17,3.182,11.592,6.872,16.268,11.079c4.672,4.207,8.366,8.975,11.079,14.304
			C2394.621,243.114,2395.979,249.145,2395.979,255.876z"/>
		<path fill="#FFFFFF" d="M2469.461,76.932l-11.78,162.116h-24.963l-11.779-162.116H2469.461z M2466.095,301.313h-41.791v-41.791
			h41.791V301.313z"/>
	</g>
</g>
<g>
	<circle fill="#FFFFFF" cx="455.423" cy="224.321" r="9.645"/>
	<path fill="#FFFFFF" d="M474.708,128.918h27.924h29.416c5.643,0,5.643-8.465,0-8.465H502.7h-27.992
		C469.065,120.453,469.065,128.918,474.708,128.918z"/>
	<path fill="#FFFFFF" d="M560.776,182.909l-5.271-37.82c-0.724-4.596-2.281-7.625-8.243-7.625h-44.629h-43.138
		c-5.962,0-7.519,3.029-8.243,7.625l-5.271,37.82c-0.492,3.625,0.557,7.224,5.565,7.224H502.7h52.511
		C560.219,190.133,561.268,186.534,560.776,182.909z"/>
	<path fill="#FFFFFF" d="M578.562,46.301H428.194c-39.155,0-71.191,32.036-71.191,71.191V267.86
		c0,39.155,32.036,71.191,71.191,71.191h150.367c39.155,0,71.191-32.036,71.191-71.191V117.492
		C649.752,78.337,617.716,46.301,578.562,46.301z M573.058,256.489h-11.663v11.269c0,13.738-20.104,13.738-20.104,0v-11.269h-38.589
		h-0.118h-37.118v11.269c0,13.738-20.104,13.738-20.104,0v-11.269h-11.662v-71.852l6.771-52.145
		c1.882-9.406,7.902-13.169,16.932-16.931c8.902-3.709,30.234-8.147,45.977-8.272c15.743,0.125,37.075,4.563,45.977,8.272
		c9.03,3.763,15.05,7.524,16.93,16.931l6.773,52.145V256.489z"/>
	<circle fill="#FFFFFF" cx="551.333" cy="224.321" r="9.645"/>
</g>
</svg>
