<?xml version="1.0" encoding="utf-8"?>
<!-- Generator: Adobe Illustrator 16.0.0, SVG Export Plug-In . SVG Version: 6.00 Build 0)  -->
<!DOCTYPE svg PUBLIC "-//W3C//DTD SVG 1.1//EN" "http://www.w3.org/Graphics/SVG/1.1/DTD/svg11.dtd">
<svg version="1.1" id="Layer_1" xmlns="http://www.w3.org/2000/svg" xmlns:xlink="http://www.w3.org/1999/xlink" x="0px" y="0px"
	 width="1044.438px" height="156.015px" viewBox="0 0 1044.438 156.015" enable-background="new 0 0 1044.438 156.015"
	 xml:space="preserve">
<g>
	<g>
		<path fill="#FFFFFF" d="M267.699,63.481c0,4.469-0.845,8.645-2.536,12.526c-1.69,3.881-3.99,7.253-6.897,10.115
			c-2.907,2.863-6.328,5.098-10.257,6.705c-3.931,1.608-8.097,2.411-12.499,2.411h-15.564v30.698h-18.23V31.959h33.817
			c4.398,0,8.561,0.805,12.49,2.411c3.927,1.608,7.344,3.823,10.251,6.646c2.906,2.823,5.203,6.157,6.892,9.998
			C266.854,54.856,267.699,59.012,267.699,63.481z M249.468,63.246c0-2.43-0.452-4.705-1.353-6.822
			c-0.902-2.117-2.138-3.959-3.705-5.528c-1.569-1.567-3.411-2.823-5.528-3.764s-4.392-1.412-6.822-1.412h-12.115v35.521h12.115
			c2.43,0,4.705-0.489,6.822-1.47c2.117-0.979,3.959-2.293,5.528-3.94c1.567-1.646,2.803-3.547,3.705-5.705
			C249.016,67.971,249.468,65.677,249.468,63.246z"/>
		<path fill="#FFFFFF" d="M347.208,91.945c0,5.098-0.941,9.821-2.823,14.173c-1.882,4.352-4.469,8.116-7.763,11.292
			s-7.156,5.686-11.585,7.528c-4.431,1.841-9.156,2.764-14.173,2.764c-5.019,0-9.724-0.922-14.114-2.764
			c-4.392-1.842-8.233-4.371-11.526-7.586c-3.293-3.214-5.881-6.999-7.763-11.351c-1.882-4.352-2.823-9.036-2.823-14.055
			c0-4.94,0.959-9.586,2.882-13.938c1.92-4.352,4.528-8.154,7.822-11.409c3.293-3.253,7.134-5.802,11.526-7.645
			c4.391-1.842,9.057-2.764,13.997-2.764c5.017,0,9.742,0.922,14.173,2.764c4.429,1.843,8.292,4.352,11.585,7.527
			s5.881,6.96,7.763,11.35C346.267,82.223,347.208,86.928,347.208,91.945z M330.271,91.945c0-2.9-0.509-5.605-1.525-8.116
			c-1.017-2.508-2.404-4.705-4.163-6.586s-3.812-3.352-6.157-4.411s-4.846-1.588-7.504-1.588c-2.657,0-5.16,0.529-7.505,1.588
			c-2.345,1.059-4.398,2.529-6.157,4.411c-1.758,1.882-3.146,4.078-4.163,6.586c-1.016,2.511-1.523,5.216-1.523,8.116
			c0,2.902,0.507,5.607,1.523,8.116c1.017,2.51,2.404,4.705,4.163,6.586c1.759,1.882,3.812,3.352,6.157,4.411
			c2.345,1.059,4.848,1.588,7.505,1.588c2.658,0,5.159-0.529,7.504-1.588s4.398-2.529,6.157-4.411s3.146-4.076,4.163-6.586
			C329.761,97.552,330.271,94.847,330.271,91.945z"/>
		<path fill="#FFFFFF" d="M406.604,65.01l-9.057,14.35c-1.646-1.803-3.47-3.391-5.469-4.764c-2-1.371-4.019-2.058-6.057-2.058
			c-1.099,0-2.294,0.255-3.587,0.764c-1.294,0.511-2.511,1.353-3.646,2.529c-1.137,1.176-2.099,2.726-2.881,4.646
			c-0.785,1.922-1.176,4.293-1.176,7.116v38.344h-16.937V57.953h16.937v7.292c2.038-2.9,4.293-5.135,6.763-6.704
			c2.47-1.568,5.234-2.353,8.292-2.353c2.979,0,5.899,0.805,8.763,2.411C401.409,60.208,404.094,62.346,406.604,65.01z"/>
		<path fill="#FFFFFF" d="M450.474,124.408c-1.726,1.099-3.725,1.92-5.998,2.47c-2.275,0.548-4.549,0.823-6.822,0.823
			c-3.999,0-7.371-0.491-10.115-1.47c-2.746-0.979-4.94-2.488-6.586-4.528c-1.647-2.038-2.843-4.625-3.587-7.763
			c-0.746-3.135-1.118-6.822-1.118-11.056V73.126h-8.939v-7.645c5.488-2.273,9.939-5.646,13.35-10.115
			c3.411-4.47,5.743-10.271,6.999-17.408h5.528v19.877h17.172v15.291h-17.172v30.934c0,1.726,0.215,3.137,0.646,4.234
			c0.43,1.099,1,1.961,1.705,2.587c0.706,0.628,1.51,1.059,2.412,1.294c0.9,0.235,1.861,0.353,2.881,0.353
			c1.333,0,2.94-0.235,4.822-0.706c1.882-0.47,3.488-1.253,4.822-2.353V124.408z"/>
		<path fill="#FFFFFF" d="M530.69,91.945c0,5.098-0.941,9.821-2.823,14.173c-1.882,4.352-4.47,8.116-7.763,11.292
			s-7.156,5.686-11.585,7.528c-4.432,1.841-9.156,2.764-14.174,2.764c-5.019,0-9.724-0.922-14.113-2.764
			c-4.393-1.842-8.233-4.371-11.527-7.586c-3.293-3.214-5.881-6.999-7.763-11.351c-1.882-4.352-2.822-9.036-2.822-14.055
			c0-4.94,0.959-9.586,2.881-13.938c1.921-4.352,4.528-8.154,7.822-11.409c3.293-3.253,7.134-5.802,11.526-7.645
			c4.391-1.842,9.057-2.764,13.996-2.764c5.018,0,9.742,0.922,14.174,2.764c4.429,1.843,8.292,4.352,11.585,7.527
			s5.881,6.96,7.763,11.35C529.749,82.223,530.69,86.928,530.69,91.945z M513.752,91.945c0-2.9-0.509-5.605-1.525-8.116
			c-1.016-2.508-2.403-4.705-4.162-6.586s-3.812-3.352-6.157-4.411c-2.345-1.059-4.846-1.588-7.503-1.588
			c-2.658,0-5.161,0.529-7.506,1.588s-4.397,2.529-6.156,4.411s-3.146,4.078-4.163,6.586c-1.016,2.511-1.523,5.216-1.523,8.116
			c0,2.902,0.508,5.607,1.523,8.116c1.017,2.51,2.404,4.705,4.163,6.586s3.812,3.352,6.156,4.411s4.848,1.588,7.506,1.588
			c2.657,0,5.158-0.529,7.503-1.588c2.346-1.059,4.398-2.529,6.157-4.411s3.146-4.076,4.162-6.586
			C513.244,97.552,513.752,94.847,513.752,91.945z"/>
		<path fill="#FFFFFF" d="M603.142,125.937h-16.937V85.358c0-2.43-0.375-4.567-1.123-6.41c-0.748-1.842-1.751-3.371-3.012-4.587
			c-1.261-1.215-2.698-2.117-4.312-2.705c-1.614-0.588-3.288-0.882-5.02-0.882c-2.599,0-5.158,0.452-7.678,1.353
			c-2.52,0.902-4.803,2.334-6.85,4.293v49.517h-16.938V57.953h16.938l0.117,5.058c1.019-1.018,2.273-1.959,3.765-2.823
			c1.488-0.862,3.037-1.588,4.646-2.176c1.606-0.588,3.253-1.039,4.939-1.353c1.686-0.312,3.313-0.47,4.882-0.47
			c3.449,0,6.763,0.549,9.938,1.646c3.176,1.099,5.999,2.784,8.469,5.058c2.47,2.275,4.449,5.216,5.939,8.821
			c1.488,3.608,2.234,7.88,2.234,12.82V125.937z"/>
		<path fill="#FFFFFF" d="M742.046,108.646c-2.667,3.293-5.568,6.137-8.704,8.527c-3.137,2.393-6.41,4.372-9.821,5.94
			c-3.41,1.569-6.9,2.726-10.468,3.47c-3.568,0.744-7.115,1.117-10.645,1.117c-6.979,0-13.525-1.255-19.642-3.764
			s-11.45-5.958-15.996-10.351c-4.549-4.39-8.156-9.565-10.821-15.525c-2.667-5.958-3.999-12.389-3.999-19.29
			c0-6.743,1.313-13.074,3.94-18.995c2.626-5.919,6.233-11.075,10.82-15.467c4.588-4.391,9.939-7.86,16.056-10.409
			c6.116-2.547,12.662-3.823,19.642-3.823c8.075,0,15.427,1.646,22.054,4.94c6.625,3.293,12.251,7.686,16.878,13.173l-12.329,12.585
			c-3.523-4.782-7.477-8.213-11.859-10.292c-4.385-2.077-9.277-3.117-14.679-3.117c-4.462,0-8.65,0.823-12.564,2.47
			c-3.915,1.647-7.339,3.902-10.275,6.763c-2.937,2.863-5.245,6.195-6.929,9.998c-1.684,3.804-2.523,7.862-2.523,12.173
			c0,4.393,0.84,8.489,2.523,12.291c1.682,3.804,3.99,7.157,6.925,10.057c2.934,2.902,6.357,5.175,10.27,6.822
			c3.911,1.646,8.098,2.47,12.558,2.47c4.226,0,8.215-0.783,11.972-2.353c3.755-1.568,7.119-3.646,10.093-6.234v-9.057h-19.289
			V77.243h36.814V108.646z"/>
		<path fill="#FFFFFF" d="M782.505,125.583c-1.334,0.627-2.843,1.136-4.528,1.529c-1.687,0.392-3.431,0.588-5.234,0.588
			c-2.51,0-4.921-0.334-7.233-1c-2.313-0.667-4.333-1.744-6.057-3.235c-1.726-1.488-3.099-3.429-4.117-5.822
			c-1.02-2.391-1.529-5.272-1.529-8.645V28.313h17.29v77.746c0,2.823,0.568,4.764,1.706,5.822c1.136,1.059,2.488,1.587,4.058,1.587
			c1.959,0,3.841-0.588,5.646-1.764V125.583z"/>
		<path fill="#FFFFFF" d="M860.957,91.945c0,5.098-0.941,9.821-2.823,14.173c-1.882,4.352-4.47,8.116-7.763,11.292
			s-7.156,5.686-11.585,7.528c-4.432,1.841-9.156,2.764-14.174,2.764c-5.019,0-9.724-0.922-14.113-2.764
			c-4.393-1.842-8.233-4.371-11.527-7.586c-3.293-3.214-5.881-6.999-7.763-11.351c-1.882-4.352-2.822-9.036-2.822-14.055
			c0-4.94,0.959-9.586,2.881-13.938c1.921-4.352,4.528-8.154,7.822-11.409c3.293-3.253,7.134-5.802,11.526-7.645
			c4.391-1.842,9.057-2.764,13.996-2.764c5.018,0,9.742,0.922,14.174,2.764c4.429,1.843,8.292,4.352,11.585,7.527
			s5.881,6.96,7.763,11.35C860.015,82.223,860.957,86.928,860.957,91.945z M844.019,91.945c0-2.9-0.509-5.605-1.525-8.116
			c-1.016-2.508-2.403-4.705-4.162-6.586s-3.812-3.352-6.157-4.411c-2.345-1.059-4.846-1.588-7.503-1.588
			c-2.658,0-5.161,0.529-7.506,1.588s-4.397,2.529-6.156,4.411s-3.146,4.078-4.163,6.586c-1.016,2.511-1.523,5.216-1.523,8.116
			c0,2.902,0.508,5.607,1.523,8.116c1.017,2.51,2.404,4.705,4.163,6.586s3.812,3.352,6.156,4.411s4.848,1.588,7.506,1.588
			c2.657,0,5.158-0.529,7.503-1.588c2.346-1.059,4.398-2.529,6.157-4.411s3.146-4.076,4.162-6.586
			C843.51,97.552,844.019,94.847,844.019,91.945z"/>
		<path fill="#FFFFFF" d="M936.938,91.945c0,4.784-0.807,9.333-2.416,13.644c-1.611,4.313-3.873,8.098-6.779,11.351
			c-2.91,3.254-6.369,5.842-10.376,7.763c-4.011,1.92-8.412,2.881-13.205,2.881c-2.988,0-5.778-0.412-8.371-1.235
			c-2.595-0.823-5.031-2.135-7.311-3.94v3.528h-16.938V28.313h17.055l0.118,32.933c1.959-1.568,4.293-2.823,6.998-3.764
			s5.547-1.412,8.527-1.412c4.155,0,8.193,0.922,12.115,2.764c3.92,1.843,7.409,4.372,10.467,7.586
			c3.059,3.216,5.508,6.998,7.352,11.35C936.016,82.124,936.938,86.849,936.938,91.945z M919.765,91.945
			c0-3.135-0.472-5.999-1.417-8.586c-0.944-2.588-2.264-4.802-3.954-6.646c-1.693-1.841-3.7-3.253-6.021-4.234
			c-2.322-0.979-4.899-1.47-7.733-1.47c-1.812,0-3.897,0.373-6.257,1.117c-2.362,0.747-4.33,1.706-5.903,2.882v32.698
			c3.697,3.373,7.869,5.058,12.516,5.058c2.676,0,5.173-0.509,7.496-1.529c2.321-1.018,4.308-2.45,5.962-4.293
			c1.652-1.842,2.951-4.038,3.896-6.587C919.293,97.808,919.765,95.003,919.765,91.945z"/>
		<path fill="#FFFFFF" d="M1002.686,125.937h-16.938v-3.646c-2.98,2.04-6.137,3.451-9.469,4.234
			c-3.332,0.783-6.762,1.176-10.291,1.176c-3.293,0-6.273-0.491-8.939-1.47s-4.98-2.391-6.939-4.234
			c-1.961-1.841-3.469-4.017-4.527-6.528c-1.059-2.508-1.588-5.292-1.588-8.351c0-3.841,0.842-7.193,2.529-10.057
			c1.684-2.861,3.979-5.252,6.881-7.174c2.898-1.921,6.291-3.353,10.174-4.293c3.881-0.941,8.057-1.411,12.525-1.411h9.762
			c0-3.999-1.293-7.175-3.881-9.527c-2.588-2.352-6.313-3.528-11.174-3.528c-2.352,0-4.783,0.432-7.293,1.294
			c-2.51,0.864-5.018,2.431-7.527,4.705l-9.996-10.115c3.605-3.45,7.781-6.116,12.525-7.998s9.625-2.823,14.645-2.823
			c4.703,0,8.893,0.746,12.566,2.235c3.672,1.49,6.637,3.411,8.896,5.763c2.959,2.981,5.041,6.313,6.248,9.998
			c1.205,3.687,1.811,8.391,1.811,14.114V125.937z M985.748,109V96.415h-7.762c-2.354,0-4.57,0.158-6.646,0.47
			c-2.078,0.314-3.881,0.844-5.41,1.588c-1.529,0.746-2.746,1.706-3.646,2.882c-0.902,1.176-1.352,2.587-1.352,4.234
			c0,2.353,0.92,4.275,2.764,5.764c1.842,1.49,4.213,2.234,7.115,2.234c2.51,0,5-0.391,7.469-1.176
			C980.75,111.627,983.238,110.49,985.748,109z"/>
		<path fill="#FFFFFF" d="M1044.438,125.583c-1.334,0.627-2.842,1.136-4.527,1.529c-1.688,0.392-3.432,0.588-5.234,0.588
			c-2.51,0-4.922-0.334-7.234-1c-2.313-0.667-4.332-1.744-6.057-3.235c-1.725-1.488-3.098-3.429-4.117-5.822
			c-1.02-2.391-1.529-5.272-1.529-8.645V28.313h17.291v77.746c0,2.823,0.568,4.764,1.705,5.822s2.488,1.587,4.059,1.587
			c1.959,0,3.84-0.588,5.645-1.764V125.583z"/>
	</g>
</g>
<path fill="#FFFFFF" d="M98.04,114.804c-33.946,0-61.464-27.519-61.464-61.464c0-22.831,12.458-42.74,30.938-53.339
	C29.371,5.297,0,38.021,0,77.623c0,43.295,35.097,78.392,78.392,78.392c43.295,0,78.392-35.096,78.392-78.392
	c0-1.852-0.087-3.682-0.213-5.501C148.631,96.879,125.434,114.804,98.04,114.804z"/>
<circle fill="#FFFFFF" cx="98.04" cy="53.339" r="38.621"/>
</svg>
