<?xml version="1.0" encoding="utf-8"?>
<!-- Generator: Adobe Illustrator 16.0.0, SVG Export Plug-In . SVG Version: 6.00 Build 0)  -->
<!DOCTYPE svg PUBLIC "-//W3C//DTD SVG 1.1//EN" "http://www.w3.org/Graphics/SVG/1.1/DTD/svg11.dtd">
<svg version="1.1" id="Layer_1" xmlns="http://www.w3.org/2000/svg" xmlns:xlink="http://www.w3.org/1999/xlink" x="0px" y="0px"
	 width="7173.37px" height="670.357px" viewBox="0 0 7173.37 670.357" enable-background="new 0 0 7173.37 670.357"
	 xml:space="preserve">
<g>
	<path fill="#C1272D" d="M1156.083,430.317c0,14.714-3.188,28.694-9.563,41.937c-6.378,13.242-15.291,24.936-26.731,35.068
		c-11.451,10.14-25.016,18.232-40.711,24.279c-15.696,6.047-33.03,9.073-51.991,9.073c-17.006,0-32.295-0.98-45.859-2.941
		c-13.572-1.964-26.326-5.066-38.258-9.319c-11.939-4.246-23.383-9.726-34.333-16.432c-10.959-6.698-22.318-14.792-34.088-24.279
		l53.952-54.442c15.695,13.082,31.062,22.316,46.105,27.711c15.036,5.396,31.39,8.094,49.048,8.094
		c7.189,0,13.979-1.059,20.355-3.189c6.376-2.123,11.933-4.981,16.676-8.583c4.736-3.594,8.5-7.847,11.281-12.752
		c2.774-4.905,4.17-10.301,4.17-16.186c0-6.207-1.15-11.772-3.434-16.676c-2.292-4.905-6.377-9.642-12.262-14.224
		c-5.886-4.576-14.063-9.236-24.523-13.979c-10.47-4.737-23.873-10.054-40.222-15.94c-14.392-5.227-28.202-11.198-41.444-17.904
		c-13.243-6.698-24.854-14.79-34.824-24.279c-9.978-9.48-17.987-20.6-24.034-33.352c-6.055-12.754-9.075-27.789-9.075-45.125
		c0-16.677,3.35-32.042,10.055-46.105c6.698-14.056,15.856-26.072,27.467-36.05c11.604-9.971,25.176-17.733,40.71-23.298
		c15.526-5.557,32.287-8.338,50.274-8.338c30.08,0,55.425,3.925,76.024,11.772c20.601,7.847,38.909,19.297,54.934,34.333
		l-52.972,53.463c-9.81-9.48-20.769-16.752-32.861-21.826c-12.102-5.066-26.325-7.604-42.673-7.604
		c-7.525,0-14.47,1.151-20.845,3.434c-6.377,2.292-11.856,5.318-16.432,9.074c-4.583,3.763-8.262,8.177-11.035,13.243
		c-2.783,5.074-4.17,10.384-4.17,15.94c0,6.216,1.303,11.855,3.924,16.922c2.613,5.073,7.027,9.978,13.243,14.715
		c6.207,4.744,14.47,9.488,24.77,14.224c10.3,4.744,23.129,9.894,38.503,15.45c19.619,6.867,36.456,14.393,50.52,22.561
		c14.055,8.178,25.504,17.168,34.334,26.978c8.828,9.81,15.365,20.846,19.618,33.108
		C1153.952,401.134,1156.083,414.951,1156.083,430.317z"/>
	<path fill="#C1272D" d="M1493.04,391.079c0,4.583-0.243,9.319-0.733,14.225c-0.492,4.904-1.067,9.978-1.718,15.205h-226.603
		c2.614,8.177,6.293,15.941,11.036,23.297c4.735,7.358,10.546,13.734,17.413,19.13c6.865,5.395,14.63,9.648,23.297,12.752
		c8.66,3.11,18.226,4.659,28.693,4.659c12.753,0,25.504-2.206,38.258-6.622c12.752-4.414,23.374-10.375,31.881-17.901l44.634,44.633
		c-19.618,14.716-38.832,25.099-57.632,31.146c-18.807,6.047-38.671,9.073-59.593,9.073c-21.259,0-41.124-3.922-59.595-11.77
		c-18.478-7.848-34.501-18.471-48.066-31.883c-13.573-13.402-24.278-29.182-32.127-47.332
		c-7.848-18.147-11.771-37.521-11.771-58.121s3.924-39.975,11.771-58.122c7.849-18.148,18.639-33.92,32.372-47.332
		c13.734-13.403,29.75-24.033,48.066-31.881c18.31-7.848,37.93-11.771,58.859-11.771c19.941,0,39.07,3.678,57.387,11.035
		c18.308,7.358,34.494,17.582,48.556,30.655c14.056,13.082,25.177,28.693,33.354,46.841
		C1488.949,349.143,1493.04,369.176,1493.04,391.079z M1418.979,363.612c-5.563-17.979-15.45-32.447-29.673-43.407
		c-14.225-10.952-30.334-16.432-48.313-16.432c-17.658,0-33.522,5.479-47.577,16.432c-14.063,10.959-23.872,25.428-29.429,43.407
		H1418.979z"/>
	<path fill="#C1272D" d="M1797.628,305.736h-29.919c7.519,14.714,11.282,30.41,11.282,47.085c0,12.753-2.376,25.099-7.112,37.032
		c-4.744,11.941-11.526,22.808-20.354,32.617c-8.83,9.81-19.543,18.147-32.128,25.015c-12.591,6.866-26.73,11.449-42.427,13.732
		c-10.791,1.641-18.883,4.169-24.279,7.604c-5.394,3.434-8.093,6.867-8.093,10.299c0,3.434,2.699,6.622,8.093,9.564
		c5.396,2.944,13.488,4.905,24.279,5.886c36.617,3.272,64.989,12.432,85.1,27.466c20.107,15.037,30.164,34.985,30.164,59.839
		c0,12.753-3.096,24.524-9.29,35.316c-6.191,10.789-15.066,20.108-26.63,27.956c-11.564,7.849-25.49,13.894-41.784,18.147
		c-16.293,4.247-34.533,6.377-54.727,6.377c-20.53,0-39.024-2.13-55.47-6.377c-16.454-4.254-30.549-10.223-42.274-17.902
		c-11.726-7.687-20.685-16.921-26.876-27.712c-6.193-10.789-9.281-22.729-9.281-35.806c0-19.619,5.596-36.049,16.792-49.293
		c11.196-13.242,29.451-23.128,54.765-29.674c-7.847-2.943-13.487-6.943-16.921-12.017c-3.435-5.066-4.99-10.215-4.661-15.449
		c0.323-5.227,2.529-10.216,6.623-14.959c4.085-4.736,9.894-8.414,17.436-11.035c-8.568-3.925-16.716-8.991-24.457-15.206
		c-7.738-6.207-14.735-13.404-20.99-21.581c-6.254-8.169-11.197-17.328-14.814-27.467c-3.625-10.131-5.434-20.921-5.434-32.372
		c0-15.366,3.266-29.75,9.81-43.162c6.537-13.404,15.367-25.091,26.486-35.068c11.113-9.971,24.035-17.82,38.748-23.544
		c14.714-5.718,30.24-8.583,46.597-8.583c16.016,0,30.9,2.452,44.634,7.357h97.113V305.736z M1721.605,581.875
		c0-11.448-5.786-19.785-17.345-25.014c-11.563-5.234-26.462-7.848-44.702-7.848c-19.542,0-34.938,2.774-46.175,8.339
		c-11.233,5.556-16.853,13.733-16.853,24.522c0,11.112,5.864,19.451,17.59,25.017c11.726,5.555,26.868,8.338,45.438,8.338
		c18.885,0,33.951-2.698,45.187-8.095C1715.979,601.74,1721.605,593.318,1721.605,581.875z M1708.362,352.821
		c0-7.188-1.38-13.894-4.132-20.109c-2.758-6.207-6.482-11.687-11.174-16.432c-4.697-4.735-10.208-8.498-16.522-11.281
		c-6.314-2.773-13.037-4.169-20.164-4.169s-13.765,1.396-19.917,4.169c-6.162,2.783-11.588,6.546-16.278,11.281
		c-4.698,4.745-8.423,10.225-11.174,16.432c-2.759,6.215-4.131,12.921-4.131,20.109c0,7.197,1.372,13.98,4.131,20.356
		c2.751,6.375,6.476,11.94,11.174,16.676c4.69,4.745,10.116,8.507,16.278,11.281c6.152,2.782,12.79,4.169,19.917,4.169
		s13.85-1.388,20.164-4.169c6.314-2.774,11.825-6.537,16.522-11.281c4.691-4.735,8.416-10.3,11.174-16.676
		C1706.982,366.801,1708.362,360.018,1708.362,352.821z"/>
	<path fill="#C1272D" d="M2092.898,249.821l-106.434,283.988h-69.648l-106.926-283.988h77.496l64.254,190.306l64.252-190.306
		H2092.898z"/>
	<path fill="#C1272D" d="M2198.343,200.282h-73.571V126.71h73.571V200.282z M2197.361,533.319h-71.609V249.33h71.609V533.319z"/>
	<path fill="#C1272D" d="M2381.784,531.848c-5.565,2.612-11.856,4.736-18.884,6.375c-7.036,1.633-14.309,2.452-21.826,2.452
		c-10.47,0-20.523-1.395-30.166-4.168c-9.647-2.781-18.069-7.272-25.26-13.487c-7.195-6.209-12.92-14.303-17.166-24.279
		c-4.254-9.971-6.375-21.988-6.375-36.051V126.22h72.1v324.207c0,11.772,2.367,19.866,7.112,24.28
		c4.736,4.413,10.376,6.621,16.921,6.621c8.17,0,16.018-2.453,23.544-7.357V531.848z"/>
	<path fill="#C1272D" d="M2535.792,531.848c-5.565,2.612-11.857,4.736-18.884,6.375c-7.036,1.633-14.308,2.452-21.826,2.452
		c-10.47,0-20.523-1.395-30.166-4.168c-9.647-2.781-18.069-7.272-25.26-13.487c-7.195-6.209-12.92-14.303-17.166-24.279
		c-4.254-9.971-6.375-21.988-6.375-36.051V126.22h72.1v324.207c0,11.772,2.367,19.866,7.112,24.28
		c4.735,4.413,10.377,6.621,16.921,6.621c8.17,0,16.019-2.453,23.544-7.357V531.848z"/>
	<path fill="#C1272D" d="M2862.94,391.079c0,4.583-0.245,9.319-0.735,14.225c-0.491,4.904-1.065,9.978-1.718,15.205h-226.601
		c2.614,8.177,6.292,15.941,11.036,23.297c4.735,7.358,10.546,13.734,17.412,19.13c6.864,5.395,14.631,9.648,23.296,12.752
		c8.662,3.11,18.227,4.659,28.694,4.659c12.754,0,25.505-2.206,38.257-6.622c12.754-4.414,23.376-10.375,31.883-17.901
		l44.633,44.633c-19.619,14.716-38.832,25.099-57.631,31.146c-18.809,6.047-38.672,9.073-59.594,9.073
		c-21.259,0-41.124-3.922-59.594-11.77c-18.479-7.848-34.502-18.471-48.067-31.883c-13.573-13.402-24.278-29.182-32.126-47.332
		c-7.848-18.147-11.772-37.521-11.772-58.121s3.925-39.975,11.772-58.122c7.848-18.148,18.639-33.92,32.371-47.332
		c13.734-13.403,29.75-24.033,48.067-31.881c18.308-7.848,37.929-11.771,58.858-11.771c19.941,0,39.07,3.678,57.387,11.035
		c18.309,7.358,34.494,17.582,48.557,30.655c14.055,13.082,25.177,28.693,33.353,46.841
		C2858.849,349.143,2862.94,369.176,2862.94,391.079z M2788.877,363.612c-5.563-17.979-15.449-32.447-29.672-43.407
		c-14.225-10.952-30.333-16.432-48.314-16.432c-17.657,0-33.521,5.479-47.577,16.432c-14.062,10.959-23.87,25.428-29.427,43.407
		H2788.877z"/>
	<path fill="#F15A24" d="M3467.206,533.319h-83.382l-36.296-78.478h-190.306l-36.787,78.478h-83.383l185.403-392.386h59.348
		L3467.206,533.319z M3317.609,391.57l-65.234-141.259L3186.16,391.57H3317.609z"/>
	<path fill="#F15A24" d="M3570.203,200.282h-73.571V126.71h73.571V200.282z M3569.223,533.319h-71.611V249.33h71.611V533.319z"/>
	<path fill="#F15A24" d="M3837.517,279.249l-37.768,59.839c-6.868-7.517-14.47-14.14-22.808-19.864
		c-8.338-5.716-16.76-8.583-25.259-8.583c-4.585,0-9.565,1.065-14.962,3.188c-5.394,2.131-10.467,5.642-15.203,10.546
		c-4.745,4.905-8.752,11.366-12.016,19.374c-3.273,8.018-4.906,17.903-4.906,29.676v159.896h-70.629V249.821h70.629v30.41
		c8.498-12.094,17.903-21.413,28.202-27.957c10.301-6.538,21.826-9.81,34.579-9.81c12.423,0,24.602,3.357,36.542,10.055
		C3815.85,259.224,3827.047,268.136,3837.517,279.249z"/>
</g>
<g>
	<path fill="#F15A24" d="M4406.675,496.56h-54.86V371.265h-111.492V496.56h-54.86V213.761h54.86V325.96h111.492V213.761h54.86
		V496.56z"/>
	<path fill="#F15A24" d="M4758.133,496.56h-186.882V213.761h186.882v45.304h-133.082v67.603h131.313v44.243h-131.313v77.867h133.082
		V496.56z"/>
	<path fill="#F15A24" d="M5103.572,496.56H4912.09V213.761h55.924v229.708h135.559V496.56z"/>
	<path fill="#F15A24" d="M5301.773,496.56h-54.861V213.761h54.861V496.56z"/>
	<path fill="#F15A24" d="M5880.806,496.56h-191.482V213.761h55.923v229.708h135.56V496.56z"/>
	<path fill="#F15A24" d="M6079.006,496.56h-54.861V213.761h54.861V496.56z"/>
	<path fill="#F15A24" d="M6478.953,496.56h-53.799l-127.773-198.561V496.56h-53.799V213.407h61.587l119.985,184.757V213.407h53.799
		V496.56z"/>
	<path fill="#F15A24" d="M6830.408,496.56h-186.882V213.761h186.882v45.304h-133.083v67.603h131.313v44.243h-131.313v77.867h133.083
		V496.56z"/>
	<path fill="#F15A24" d="M7173.37,422.232c0,10.618-2.3,20.706-6.901,30.262c-4.602,9.557-11.033,17.996-19.289,25.307
		c-8.264,7.317-18.051,13.157-29.377,17.52c-11.326,4.364-23.837,6.547-37.52,6.547c-12.271,0-23.305-0.707-33.092-2.123
		c-9.795-1.415-18.998-3.655-27.609-6.725c-8.615-3.064-16.872-7.018-24.774-11.857c-7.909-4.833-16.104-10.673-24.599-17.52
		l38.934-39.288c11.326,9.44,22.414,16.104,33.27,19.998c10.851,3.894,22.652,5.84,35.395,5.84c5.188,0,10.088-0.763,14.689-2.301
		c4.6-1.532,8.609-3.595,12.033-6.194c3.418-2.594,6.133-5.663,8.141-9.202c2.002-3.539,3.008-7.433,3.008-11.68
		c0-4.479-0.83-8.494-2.477-12.034c-1.654-3.54-4.602-6.958-8.85-10.264c-4.247-3.302-10.148-6.665-17.696-10.088
		c-7.554-3.417-17.228-7.255-29.024-11.502c-10.385-3.772-20.351-8.08-29.906-12.919c-9.557-4.833-17.936-10.673-25.131-17.52
		c-7.2-6.841-12.979-14.865-17.343-24.068c-4.368-9.202-6.548-20.053-6.548-32.563c0-12.034,2.416-23.123,7.256-33.271
		c4.834-10.143,11.442-18.814,19.82-26.015c8.373-7.195,18.167-12.797,29.377-16.812c11.205-4.01,23.301-6.017,36.279-6.017
		c21.707,0,39.995,2.832,54.861,8.495c14.865,5.663,28.076,13.925,39.641,24.775l-38.225,38.58
		c-7.08-6.841-14.987-12.089-23.715-15.75c-8.732-3.656-18.996-5.486-30.793-5.486c-5.431,0-10.441,0.83-15.042,2.478
		c-4.603,1.653-8.556,3.838-11.858,6.547c-3.307,2.715-5.961,5.901-7.963,9.557c-2.008,3.661-3.009,7.493-3.009,11.502
		c0,4.485,0.94,8.556,2.832,12.211c1.886,3.662,5.071,7.201,9.556,10.619c4.48,3.423,10.442,6.846,17.875,10.264
		c7.432,3.423,16.689,7.14,27.784,11.149c14.158,4.956,26.308,10.386,36.456,16.282c10.143,5.9,18.405,12.388,24.775,19.466
		c6.371,7.079,11.088,15.042,14.158,23.891C7171.833,401.173,7173.37,411.144,7173.37,422.232z"/>
</g>
<g>
	<path fill="#F15A24" d="M500.422,670.358H169.936c-45.22,0-87.847-17.725-120.03-49.906C17.724,588.271,0,545.642,0,500.423
		V169.936c0-45.22,17.724-87.848,49.906-120.029C82.088,17.724,124.716,0,169.936,0h330.486c45.22,0,87.847,17.724,120.03,49.906
		c32.182,32.182,49.906,74.81,49.906,120.029v330.487c0,45.219-17.724,87.848-49.906,120.029
		C588.269,652.634,545.642,670.358,500.422,670.358z M169.936,29.672c-77.342,0-140.264,62.922-140.264,140.264v330.487
		c0,77.342,62.922,140.264,140.264,140.264h330.486c77.342,0,140.264-62.922,140.264-140.264V169.936
		c0-77.342-62.922-140.264-140.264-140.264H169.936z"/>
	<g>
		<g>
			<path fill="#C1272D" d="M290.453,241.734l0.59,1.48c0.01,0.02,0.01,0.03,0.02,0.05l24.104,60.396
				c1.923-1.218,3.979-2.284,6.17-3.159c2.202-0.879,4.439-1.523,6.684-1.964l-17.448-43.724c1.14-0.189,2.27-0.5,3.38-0.939
				c8.85-3.53,13.02-14.11,9.27-23.5l-71.8-179.91c-3.75-9.39-14.05-14.19-22.9-10.66s-13.03,14.11-9.28,23.5L290.453,241.734z"/>
			<path fill="#C1272D" d="M300.5,349.018c-0.876-2.196-1.519-4.427-1.96-6.666l-43.717,17.443c-0.19-1.14-0.5-2.271-0.94-3.38
				c-3.53-8.851-14.11-13.021-23.5-9.271l-179.91,71.801c-9.4,3.75-14.19,14.06-10.66,22.909c3.53,8.851,14.11,13.021,23.5,9.271
				l178.43-71.21l1.48-0.59c0.02-0.011,0.03-0.011,0.05-0.021l60.394-24.105C302.446,353.272,301.376,351.213,300.5,349.018z"/>
			<path fill="#C1272D" d="M630.543,228.505c-3.53-8.85-14.11-13.021-23.5-9.271l-178.43,71.211v-0.011l-61.929,24.721
				c1.222,1.927,2.292,3.987,3.168,6.185c0.877,2.197,1.52,4.428,1.961,6.668l43.72-17.453c0.19,1.141,0.5,2.271,0.94,3.38
				c3.53,8.851,14.11,13.03,23.5,9.28l179.91-71.8C629.273,247.665,634.073,237.354,630.543,228.505z"/>
			<path fill="#C1272D" d="M379.913,428.615l-0.59-1.48c-0.01-0.02-0.01-0.03-0.02-0.05l-24.106-60.396
				c-1.927,1.221-3.986,2.29-6.181,3.166c-2.197,0.877-4.429,1.521-6.669,1.961l17.446,43.72c-1.14,0.189-2.27,0.5-3.38,0.939
				c-8.85,3.53-13.02,14.11-9.27,23.5l71.8,179.911c3.75,9.389,14.06,14.189,22.91,10.66c8.85-3.531,13.02-14.111,9.27-23.5
				L379.913,428.615z"/>
		</g>
		<circle fill="#F15A24" cx="335.176" cy="335.178" r="28.356"/>
	</g>
</g>
</svg>
