<?xml version="1.0" encoding="utf-8"?>
<!-- Generator: Adobe Illustrator 16.0.0, SVG Export Plug-In . SVG Version: 6.00 Build 0)  -->
<!DOCTYPE svg PUBLIC "-//W3C//DTD SVG 1.1//EN" "http://www.w3.org/Graphics/SVG/1.1/DTD/svg11.dtd">
<svg version="1.1" id="Layer_1" xmlns="http://www.w3.org/2000/svg" xmlns:xlink="http://www.w3.org/1999/xlink" x="0px" y="0px"
	 width="1817.892px" height="670.357px" viewBox="0 0 1817.892 670.357" enable-background="new 0 0 1817.892 670.357"
	 xml:space="preserve">
<g>
	<path fill="#FFFFFF" d="M919.321,274.662c0,7.746-1.679,15.105-5.035,22.077c-3.357,6.972-8.049,13.128-14.073,18.462
		c-6.028,5.337-13.169,9.598-21.432,12.781c-8.263,3.183-17.389,4.777-27.371,4.777c-8.953,0-17.002-0.516-24.143-1.549
		c-7.145-1.033-13.859-2.667-20.141-4.906c-6.286-2.235-12.31-5.12-18.075-8.65c-5.77-3.526-11.749-7.787-17.946-12.781
		l28.403-28.662c8.263,6.887,16.352,11.749,24.272,14.589c7.916,2.84,16.525,4.261,25.821,4.261c3.785,0,7.359-0.557,10.716-1.679
		c3.357-1.118,6.282-2.623,8.779-4.519c2.493-1.892,4.474-4.131,5.939-6.713c1.46-2.583,2.195-5.423,2.195-8.521
		c0-3.268-0.605-6.197-1.808-8.779c-1.207-2.583-3.357-5.076-6.455-7.488c-3.099-2.409-7.404-4.862-12.911-7.359
		c-5.511-2.494-12.568-5.293-21.174-8.392c-7.577-2.751-14.847-5.895-21.819-9.425c-6.972-3.526-13.084-7.787-18.333-12.782
		c-5.253-4.991-9.469-10.845-12.652-17.558c-3.188-6.714-4.777-14.629-4.777-23.756c0-8.779,1.763-16.869,5.293-24.272
		c3.526-7.399,8.348-13.726,14.46-18.979c6.108-5.249,13.254-9.336,21.432-12.265c8.174-2.925,16.998-4.39,26.467-4.39
		c15.836,0,29.178,2.066,40.023,6.197c10.845,4.131,20.484,10.159,28.92,18.075l-27.887,28.145
		c-5.165-4.991-10.934-8.819-17.3-11.49c-6.371-2.667-13.859-4.002-22.465-4.002c-3.962,0-7.617,0.605-10.974,1.808
		c-3.357,1.207-6.242,2.8-8.65,4.777c-2.413,1.981-4.349,4.305-5.81,6.972c-1.465,2.671-2.195,5.467-2.195,8.392
		c0,3.272,0.686,6.241,2.065,8.908c1.376,2.671,3.7,5.253,6.972,7.747c3.268,2.498,7.618,4.995,13.04,7.488
		c5.422,2.497,12.176,5.208,20.27,8.133c10.329,3.615,19.192,7.577,26.596,11.878c7.399,4.305,13.427,9.038,18.075,14.202
		c4.648,5.165,8.089,10.974,10.328,17.43C918.199,259.298,919.321,266.573,919.321,274.662z"/>
	<path fill="#FFFFFF" d="M1096.712,254.005c0,2.413-0.129,4.906-0.387,7.488c-0.259,2.582-0.562,5.253-0.904,8.004H976.127
		c1.376,4.305,3.313,8.392,5.81,12.265c2.493,3.874,5.552,7.23,9.167,10.07c3.614,2.84,7.702,5.08,12.265,6.714
		c4.56,1.638,9.595,2.453,15.105,2.453c6.714,0,13.427-1.162,20.141-3.486c6.714-2.324,12.306-5.462,16.784-9.425l23.497,23.498
		c-10.328,7.747-20.443,13.213-30.34,16.396c-9.901,3.183-20.358,4.777-31.373,4.777c-11.191,0-21.649-2.065-31.373-6.197
		c-9.728-4.131-18.163-9.724-25.305-16.784c-7.146-7.056-12.781-15.363-16.913-24.917c-4.131-9.554-6.197-19.753-6.197-30.598
		c0-10.845,2.066-21.044,6.197-30.598c4.132-9.554,9.813-17.857,17.042-24.917c7.23-7.057,15.662-12.652,25.305-16.784
		c9.639-4.132,19.968-6.197,30.986-6.197c10.498,0,20.568,1.937,30.211,5.81c9.639,3.874,18.159,9.255,25.563,16.139
		c7.399,6.887,13.254,15.105,17.559,24.659C1094.558,231.928,1096.712,242.474,1096.712,254.005z M1057.722,239.545
		c-2.929-9.465-8.134-17.082-15.621-22.852c-7.488-5.766-15.969-8.65-25.435-8.65c-9.296,0-17.647,2.885-25.047,8.65
		c-7.403,5.77-12.567,13.387-15.492,22.852H1057.722z"/>
	<path fill="#FFFFFF" d="M1257.062,209.076h-15.751c3.958,7.746,5.939,16.009,5.939,24.788c0,6.714-1.251,13.213-3.744,19.495
		c-2.498,6.286-6.068,12.007-10.716,17.171c-4.648,5.164-10.288,9.554-16.913,13.169c-6.629,3.615-14.072,6.027-22.336,7.229
		c-5.681,0.864-9.94,2.195-12.781,4.002c-2.84,1.808-4.261,3.615-4.261,5.422c0,1.808,1.421,3.486,4.261,5.035
		c2.841,1.549,7.101,2.583,12.781,3.099c19.277,1.723,34.214,6.544,44.801,14.46c10.586,7.916,15.88,18.418,15.88,31.502
		c0,6.713-1.63,12.911-4.891,18.591c-3.26,5.681-7.932,10.587-14.02,14.718s-13.419,7.314-21.997,9.554
		c-8.577,2.235-18.18,3.357-28.811,3.357c-10.809,0-20.544-1.122-29.202-3.357c-8.662-2.239-16.082-5.382-22.255-9.425
		c-6.173-4.046-10.89-8.908-14.149-14.589s-4.886-11.966-4.886-18.85c0-10.329,2.945-18.979,8.84-25.95s15.505-12.176,28.831-15.622
		c-4.131-1.549-7.101-3.655-8.908-6.326c-1.808-2.667-2.627-5.378-2.453-8.134c0.17-2.751,1.331-5.378,3.486-7.875
		c2.15-2.493,5.208-4.43,9.179-5.81c-4.511-2.066-8.8-4.732-12.875-8.005c-4.074-3.268-7.758-7.056-11.051-11.361
		c-3.292-4.301-5.895-9.122-7.799-14.46c-1.908-5.333-2.86-11.014-2.86-17.042c0-8.089,1.719-15.662,5.164-22.723
		c3.441-7.057,8.09-13.209,13.943-18.462c5.851-5.249,12.653-9.381,20.399-12.395c7.746-3.01,15.92-4.519,24.53-4.519
		c8.432,0,16.268,1.291,23.497,3.873h51.126V209.076z M1217.039,354.45c0-6.027-3.046-10.417-9.131-13.169
		c-6.088-2.755-13.931-4.131-23.533-4.131c-10.288,0-18.394,1.46-24.309,4.39c-5.914,2.925-8.872,7.23-8.872,12.911
		c0,5.85,3.087,10.24,9.26,13.169c6.173,2.925,14.145,4.39,23.921,4.39c9.941,0,17.873-1.42,23.788-4.261
		C1214.077,364.907,1217.039,360.474,1217.039,354.45z M1210.067,233.864c0-3.784-0.727-7.314-2.175-10.586
		c-1.452-3.268-3.413-6.153-5.883-8.65c-2.473-2.493-5.374-4.474-8.698-5.939c-3.324-1.46-6.863-2.195-10.615-2.195
		s-7.246,0.734-10.485,2.195c-3.244,1.465-6.101,3.446-8.569,5.939c-2.474,2.498-4.435,5.382-5.883,8.65
		c-1.452,3.272-2.175,6.802-2.175,10.586c0,3.789,0.723,7.359,2.175,10.716c1.448,3.357,3.409,6.286,5.883,8.779
		c2.469,2.498,5.325,4.479,8.569,5.939c3.239,1.464,6.733,2.195,10.485,2.195s7.291-0.73,10.615-2.195
		c3.324-1.46,6.226-3.441,8.698-5.939c2.47-2.493,4.431-5.422,5.883-8.779C1209.341,241.224,1210.067,237.653,1210.067,233.864z"/>
	<path fill="#FFFFFF" d="M1412.506,179.64l-56.032,149.505h-36.666l-56.291-149.505h40.798l33.826,100.187l33.825-100.187H1412.506z
		"/>
	<path fill="#FFFFFF" d="M1468.018,153.56h-38.731v-38.732h38.731V153.56z M1467.501,328.887h-37.699V179.381h37.699V328.887z"/>
	<path fill="#FFFFFF" d="M1564.589,328.112c-2.93,1.375-6.242,2.493-9.941,3.356c-3.704,0.859-7.532,1.291-11.49,1.291
		c-5.512,0-10.805-0.734-15.881-2.195c-5.079-1.464-9.513-3.829-13.298-7.101c-3.788-3.268-6.802-7.529-9.037-12.782
		c-2.239-5.249-3.356-11.575-3.356-18.979V114.57h37.957v170.678c0,6.197,1.246,10.458,3.744,12.782
		c2.493,2.324,5.463,3.486,8.908,3.486c4.301,0,8.433-1.291,12.395-3.873V328.112z"/>
	<path fill="#FFFFFF" d="M1645.666,328.112c-2.93,1.375-6.242,2.493-9.941,3.356c-3.704,0.859-7.532,1.291-11.49,1.291
		c-5.512,0-10.805-0.734-15.881-2.195c-5.079-1.464-9.513-3.829-13.298-7.101c-3.788-3.268-6.802-7.529-9.037-12.782
		c-2.239-5.249-3.356-11.575-3.356-18.979V114.57h37.957v170.678c0,6.197,1.246,10.458,3.744,12.782
		c2.493,2.324,5.463,3.486,8.908,3.486c4.301,0,8.433-1.291,12.395-3.873V328.112z"/>
	<path fill="#FFFFFF" d="M1817.892,254.005c0,2.413-0.129,4.906-0.387,7.488c-0.259,2.582-0.562,5.253-0.904,8.004h-119.294
		c1.376,4.305,3.313,8.392,5.81,12.265c2.493,3.874,5.552,7.23,9.167,10.07c3.614,2.84,7.702,5.08,12.265,6.714
		c4.56,1.638,9.595,2.453,15.105,2.453c6.714,0,13.427-1.162,20.141-3.486c6.714-2.324,12.306-5.462,16.784-9.425l23.497,23.498
		c-10.328,7.747-20.443,13.213-30.34,16.396c-9.901,3.183-20.358,4.777-31.373,4.777c-11.191,0-21.649-2.065-31.373-6.197
		c-9.728-4.131-18.163-9.724-25.305-16.784c-7.146-7.056-12.781-15.363-16.913-24.917c-4.131-9.554-6.197-19.753-6.197-30.598
		c0-10.845,2.066-21.044,6.197-30.598c4.132-9.554,9.813-17.857,17.042-24.917c7.23-7.057,15.662-12.652,25.305-16.784
		c9.639-4.132,19.968-6.197,30.986-6.197c10.498,0,20.568,1.937,30.211,5.81c9.639,3.874,18.159,9.255,25.563,16.139
		c7.399,6.887,13.254,15.105,17.559,24.659C1815.737,231.928,1817.892,242.474,1817.892,254.005z M1778.901,239.545
		c-2.929-9.465-8.134-17.082-15.621-22.852c-7.488-5.766-15.969-8.65-25.435-8.65c-9.296,0-17.647,2.885-25.047,8.65
		c-7.403,5.77-12.567,13.387-15.492,22.852H1778.901z"/>
	<path fill="#FFFFFF" d="M989.813,572.127h-43.896l-19.107-41.314H826.623l-19.366,41.314H763.36l97.604-206.57h31.244
		L989.813,572.127z M911.058,497.504l-34.342-74.366l-34.859,74.366H911.058z"/>
	<path fill="#FFFFFF" d="M1044.036,396.8h-38.731v-38.732h38.731V396.8z M1043.52,572.127h-37.699V422.622h37.699V572.127z"/>
	<path fill="#FFFFFF" d="M1184.762,438.373l-19.883,31.502c-3.615-3.958-7.617-7.444-12.007-10.458
		c-4.39-3.01-8.823-4.519-13.298-4.519c-2.413,0-5.035,0.561-7.876,1.678c-2.84,1.122-5.511,2.97-8.004,5.552
		c-2.498,2.582-4.607,5.983-6.326,10.199c-1.723,4.22-2.582,9.425-2.582,15.622v84.177h-37.183V422.88h37.183v16.009
		c4.474-6.367,9.425-11.272,14.847-14.718c5.423-3.441,11.49-5.164,18.204-5.164c6.54,0,12.951,1.767,19.237,5.293
		C1173.355,427.831,1179.25,432.522,1184.762,438.373z"/>
</g>
<g>
	<g>
		<path fill="#FFFFFF" d="M598.039,106.215L468.998,371.073c0,0-33.511,64.343-144.062,35.068l203.056-260.002
			C527.992,146.139,551.52,118.156,598.039,106.215z"/>
		<path fill="#FFFFFF" d="M285.793,454.262c0,0,75.553-4.077,112.823-35.088c0,0-31.389,7.752-81.988-7.31L18.053,341.629
			l-3.217,112.632H285.793z"/>
	</g>
	<path fill="#FFFFFF" d="M500.422,670.357H169.936c-45.22,0-87.848-17.724-120.03-49.906C17.723,588.27,0,545.642,0,500.422V169.936
		c0-45.22,17.723-87.848,49.906-120.03C82.088,17.723,124.715,0,169.936,0h330.486c45.22,0,87.848,17.723,120.03,49.906
		c32.183,32.182,49.906,74.81,49.906,120.03v330.486c0,45.22-17.723,87.848-49.906,120.029
		C588.27,652.634,545.642,670.357,500.422,670.357z M169.936,29.671c-77.342,0-140.265,62.922-140.265,140.265v330.486
		c0,77.342,62.922,140.264,140.265,140.264h330.486c77.342,0,140.265-62.922,140.265-140.264V169.936
		c0-77.342-62.922-140.265-140.265-140.265H169.936z"/>
</g>
</svg>
