<?xml version="1.0" encoding="utf-8"?>
<!-- Generator: Adobe Illustrator 16.0.0, SVG Export Plug-In . SVG Version: 6.00 Build 0)  -->
<!DOCTYPE svg PUBLIC "-//W3C//DTD SVG 1.1//EN" "http://www.w3.org/Graphics/SVG/1.1/DTD/svg11.dtd">
<svg version="1.1" id="Layer_1" xmlns="http://www.w3.org/2000/svg" xmlns:xlink="http://www.w3.org/1999/xlink" x="0px" y="0px"
	 width="1920px" height="763px" viewBox="0 0 1920 763" enable-background="new 0 0 1920 763" xml:space="preserve">
<g>
	<path fill="#C1272D" d="M966.554,271.658c0,7.746-1.679,15.105-5.035,22.077c-3.357,6.972-8.049,13.128-14.073,18.462
		c-6.028,5.337-13.169,9.598-21.432,12.781c-8.263,3.183-17.389,4.777-27.371,4.777c-8.953,0-17.002-0.516-24.143-1.549
		c-7.145-1.033-13.859-2.667-20.141-4.906c-6.286-2.235-12.31-5.12-18.075-8.65c-5.77-3.526-11.749-7.787-17.946-12.781
		l28.403-28.662c8.263,6.887,16.352,11.749,24.272,14.589c7.916,2.84,16.525,4.261,25.821,4.261c3.785,0,7.359-0.557,10.716-1.679
		c3.357-1.118,6.282-2.623,8.779-4.519c2.493-1.892,4.474-4.131,5.939-6.713c1.46-2.583,2.195-5.423,2.195-8.521
		c0-3.268-0.605-6.197-1.808-8.779c-1.207-2.583-3.357-5.076-6.455-7.488c-3.099-2.409-7.404-4.862-12.911-7.359
		c-5.511-2.494-12.568-5.293-21.174-8.392c-7.577-2.751-14.847-5.895-21.819-9.425c-6.972-3.526-13.084-7.787-18.333-12.782
		c-5.253-4.991-9.469-10.845-12.652-17.558c-3.188-6.714-4.777-14.629-4.777-23.756c0-8.779,1.763-16.869,5.293-24.272
		c3.526-7.399,8.348-13.726,14.46-18.979c6.108-5.249,13.254-9.336,21.432-12.265c8.174-2.925,16.998-4.39,26.467-4.39
		c15.836,0,29.178,2.066,40.023,6.197c10.845,4.131,20.484,10.159,28.92,18.075l-27.887,28.145
		c-5.165-4.991-10.934-8.819-17.3-11.49c-6.371-2.667-13.859-4.002-22.465-4.002c-3.962,0-7.617,0.605-10.974,1.808
		c-3.357,1.207-6.242,2.8-8.65,4.777c-2.413,1.981-4.349,4.305-5.81,6.972c-1.465,2.671-2.195,5.467-2.195,8.392
		c0,3.272,0.686,6.241,2.065,8.908c1.376,2.671,3.7,5.253,6.972,7.747c3.268,2.498,7.618,4.995,13.04,7.488
		c5.422,2.497,12.176,5.208,20.27,8.133c10.329,3.615,19.192,7.577,26.596,11.878c7.399,4.305,13.427,9.038,18.075,14.202
		c4.648,5.165,8.089,10.974,10.328,17.43C965.432,256.294,966.554,263.569,966.554,271.658z"/>
	<path fill="#C1272D" d="M1143.944,251.001c0,2.413-0.129,4.906-0.387,7.488c-0.259,2.582-0.562,5.253-0.904,8.004h-119.294
		c1.376,4.305,3.313,8.392,5.81,12.265c2.493,3.874,5.552,7.23,9.167,10.07c3.614,2.84,7.702,5.08,12.265,6.714
		c4.56,1.638,9.595,2.453,15.105,2.453c6.714,0,13.427-1.162,20.141-3.486c6.714-2.324,12.306-5.462,16.784-9.425l23.497,23.498
		c-10.328,7.747-20.443,13.213-30.34,16.396c-9.901,3.183-20.358,4.777-31.373,4.777c-11.191,0-21.649-2.065-31.373-6.197
		c-9.728-4.131-18.163-9.724-25.305-16.784c-7.146-7.056-12.781-15.363-16.913-24.917c-4.131-9.554-6.197-19.753-6.197-30.598
		c0-10.845,2.066-21.044,6.197-30.598c4.132-9.554,9.813-17.857,17.042-24.917c7.23-7.057,15.662-12.652,25.305-16.784
		c9.639-4.132,19.968-6.197,30.986-6.197c10.498,0,20.568,1.937,30.211,5.81c9.639,3.874,18.159,9.255,25.563,16.139
		c7.399,6.887,13.254,15.105,17.559,24.659C1141.79,228.924,1143.944,239.47,1143.944,251.001z M1104.954,236.541
		c-2.929-9.465-8.134-17.082-15.621-22.852c-7.488-5.766-15.969-8.65-25.435-8.65c-9.296,0-17.647,2.885-25.047,8.65
		c-7.403,5.77-12.567,13.387-15.492,22.852H1104.954z"/>
	<path fill="#C1272D" d="M1304.294,206.072h-15.751c3.958,7.746,5.939,16.009,5.939,24.788c0,6.714-1.251,13.213-3.744,19.495
		c-2.498,6.286-6.068,12.007-10.716,17.171c-4.648,5.164-10.288,9.554-16.913,13.169c-6.629,3.615-14.072,6.027-22.336,7.229
		c-5.681,0.864-9.94,2.195-12.781,4.002c-2.84,1.808-4.261,3.615-4.261,5.422c0,1.808,1.421,3.486,4.261,5.035
		c2.841,1.549,7.101,2.583,12.781,3.099c19.277,1.723,34.214,6.544,44.801,14.46c10.586,7.916,15.88,18.418,15.88,31.502
		c0,6.713-1.63,12.911-4.891,18.591c-3.26,5.681-7.932,10.587-14.02,14.718s-13.419,7.314-21.997,9.554
		c-8.577,2.235-18.18,3.357-28.811,3.357c-10.809,0-20.544-1.122-29.202-3.357c-8.662-2.239-16.082-5.382-22.255-9.425
		c-6.173-4.046-10.89-8.908-14.149-14.589s-4.886-11.966-4.886-18.85c0-10.329,2.945-18.979,8.84-25.95s15.505-12.176,28.831-15.622
		c-4.131-1.549-7.101-3.655-8.908-6.326c-1.808-2.667-2.627-5.378-2.453-8.134c0.17-2.751,1.331-5.378,3.486-7.875
		c2.15-2.493,5.208-4.43,9.179-5.81c-4.511-2.066-8.8-4.732-12.875-8.005c-4.074-3.268-7.758-7.056-11.051-11.361
		c-3.292-4.301-5.895-9.122-7.799-14.46c-1.908-5.333-2.86-11.014-2.86-17.042c0-8.089,1.719-15.662,5.164-22.723
		c3.441-7.057,8.09-13.209,13.943-18.462c5.851-5.249,12.653-9.381,20.399-12.395c7.746-3.01,15.92-4.519,24.53-4.519
		c8.432,0,16.268,1.291,23.497,3.873h51.126V206.072z M1264.271,351.446c0-6.027-3.046-10.417-9.131-13.169
		c-6.088-2.755-13.931-4.131-23.533-4.131c-10.288,0-18.394,1.46-24.309,4.39c-5.914,2.925-8.872,7.23-8.872,12.911
		c0,5.85,3.087,10.24,9.26,13.169c6.173,2.925,14.145,4.39,23.921,4.39c9.941,0,17.873-1.42,23.788-4.261
		C1261.31,361.903,1264.271,357.47,1264.271,351.446z M1257.3,230.86c0-3.784-0.727-7.314-2.175-10.586
		c-1.452-3.268-3.413-6.153-5.883-8.65c-2.473-2.493-5.374-4.474-8.698-5.939c-3.324-1.46-6.863-2.195-10.615-2.195
		s-7.246,0.734-10.485,2.195c-3.244,1.465-6.101,3.446-8.569,5.939c-2.474,2.498-4.435,5.382-5.883,8.65
		c-1.452,3.272-2.175,6.802-2.175,10.586c0,3.789,0.723,7.359,2.175,10.716c1.448,3.357,3.409,6.286,5.883,8.779
		c2.469,2.498,5.325,4.479,8.569,5.939c3.239,1.464,6.733,2.195,10.485,2.195s7.291-0.73,10.615-2.195
		c3.324-1.46,6.226-3.441,8.698-5.939c2.47-2.493,4.431-5.422,5.883-8.779C1256.573,238.22,1257.3,234.649,1257.3,230.86z"/>
	<path fill="#C1272D" d="M1459.738,176.636l-56.032,149.505h-36.666l-56.291-149.505h40.798l33.826,100.187l33.825-100.187H1459.738
		z"/>
	<path fill="#C1272D" d="M1515.25,150.556h-38.731v-38.732h38.731V150.556z M1514.733,325.883h-37.699V176.377h37.699V325.883z"/>
	<path fill="#C1272D" d="M1611.821,325.108c-2.93,1.375-6.242,2.493-9.941,3.356c-3.704,0.859-7.532,1.291-11.49,1.291
		c-5.512,0-10.805-0.734-15.881-2.195c-5.079-1.464-9.513-3.829-13.298-7.101c-3.788-3.268-6.802-7.529-9.037-12.782
		c-2.239-5.249-3.356-11.575-3.356-18.979V111.566h37.957v170.678c0,6.197,1.246,10.458,3.744,12.782
		c2.493,2.324,5.463,3.486,8.908,3.486c4.301,0,8.433-1.291,12.395-3.873V325.108z"/>
	<path fill="#C1272D" d="M1692.898,325.108c-2.93,1.375-6.242,2.493-9.941,3.356c-3.704,0.859-7.532,1.291-11.49,1.291
		c-5.512,0-10.805-0.734-15.881-2.195c-5.079-1.464-9.513-3.829-13.298-7.101c-3.788-3.268-6.802-7.529-9.037-12.782
		c-2.239-5.249-3.356-11.575-3.356-18.979V111.566h37.957v170.678c0,6.197,1.246,10.458,3.744,12.782
		c2.493,2.324,5.463,3.486,8.908,3.486c4.301,0,8.433-1.291,12.395-3.873V325.108z"/>
	<path fill="#C1272D" d="M1865.124,251.001c0,2.413-0.129,4.906-0.387,7.488c-0.259,2.582-0.562,5.253-0.904,8.004h-119.294
		c1.376,4.305,3.313,8.392,5.81,12.265c2.493,3.874,5.552,7.23,9.167,10.07c3.614,2.84,7.702,5.08,12.265,6.714
		c4.56,1.638,9.595,2.453,15.105,2.453c6.714,0,13.427-1.162,20.141-3.486c6.714-2.324,12.306-5.462,16.784-9.425l23.497,23.498
		c-10.328,7.747-20.443,13.213-30.34,16.396c-9.901,3.183-20.358,4.777-31.373,4.777c-11.191,0-21.649-2.065-31.373-6.197
		c-9.728-4.131-18.163-9.724-25.305-16.784c-7.146-7.056-12.781-15.363-16.913-24.917c-4.131-9.554-6.197-19.753-6.197-30.598
		c0-10.845,2.066-21.044,6.197-30.598c4.132-9.554,9.813-17.857,17.042-24.917c7.23-7.057,15.662-12.652,25.305-16.784
		c9.639-4.132,19.968-6.197,30.986-6.197c10.498,0,20.568,1.937,30.211,5.81c9.639,3.874,18.159,9.255,25.563,16.139
		c7.399,6.887,13.254,15.105,17.559,24.659C1862.97,228.924,1865.124,239.47,1865.124,251.001z M1826.134,236.541
		c-2.929-9.465-8.134-17.082-15.621-22.852c-7.488-5.766-15.969-8.65-25.435-8.65c-9.296,0-17.647,2.885-25.047,8.65
		c-7.403,5.77-12.567,13.387-15.492,22.852H1826.134z"/>
	<path fill="#F15A24" d="M1037.046,569.123h-43.896l-19.107-41.314H873.855l-19.366,41.314h-43.896l97.604-206.57h31.244
		L1037.046,569.123z M958.291,494.5l-34.342-74.366L889.089,494.5H958.291z"/>
	<path fill="#F15A24" d="M1091.269,393.796h-38.731v-38.732h38.731V393.796z M1090.752,569.123h-37.699V419.618h37.699V569.123z"/>
	<path fill="#F15A24" d="M1231.994,435.369l-19.883,31.502c-3.615-3.958-7.617-7.444-12.007-10.458
		c-4.39-3.01-8.823-4.519-13.298-4.519c-2.413,0-5.035,0.561-7.876,1.678c-2.84,1.122-5.511,2.97-8.004,5.552
		c-2.498,2.582-4.607,5.983-6.326,10.199c-1.723,4.22-2.582,9.425-2.582,15.622v84.177h-37.183V419.876h37.183v16.009
		c4.474-6.367,9.425-11.272,14.847-14.718c5.423-3.441,11.49-5.164,18.204-5.164c6.54,0,12.951,1.767,19.237,5.293
		C1220.588,424.827,1226.482,429.519,1231.994,435.369z"/>
</g>
<g>
	<path fill="#F15A24" d="M872.161,674.387h-14.104v-32.212h-28.663v32.212H815.29v-72.704h14.104v28.846h28.663v-28.846h14.104
		V674.387z"/>
	<path fill="#F15A24" d="M962.516,674.387h-48.044v-72.704h48.044v11.647h-34.213v17.38h33.758v11.374h-33.758v20.019h34.213
		V674.387z"/>
	<path fill="#F15A24" d="M1051.324,674.387h-49.228v-72.704h14.377v59.055h34.851V674.387z"/>
	<path fill="#F15A24" d="M1102.28,674.387h-14.104v-72.704h14.104V674.387z"/>
	<path fill="#F15A24" d="M1251.142,674.387h-49.228v-72.704h14.377v59.055h34.851V674.387z"/>
	<path fill="#F15A24" d="M1302.098,674.387h-14.104v-72.704h14.104V674.387z"/>
	<path fill="#F15A24" d="M1404.918,674.387h-13.831l-32.849-51.047v51.047h-13.831v-72.795h15.833l30.847,47.499v-47.499h13.831
		V674.387z"/>
	<path fill="#F15A24" d="M1495.272,674.387h-48.045v-72.704h48.045v11.647h-34.214v17.38h33.759v11.374h-33.759v20.019h34.214
		V674.387z"/>
	<path fill="#F15A24" d="M1583.443,655.278c0,2.729-0.592,5.323-1.774,7.779c-1.183,2.457-2.837,4.627-4.959,6.507
		c-2.124,1.881-4.641,3.382-7.553,4.504s-6.128,1.684-9.646,1.684c-3.154,0-5.991-0.183-8.508-0.546
		c-2.518-0.364-4.884-0.94-7.098-1.729c-2.215-0.787-4.338-1.804-6.369-3.048c-2.033-1.243-4.141-2.744-6.324-4.504l10.01-10.101
		c2.911,2.427,5.762,4.14,8.553,5.141c2.79,1.001,5.824,1.502,9.1,1.502c1.334,0,2.594-0.196,3.776-0.592
		c1.183-0.394,2.214-0.924,3.094-1.592c0.879-0.667,1.576-1.456,2.093-2.366c0.515-0.91,0.773-1.911,0.773-3.003
		c0-1.151-0.213-2.184-0.637-3.094c-0.426-0.91-1.184-1.788-2.275-2.639c-1.092-0.849-2.608-1.713-4.55-2.594
		c-1.941-0.878-4.429-1.865-7.461-2.957c-2.67-0.97-5.232-2.077-7.689-3.321c-2.456-1.242-4.61-2.744-6.46-4.504
		c-1.852-1.759-3.337-3.822-4.459-6.188c-1.123-2.366-1.684-5.155-1.684-8.372c0-3.094,0.622-5.944,1.865-8.553
		c1.243-2.607,2.942-4.837,5.096-6.688c2.153-1.85,4.671-3.29,7.553-4.322c2.881-1.03,5.99-1.547,9.327-1.547
		c5.58,0,10.282,0.729,14.104,2.185c3.822,1.455,7.219,3.58,10.191,6.369l-9.827,9.918c-1.82-1.759-3.854-3.107-6.097-4.049
		c-2.245-0.939-4.884-1.41-7.916-1.41c-1.396,0-2.685,0.213-3.867,0.637c-1.184,0.425-2.2,0.986-3.049,1.684
		c-0.85,0.698-1.532,1.517-2.047,2.457c-0.517,0.94-0.773,1.926-0.773,2.957c0,1.153,0.241,2.199,0.728,3.139
		c0.485,0.941,1.304,1.852,2.457,2.73c1.151,0.88,2.685,1.76,4.595,2.639c1.911,0.88,4.291,1.835,7.144,2.866
		c3.64,1.273,6.763,2.67,9.372,4.186c2.607,1.518,4.731,3.185,6.369,5.005c1.639,1.819,2.851,3.867,3.641,6.142
		C1583.048,649.864,1583.443,652.428,1583.443,655.278z"/>
</g>
<g>
	<path fill="none" stroke="#F15A24" stroke-width="29.6713" stroke-miterlimit="10" d="M702.754,549.083
		c0,85.305-69.795,155.1-155.1,155.1H217.168c-85.305,0-155.1-69.795-155.1-155.1V218.597c0-85.305,69.795-155.1,155.1-155.1
		h330.486c85.305,0,155.1,69.795,155.1,155.1V549.083z"/>
</g>
<g>
	<g>
		
			<rect x="311.583" y="328.913" transform="matrix(0.3707 0.9288 -0.9288 0.3707 540.5289 -126.0375)" fill="#C1272D" width="103.366" height="13.837"/>
		<g>
			<path fill="#C1272D" d="M266.477,111.97c-3.75-9.395,0.424-19.971,9.274-23.503c8.85-3.532,19.158,1.265,22.908,10.659
				l71.8,179.91c3.75,9.395-0.424,19.971-9.274,23.503c-8.851,3.532-19.159-1.265-22.908-10.659L266.477,111.97z"/>
		</g>
	</g>
	<g>
		
			<rect x="349.883" y="424.923" transform="matrix(-0.3707 -0.9288 0.9288 -0.3707 149.3319 964.8705)" fill="#C1272D" width="103.366" height="13.837"/>
		<g>
			<path fill="#C1272D" d="M498.356,655.702c3.75,9.395-0.424,19.971-9.274,23.503c-8.85,3.532-19.158-1.265-22.908-10.659
				l-71.8-179.91c-3.75-9.395,0.424-19.971,9.274-23.502c8.85-3.532,19.158,1.265,22.908,10.659L498.356,655.702z"/>
		</g>
	</g>
	<g>
		
			<rect x="378.727" y="357.764" transform="matrix(-0.9288 0.3707 -0.3707 -0.9288 965.3352 543.848)" fill="#C1272D" width="103.367" height="13.837"/>
		<g>
			<path fill="#C1272D" d="M654.271,267.891c9.395-3.75,19.971,0.424,23.503,9.274s-1.265,19.158-10.659,22.908l-179.91,71.801
				c-9.395,3.75-19.971-0.424-23.503-9.274c-3.532-8.85,1.265-19.158,10.659-22.908L654.271,267.891z"/>
		</g>
	</g>
	<g>
		
			<rect x="282.724" y="396.078" transform="matrix(0.9288 -0.3707 0.3707 0.9288 -125.5549 152.6583)" fill="#C1272D" width="103.366" height="13.837"/>
		<g>
			<path fill="#C1272D" d="M110.546,499.787c-9.395,3.75-19.971-0.424-23.503-9.274c-3.532-8.85,1.264-19.158,10.659-22.908
				l179.91-71.801c9.395-3.75,19.971,0.424,23.503,9.274c3.532,8.85-1.264,19.159-10.659,22.908L110.546,499.787z"/>
		</g>
	</g>
	<circle fill="#FFFFFF" cx="382.409" cy="383.839" r="37.336"/>
	<circle fill="#F15A24" cx="382.408" cy="383.839" r="28.356"/>
</g>
</svg>
