<?xml version="1.0" encoding="utf-8"?>
<!-- Generator: Adobe Illustrator 16.0.0, SVG Export Plug-In . SVG Version: 6.00 Build 0)  -->
<!DOCTYPE svg PUBLIC "-//W3C//DTD SVG 1.1//EN" "http://www.w3.org/Graphics/SVG/1.1/DTD/svg11.dtd">
<svg version="1.1" id="Layer_1" xmlns="http://www.w3.org/2000/svg" xmlns:xlink="http://www.w3.org/1999/xlink" x="0px" y="0px"
	 width="3533.953px" height="755.477px" viewBox="0 0 3533.953 755.477" enable-background="new 0 0 3533.953 755.477"
	 xml:space="preserve">
<path fill="#FFFFFF" d="M377.739,0C169.12,0,0,169.118,0,377.738c0,208.62,169.12,377.739,377.739,377.739
	c208.619,0,377.738-169.119,377.738-377.739C755.477,169.118,586.357,0,377.739,0z M377.739,667.821
	c-160.208,0-290.083-129.873-290.083-290.083c0-160.208,129.875-290.083,290.083-290.083c160.208,0,290.083,129.875,290.083,290.083
	C667.822,537.948,537.947,667.821,377.739,667.821z"/>
<polygon fill="#FFFFFF" points="91.439,378.527 282.673,271.322 282.673,490.461 "/>
<g>
	<path fill="#FFFFFF" d="M1050.413,578.379c-29.939,0-54.636-2.875-74.063-8.627c-19.441-5.746-33.625-11.841-42.549-18.289
		l21.273-69.016c4.729,3.688,10.895,7.591,18.516,11.732c7.609,4.141,16.018,7.938,25.215,11.388
		c9.184,3.451,18.909,6.213,29.152,8.282c10.243,2.07,20.611,3.107,31.124,3.107c21.533,0,36.761-4.487,45.701-13.459
		c8.925-8.973,13.396-19.208,13.396-30.713c0-6.901-1.456-12.769-4.337-17.6c-2.891-4.832-6.697-8.973-11.425-12.423
		c-4.725-3.45-10.513-6.438-17.333-8.971c-6.832-2.523-14.185-4.939-22.063-7.247c-11.031-3.214-21.547-6.665-31.518-10.352
		c-9.984-3.678-18.908-8.509-26.79-14.494c-7.88-5.975-14.181-13.221-18.911-21.74c-4.726-8.509-7.088-19.433-7.088-32.783
		c0-12.423,2.484-25.99,7.48-40.72c4.99-14.72,13.396-28.298,25.219-40.721c11.818-12.422,27.574-22.776,47.273-31.058
		c19.699-8.281,43.988-12.422,72.885-12.422c24.154,0,46.217,2.652,66.186,7.937c19.958,5.295,34.139,10.935,42.549,16.909
		l-21.275,67.636c-3.681-4.141-8.668-8.281-14.969-12.422c-6.305-4.141-13.533-7.819-21.667-11.043
		c-8.153-3.213-16.819-5.866-26.005-7.938c-9.197-2.07-18.516-3.106-27.971-3.106c-8.407,0-16.682,0.928-24.821,2.762
		c-8.15,1.843-15.362,4.605-21.668,8.282c-6.301,3.688-11.425,8.281-15.362,13.803c-3.94,5.521-5.912,12.197-5.912,20.015
		c0,7.365,1.834,13.35,5.518,17.944c3.668,4.605,8.788,8.52,15.363,11.733c6.564,3.224,14.184,6.104,22.849,8.627
		c8.669,2.535,17.989,5.414,27.974,8.627c9.975,3.225,19.699,6.794,29.155,10.698c9.452,3.915,17.849,8.973,25.212,15.184
		c7.35,6.211,13.259,14.148,17.73,23.811c4.456,9.663,6.694,21.859,6.694,36.579c0,13.803-2.497,27.845-7.485,42.102
		c-4.996,14.266-13.665,27.152-26.001,38.648c-12.348,11.506-28.759,20.944-49.245,28.297
		C1107.937,574.69,1081.932,578.379,1050.413,578.379z"/>
	<path fill="#FFFFFF" d="M1271.032,571.478L1375.04,53.853h90.612l-64.609,319.204l141.039-144.591h100.855L1481.411,391
		l91.401,180.478h-100.068l-79.579-159.083l-31.519,159.083H1271.032z"/>
	<path fill="#FFFFFF" d="M1717.002,738.5h-89.825l116.614-187.726l-82.734-322.31h100.068l42.548,231.206l138.677-231.206h99.281
		L1717.002,738.5z"/>
	<path fill="#FFFFFF" d="M2396.194,571.478h-74.066l-25.998-232.585l-119.765,232.585h-73.28l-34.67-343.013h86.675l9.453,249.841
		l115.037-241.559h74.854l16.549,241.559l111.098-249.841h86.678L2396.194,571.478z"/>
	<path fill="#FFFFFF" d="M2931.984,318.188c0,18.407-4.456,34.746-13.357,49.002c-8.901,14.266-21.471,26.226-37.699,35.888
		c-16.239,9.663-35.74,16.909-58.517,21.74c-22.772,4.832-48.036,7.248-75.787,7.248c-13.616,0-26.062-0.572-37.315-1.725
		c-11.254-1.144-19.762-2.179-25.523-3.106c0.52,16.004,3.535,29.473,9.026,40.418c5.487,10.945,12.554,19.724,21.196,26.345
		c8.633,6.621,18.311,11.292,29.047,14.03c10.721,2.738,22.108,4.099,34.15,4.099c8.372,0,17.656-0.669,27.857-2.019
		c10.208-1.337,20.55-3.127,31.016-5.37c10.467-2.23,20.793-4.809,31-7.721c10.207-2.911,19.503-6.157,27.875-9.738l-8.668,64.878
		c-15.243,6.446-34.016,12.421-56.336,17.943c-22.337,5.519-46.367,8.28-72.098,8.28c-28.896,0-53.974-3.793-75.248-11.388
		c-21.273-7.591-38.745-18.052-52.397-31.4c-13.668-13.339-23.912-28.987-30.729-46.933c-6.835-17.945-10.243-37.268-10.243-57.974
		c0-26.68,5.124-52.562,15.367-77.644c10.243-25.072,24.943-47.277,44.124-66.601c19.164-19.325,42.154-34.854,68.942-46.586
		c26.792-11.733,56.729-17.6,89.826-17.6c40.968,0,71.958,8.746,92.973,26.226C2921.471,265.971,2931.984,289.2,2931.984,318.188z
		 M2803.012,288.509c-14.109,0-27.186,2.535-39.202,7.592c-12.03,5.069-22.751,11.733-32.159,20.015
		c-9.404,8.282-17.503,17.719-24.3,28.297c-6.798,10.589-12.031,21.168-15.684,31.747c5.746,1.381,11.631,2.416,17.642,3.106
		c6.006,0.691,14.243,1.035,24.694,1.035c23.528,0,43.128-1.726,58.812-5.176c15.685-3.451,28.099-7.937,37.243-13.458
		c9.146-5.521,15.55-11.614,19.218-18.29c3.658-6.664,5.492-13.22,5.492-19.669c0-7.355-1.834-13.458-5.492-18.29
		c-3.668-4.83-8.115-8.39-13.331-10.697c-5.233-2.298-10.85-3.904-16.855-4.832C2813.079,288.974,2807.711,288.509,2803.012,288.509
		z"/>
	<path fill="#FFFFFF" d="M3059.619,578.379c-29.938,0-54.637-2.875-74.065-8.627c-19.441-5.746-33.622-11.841-42.549-18.289
		l21.273-69.016c4.73,3.688,10.897,7.591,18.519,11.732c7.61,4.141,16.02,7.938,25.217,11.388
		c9.182,3.451,18.906,6.213,29.149,8.282c10.243,2.07,20.611,3.107,31.124,3.107c21.533,0,36.762-4.487,45.699-13.459
		c8.928-8.973,13.398-19.208,13.398-30.713c0-6.901-1.456-12.769-4.337-17.6c-2.892-4.832-6.693-8.973-11.425-12.423
		c-4.725-3.45-10.514-6.438-17.331-8.971c-6.834-2.523-14.187-4.939-22.067-7.247c-11.03-3.214-21.544-6.665-31.512-10.352
		c-9.989-3.678-18.912-8.509-26.792-14.494c-7.881-5.975-14.182-13.221-18.913-21.74c-4.724-8.509-7.087-19.433-7.087-32.783
		c0-12.423,2.486-25.99,7.481-40.72c4.989-14.72,13.398-28.298,25.217-40.721c11.818-12.422,27.575-22.776,47.274-31.058
		c19.7-8.281,43.988-12.422,72.885-12.422c24.155,0,46.218,2.652,66.187,7.937c19.958,5.295,34.139,10.935,42.547,16.909
		l-21.273,67.636c-3.679-4.141-8.669-8.281-14.969-12.422c-6.305-4.141-13.533-7.819-21.668-11.043
		c-8.15-3.213-16.818-5.866-26.006-7.938c-9.196-2.07-18.517-3.106-27.967-3.106c-8.409,0-16.685,0.928-24.824,2.762
		c-8.15,1.843-15.363,4.605-21.668,8.282c-6.301,3.688-11.425,8.281-15.363,13.803c-3.942,5.521-5.912,12.197-5.912,20.015
		c0,7.365,1.836,13.35,5.519,17.944c3.668,4.605,8.788,8.52,15.363,11.733c6.564,3.224,14.186,6.104,22.849,8.627
		c8.668,2.535,17.99,5.414,27.975,8.627c9.974,3.225,19.699,6.794,29.153,10.698c9.457,3.915,17.851,8.973,25.213,15.184
		c7.353,6.211,13.259,14.148,17.73,23.811c4.456,9.663,6.694,21.859,6.694,36.579c0,13.803-2.497,27.845-7.481,42.102
		c-5,14.266-13.669,27.152-26.005,38.648c-12.347,11.506-28.756,20.944-49.242,28.297
		C3117.141,574.69,3091.137,578.379,3059.619,578.379z"/>
	<path fill="#FFFFFF" d="M3454.374,578.379h-63.035c-14.187,0-26.398-1.845-36.643-5.518c-10.242-3.68-18.651-8.627-25.211-14.841
		c-6.575-6.213-11.302-13.459-14.182-21.74c-2.896-8.282-4.337-17.019-4.337-26.226c0-6.44,0.788-12.876,2.363-19.326
		l40.185-198.769h-49.635l20.481-63.495h41.761l16.548-77.988l92.186-8.283l-18.119,86.271h77.217l-12.606,63.495h-77.216
		l-33.094,162.881c-1.579,7.829-2.895,14.838-3.942,21.05c-1.057,6.212-1.575,11.387-1.575,15.529
		c0,10.588,3.373,17.026,10.135,19.324c6.746,2.308,18.699,3.45,35.838,3.45h24.156L3454.374,578.379z"/>
</g>
</svg>
