<?xml version="1.0" encoding="utf-8"?>
<!-- Generator: Adobe Illustrator 16.0.0, SVG Export Plug-In . SVG Version: 6.00 Build 0)  -->
<!DOCTYPE svg PUBLIC "-//W3C//DTD SVG 1.1//EN" "http://www.w3.org/Graphics/SVG/1.1/DTD/svg11.dtd">
<svg version="1.1" id="Layer_1" xmlns="http://www.w3.org/2000/svg" xmlns:xlink="http://www.w3.org/1999/xlink" x="0px" y="0px"
	 width="1825.328px" height="401.033px" viewBox="0 0 1825.328 401.033" enable-background="new 0 0 1825.328 401.033"
	 xml:space="preserve">
<g>
	<path fill="#041C21" d="M516.731,61.664h53.423l23.869,106.562h0.569l25.575-106.562h61.379l25.007,106.562h0.568l23.301-106.562
		h49.445l-38.972,127.703c-3.689,12.089-14.844,20.347-27.483,20.347h-15.318c-13.353,0-24.947-9.199-27.982-22.203l-19.824-84.927
		h-0.568l-22.504,85.694c-3.316,12.63-14.733,21.436-27.791,21.436h-15.993c-12.62,0-23.763-8.235-27.469-20.299L516.731,61.664z"/>
	<path fill="#041C21" d="M882.454,209.713c-0.284-7.957-1.137-15.628-1.137-23.301h-0.568
		c-11.651,18.47-25.859,26.712-46.887,26.712c-29.27,0-55.413-14.493-55.413-46.604c0-45.182,49.161-50.581,76.441-50.581
		c8.241,0,17.334,0.853,23.869,1.989c-0.284-20.175-15.344-25.574-33.815-25.574c-16.481,0-32.963,3.126-47.171,11.082
		l-0.853-34.668c18.187-7.389,37.226-10.514,59.107-10.514c37.793,0,70.472,16.197,70.472,61.379v55.128
		c0,11.651,0.568,23.302,2.841,34.952H882.454z M847.217,179.024c19.323,0,31.542-17.618,31.542-34.952
		c-6.535-0.284-13.923-0.853-21.596-0.853c-17.334,0-30.974,5.399-30.974,19.608C826.188,173.057,835.282,179.024,847.217,179.024"
		/>
	<path fill="#041C21" d="M946.677,230.458c6.819,2.273,13.071,3.126,20.176,3.126c12.503,0,22.165-7.389,25.858-20.46
		l-59.958-151.46h55.128l31.826,96.616h0.568l30.406-96.616h51.148l-54.275,137.82c-14.492,37.226-25.574,73.315-72.461,73.315
		c-10.799,0-21.313-1.137-31.826-3.41L946.677,230.458z"/>
	<path fill="#041C21" d="M1106.095,61.664h47.171v26.712h0.568c10.23-20.744,31.827-30.121,55.129-30.121
		c40.919,0,63.368,38.93,63.368,74.735c0,43.761-23.586,80.134-67.631,80.134c-17.902,0-37.226-6.536-46.888-24.154h-0.568v80.419
		h-19.297c-17.592,0-31.853-14.261-31.853-31.853V61.664z M1188.503,97.469c-18.755,0-31.259,16.482-31.259,38.646
		c0,21.597,14.209,37.794,31.259,37.794c19.323,0,30.974-16.197,30.974-39.783C1219.477,114.519,1208.395,97.469,1188.503,97.469"/>
	<path fill="#041C21" d="M1277.167,135.831c0-49.16,37.225-77.577,86.102-77.577c48.876,0,86.101,28.417,86.101,77.577
		c0,48.876-37.225,77.293-86.101,77.293C1314.392,213.124,1277.167,184.707,1277.167,135.831 M1396.516,135.831
		c0-22.165-9.662-41.772-33.247-41.772c-23.586,0-33.247,19.607-33.247,41.772c0,21.881,9.661,41.488,33.247,41.488
		C1386.854,177.319,1396.516,157.712,1396.516,135.831"/>
	<path fill="#041C21" d="M1518.426,37.51h-51.148V0h51.148V37.51z M1467.277,61.664h51.148v118.539
		c0,16.298-13.212,29.511-29.511,29.511h-21.638V61.664z"/>
	<path fill="#041C21" d="M1543.435,61.664h46.604v27.28h0.568c10.229-21.313,30.689-30.69,53.991-30.69
		c40.351,0,56.548,28.417,56.548,59.106v92.354h-51.149v-71.61c0-27.848-9.662-37.225-23.585-37.225
		c-21.028,0-31.827,14.492-31.827,46.318v62.517h-51.149V61.664z"/>
	<path fill="#041C21" d="M1707.116,61.664h30.121V28.417l50.297-15.629v48.876h35.805v35.805h-35.805v54.559
		c0,17.903,4.263,26.996,20.46,26.996c5.115,0,10.515-1.136,15.629-1.989l1.705,33.247c-9.661,1.137-19.323,2.842-32.11,2.842
		c-45.75,0-56.833-20.176-56.833-55.412V97.469h-29.269V61.664z"/>
	<polygon fill="#FAA918" points="0,101.161 139.474,101.161 281.272,301.073 141.798,301.073 	"/>
	<polygon fill="#FAA918" points="586.564,301.073 399.049,36.073 259.577,36.073 447.09,301.073 	"/>
	<polygon fill="#FAA918" points="433.915,301.073 364.185,401.033 224.705,401.033 294.444,301.073 224.705,201.113 
		364.185,201.113 	"/>
</g>
</svg>
