<?xml version="1.0" encoding="utf-8"?>
<!-- Generator: Adobe Illustrator 16.0.0, SVG Export Plug-In . SVG Version: 6.00 Build 0)  -->
<!DOCTYPE svg PUBLIC "-//W3C//DTD SVG 1.1//EN" "http://www.w3.org/Graphics/SVG/1.1/DTD/svg11.dtd">
<svg version="1.1" id="Layer_1" xmlns="http://www.w3.org/2000/svg" xmlns:xlink="http://www.w3.org/1999/xlink" x="0px" y="0px"
	 width="1948.328px" height="401.033px" viewBox="0 0 1948.328 401.033" enable-background="new 0 0 1948.328 401.033"
	 xml:space="preserve">
<g>
	<path fill="#FFFFFF" d="M639.73,143.664h53.424l23.869,106.562h0.568l25.575-106.562h61.379l25.007,106.562h0.568l23.301-106.562
		h49.445l-38.973,127.703c-3.688,12.089-14.844,20.347-27.482,20.347h-15.318c-13.353,0-24.946-9.199-27.981-22.203l-19.824-84.927
		h-0.567l-22.505,85.694c-3.315,12.63-14.732,21.436-27.791,21.436h-15.993c-12.619,0-23.763-8.234-27.469-20.299L639.73,143.664z"
		/>
	<path fill="#FFFFFF" d="M1005.454,291.713c-0.284-7.957-1.138-15.628-1.138-23.301h-0.567
		c-11.651,18.47-25.859,26.712-46.887,26.712c-29.271,0-55.413-14.493-55.413-46.604c0-45.183,49.16-50.582,76.44-50.582
		c8.241,0,17.334,0.853,23.869,1.989c-0.284-20.175-15.344-25.574-33.815-25.574c-16.48,0-32.963,3.126-47.17,11.082l-0.854-34.668
		c18.188-7.389,37.226-10.514,59.107-10.514c37.793,0,70.472,16.197,70.472,61.379v55.128c0,11.651,0.567,23.303,2.841,34.952
		H1005.454z M970.217,261.024c19.323,0,31.542-17.618,31.542-34.952c-6.535-0.284-13.923-0.854-21.596-0.854
		c-17.334,0-30.974,5.399-30.974,19.608C949.188,255.058,958.282,261.024,970.217,261.024"/>
	<path fill="#FFFFFF" d="M1069.677,312.458c6.819,2.273,13.071,3.126,20.177,3.126c12.502,0,22.164-7.39,25.857-20.46
		l-59.958-151.46h55.128l31.826,96.616h0.568l30.405-96.616h51.148l-54.275,137.819c-14.492,37.227-25.574,73.315-72.461,73.315
		c-10.799,0-21.313-1.137-31.826-3.409L1069.677,312.458z"/>
	<path fill="#FFFFFF" d="M1229.095,143.664h47.171v26.712h0.568c10.23-20.744,31.827-30.121,55.129-30.121
		c40.919,0,63.368,38.93,63.368,74.735c0,43.761-23.586,80.134-67.631,80.134c-17.902,0-37.226-6.536-46.888-24.154h-0.568v80.42
		h-19.297c-17.592,0-31.854-14.262-31.854-31.854L1229.095,143.664L1229.095,143.664z M1311.503,179.469
		c-18.755,0-31.259,16.482-31.259,38.646c0,21.597,14.209,37.794,31.259,37.794c19.323,0,30.974-16.197,30.974-39.783
		C1342.477,196.519,1331.395,179.469,1311.503,179.469"/>
	<path fill="#FFFFFF" d="M1400.167,217.831c0-49.16,37.225-77.577,86.103-77.577c48.875,0,86.101,28.417,86.101,77.577
		c0,48.876-37.226,77.293-86.101,77.293C1437.392,295.124,1400.167,266.707,1400.167,217.831 M1519.516,217.831
		c0-22.165-9.662-41.772-33.246-41.772c-23.587,0-33.247,19.607-33.247,41.772c0,21.881,9.661,41.488,33.247,41.488
		C1509.854,259.319,1519.516,239.712,1519.516,217.831"/>
	<path fill="#FFFFFF" d="M1641.426,119.51h-51.147V82h51.147V119.51z M1590.277,143.664h51.147v118.539
		c0,16.298-13.212,29.511-29.511,29.511h-21.639v-148.05H1590.277z"/>
	<path fill="#FFFFFF" d="M1666.436,143.664h46.604v27.28h0.568c10.229-21.313,30.688-30.69,53.99-30.69
		c40.352,0,56.549,28.417,56.549,59.106v92.354h-51.149v-71.609c0-27.849-9.662-37.226-23.585-37.226
		c-21.028,0-31.827,14.492-31.827,46.318v62.517h-51.149V143.664L1666.436,143.664z"/>
	<path fill="#FFFFFF" d="M1830.116,143.664h30.12v-33.247l50.298-15.629v48.876h35.805v35.805h-35.805v54.56
		c0,17.902,4.263,26.996,20.46,26.996c5.115,0,10.515-1.137,15.629-1.989l1.705,33.247c-9.661,1.137-19.323,2.842-32.11,2.842
		c-45.75,0-56.833-20.176-56.833-55.412v-60.243h-29.27L1830.116,143.664L1830.116,143.664z"/>
</g>
<polygon fill="#FFFFFF" points="0,101.161 139.474,101.161 281.272,301.073 141.798,301.073 "/>
<polygon fill="#FFFFFF" points="586.564,301.073 399.049,36.073 259.577,36.073 447.09,301.073 "/>
<polygon fill="#FFFFFF" points="433.915,301.073 364.185,401.033 224.705,401.033 294.444,301.073 224.705,201.113 364.185,201.113 
	"/>
</svg>
