<?xml version="1.0" encoding="utf-8"?>
<!-- Generator: Adobe Illustrator 16.0.0, SVG Export Plug-In . SVG Version: 6.00 Build 0)  -->
<!DOCTYPE svg PUBLIC "-//W3C//DTD SVG 1.1//EN" "http://www.w3.org/Graphics/SVG/1.1/DTD/svg11.dtd">
<svg version="1.1" id="Layer_1" xmlns="http://www.w3.org/2000/svg" xmlns:xlink="http://www.w3.org/1999/xlink" x="0px" y="0px"
	 width="1825.328px" height="401.156px" viewBox="0 0 1825.328 401.156" enable-background="new 0 0 1825.328 401.156"
	 xml:space="preserve">
<path fill="#FFFFFF" d="M516.731,61.663h53.423l23.869,106.562h0.569l25.575-106.562h61.379l25.007,106.562h0.568l23.301-106.562
	h49.445l-38.972,127.703c-3.689,12.088-14.844,20.347-27.483,20.347h-15.318c-13.353,0-24.947-9.199-27.982-22.202l-19.824-84.928
	h-0.568l-22.504,85.694c-3.316,12.63-14.733,21.436-27.791,21.436h-15.993c-12.62,0-23.763-8.234-27.469-20.299L516.731,61.663z"/>
<path fill="#FFFFFF" d="M882.453,209.713c-0.283-7.957-1.137-15.629-1.137-23.302h-0.568c-11.65,18.471-25.858,26.712-46.886,26.712
	c-29.27,0-55.413-14.492-55.413-46.604c0-45.182,49.161-50.581,76.441-50.581c8.241,0,17.334,0.853,23.869,1.989
	c-0.284-20.176-15.345-25.574-33.815-25.574c-16.481,0-32.963,3.125-47.171,11.082l-0.853-34.668
	c18.187-7.389,37.226-10.514,59.107-10.514c37.793,0,70.472,16.197,70.472,61.379v55.128c0,11.65,0.568,23.302,2.841,34.952H882.453
	z M847.217,179.023c19.322,0,31.542-17.618,31.542-34.952c-6.535-0.284-13.923-0.853-21.597-0.853
	c-17.333,0-30.974,5.398-30.974,19.607C826.188,173.056,835.282,179.023,847.217,179.023"/>
<path fill="#FFFFFF" d="M946.677,230.457c6.819,2.273,13.071,3.126,20.176,3.126c12.503,0,22.165-7.389,25.858-20.46l-59.958-151.46
	h55.128l31.826,96.616h0.568l30.406-96.616h51.148l-54.275,137.82c-14.492,37.226-25.574,73.314-72.461,73.314
	c-10.799,0-21.313-1.137-31.826-3.41L946.677,230.457z"/>
<path fill="#FFFFFF" d="M1106.095,61.663h47.171v26.712h0.568c10.23-20.744,31.827-30.121,55.129-30.121
	c40.919,0,63.368,38.93,63.368,74.735c0,43.761-23.586,80.134-67.631,80.134c-17.902,0-37.226-6.536-46.888-24.154h-0.568v80.419
	h-19.297c-17.592,0-31.853-14.261-31.853-31.853V61.663z M1188.503,97.468c-18.755,0-31.259,16.481-31.259,38.646
	c0,21.597,14.209,37.794,31.259,37.794c19.323,0,30.974-16.197,30.974-39.783C1219.477,114.518,1208.395,97.468,1188.503,97.468"/>
<path fill="#FFFFFF" d="M1277.167,135.83c0-49.16,37.225-77.576,86.102-77.576c48.876,0,86.101,28.416,86.101,77.576
	c0,48.876-37.225,77.293-86.101,77.293C1314.392,213.123,1277.167,184.706,1277.167,135.83 M1396.516,135.83
	c0-22.164-9.662-41.771-33.247-41.771c-23.586,0-33.247,19.607-33.247,41.771c0,21.881,9.661,41.488,33.247,41.488
	C1386.854,177.318,1396.516,157.711,1396.516,135.83"/>
<path fill="#FFFFFF" d="M1518.426,37.51h-51.148V0h51.148V37.51z M1467.277,61.663h51.148v118.538
	c0,16.299-13.212,29.512-29.511,29.512h-21.638V61.663z"/>
<path fill="#FFFFFF" d="M1543.435,61.663h46.604v27.28h0.568c10.229-21.313,30.689-30.689,53.991-30.689
	c40.351,0,56.548,28.416,56.548,59.105v92.354h-51.149v-71.609c0-27.848-9.662-37.226-23.585-37.226
	c-21.028,0-31.827,14.492-31.827,46.318v62.517h-51.149V61.663z"/>
<path fill="#FFFFFF" d="M1707.116,61.663h30.121V28.416l50.297-15.629v48.876h35.805v35.805h-35.805v54.56
	c0,17.902,4.263,26.996,20.46,26.996c5.115,0,10.515-1.137,15.629-1.989l1.705,33.247c-9.661,1.137-19.323,2.842-32.11,2.842
	c-45.75,0-56.833-20.176-56.833-55.412V97.468h-29.269V61.663z"/>
<polygon fill="#FFFFFF" points="0,101.16 139.474,101.16 281.272,301.072 141.798,301.072 "/>
<polygon fill="#FFFFFF" points="586.564,301.072 399.049,36.072 259.577,36.072 447.09,301.072 "/>
<polygon fill="#FFFFFF" points="433.914,301.071 364.184,401.031 224.704,401.031 294.444,301.071 224.704,201.111 364.184,201.111 
	"/>
<g>
	<path fill="#FFFFFF" d="M643.749,317.634h22.257v31.949h26.325v-31.949h22.257v83.522H692.33v-35.778h-26.325v35.778h-22.257
		V317.634z"/>
	<path fill="#FFFFFF" d="M816.782,316.198c27.522,0,41.881,16.394,41.881,43.197c0,26.564-14.598,43.196-41.881,43.196
		c-27.282,0-41.881-16.632-41.881-43.196C774.901,332.592,789.261,316.198,816.782,316.198z M816.782,386.079
		c13.521,0,18.906-12.923,18.906-26.684c0-14.479-5.385-26.685-18.906-26.685s-18.906,12.205-18.906,26.685
		C797.876,373.156,803.261,386.079,816.782,386.079z"/>
	<path fill="#FFFFFF" d="M917.783,317.634h26.565c25.487,0,37.453,8.615,37.453,27.402c0,16.872-12.325,26.923-33.146,26.923h-8.615
		v29.197h-22.258V317.634z M940.041,356.164h5.743c7.658,0,13.761-2.752,13.761-11.487c0-8.495-6.103-11.248-13.761-11.248h-5.743
		V356.164z"/>
	<path fill="#FFFFFF" d="M1038.646,317.634h26.564c25.487,0,37.453,8.615,37.453,27.402c0,16.872-12.324,26.923-33.146,26.923
		h-8.615v29.197h-22.257V317.634z M1060.903,356.164h5.744c7.658,0,13.761-2.752,13.761-11.487c0-8.495-6.103-11.248-13.761-11.248
		h-5.744V356.164z"/>
	<path fill="#FFFFFF" d="M1160.107,317.634h58.872v15.795h-36.615v17.231h34.581v15.795h-34.581v18.906h37.932v15.795h-60.188
		V317.634z"/>
	<path fill="#FFFFFF" d="M1281.09,317.634h39.727c14.838,0,26.924,6.701,26.924,21.061c0,11.128-5.266,18.547-16.034,21.06v0.239
		c7.179,1.915,7.658,8.257,11.846,18.428l8.137,22.735h-23.214l-4.786-15.077c-4.547-14.359-7.419-17.949-15.676-17.949h-4.666
		v33.026h-22.257V317.634z M1303.347,352.335h5.863c7.18,0,16.273-0.239,16.273-9.692c0-7.777-7.778-9.214-16.273-9.214h-5.863
		V352.335z"/>
</g>
</svg>
