<?xml version="1.0" encoding="utf-8"?>
<!-- Generator: Adobe Illustrator 16.0.0, SVG Export Plug-In . SVG Version: 6.00 Build 0)  -->
<!DOCTYPE svg PUBLIC "-//W3C//DTD SVG 1.1//EN" "http://www.w3.org/Graphics/SVG/1.1/DTD/svg11.dtd">
<svg version="1.1" id="Layer_1" xmlns="http://www.w3.org/2000/svg" xmlns:xlink="http://www.w3.org/1999/xlink" x="0px" y="0px"
	 width="1200px" height="630px" viewBox="0 0 1200 630" enable-background="new 0 0 1200 630" xml:space="preserve">
<g>
	<g>
		<path fill="#FFC90E" d="M98.373,272.938v17.558h18.871v19.367H98.373v61.086H73.974v-61.266H61.396v-19.188h12.578v-17.017
			c0-6.763,2.827-14.072,7.556-19.549c4.073-4.727,11.476-10.352,23.604-10.352h14.986v21.342h-14.267
			C101.871,264.921,98.373,268.665,98.373,272.938z"/>
	</g>
	<g>
		<rect x="214.143" y="245.733" fill="#FFC90E" width="25.119" height="125.215"/>
	</g>
	<g>
		<rect x="251.881" y="288.352" fill="#FFC90E" width="25.119" height="82.597"/>
		<path fill="#FFC90E" d="M277,268.114c0,6.381-5.298,10.672-13.189,10.672c-5.786,0-8.719-2.846-9.957-4.543l-0.099-0.157
			c-1.631-2.793-1.874-5.616-1.874-7.053c0-5.399,4.076-10.849,13.188-10.849c5.695,0,8.556,2.922,9.774,4.717
			C276.717,263.296,277,266.442,277,268.114z"/>
	</g>
	<g>
		<path fill="#FFC90E" d="M374.938,326.156v44.789h-25.12v-46.946c0-6.707-5.056-13.947-13.229-13.947h-3.772
			c-11.06,0-17.903,9.48-17.903,18.26v42.637h-25.12v-80.439h17.954l2.093,4.333c7.058-4.42,15.393-6.49,26.027-6.49
			c15.144,0,24.407,7.046,29.514,12.954C371.367,308.228,374.938,317.519,374.938,326.156z"/>
	</g>
	<g>
		<path fill="#FF7F27" d="M584.044,322.741v48.207h-25.119v-50.185c0-5.173-4.088-10.714-10.172-10.714h-2.155
			c-11.059,0-17.904,9.482-17.904,18.26v42.636H503.58V245.733h25.114v46.506c5.747-2.58,12.237-3.888,19.34-3.888
			c13.892,0,22.444,6.442,27.171,11.845C580.738,306.525,584.044,314.955,584.044,322.741z"/>
	</g>
	<g>
		<path fill="#FF7F27" d="M670.541,302.787c-5.712-6.587-16.043-14.436-32.838-14.436c-17.434,0-28.035,7.573-33.857,13.925
			c-7.078,7.723-11.137,18-11.137,28.194v0.149c0,9.559,4.035,19.877,10.793,27.603c5.729,6.544,16.055,14.34,32.763,14.34
			c17.513,0,28.117-7.563,33.923-13.904c7.039-7.68,11.071-17.898,11.071-28.038v-0.149
			C681.259,320.876,677.254,310.529,670.541,302.787z M638.422,351.036h-2.666c-11.645-0.35-17.927-9.759-17.927-18.438v-4.287
			c0-8.818,7.118-18.26,17.72-18.26h2.669c11.645,0.354,17.928,9.667,17.928,18.26v4.287
			C656.146,341.468,649.369,351.036,638.422,351.036z"/>
	</g>
	<g>
		<rect x="691.365" y="245.733" fill="#FF7F27" width="25.119" height="125.215"/>
	</g>
	<g>
		<path fill="#FF7F27" d="M790.203,245.733v47.873c-6.243-3.322-13.715-5.255-20.597-5.255c-16.705,0-27.04,7.85-32.768,14.433
			c-6.758,7.768-10.79,18.115-10.79,27.687v0.151c0,9.559,4.032,19.875,10.796,27.602c5.722,6.543,16.049,14.34,32.762,14.34h2.154
			c6.833,0,16.004-1.5,22.298-5.616l3.229,4.001h17.316V245.733H790.203z M771.223,351.036c-11.811,0-20.058-7.581-20.058-18.438
			v-4.287c0-8.818,7.124-18.26,17.725-18.26h1.411c12.593,0.352,19.182,10.174,19.182,19.701v2.306
			C789.485,341.19,782.503,351.036,771.223,351.036z"/>
	</g>
	<g>
		<path fill="#FF7F27" d="M852.881,270.271c0,6.383-5.303,10.672-13.19,10.672c-5.785,0-8.718-2.846-9.956-4.543l-0.1-0.156
			c-1.631-2.794-1.873-5.615-1.873-7.053c0-5.4,4.079-10.852,13.188-10.852c5.695,0,8.558,2.924,9.773,4.718
			C852.597,265.449,852.881,268.598,852.881,270.271z"/>
		<rect x="827.762" y="290.509" fill="#FF7F27" width="25.119" height="80.439"/>
	</g>
	<g>
		<path fill="#FF7F27" d="M950.818,326.156v44.789H925.7v-46.946c0-6.707-5.057-13.947-13.231-13.947h-3.77
			c-11.063,0-17.903,9.48-17.903,18.26v42.637h-25.122v-80.439h17.955l2.092,4.333c7.061-4.42,15.394-6.49,26.027-6.49
			c15.144,0,24.409,7.046,29.517,12.954C947.246,308.228,950.818,317.519,950.818,326.156z"/>
	</g>
	<g>
		<path fill="#FF7F27" d="M1029.961,290.509l-2.735,3.648c-5.802-3.607-13.516-5.805-20.595-5.805h-3.589
			c-16.706,0-27.037,7.85-32.769,14.434c-6.758,7.768-10.79,18.114-10.79,27.688v0.149c0,9.558,4.035,19.876,10.795,27.603
			c5.721,6.544,16.055,14.34,32.764,14.34h3.589c5.874,0,11.959-1.538,16.907-4.203c-0.804,7.958-6.393,15.564-15.286,15.564
			c-7.558,0-20.534-5.059-28.909-9.82l-5.332-2.666l-10.074,19.506l3.393,2.155c9.036,5.969,24.692,11.989,39.3,11.989
			c15.491,0,25.285-6.978,30.771-12.832c6.658-7.109,10.635-16.648,10.635-25.514v-76.236H1029.961z M1005.375,351.036h-3.052
			c-10.604,0-17.727-9.531-17.727-18.438v-4.287c0-8.779,6.849-18.26,17.903-18.26h2.875c10.835,0,17.541,9.389,17.541,18.083v4.644
			C1022.916,341.561,1016.21,351.036,1005.375,351.036z"/>
	</g>
	<g>
		<path fill="#FF7F27" d="M1138.604,348.254c0,14.086-16.202,24.31-38.522,24.31c-11.123,0-21.393-2.197-28.916-6.183
			c-8.642-4.578-13.204-11.172-13.204-19.065v-3.817h24.396v3.817c0,5.613,9.354,7.604,17.362,7.604
			c3.569,0,15.207-0.479,15.207-6.665c0-4.201-2.081-5.557-11.708-7.654l-0.051-0.012c-2.471-0.605-5.035-1.205-7.51-1.782
			c-4.571-1.068-9.301-2.172-13.75-3.396c-16.328-4.25-23.946-11.754-23.946-23.606c0-14.294,14.481-23.529,36.905-23.529
			c11.527,0,21.309,2.195,28.299,6.344c7.514,4.464,11.484,11,11.484,18.902v3.975h-24.219v-3.975c0-1.88,0-7.604-15.202-7.604
			c-7.396,0-13.411,2.921-13.411,6.514c0,2.933,1.865,4.421,7.669,6.11c3.226,0.793,6.465,1.53,9.601,2.242
			c3.611,0.82,7.346,1.67,11.017,2.597c10.707,2.493,16.823,4.865,21.113,8.19C1136.258,335.478,1138.604,340.778,1138.604,348.254z
			"/>
	</g>
	<path fill="#FFC90E" d="M194.219,302.788c-5.711-6.587-16.043-14.436-32.837-14.436c-17.434,0-28.034,7.574-33.858,13.926
		c-7.078,7.723-11.136,18-11.136,28.195v0.146c0,9.559,4.034,19.877,10.792,27.603c5.728,6.544,16.056,14.34,32.764,14.34
		c17.511,0,28.115-7.563,33.924-13.904c0.394-0.431,0.776-0.871,1.155-1.318l-18.343-14.337c-3.008,4.627-8.053,8.032-14.581,8.032
		h-2.665c-8.519-0.258-14.168-5.359-16.583-11.476h61.052c0.678-2.942,1.036-5.942,1.036-8.94v-0.146
		C204.938,320.876,200.933,310.529,194.219,302.788z M142.93,321.38c2.58-6.216,8.495-11.326,16.295-11.326h2.671
		c8.495,0.257,14.137,5.287,16.564,11.326H142.93z"/>
	<path fill="#FFC90E" d="M461.434,302.788c-5.711-6.587-16.045-14.436-32.837-14.436c-17.435,0-28.034,7.574-33.859,13.926
		c-7.079,7.723-11.137,18-11.137,28.195v0.146c0,9.559,4.036,19.877,10.793,27.603c5.728,6.544,16.058,14.34,32.763,14.34
		c17.513,0,28.117-7.563,33.926-13.904c0.393-0.431,0.776-0.871,1.155-1.318l-18.343-14.337c-3.008,4.627-8.054,8.032-14.581,8.032
		h-2.666c-8.52-0.258-14.168-5.359-16.585-11.476h61.055c0.677-2.942,1.035-5.942,1.035-8.94v-0.146
		C472.153,320.876,468.148,310.529,461.434,302.788z M410.141,321.38c2.581-6.216,8.497-11.326,16.299-11.326h2.671
		c8.495,0.257,14.136,5.287,16.563,11.326H410.141z"/>
</g>
</svg>
