<?xml version="1.0" encoding="utf-8"?>
<!-- Generator: Adobe Illustrator 16.0.0, SVG Export Plug-In . SVG Version: 6.00 Build 0)  -->
<!DOCTYPE svg PUBLIC "-//W3C//DTD SVG 1.1//EN" "http://www.w3.org/Graphics/SVG/1.1/DTD/svg11.dtd">
<svg version="1.1" id="Layer_1" xmlns="http://www.w3.org/2000/svg" xmlns:xlink="http://www.w3.org/1999/xlink" x="0px" y="0px"
	 width="1200px" height="630px" viewBox="0 0 1200 630" enable-background="new 0 0 1200 630" xml:space="preserve">
<rect fill="#FFFFFF" width="1200" height="630"/>
<g>
	<g>
		<path fill="#4D4D4D" d="M526.303,357.262h-16.638v-85.764h16.638V357.262z"/>
		<path fill="#4D4D4D" d="M596.716,357.262h-15.458V320.23c0-2.217-0.342-4.168-1.025-5.851c-0.683-1.68-1.598-3.076-2.749-4.186
			c-1.149-1.109-2.462-1.932-3.935-2.47c-1.472-0.536-3-0.804-4.58-0.804c-2.372,0-4.708,0.413-7.007,1.234
			c-2.299,0.824-4.382,2.131-6.25,3.918v45.189h-15.457V295.22h15.457l0.107,4.616c0.929-0.93,2.074-1.787,3.435-2.575
			c1.358-0.788,2.772-1.45,4.24-1.987c1.466-0.536,2.968-0.947,4.508-1.234c1.538-0.285,3.023-0.429,4.455-0.429
			c3.148,0,6.172,0.5,9.07,1.502c2.898,1.003,5.474,2.541,7.729,4.615c2.254,2.077,4.06,4.76,5.42,8.051
			c1.358,3.292,2.04,7.191,2.04,11.699L596.716,357.262L596.716,357.262z"/>
		<path fill="#4D4D4D" d="M643.084,355.865c-1.574,1.004-3.399,1.754-5.475,2.255c-2.075,0.5-4.149,0.752-6.226,0.752
			c-3.648,0-6.727-0.448-9.23-1.342c-2.505-0.895-4.509-2.271-6.012-4.133c-1.503-1.86-2.594-4.222-3.274-7.084
			c-0.679-2.861-1.019-6.226-1.019-10.09v-27.157h-8.158v-6.977c5.01-2.074,9.07-5.151,12.183-9.23
			c3.114-4.079,5.242-9.374,6.389-15.886h5.044v18.141h15.673v13.953h-15.673v28.23c0,1.575,0.197,2.862,0.59,3.864
			c0.394,1.002,0.914,1.79,1.557,2.36c0.646,0.573,1.379,0.967,2.2,1.182c0.822,0.216,1.699,0.321,2.631,0.321
			c1.215,0,2.683-0.215,4.4-0.644s3.184-1.144,4.4-2.146V355.865L643.084,355.865z"/>
		<path fill="#4D4D4D" d="M696.752,301.66l-8.266,13.095c-1.503-1.645-3.167-3.094-4.99-4.346c-1.825-1.251-3.668-1.878-5.529-1.878
			c-1.002,0-2.092,0.233-3.271,0.697c-1.182,0.467-2.291,1.235-3.328,2.308c-1.038,1.073-1.916,2.487-2.631,4.239
			c-0.715,1.755-1.072,3.919-1.072,6.494v34.993h-15.457V295.22h15.457v6.655c1.859-2.646,3.918-4.686,6.172-6.118
			c2.253-1.432,4.777-2.147,7.566-2.147c2.72,0,5.385,0.735,7.997,2.201C692.012,297.278,694.461,299.229,696.752,301.66z"/>
		<path fill="#4D4D4D" d="M752.565,357.262H737.11v-3.327c-2.722,1.861-5.601,3.15-8.642,3.864c-3.041,0.715-6.17,1.073-9.391,1.073
			c-3.006,0-5.727-0.448-8.158-1.342c-2.435-0.895-4.545-2.183-6.333-3.863c-1.789-1.682-3.166-3.667-4.132-5.958
			c-0.966-2.289-1.449-4.83-1.449-7.621c0-3.507,0.767-6.563,2.307-9.177c1.538-2.611,3.632-4.795,6.279-6.548
			c2.646-1.752,5.744-3.06,9.286-3.918c3.543-0.859,7.353-1.288,11.431-1.288h8.909c0-3.649-1.182-6.547-3.542-8.695
			c-2.361-2.146-5.763-3.22-10.198-3.22c-2.146,0-4.363,0.395-6.654,1.181c-2.291,0.789-4.581,2.219-6.869,4.294l-9.124-9.231
			c3.291-3.147,7.101-5.582,11.432-7.299c4.328-1.717,8.784-2.575,13.362-2.575c4.295,0,8.118,0.681,11.471,2.039
			c3.351,1.36,6.057,3.113,8.117,5.26c2.7,2.72,4.602,5.76,5.702,9.123c1.102,3.365,1.651,7.658,1.651,12.881V357.262
			L752.565,357.262z M737.11,341.805V330.32h-7.084c-2.146,0-4.17,0.144-6.063,0.428c-1.898,0.287-3.542,0.771-4.938,1.45
			c-1.396,0.681-2.506,1.557-3.328,2.63c-0.823,1.072-1.234,2.361-1.234,3.865c0,2.146,0.842,3.9,2.523,5.259
			c1.68,1.36,3.844,2.04,6.492,2.04c2.289,0,4.563-0.358,6.816-1.073C732.549,344.204,734.819,343.165,737.11,341.805z"/>
		<path fill="#4D4D4D" d="M831.136,357.262h-18.319l-6.104-19.536c-0.645-2.146-1.446-4.114-2.408-5.903
			c-0.965-1.788-2.124-3.327-3.481-4.616c-1.356-1.287-2.979-2.289-4.872-3.005c-1.891-0.715-4.121-1.073-6.69-1.073h-6.21v34.134
			h-16.426v-85.764l33.86-0.107c3.643,0,7.034,0.628,10.178,1.878c3.144,1.253,5.857,2.988,8.144,5.207
			c2.284,2.219,4.071,4.83,5.355,7.835c1.285,3.006,1.93,6.263,1.93,9.769c0,2.506-0.393,4.937-1.174,7.299
			c-0.78,2.361-1.883,4.545-3.306,6.547c-1.423,2.005-3.109,3.776-5.063,5.314c-1.955,1.539-4.104,2.702-6.45,3.487
			c2.701,1.004,4.905,2.453,6.61,4.348c1.707,1.896,3.059,4.171,4.054,6.817c0.497,1.217,0.961,2.433,1.386,3.648
			c0.427,1.219,0.87,2.488,1.333,3.812c0.463,1.325,0.961,2.755,1.494,4.293c0.534,1.541,1.118,3.238,1.761,5.098
			c0.786,2.361,1.519,4.386,2.199,6.065C829.614,354.488,830.349,355.974,831.136,357.262z M809.453,297.261
			c0-2.004-0.374-3.828-1.125-5.475c-0.753-1.646-1.771-3.077-3.06-4.294c-1.289-1.215-2.81-2.163-4.561-2.843
			c-1.756-0.68-3.634-1.021-5.638-1.021h-12.022v26.727h12.022c2.004,0,3.882-0.304,5.638-0.912c1.751-0.607,3.271-1.484,4.561-2.63
			c1.288-1.144,2.307-2.522,3.06-4.131C809.079,301.071,809.453,299.264,809.453,297.261z"/>
		<path fill="#4D4D4D" d="M903.373,326.24c0,4.652-0.857,8.964-2.574,12.936c-1.719,3.972-4.081,7.405-7.085,10.304
			c-3.006,2.898-6.53,5.188-10.572,6.87c-4.045,1.68-8.356,2.522-12.935,2.522c-4.58,0-8.873-0.843-12.88-2.522
			c-4.009-1.682-7.516-3.988-10.52-6.924c-3.006-2.933-5.367-6.387-7.084-10.359c-1.719-3.97-2.576-8.245-2.576-12.826
			c0-4.508,0.874-8.747,2.63-12.719c1.753-3.971,4.131-7.441,7.138-10.411c3.006-2.969,6.511-5.295,10.52-6.977
			c4.006-1.681,8.264-2.524,12.772-2.524c4.578,0,8.892,0.843,12.935,2.524c4.042,1.682,7.568,3.971,10.572,6.869
			c3.007,2.898,5.366,6.351,7.085,10.359C902.516,317.369,903.373,321.662,903.373,326.24z M887.918,326.24
			c0-2.646-0.465-5.115-1.392-7.405c-0.928-2.29-2.195-4.294-3.8-6.012c-1.605-1.718-3.478-3.059-5.619-4.025
			c-2.139-0.966-4.421-1.45-6.847-1.45c-2.425,0-4.709,0.483-6.851,1.45c-2.139,0.966-4.013,2.307-5.618,4.025
			c-1.605,1.718-2.871,3.722-3.798,6.012c-0.928,2.29-1.391,4.759-1.391,7.405c0,2.649,0.463,5.118,1.391,7.407
			c0.927,2.291,2.192,4.293,3.798,6.01c1.605,1.719,3.479,3.06,5.618,4.026c2.142,0.966,4.426,1.449,6.851,1.449
			c2.426,0,4.708-0.483,6.847-1.449c2.142-0.966,4.014-2.308,5.619-4.026c1.604-1.717,2.872-3.719,3.8-6.01
			C887.451,331.358,887.918,328.89,887.918,326.24z"/>
		<path fill="#4D4D4D" d="M967.992,357.262h-15.457v-4.723c-1.005,1.002-2.166,1.879-3.488,2.629
			c-1.326,0.752-2.723,1.396-4.188,1.933c-1.467,0.536-2.971,0.948-4.507,1.235c-1.54,0.285-2.99,0.429-4.349,0.429
			c-3.149,0-6.171-0.501-9.07-1.503c-2.897-1.002-5.456-2.539-7.674-4.616c-2.219-2.074-3.988-4.757-5.313-8.05
			c-1.326-3.291-1.985-7.191-1.985-11.7V295.22h15.457v36.924c0,2.219,0.338,4.169,1.02,5.851c0.679,1.682,1.572,3.076,2.685,4.186
			c1.106,1.109,2.396,1.933,3.863,2.469c1.466,0.536,2.986,0.806,4.561,0.806c5.008,0,9.34-1.719,12.989-5.152V295.22h15.457
			V357.262z"/>
		<path fill="#4D4D4D" d="M1015.434,355.865c-1.575,1.004-3.399,1.754-5.475,2.255c-2.077,0.5-4.151,0.752-6.225,0.752
			c-3.649,0-6.727-0.448-9.23-1.342c-2.506-0.895-4.509-2.271-6.013-4.133c-1.502-1.86-2.593-4.222-3.274-7.084
			c-0.679-2.861-1.019-6.226-1.019-10.09v-27.157h-8.158v-6.977c5.01-2.074,9.07-5.151,12.184-9.23
			c3.113-4.079,5.241-9.374,6.388-15.886h5.045v18.141h15.67v13.953h-15.67v28.23c0,1.575,0.195,2.862,0.589,3.864
			s0.914,1.79,1.558,2.36c0.644,0.573,1.376,0.967,2.199,1.182c0.823,0.216,1.7,0.321,2.629,0.321c1.218,0,2.686-0.215,4.402-0.644
			c1.718-0.429,3.183-1.144,4.4-2.146V355.865L1015.434,355.865z"/>
		<path fill="#4D4D4D" d="M1088.638,326.133c0,1.003-0.054,2.041-0.16,3.114c-0.11,1.073-0.234,2.183-0.376,3.326h-49.59
			c0.571,1.79,1.375,3.488,2.414,5.099c1.037,1.61,2.307,3.005,3.811,4.187c1.502,1.181,3.202,2.111,5.098,2.791
			c1.897,0.681,3.989,1.019,6.28,1.019c2.791,0,5.582-0.481,8.371-1.448c2.792-0.966,5.117-2.271,6.978-3.917l9.77,9.768
			c-4.293,3.22-8.499,5.492-12.612,6.816c-4.116,1.322-8.462,1.985-13.043,1.985c-4.652,0-8.998-0.859-13.042-2.576
			c-4.042-1.718-7.551-4.042-10.519-6.978c-2.971-2.935-5.313-6.387-7.03-10.357c-1.717-3.973-2.576-8.213-2.576-12.721
			s0.859-8.747,2.576-12.719c1.717-3.971,4.08-7.423,7.084-10.357c3.006-2.934,6.51-5.26,10.52-6.977
			c4.006-1.717,8.301-2.577,12.88-2.577c4.364,0,8.552,0.805,12.56,2.416c4.006,1.61,7.548,3.847,10.626,6.709
			c3.076,2.862,5.51,6.279,7.299,10.25C1087.743,316.956,1088.638,321.34,1088.638,326.133z M1072.431,320.123
			c-1.218-3.935-3.382-7.102-6.495-9.5c-3.111-2.397-6.638-3.596-10.573-3.596c-3.864,0-7.335,1.199-10.412,3.596
			c-3.075,2.398-5.224,5.565-6.438,9.5H1072.431z"/>
	</g>
	<g>
		<path fill="#4D4D4D" d="M455.769,354.797c0,20.726-16.958,37.685-37.684,37.685H338.49c-20.727,0-37.684-16.959-37.684-37.685
			v-79.594c0-20.727,16.958-37.685,37.684-37.685h79.595c20.726,0,37.684,16.958,37.684,37.685V354.797z"/>
	</g>
	<g>
		<path fill="#4D4D4D" d="M266.324,354.797c0,20.726-16.958,37.685-37.685,37.685h-79.594c-20.727,0-37.685-16.959-37.685-37.685
			v-79.594c0-20.727,16.958-37.685,37.685-37.685h79.594c20.726,0,37.684,16.958,37.684,37.685L266.324,354.797L266.324,354.797z"/>
	</g>
	<polygon fill="#FFFFFF" points="392.374,300.912 392.374,329.088 420.549,329.088 420.549,357.262 336.025,357.262 
		336.025,329.088 364.199,329.088 364.199,300.912 336.025,300.912 336.025,272.738 420.549,272.738 420.549,300.912 	"/>
	<g>
		<g>
			<path fill="#FFFFFF" d="M214.923,255.433c-8.477,0-15.374,6.897-15.374,15.375c0,6.531,4.09,12.124,9.845,14.348v5.903
				c0,0.048-0.085,5.005-2.623,9.708c-3.144,5.807-8.557,8.634-16.547,8.634h-2.723c-15.578,0-23.058,8.126-26.589,14.944
				c-3.615,6.973-3.715,13.748-3.715,14.495v6.001c-5.734,2.235-9.813,7.816-9.813,14.332c0,8.479,6.901,15.377,15.378,15.377
				c8.478,0,15.374-6.897,15.374-15.377c0-6.516-4.073-12.097-9.808-14.329v-6.004c0-0.043,0.068-4.74,2.469-9.378
				c3.113-6.007,8.577-8.931,16.705-8.931h2.723c15.574,0,23.055-8.127,26.589-14.943c3.611-6.973,3.716-13.749,3.716-14.497v-5.967
				c5.714-2.241,9.768-7.814,9.768-14.316C230.297,262.33,223.4,255.433,214.923,255.433z M170.479,359.173
				c0,4.255-3.463,7.717-7.717,7.717s-7.717-3.462-7.717-7.717s3.462-7.717,7.717-7.717S170.479,354.918,170.479,359.173z
				 M214.923,278.524c-4.254,0-7.717-3.462-7.717-7.717s3.462-7.717,7.717-7.717s7.717,3.463,7.717,7.717
				S219.177,278.524,214.923,278.524z"/>
		</g>
	</g>
</g>
</svg>
