<?xml version="1.0" encoding="utf-8"?>
<!-- Generator: Adobe Illustrator 16.0.0, SVG Export Plug-In . SVG Version: 6.00 Build 0)  -->
<!DOCTYPE svg PUBLIC "-//W3C//DTD SVG 1.1//EN" "http://www.w3.org/Graphics/SVG/1.1/DTD/svg11.dtd">
<svg version="1.1" id="Layer_1" xmlns="http://www.w3.org/2000/svg" xmlns:xlink="http://www.w3.org/1999/xlink" x="0px" y="0px"
	 width="66.209px" height="66.209px" viewBox="0 0 66.209 66.209" enable-background="new 0 0 66.209 66.209" xml:space="preserve">
<g>
	<path fill="#4D4D4D" d="M66.209,50.107c0,8.857-7.245,16.102-16.101,16.102H16.101C7.246,66.208,0,58.964,0,50.107V16.101
		C0,7.245,7.246,0,16.101,0h34.007c8.855,0,16.101,7.245,16.101,16.101V50.107L66.209,50.107z"/>
</g>
<path fill="#FFFFFF" d="M33.104,34.23c1.391,0,2.584-0.496,3.571-1.487c0.993-0.99,1.487-2.182,1.487-3.572
	c0-1.39-0.494-2.582-1.487-3.572c-0.987-0.991-2.181-1.486-3.571-1.486c-1.39,0-2.584,0.495-3.571,1.486
	c-0.993,0.99-1.487,2.183-1.487,3.572c0,1.39,0.495,2.583,1.487,3.572C30.521,33.734,31.714,34.23,33.104,34.23z M33.104,47.56
	c3.999-3.672,6.964-7.007,8.899-10.006c1.934-3,2.9-5.663,2.9-7.989c0-3.573-1.139-6.499-3.416-8.777
	c-2.281-2.277-5.072-3.417-8.384-3.417c-3.311,0-6.103,1.139-8.384,3.417c-2.278,2.279-3.416,5.204-3.416,8.777
	c0,2.327,0.967,4.989,2.9,7.989C26.141,40.553,29.106,43.888,33.104,47.56z M33.104,52.771c-5.277-4.49-9.219-8.662-11.825-12.512
	c-2.606-3.853-3.909-7.417-3.909-10.694c0-4.917,1.583-8.834,4.744-11.751c3.165-2.917,6.826-4.376,10.989-4.376
	c4.163,0,7.825,1.458,10.99,4.376c3.161,2.917,4.743,6.835,4.743,11.751c0,3.277-1.303,6.842-3.908,10.694
	C42.323,44.109,38.383,48.281,33.104,52.771z"/>
</svg>
