<?xml version="1.0" encoding="utf-8"?>
<!-- Generator: Adobe Illustrator 16.0.0, SVG Export Plug-In . SVG Version: 6.00 Build 0)  -->
<!DOCTYPE svg PUBLIC "-//W3C//DTD SVG 1.1//EN" "http://www.w3.org/Graphics/SVG/1.1/DTD/svg11.dtd">
<svg version="1.1" id="Layer_1" xmlns="http://www.w3.org/2000/svg" xmlns:xlink="http://www.w3.org/1999/xlink" x="0px" y="0px"
	 width="66.209px" height="66.209px" viewBox="0 0 66.209 66.209" enable-background="new 0 0 66.209 66.209" xml:space="preserve">
<g>
	<path fill="#F4CC21" d="M66.209,50.108c0,8.855-7.245,16.102-16.101,16.102H16.102C7.246,66.209,0,58.963,0,50.108V16.101
		C0,7.245,7.246,0,16.102,0h34.007c8.855,0,16.101,7.245,16.101,16.101V50.108L66.209,50.108z"/>
</g>
<path d="M25.417,43.355c0.711,0,1.317-0.25,1.815-0.748c0.498-0.499,0.748-1.104,0.748-1.815s-0.25-1.317-0.748-1.815
	c-0.499-0.498-1.104-0.748-1.815-0.748s-1.317,0.25-1.815,0.748c-0.498,0.499-0.748,1.104-0.748,1.815s0.25,1.317,0.748,1.815
	C24.1,43.105,24.706,43.355,25.417,43.355z M25.417,27.98c0.711,0,1.317-0.25,1.815-0.748c0.498-0.499,0.748-1.104,0.748-1.815
	s-0.25-1.317-0.748-1.815c-0.499-0.498-1.104-0.748-1.815-0.748s-1.317,0.25-1.815,0.748c-0.498,0.499-0.748,1.104-0.748,1.815
	s0.25,1.317,0.748,1.815C24.1,27.73,24.706,27.98,25.417,27.98z M33.104,35.667c0.711,0,1.318-0.25,1.815-0.748
	c0.497-0.499,0.748-1.104,0.748-1.815s-0.251-1.317-0.748-1.815c-0.498-0.498-1.104-0.748-1.815-0.748s-1.317,0.25-1.815,0.748
	c-0.498,0.499-0.748,1.104-0.748,1.815s0.25,1.317,0.748,1.815C31.788,35.417,32.393,35.667,33.104,35.667z M40.792,43.355
	c0.71,0,1.318-0.25,1.815-0.748c0.497-0.499,0.748-1.104,0.748-1.815s-0.251-1.317-0.748-1.815
	c-0.498-0.498-1.105-0.748-1.815-0.748s-1.318,0.25-1.815,0.748c-0.497,0.499-0.748,1.104-0.748,1.815s0.251,1.317,0.748,1.815
	C39.474,43.105,40.082,43.355,40.792,43.355z M40.792,27.98c0.71,0,1.318-0.25,1.815-0.748c0.497-0.499,0.748-1.104,0.748-1.815
	s-0.251-1.317-0.748-1.815c-0.498-0.498-1.105-0.748-1.815-0.748s-1.318,0.25-1.815,0.748c-0.497,0.499-0.748,1.104-0.748,1.815
	s0.251,1.317,0.748,1.815C39.474,27.73,40.082,27.98,40.792,27.98z M21.146,48.479c-0.939,0-1.744-0.334-2.413-1.003
	s-1.003-1.474-1.003-2.413V21.146c0-0.939,0.334-1.744,1.003-2.413s1.474-1.003,2.413-1.003h23.917c0.939,0,1.745,0.334,2.412,1.003
	c0.67,0.669,1.004,1.474,1.004,2.413v23.917c0,0.939-0.334,1.744-1.004,2.413c-0.667,0.669-1.473,1.003-2.412,1.003H21.146z
	 M21.146,45.063h23.917V21.146H21.146V45.063z M21.146,21.146v23.917V21.146z"/>
</svg>
