<?xml version="1.0" encoding="utf-8"?>
<!-- Generator: Adobe Illustrator 16.0.0, SVG Export Plug-In . SVG Version: 6.00 Build 0)  -->
<!DOCTYPE svg PUBLIC "-//W3C//DTD SVG 1.1//EN" "http://www.w3.org/Graphics/SVG/1.1/DTD/svg11.dtd">
<svg version="1.1" id="Layer_1" xmlns="http://www.w3.org/2000/svg" xmlns:xlink="http://www.w3.org/1999/xlink" x="0px" y="0px"
	 width="66.209px" height="66.209px" viewBox="0 0 66.209 66.209" enable-background="new 0 0 66.209 66.209" xml:space="preserve">
<g>
	<path fill="#4D4D4D" d="M66.209,50.107c0,8.856-7.245,16.102-16.101,16.102H16.101C7.246,66.209,0,58.964,0,50.107V16.101
		C0,7.245,7.246,0,16.101,0h34.007c8.855,0,16.101,7.245,16.101,16.101V50.107L66.209,50.107z"/>
</g>
<path fill="#FFFFFF" d="M18.865,49.124V27.765l14.24-10.68l9.567,7.208c-0.741,0.089-1.439,0.26-2.092,0.512
	c-0.651,0.252-1.275,0.586-1.869,1.001l-5.606-4.272l-10.68,8.01v16.02h7.12v3.56H18.865z M33.104,49.124v-3.382
	c0-0.623,0.156-1.209,0.467-1.758c0.312-0.549,0.733-0.985,1.268-1.313c1.365-0.802,2.796-1.409,4.295-1.824
	c1.496-0.415,3.047-0.623,4.649-0.623s3.153,0.208,4.649,0.623c1.498,0.415,2.929,1.022,4.295,1.824
	c0.534,0.327,0.957,0.764,1.268,1.313s0.468,1.135,0.468,1.758v3.382H33.104z M36.932,45.564h13.705
	c-1.038-0.595-2.135-1.038-3.293-1.335c-1.157-0.297-2.344-0.445-3.56-0.445c-1.218,0-2.402,0.148-3.56,0.445
	C39.066,44.526,37.97,44.97,36.932,45.564z M43.784,38.444c-1.484,0-2.743-0.52-3.782-1.558c-1.04-1.038-1.558-2.299-1.558-3.782
	s0.518-2.744,1.558-3.782c1.039-1.039,2.298-1.558,3.782-1.558s2.743,0.519,3.782,1.558s1.558,2.299,1.558,3.782
	s-0.519,2.744-1.558,3.782S45.269,38.444,43.784,38.444z M43.784,34.885c0.504,0,0.929-0.171,1.269-0.513
	c0.341-0.34,0.511-0.763,0.511-1.268s-0.17-0.927-0.511-1.268c-0.34-0.342-0.765-0.513-1.269-0.513
	c-0.505,0-0.929,0.171-1.269,0.513c-0.342,0.34-0.512,0.763-0.512,1.268s0.17,0.927,0.512,1.268
	C42.855,34.714,43.279,34.885,43.784,34.885z"/>
</svg>
