<?xml version="1.0" encoding="utf-8"?>
<!-- Generator: Adobe Illustrator 16.0.0, SVG Export Plug-In . SVG Version: 6.00 Build 0)  -->
<!DOCTYPE svg PUBLIC "-//W3C//DTD SVG 1.1//EN" "http://www.w3.org/Graphics/SVG/1.1/DTD/svg11.dtd">
<svg version="1.1" id="Layer_1" xmlns="http://www.w3.org/2000/svg" xmlns:xlink="http://www.w3.org/1999/xlink" x="0px" y="0px"
	 width="66.209px" height="66.209px" viewBox="0 0 66.209 66.209" enable-background="new 0 0 66.209 66.209" xml:space="preserve">
<g>
	<path fill="#009245" d="M66.209,50.108c0,8.855-7.245,16.102-16.101,16.102H16.102C7.246,66.209,0,58.963,0,50.108V16.101
		C0,7.245,7.246,0,16.102,0h34.007c8.855,0,16.101,7.245,16.101,16.101V50.108L66.209,50.108z"/>
</g>
<path fill="#FFFFFF" d="M24.388,35.284V19.649l-5.611,5.61l-3.104-3.05l10.896-10.896l10.896,10.896l-3.104,3.05l-5.612-5.61v15.635
	H24.388z M39.642,54.895L28.746,44l3.104-3.051l5.612,5.61V30.925h4.358V46.56l5.611-5.61L50.537,44L39.642,54.895z"/>
</svg>
