<?xml version="1.0" encoding="utf-8"?>
<!-- Generator: Adobe Illustrator 16.0.0, SVG Export Plug-In . SVG Version: 6.00 Build 0)  -->
<!DOCTYPE svg PUBLIC "-//W3C//DTD SVG 1.1//EN" "http://www.w3.org/Graphics/SVG/1.1/DTD/svg11.dtd">
<svg version="1.1" id="circle" xmlns="http://www.w3.org/2000/svg" xmlns:xlink="http://www.w3.org/1999/xlink" x="0px" y="0px"
	 width="439.415px" height="439.402px" viewBox="0 0 439.415 439.402" enable-background="new 0 0 439.415 439.402"
	 xml:space="preserve">
<path fill="#FFFFFF" d="M439.415,219.698c0,121.355-98.365,219.704-219.708,219.704C98.366,439.402,0,341.054,0,219.698
	C0,98.365,98.366,0,219.708,0C341.049,0,439.415,98.365,439.415,219.698z"/>
<g id="Bus">
	<path fill="#FF0000" d="M322.575,121.289c-3.074-15.38-12.92-21.532-27.685-27.686c-14.557-6.065-49.439-13.321-75.184-13.525
		c-25.741,0.204-60.625,7.46-75.181,13.525c-14.767,6.152-24.611,12.306-27.686,27.686l-11.074,85.268v117.494h19.072v18.427
		c0,22.465,32.874,22.465,32.874,0v-18.427h60.696h0.192h63.101v18.427c0,22.465,32.876,22.465,32.876,0v-18.427h19.071V206.557
		L322.575,121.289z M172.826,101.601h45.774h47.988c9.229,0,9.229,13.843,0,13.843h-48.101h-45.662
		C163.598,115.443,163.598,101.601,172.826,101.601z M141.289,287.221c-8.709,0-15.771-7.065-15.771-15.772
		c0-8.71,7.063-15.772,15.771-15.772c8.71,0,15.771,7.063,15.771,15.772C157.061,280.155,149.999,287.221,141.289,287.221z
		 M218.601,215.543h-83.652c-8.19,0-9.904-5.883-9.101-11.812l8.619-61.844c1.184-7.514,3.731-12.468,13.479-12.468h70.542h72.979
		c9.75,0,12.297,4.954,13.479,12.468l8.621,61.844c0.805,5.928-0.911,11.812-9.1,11.812H218.601z M298.125,287.221
		c-8.709,0-15.771-7.065-15.771-15.772c0-8.71,7.063-15.772,15.771-15.772c8.711,0,15.771,7.063,15.771,15.772
		C313.896,280.155,306.836,287.221,298.125,287.221z"/>
</g>
</svg>
