<?xml version="1.0" encoding="utf-8"?>
<!-- Generator: Adobe Illustrator 16.0.0, SVG Export Plug-In . SVG Version: 6.00 Build 0)  -->
<!DOCTYPE svg PUBLIC "-//W3C//DTD SVG 1.1//EN" "http://www.w3.org/Graphics/SVG/1.1/DTD/svg11.dtd">
<svg version="1.1" id="circle" xmlns="http://www.w3.org/2000/svg" xmlns:xlink="http://www.w3.org/1999/xlink" x="0px" y="0px"
	 width="439.415px" height="439.402px" viewBox="0 0 439.415 439.402" enable-background="new 0 0 439.415 439.402"
	 xml:space="preserve">
<path fill="#FFFFFF" d="M439.415,219.698c0,121.356-98.365,219.704-219.708,219.704C98.366,439.402,0,341.054,0,219.698
	C0,98.365,98.366,0,219.708,0C341.049,0,439.415,98.365,439.415,219.698z"/>
<path fill="#4D4D4D" d="M96.942,263.053l-42.835-59.002h42.835l26.316-34.086c0,0,1.19-0.979,3.64-2.729
	c2.52-1.75,7.278-2.03,7.278-2.03h34.086v-11.969h15.468l8.679-20.297h11.199l-4.48,11.269l6.369,9.029h40.806v11.969h66.491
	c0,0,5.881,0,9.59,3.15c5.039,4.199,5.668,7.559,5.668,7.559l10.779,28.137h23.866l22.608,59.002c0,0-26.178-16.098-68.031-13.997
	c-34.087,2.029-47.385,13.717-86.23,13.717c-21.207,0-52.844-10.638-77.201-11.058C135.927,251.435,106.741,259.065,96.942,263.053
	 M115.629,289.93c14.278-3.499,33.806-9.379,68.103-2.168c16.937,3.499,32.966,7.277,48.714,7.698
	c20.508,0.07,31.846-3.499,47.734-7.421c14.277-3.708,30.936-6.788,43.535-6.647c21.977,0.35,38.775,3.849,48.083,7.979
	l-6.719-18.197c-18.198-6.158-49.204-9.73-84.899,0.489c-15.048,4.62-30.587,7.629-46.474,7.419
	c-14.35-0.279-28.138-2.449-42.276-5.529c-45.215-10.499-62.363-3.359-85.32,2.73L115.629,289.93z M115.209,204.051h41.925v-25.547
	h-16.378c0,0-3.359,0.42-7.209,2.87c-2.31,1.4-6.929,7.699-6.929,7.699L115.209,204.051z M222.787,204.051h43.534v-25.547h-43.534
	V204.051z M315.385,184.733c0,0-1.12-2.8-2.939-4.129c-2.449-1.68-4.689-2.1-4.689-2.1H277.38v25.547h45.354L315.385,184.733z
	 M168.263,204.051h43.815l-0.14-25.547h-43.675V204.051z"/>
</svg>
