<?xml version="1.0" encoding="utf-8"?>
<!-- Generator: Adobe Illustrator 16.0.0, SVG Export Plug-In . SVG Version: 6.00 Build 0)  -->
<!DOCTYPE svg PUBLIC "-//W3C//DTD SVG 1.1//EN" "http://www.w3.org/Graphics/SVG/1.1/DTD/svg11.dtd">
<svg version="1.1" id="circle" xmlns="http://www.w3.org/2000/svg" xmlns:xlink="http://www.w3.org/1999/xlink" x="0px" y="0px"
	 width="439.415px" height="439.402px" viewBox="0 0 439.415 439.402" enable-background="new 0 0 439.415 439.402"
	 xml:space="preserve">
<path fill="#FFFFFF" d="M439.415,219.698c0,121.354-98.365,219.704-219.708,219.704C98.366,439.402,0,341.054,0,219.698
	C0,98.365,98.366,0,219.708,0C341.049,0,439.415,98.365,439.415,219.698z"/>
<g>
	<g>
		<g>
			<path fill="#C1272D" d="M382.133,209.019c-9.477-11.959-9.771-12.395-10.207-16.33l-0.439-3.937l9.48-21.29
				c5.246-11.81,9.332-21.576,9.037-21.871c-0.289-0.29-4.08-0.583-8.748-0.583h-8.313l-1.748,2.188
				c-3.209,4.231-20.854,32.806-21.58,34.993l-0.729,2.188l-6.123-0.438c-19.828-1.312-124.371-5.248-152.218-5.541l-24.059-0.436
				l-2.041-4.231l-2.188-4.372h-8.164v-3.354c0-2.914,0.146-3.353,1.313-3.353c2.184,0,3.498-1.895,3.498-5.395
				c0-4.375-1.313-5.396-6.27-5.396c-4.812,0-5.834,1.021-5.834,5.686c0,3.646,0.878,5.105,2.771,5.105
				c1.021,0,1.17,0.584,1.17,3.353v3.354h-7.293l-4.667,9.332h-3.936c-12.685,0-24.494,4.082-38.64,13.414
				c-16.621,10.79-32.076,27.556-37.906,41.553c-2.772,6.563-2.917,13.417-0.439,18.228c3.937,7.872,15.601,15.746,27.409,18.663
				c5.249,1.312,7.292,1.312,53.366,1.163l47.822-0.142l3.646-1.749c6.125-2.918,18.662-10.646,23.768-14.728
				c8.749-6.996,16.911-16.329,24.346-27.993c2.479-3.791,4.521-6.124,5.541-6.56c3.066-1.168,17.5-3.79,42.139-7.727
				c36.596-5.835,60.949-9.771,62.113-10.062c0.584-0.147,1.457,0.436,2.041,1.604c0.584,1.021,5.982,5.54,11.811,10.061
				l10.791,8.163h9.621c5.396,0,9.625-0.29,9.625-0.583C391.903,221.701,387.528,215.872,382.133,209.019z M125.371,199.247
				c-3.646,8.168-5.686,19.684-5.686,32.95v8.751H91.398c-23.035,0-28.285-0.145-28.285-0.872c0-1.753,5.977-12.979,9.332-17.934
				c8.747-12.249,22.891-24.207,30.618-25.662c1.603-0.295,7.728-0.584,13.562-0.729h10.641L125.371,199.247z"/>
			<path fill="#C1272D" d="M49.553,152.153c-1.75,1.458-2.041,2.188-2.041,4.521c0,3.645,1.458,5.541,4.52,6.415
				c2.771,0.729,77.277,1.021,81.068,0.293c5.395-1.021,7.288-7.291,3.498-11.082l-1.895-1.896H93.148H51.74L49.553,152.153z"/>
			<path fill="#C1272D" d="M168.821,152.445c-3.646,3.645-2.187,9.476,2.771,10.936c3.5,0.873,79.463,0.873,82.233,0
				c2.771-0.876,4.229-3.354,4.229-6.563c0-2.187-0.438-2.916-2.043-4.373l-2.039-1.749h-41.701h-41.407L168.821,152.445z"/>
			<path fill="#C1272D" d="M101.169,289.793c-2.188,6.122-4.084,11.372-4.521,11.519c-1.167,0.727-7.873-1.752-10.205-3.938
				c-1.46-1.167-3.354-3.938-4.375-5.979c-2.188-4.521-4.521-5.979-7.582-4.666c-3.791,1.604-4.229,4.955-1.604,10.643
				c3.063,6.707,10.643,12.393,18.663,14.287c1.896,0.439,22.744,0.73,56.135,0.73h53.218l1.604-1.75
				c2.188-2.186,2.336-5.541,0.146-7.581c-1.457-1.459-2.187-1.459-14.144-1.459H175.82V290.08v-11.519h-4.375h-4.373v11.519v11.519
				h-30.475c-16.621,0-30.326,0-30.326-0.146c0-0.145,1.749-4.957,3.646-10.935c2.04-5.832,3.644-10.935,3.644-11.228
				s-1.895-0.583-4.373-0.583h-4.229L101.169,289.793z"/>
		</g>
	</g>
</g>
</svg>
