<?xml version="1.0" encoding="utf-8"?>
<!-- Generator: Adobe Illustrator 16.0.0, SVG Export Plug-In . SVG Version: 6.00 Build 0)  -->
<!DOCTYPE svg PUBLIC "-//W3C//DTD SVG 1.1//EN" "http://www.w3.org/Graphics/SVG/1.1/DTD/svg11.dtd">
<svg version="1.1" id="circle" xmlns="http://www.w3.org/2000/svg" xmlns:xlink="http://www.w3.org/1999/xlink" x="0px" y="0px"
	 width="439.415px" height="439.402px" viewBox="0 0 439.415 439.402" enable-background="new 0 0 439.415 439.402"
	 xml:space="preserve">
<path fill="#FFFFFF" d="M439.415,219.698c0,121.356-98.365,219.704-219.708,219.704C98.366,439.402,0,341.054,0,219.698
	C0,98.365,98.366,0,219.708,0C341.049,0,439.415,98.365,439.415,219.698z"/>
<g>
	<path fill="#1300fe" d="M235.875,145.34h-32.337c-3.3,0-6,2.7-6,6v143.112c0,3.3,2.7,6,6,6h32.337c3.3,0,6-2.7,6-6V151.34
		C241.875,148.041,239.175,145.34,235.875,145.34z M234.086,213.843c0,4.706-3.815,8.521-8.521,8.521h-11.716
		c-4.705,0-8.521-3.815-8.521-8.521v-41.008c0-4.706,3.816-8.521,8.521-8.521h11.716c4.706,0,8.521,3.815,8.521,8.521V213.843z"/>
	<path fill="#1300fe" d="M320.897,131.827c0-10.651-10.652-21.303-21.304-21.303l-79.886-10.651l-79.886,10.651
		c-10.652,0-21.304,10.652-21.304,21.303l-15.977,138.47l10.652,42.604c3.548,17.755,10.651,26.629,21.303,26.629h15.977v-7.989
		h138.47v7.989h15.977c10.651,0,17.755-8.874,21.302-26.629l10.652-42.604L320.897,131.827z M141.26,300.648
		c-6.674,0-12.087-5.41-12.087-12.087c0-6.675,5.413-12.086,12.087-12.086c6.676,0,12.087,5.411,12.087,12.086
		C153.347,295.238,147.936,300.648,141.26,300.648z M171.776,247.394c0,5.682-2.663,8.522-7.989,8.522h-37.813
		c-5.326,0-7.988-2.841-7.988-8.522l10.119-99.59c0.71-5.681,3.55-8.521,8.521-8.521h27.162c5.326,0,7.989,2.84,7.989,8.521V247.394
		z M251.862,304.439c0,3.3-2.7,6-6,6h-52.308c-3.3,0-6-2.7-6-6V141.354c0-3.3,2.7-6,6-6h52.308c3.3,0,6,2.7,6,6V304.439z
		 M298.155,300.648c-6.676,0-12.087-5.41-12.087-12.087c0-6.675,5.411-12.086,12.087-12.086c6.675,0,12.088,5.411,12.088,12.086
		C310.243,295.238,304.83,300.648,298.155,300.648z M313.44,255.917h-37.813c-5.326,0-7.988-2.841-7.988-8.522v-99.59
		c0-5.681,2.662-8.521,7.988-8.521h27.16c4.971,0,7.813,2.84,8.522,8.521l10.119,99.59
		C321.429,253.076,318.766,255.917,313.44,255.917z"/>
</g>
</svg>
