<?xml version="1.0" encoding="utf-8"?>
<!-- Generator: Adobe Illustrator 16.0.0, SVG Export Plug-In . SVG Version: 6.00 Build 0)  -->
<!DOCTYPE svg PUBLIC "-//W3C//DTD SVG 1.1//EN" "http://www.w3.org/Graphics/SVG/1.1/DTD/svg11.dtd">
<svg version="1.1" id="circle" xmlns="http://www.w3.org/2000/svg" xmlns:xlink="http://www.w3.org/1999/xlink" x="0px" y="0px"
	 width="439.415px" height="439.401px" viewBox="0 0 439.415 439.401" enable-background="new 0 0 439.415 439.401"
	 xml:space="preserve">
<path fill="#FFFFFF" d="M439.415,219.698c0,121.357-98.365,219.703-219.708,219.703C98.366,439.401,0,341.055,0,219.698
	C0,98.365,98.366,0,219.708,0C341.05,0,439.415,98.365,439.415,219.698z"/>
<path fill="#4D4D4D" d="M137.315,300.587l-45.294-24.78l14.867-14.843l35.38,4.938l55.193-55.2L87.068,150.565l19.819-19.812
	l135.155,34.656l55.551-54.841c4.019-3.995,9.023-6,15.032-6c6.015,0,11.027,2.006,15.037,6c4.025,4.01,6.016,9.023,6.016,15.038
	c0,6.031-1.99,11.029-6.016,15.039l-55.184,55.215l34.654,135.148l-19.804,19.826l-60.146-110.398l-55.207,55.199l4.959,35.373
	l-14.858,14.859L137.315,300.587z"/>
</svg>
