<?xml version="1.0" encoding="utf-8"?>
<!-- Generator: Adobe Illustrator 16.0.0, SVG Export Plug-In . SVG Version: 6.00 Build 0)  -->
<!DOCTYPE svg PUBLIC "-//W3C//DTD SVG 1.1//EN" "http://www.w3.org/Graphics/SVG/1.1/DTD/svg11.dtd">
<svg version="1.1" id="circle" xmlns="http://www.w3.org/2000/svg" xmlns:xlink="http://www.w3.org/1999/xlink" x="0px" y="0px"
	 width="439.415px" height="439.402px" viewBox="0 0 439.415 439.402" enable-background="new 0 0 439.415 439.402"
	 xml:space="preserve">
<path fill="#FFFFFF" d="M439.415,219.698c0,121.356-98.365,219.704-219.708,219.704C98.366,439.402,0,341.054,0,219.698
	C0,98.365,98.366,0,219.708,0C341.049,0,439.415,98.365,439.415,219.698z"/>
<path fill="#00663F" d="M137.315,300.587l-45.294-24.78l14.867-14.843l35.38,4.938l55.193-55.2L87.068,150.565l19.819-19.812
	l135.154,34.656l55.551-54.841c4.02-3.995,9.023-6,15.033-6c6.015,0,11.026,2.006,15.037,6c4.024,4.01,6.016,9.023,6.016,15.038
	c0,6.031-1.99,11.029-6.016,15.039l-55.185,55.215l34.653,135.147l-19.803,19.826l-60.146-110.397l-55.207,55.198l4.959,35.373
	l-14.858,14.859L137.315,300.587z"/>
</svg>
