<?xml version="1.0" encoding="utf-8"?>
<!-- Generator: Adobe Illustrator 16.0.0, SVG Export Plug-In . SVG Version: 6.00 Build 0)  -->
<!DOCTYPE svg PUBLIC "-//W3C//DTD SVG 1.1//EN" "http://www.w3.org/Graphics/SVG/1.1/DTD/svg11.dtd">
<svg version="1.1" id="circle" xmlns="http://www.w3.org/2000/svg" xmlns:xlink="http://www.w3.org/1999/xlink" x="0px" y="0px"
	 width="439.415px" height="439.402px" viewBox="0 0 439.415 439.402" enable-background="new 0 0 439.415 439.402"
	 xml:space="preserve">
<path fill="#FFFFFF" d="M439.415,219.698c0,121.356-98.365,219.704-219.708,219.704C98.366,439.402,0,341.054,0,219.698
	C0,98.365,98.366,0,219.708,0C341.049,0,439.415,98.365,439.415,219.698z"/>
<g>
	<path fill="#4D4D4D" d="M134.408,231.086c4.027-2.024,8.49-3.845,13.379-5.483c4.89-1.621,10.884-2.429,17.981-2.429
		c7.289,0,13.285,0.808,17.981,2.429c4.697,1.639,9.063,3.459,13.092,5.483c0.532,0.265,1.064,0.508,1.598,0.769l118.373-32.012
		c4.022-1.157,7.325-3.361,9.912-6.619c2.606-3.258,3.888-7,3.888-11.216c0-6.722-2.494-12.093-7.485-16.115
		c-4.97-4.024-10.54-5.181-16.677-3.452l-57.541,15.531l-78.833-70.768l-22.444,6.901l46.611,78.825l-55.241,14.969l-20.138-17.846
		l-17.835,3.461l24.541,41.757C128.492,233.943,131.433,232.565,134.408,231.086z"/>
	<path fill="#4D4D4D" d="M108.229,332.198v-22.443c5.562,0,10.311-0.866,14.236-2.583c3.934-1.731,7.915-3.598,11.943-5.619
		c4.027-2.012,8.489-3.834,13.377-5.463c4.889-1.631,10.883-2.451,17.98-2.451c7.288,0,13.284,0.823,17.982,2.451
		c4.698,1.629,9.062,3.451,13.093,5.463c4.022,2.021,8.051,3.888,12.079,5.619c4.029,1.717,8.823,2.583,14.386,2.583
		c5.564,0,10.362-0.866,14.385-2.583c4.021-1.731,8.059-3.598,12.082-5.619c4.036-2.012,8.439-3.834,13.238-5.463
		c4.799-1.631,10.731-2.451,17.835-2.451c7.281,0,13.328,0.823,18.129,2.451c4.796,1.629,9.201,3.451,13.228,5.463
		c4.032,2.021,8.057,3.888,12.093,5.619c4.022,1.717,8.72,2.583,14.091,2.583v22.443c-7.28,0-13.373-0.865-18.272-2.597
		c-4.889-1.72-9.351-3.595-13.374-5.608c-4.023-2.011-7.957-3.831-11.801-5.462c-3.831-1.631-8.529-2.448-14.093-2.448
		c-5.372,0-10.024,0.819-13.959,2.448c-3.933,1.631-7.866,3.451-11.79,5.462c-3.931,2.012-8.348,3.889-13.238,5.608
		c-4.889,1.731-11.07,2.597-18.554,2.597c-7.479,0-13.665-0.865-18.554-2.597c-4.894-1.72-9.308-3.595-13.24-5.608
		c-3.927-2.011-7.81-3.831-11.649-5.462c-3.836-1.631-8.534-2.448-14.096-2.448c-5.371,0-10.025,0.819-13.953,2.448
		c-3.934,1.631-7.911,3.451-11.939,5.462c-4.028,2.012-8.485,3.889-13.379,5.608C121.608,331.333,115.517,332.198,108.229,332.198z
		 M108.229,280.985v-22.444c5.562,0,10.311-0.865,14.236-2.583c3.934-1.73,7.915-3.596,11.943-5.611
		c4.027-2.022,8.489-3.842,13.377-5.473c4.889-1.63,10.883-2.438,17.98-2.438c7.288,0,13.284,0.808,17.982,2.438
		c4.698,1.631,9.062,3.45,13.093,5.473c4.022,2.012,8.051,3.881,12.079,5.611c4.029,1.718,8.823,2.583,14.386,2.583
		c5.564,0,10.362-0.865,14.385-2.583c4.021-1.73,8.059-3.596,12.082-5.611c4.036-2.022,8.439-3.842,13.238-5.473
		c4.799-1.63,10.731-2.438,17.835-2.438c7.281,0,13.328,0.808,18.129,2.438c4.796,1.631,9.201,3.45,13.228,5.473
		c4.032,2.012,8.057,3.881,12.093,5.611c4.022,1.718,8.72,2.583,14.091,2.583v22.444c-7.28,0-13.373-0.866-18.272-2.586
		c-4.889-1.731-9.351-3.595-13.374-5.618c-4.023-2.012-7.957-3.832-11.801-5.461c-3.831-1.631-8.529-2.451-14.093-2.451
		c-5.372,0-10.024,0.82-13.959,2.451c-3.933,1.629-7.866,3.449-11.79,5.461c-3.931,2.023-8.348,3.887-13.238,5.618
		c-4.889,1.72-11.07,2.586-18.554,2.586c-7.479,0-13.665-0.866-18.554-2.586c-4.894-1.731-9.308-3.595-13.24-5.618
		c-3.927-2.012-7.81-3.832-11.649-5.461c-3.836-1.631-8.534-2.451-14.096-2.451c-5.371,0-10.025,0.82-13.953,2.451
		c-3.934,1.629-7.911,3.449-11.939,5.461c-4.028,2.023-8.485,3.887-13.379,5.618C121.608,280.119,115.517,280.985,108.229,280.985z"
		/>
</g>
</svg>
