<?xml version="1.0" encoding="utf-8"?>
<!-- Generator: Adobe Illustrator 16.0.0, SVG Export Plug-In . SVG Version: 6.00 Build 0)  -->
<!DOCTYPE svg PUBLIC "-//W3C//DTD SVG 1.1//EN" "http://www.w3.org/Graphics/SVG/1.1/DTD/svg11.dtd">
<svg version="1.1" id="circle" xmlns="http://www.w3.org/2000/svg" xmlns:xlink="http://www.w3.org/1999/xlink" x="0px" y="0px"
	 width="439.415px" height="439.402px" viewBox="0 0 439.415 439.402" enable-background="new 0 0 439.415 439.402"
	 xml:space="preserve">
<path fill="#FFFFFF" d="M439.415,219.698c0,121.356-98.365,219.704-219.708,219.704C98.366,439.402,0,341.054,0,219.698
	C0,98.365,98.366,0,219.708,0C341.049,0,439.415,98.365,439.415,219.698z"/>
<g>
	<path fill="#976D4D" d="M205.713,62.576c6.11,0,11.076,4.965,11.076,11.085s-4.965,11.094-11.076,11.094
		c-6.138,0-11.094-4.974-11.094-11.094C194.619,67.542,199.575,62.576,205.713,62.576z"/>
	<path fill="#976D4D" d="M234.304,62.576c6.108,0,11.084,4.965,11.084,11.085s-4.976,11.094-11.084,11.094
		c-6.14,0-11.095-4.974-11.095-11.094C223.209,67.542,228.165,62.576,234.304,62.576z"/>
	<path fill="#976D4D" d="M269.303,88.247h-99.19c-20.95,0-37.929,16.979-37.929,37.928v140.054c0,20.95,16.979,37.92,37.929,37.92
		h99.19c20.949,0,37.929-16.97,37.929-37.92V126.175C307.231,105.226,290.252,88.247,269.303,88.247z M194.619,102.842
		c0-3.548,2.873-6.429,6.411-6.429h37.937c3.539,0,6.421,2.881,6.421,6.429v11.084c0,3.539-2.882,6.402-6.421,6.402H201.03
		c-3.539,0-6.411-2.863-6.411-6.402V102.842z M170.685,283.723c-9.658,0-17.505-7.847-17.505-17.494
		c0-9.683,7.847-17.519,17.505-17.519c9.677,0,17.514,7.836,17.514,17.519C188.199,275.876,180.362,283.723,170.685,283.723z
		 M268.73,283.723c-9.676,0-17.515-7.847-17.515-17.494c0-9.683,7.839-17.519,17.515-17.519c9.659,0,17.496,7.836,17.496,17.519
		C286.227,275.876,278.39,283.723,268.73,283.723z M286.809,172.862c0,10.954-8.881,19.833-19.842,19.833h-93.945
		c-10.953,0-19.842-8.879-19.842-19.833v-25.099c0-10.954,8.889-19.841,19.842-19.841h93.945c10.961,0,19.842,8.888,19.842,19.841
		V172.862z"/>
	<polygon fill="#976D4D" points="300.858,376.873 265.465,324.33 173.942,324.33 138.557,376.873 121.126,365.121 162.772,303.322 
		276.643,303.322 318.279,365.121 	"/>
</g>
</svg>
