<?xml version="1.0" encoding="utf-8"?>
<!-- Generator: Adobe Illustrator 16.0.0, SVG Export Plug-In . SVG Version: 6.00 Build 0)  -->
<!DOCTYPE svg PUBLIC "-//W3C//DTD SVG 1.1//EN" "http://www.w3.org/Graphics/SVG/1.1/DTD/svg11.dtd">
<svg version="1.1" id="Layer_1" xmlns="http://www.w3.org/2000/svg" xmlns:xlink="http://www.w3.org/1999/xlink" x="0px" y="0px"
	 width="1164.456px" height="166.262px" viewBox="0 0 1164.456 166.262" enable-background="new 0 0 1164.456 166.262"
	 xml:space="preserve">
<g>
	<g>
		<path fill="#FFC90E" d="M300.155,59.85v12.799h13.756v14.117h-13.756v44.529h-17.787v-44.66H273.2V72.648h9.168V60.243
			c0-4.929,2.061-10.257,5.508-14.25c2.969-3.445,8.365-7.546,17.206-7.546h10.925v15.558h-10.401
			C302.704,54.006,300.155,56.736,300.155,59.85z"/>
	</g>
	<g>
		<rect x="384.547" y="40.019" fill="#FFC90E" width="18.31" height="91.276"/>
	</g>
	<g>
		<rect x="412.056" y="71.086" fill="#FFC90E" width="18.311" height="60.209"/>
		<path fill="#FFC90E" d="M430.366,56.334c0,4.652-3.863,7.779-9.614,7.779c-4.218,0-6.356-2.074-7.257-3.312l-0.073-0.114
			c-1.189-2.036-1.366-4.094-1.366-5.141c0-3.936,2.972-7.909,9.614-7.909c4.153,0,6.238,2.13,7.125,3.439
			C430.16,52.822,430.366,55.115,430.366,56.334z"/>
	</g>
	<g>
		<path fill="#FFC90E" d="M501.759,98.645v32.65h-18.31V97.072c0-4.889-3.686-10.167-9.644-10.167h-2.75
			c-8.062,0-13.05,6.911-13.05,13.31v31.08h-18.31V72.658h13.088l1.526,3.159c5.144-3.222,11.22-4.731,18.973-4.731
			c11.038,0,17.792,5.136,21.513,9.443C499.157,85.575,501.759,92.347,501.759,98.645z"/>
	</g>
	<path fill="#FFC90E" d="M370.022,81.61c-4.164-4.802-11.695-10.523-23.937-10.523c-12.708,0-20.436,5.521-24.68,10.151
		c-5.16,5.629-8.119,13.121-8.119,20.553v0.107c0,6.968,2.942,14.489,7.869,20.121c4.175,4.77,11.704,10.453,23.883,10.453
		c12.765,0,20.495-5.513,24.729-10.136c0.288-0.313,0.567-0.635,0.841-0.96l-13.37-10.452c-2.193,3.373-5.872,5.856-10.629,5.856
		h-1.943c-6.21-0.188-10.328-3.906-12.089-8.365h44.505c0.494-2.145,0.754-4.332,0.754-6.518v-0.107
		C377.837,94.796,374.917,87.253,370.022,81.61z M332.634,95.162c1.881-4.53,6.193-8.256,11.88-8.256h1.946
		c6.194,0.187,10.306,3.854,12.075,8.256H332.634z"/>
	<path fill="#FFC90E" d="M564.812,81.61c-4.164-4.802-11.696-10.523-23.937-10.523c-12.708,0-20.436,5.521-24.681,10.151
		c-5.16,5.629-8.119,13.121-8.119,20.553v0.107c0,6.968,2.942,14.489,7.869,20.121c4.174,4.77,11.704,10.453,23.883,10.453
		c12.766,0,20.496-5.513,24.729-10.136c0.289-0.313,0.568-0.635,0.842-0.96l-13.37-10.452c-2.193,3.373-5.871,5.856-10.629,5.856
		h-1.944c-6.21-0.188-10.327-3.906-12.089-8.365h44.506c0.493-2.145,0.755-4.332,0.755-6.518v-0.107
		C572.626,94.796,569.706,87.253,564.812,81.61z M527.422,95.162c1.881-4.53,6.194-8.256,11.88-8.256h1.947
		c6.193,0.187,10.306,3.854,12.075,8.256H527.422z"/>
	<g>
		<g>
			<g>
				<g>
					<path fill="#FF7F27" stroke="#FF7F27" stroke-width="2.292" stroke-miterlimit="10" d="M602.951,76.017h6.62l1.544,1.765
						c3.31-2.096,7.944-3.089,11.696-3.089s9.378,0.993,12.468,3.641l0.772,0.772l-4.414,10.813l-2.538-1.655
						c-2.207-1.544-5.075-2.538-7.613-2.538c-3.862,0-5.406,2.538-5.406,6.289v38.838h-13.13V76.017z"/>
					<path fill="#FF7F27" stroke="#FF7F27" stroke-width="2.292" stroke-miterlimit="10" d="M650.507,108.455
						c0,6.179,4.524,12.138,12.248,12.468c0.441,0,0.993,0,1.544,0c5.076,0,9.379-3.53,11.034-7.612l0.993-2.317l10.703,6.62
						l-0.662,1.104c-4.414,7.393-11.475,13.13-23.391,13.13c-17.212,0-25.598-14.233-25.598-24.605v-7.833
						c0-11.144,8.717-24.715,26.481-24.715c16.33,0,25.598,13.902,25.598,23.943v7.834h-38.949V108.455z M676.216,96.87
						c-0.552-5.738-4.965-10.923-12.027-11.144c-0.551,0-1.103,0-1.655,0c-6.951,0-11.144,5.406-11.917,11.144H676.216z"/>
					<path fill="#FF7F27" stroke="#FF7F27" stroke-width="2.292" stroke-miterlimit="10" d="M721.013,129.971
						c-3.2,1.104-6.289,1.876-9.709,1.876c-8.385,0-11.916-6.73-11.916-14.233V85.616h-7.062v-9.599h7.062V64.321l12.688-8.165
						v19.861h8.937v9.599h-8.937v31.777c0,0.883,0.11,1.876,0.552,2.538c0.331,0.441,0.662,0.662,1.434,0.662
						c1.435,0,3.2-0.662,4.965-1.435l3.31-1.545v11.916L721.013,129.971z"/>
					<path fill="#FF7F27" stroke="#FF7F27" stroke-width="2.292" stroke-miterlimit="10" d="M732.377,79.437l0.993-0.552
						c5.517-2.758,13.903-4.193,20.192-4.193c17.102,0,22.729,7.172,22.729,18.757v23.943c0,0.552,0.11,0.772,0.221,0.993
						c0.11,0.11,0.11,0.11,0.221,0.11c0.221,0.11,0.441,0.221,0.993,0.221c0.552,0.11,1.214,0.11,1.765,0.11h2.207v12.026h-7.724
						c-3.641,0-6.399-1.545-8.275-3.53c-3.862,3.53-10.372,4.523-15.667,4.523h-2.869c-13.682,0-20.302-11.145-20.302-19.198
						c0-11.145,7.393-18.978,23.171-18.978h13.02c-0.11-5.517-2.538-8.827-9.489-8.827c-5.627,0-13.461,2.869-17.433,6.068
						l-3.751,2.869V79.437z M749.59,104.814c-6.51,0-9.599,2.427-9.599,7.503c0,4.413,3.861,7.944,9.268,7.944h1.655
						c7.613,0,12.137-6.4,12.137-12.579v-2.868H749.59z"/>
					<path fill="#FF7F27" stroke="#FF7F27" stroke-width="2.292" stroke-miterlimit="10" d="M788.87,61.783
						c0-3.089,2.427-5.517,6.951-5.517c2.538,0,4.192,1.104,5.075,2.428c0.883,1.103,1.104,2.648,1.104,3.751
						c0,3.089-2.538,5.406-6.951,5.406c-2.648,0-4.303-1.104-5.186-2.317C789.09,64.21,788.87,62.776,788.87,61.783z M788.87,76.017
						H802v54.837h-13.13V76.017z"/>
					<path fill="#FF7F27" stroke="#FF7F27" stroke-width="2.292" stroke-miterlimit="10" d="M812.151,56.266h13.13v74.587h-13.13
						V56.266z"/>
				</g>
			</g>
		</g>
	</g>
	<g>
		<g>
			<g>
				<path fill="#7F7F7F" stroke="#7F7F7F" stroke-width="2.292" stroke-miterlimit="10" d="M867.334,133.833l2.207,1.103
					c4.854,2.759,13.13,6.18,18.315,6.18c6.841,0,10.593-6.29,10.593-11.917v-0.883c-3.09,2.207-7.393,3.531-11.585,3.531h-2.207
					c-17.213,0-25.598-14.233-25.598-24.605v-7.833c0-10.372,8.385-24.715,25.598-24.715h2.207c4.523,0,9.488,1.545,12.909,3.972
					l1.986-2.648h9.378v53.402c0,9.82-8.496,22.398-24.273,22.398c-8.165,0-17.654-3.31-23.502-7.172l-1.214-0.772L867.334,133.833z
					 M886.092,120.923c7.393,0,11.916-6.51,11.916-12.357V97.973c0-5.848-4.523-12.247-11.916-12.247h-1.766
					c-7.503,0-12.137,6.399-12.137,12.357v10.372c0,5.848,4.634,12.468,12.026,12.468H886.092z"/>
				<path fill="#7F7F7F" stroke="#7F7F7F" stroke-width="2.292" stroke-miterlimit="10" d="M921.51,76.017h6.62l1.545,1.765
					c3.311-2.096,7.944-3.089,11.695-3.089c3.752,0,9.379,0.993,12.469,3.641l0.772,0.772l-4.414,10.813l-2.537-1.655
					c-2.207-1.544-5.076-2.538-7.613-2.538c-3.862,0-5.407,2.538-5.407,6.289v38.838h-13.13V76.017z"/>
				<path fill="#7F7F7F" stroke="#7F7F7F" stroke-width="2.292" stroke-miterlimit="10" d="M955.938,99.408
					c0-11.144,8.605-24.715,26.48-24.715c17.322,0,25.598,14.344,25.598,24.715v7.833c0,11.034-8.496,24.605-26.48,24.605
					c-17.213,0-25.598-14.233-25.598-24.605V99.408z M982.86,120.923c7.503,0,12.026-6.51,12.026-12.468V98.083
					c0-6.068-4.523-12.137-12.137-12.357c-0.552,0-1.104,0-1.655,0c-7.393,0-12.026,6.51-12.026,12.357v10.372
					c0,6.068,4.523,12.247,12.137,12.468C981.756,120.923,982.308,120.923,982.86,120.923z"/>
				<path fill="#7F7F7F" stroke="#7F7F7F" stroke-width="2.292" stroke-miterlimit="10" d="M1055.131,127.544
					c-4.524,3.199-9.82,4.413-16.44,4.413c-15.447,0-22.84-12.799-22.84-21.957V76.017h13.131v35.308
					c0,4.744,3.641,9.709,9.268,9.709h2.317c7.393,0,12.137-6.51,12.137-12.357V76.017h13.24v54.837h-9.268L1055.131,127.544z"/>
				<path fill="#7F7F7F" stroke="#7F7F7F" stroke-width="2.292" stroke-miterlimit="10" d="M1076.315,76.017h9.158l2.317,3.751
					c3.861-2.869,9.599-4.965,15.006-4.965c17.322,0,25.598,14.454,25.598,24.826v7.613c0,10.372-8.275,24.716-25.598,24.716
					c-4.855,0-10.041-1.435-13.793-4.083v22.509h-12.688V76.017z M1103.237,121.033c7.393,0,12.027-6.51,12.027-12.357V98.194
					c0-5.848-4.745-12.357-12.138-12.357h-1.323c-7.613,0-12.358,6.62-12.358,12.688v9.268
					C1089.445,114.634,1094.411,121.033,1103.237,121.033z"/>
			</g>
		</g>
	</g>
	<g>
		<g>
			<path fill="#FF7F27" d="M245.294,107.87c0,12.884-10.541,23.425-23.425,23.425h-49.478c-12.884,0-23.425-10.541-23.425-23.425
				V58.392c0-12.884,10.541-23.425,23.425-23.425h49.478c12.884,0,23.425,10.541,23.425,23.425V107.87z"/>
		</g>
		<path fill="#FFFFFF" d="M176.731,114.066c-1.869,0-3.472-0.666-4.803-1.998c-1.332-1.331-1.998-2.932-1.998-4.802V66.468
			c0-1.869,0.666-3.472,1.998-4.802c1.331-1.332,2.934-1.998,4.803-1.998h6.799c0-3.74,1.332-6.94,3.995-9.605
			c2.663-2.662,5.864-3.994,9.604-3.994c3.738,0,6.939,1.332,9.605,3.994c2.662,2.665,3.994,5.865,3.994,9.605h6.8
			c1.869,0,3.474,0.666,4.801,1.998c1.335,1.33,1.999,2.933,1.999,4.802v40.799c0,1.87-0.664,3.471-1.999,4.802
			c-1.327,1.332-2.932,1.998-4.801,1.998H176.731z M176.731,107.267h40.798V66.468h-6.8v6.8c0,0.963-0.325,1.771-0.977,2.422
			c-0.65,0.652-1.461,0.979-2.423,0.979c-0.964,0-1.773-0.326-2.424-0.979c-0.651-0.65-0.977-1.459-0.977-2.422v-6.8h-13.599v6.8
			c0,0.963-0.326,1.771-0.979,2.422c-0.65,0.652-1.459,0.979-2.422,0.979s-1.771-0.326-2.422-0.979
			c-0.652-0.65-0.979-1.459-0.979-2.422v-6.8h-6.799V107.267z M190.331,59.668h13.599c0-1.869-0.663-3.471-1.999-4.803
			c-1.328-1.331-2.932-1.997-4.801-1.997s-3.471,0.666-4.803,1.997C190.996,56.197,190.331,57.799,190.331,59.668z M176.731,107.267
			V66.468V107.267z"/>
	</g>
	<g>
		<path fill="#FFC90E" d="M109.63,105.225c0-3.19-2.52-6.601-6.27-6.601h-1.32c-6.81,0-11.03,5.841-11.03,11.24v21.431h16.859
			c0.593,0,1.179-0.029,1.761-0.073V105.225z"/>
		<path fill="#FFC90E" d="M75.55,70.955H63.93v37.61H48.91v-37.72h-7.74v-11.81h7.74v-10.48c0-4.16,1.74-8.66,4.65-12.04
			c0.357-0.414,0.761-0.839,1.203-1.263c-11.176,1.757-19.796,11.49-19.796,23.14v49.479c0,12.884,10.541,23.425,23.425,23.425
			H75.55V70.955z"/>
		<path fill="#FFC90E" d="M107.869,34.967H77.32v8.318h-8.78c-2.45,0-4.61,2.31-4.61,4.94v10.81h27.08v28.63
			c3.54-1.59,7.54-2.4,11.91-2.4c8.55,0,13.82,3.97,16.73,7.3c3.41,3.89,5.44,9.08,5.44,13.88v17.26
			c3.846-4.178,6.204-9.743,6.204-15.834V58.392C131.294,45.508,120.753,34.967,107.869,34.967z"/>
	</g>
</g>
</svg>
