<?xml version="1.0" encoding="utf-8"?>
<!-- Generator: Adobe Illustrator 16.0.0, SVG Export Plug-In . SVG Version: 6.00 Build 0)  -->
<!DOCTYPE svg PUBLIC "-//W3C//DTD SVG 1.1//EN" "http://www.w3.org/Graphics/SVG/1.1/DTD/svg11.dtd">
<svg version="1.1" id="Layer_1" xmlns="http://www.w3.org/2000/svg" xmlns:xlink="http://www.w3.org/1999/xlink" x="0px" y="0px"
	 width="280.261px" height="166.262px" viewBox="0 0 280.261 166.262" enable-background="new 0 0 280.261 166.262"
	 xml:space="preserve">
<g>
	<g>
		<g>
			<path fill="#FF7F27" d="M245.294,107.87c0,12.884-10.541,23.425-23.425,23.425h-49.478c-12.884,0-23.425-10.541-23.425-23.425
				V58.392c0-12.884,10.541-23.425,23.425-23.425h49.478c12.884,0,23.425,10.541,23.425,23.425V107.87z"/>
		</g>
		<path fill="#FFFFFF" d="M176.731,114.066c-1.869,0-3.472-0.666-4.803-1.998c-1.332-1.331-1.998-2.932-1.998-4.802V66.468
			c0-1.869,0.666-3.472,1.998-4.802c1.331-1.332,2.934-1.998,4.803-1.998h6.799c0-3.74,1.332-6.94,3.995-9.605
			c2.663-2.662,5.864-3.994,9.604-3.994c3.738,0,6.939,1.332,9.605,3.994c2.662,2.665,3.994,5.865,3.994,9.605h6.8
			c1.869,0,3.474,0.666,4.801,1.998c1.335,1.33,1.999,2.933,1.999,4.802v40.799c0,1.87-0.664,3.471-1.999,4.802
			c-1.327,1.332-2.932,1.998-4.801,1.998H176.731z M176.731,107.267h40.798V66.468h-6.8v6.8c0,0.963-0.325,1.771-0.977,2.422
			c-0.65,0.652-1.461,0.979-2.423,0.979c-0.964,0-1.773-0.326-2.424-0.979c-0.651-0.65-0.977-1.459-0.977-2.422v-6.8h-13.599v6.8
			c0,0.963-0.326,1.771-0.979,2.422c-0.65,0.652-1.459,0.979-2.422,0.979s-1.771-0.326-2.422-0.979
			c-0.652-0.65-0.979-1.459-0.979-2.422v-6.8h-6.799V107.267z M190.331,59.668h13.599c0-1.869-0.663-3.471-1.999-4.803
			c-1.328-1.331-2.932-1.997-4.801-1.997s-3.471,0.666-4.803,1.997C190.996,56.197,190.331,57.799,190.331,59.668z M176.731,107.267
			V66.468V107.267z"/>
	</g>
	<g>
		<path fill="#FFC90E" d="M109.63,105.225c0-3.19-2.52-6.601-6.27-6.601h-1.32c-6.81,0-11.03,5.841-11.03,11.24v21.431h16.859
			c0.593,0,1.179-0.029,1.761-0.073V105.225z"/>
		<path fill="#FFC90E" d="M75.55,70.955H63.93v37.61H48.91v-37.72h-7.74v-11.81h7.74v-10.48c0-4.16,1.74-8.66,4.65-12.04
			c0.357-0.414,0.761-0.839,1.203-1.263c-11.176,1.757-19.796,11.49-19.796,23.14v49.479c0,12.884,10.541,23.425,23.425,23.425
			H75.55V70.955z"/>
		<path fill="#FFC90E" d="M107.869,34.967H77.32v8.318h-8.78c-2.45,0-4.61,2.31-4.61,4.94v10.81h27.08v28.63
			c3.54-1.59,7.54-2.4,11.91-2.4c8.55,0,13.82,3.97,16.73,7.3c3.41,3.89,5.44,9.08,5.44,13.88v17.26
			c3.846-4.178,6.204-9.743,6.204-15.834V58.392C131.294,45.508,120.753,34.967,107.869,34.967z"/>
	</g>
</g>
</svg>
