<?xml version="1.0" encoding="utf-8"?>
<!-- Generator: Adobe Illustrator 16.0.0, SVG Export Plug-In . SVG Version: 6.00 Build 0)  -->
<!DOCTYPE svg PUBLIC "-//W3C//DTD SVG 1.1//EN" "http://www.w3.org/Graphics/SVG/1.1/DTD/svg11.dtd">
<svg version="1.1" id="Layer_1" xmlns="http://www.w3.org/2000/svg" xmlns:xlink="http://www.w3.org/1999/xlink" x="0px" y="0px"
	 width="3713.248px" height="385.328px" viewBox="0 0 3713.248 385.328" enable-background="new 0 0 3713.248 385.328"
	 xml:space="preserve">
<g>
	<g>
		<path fill="#CCA77F" d="M2090.67,68.001h224.379l-14.721,31.031h-106.221l-43.363,77.578h92.695l-14.721,31.031h-95.48
			l-52.912,94.287h114.576l-15.117,31.031h-238.303L2090.67,68.001z"/>
		<path fill="#CCA77F" d="M2186.943,332.959l231.141-264.958h98.266l-68.824,264.958h-110.6l15.516-59.675h-74.793l-52.115,59.675
			H2186.943z M2359.205,248.221l25.461-97.47l-85.137,97.47H2359.205z"/>
		<path fill="#CCA77F" d="M2983.803,68.001l-149.189,264.958h-120.941l117.361-208.465l-176.24,208.465h-87.922l54.105-197.326
			L2509.98,332.959h-42.17l149.188-264.958h122.533l-49.729,177.435l150.381-177.435H2983.803z"/>
	</g>
	<path fill="#4D4D4D" d="M1902.404,199.362c0,15.415-12.5,27.912-27.912,27.912c-15.418,0-27.91-12.497-27.91-27.912
		s12.492-27.912,27.91-27.912C1889.904,171.451,1902.404,183.948,1902.404,199.362z"/>
	<polygon fill="#4D4D4D" points="256.883,128.442 256.883,256.883 385.328,256.883 385.328,385.328 0,385.328 0,256.883 
		128.445,256.883 128.445,128.442 0,128.442 0,0 385.328,0 385.328,128.442 	"/>
	<g>
		<path fill="#4D4D4D" d="M602.243,314.413h-47.238V70.912h47.238V314.413z"/>
		<path fill="#4D4D4D" d="M802.161,314.413h-43.885V209.271c0-6.295-0.971-11.833-2.909-16.609
			c-1.938-4.771-4.538-8.733-7.805-11.886c-3.267-3.147-6.991-5.485-11.171-7.009c-4.181-1.524-8.519-2.286-13.004-2.286
			c-6.733,0-13.367,1.171-19.895,3.505c-6.529,2.338-12.443,6.047-17.748,11.124v128.303h-43.885v-176.15h43.885l0.305,13.105
			c2.638-2.638,5.891-5.076,9.752-7.314c3.857-2.233,7.871-4.114,12.038-5.638c4.162-1.523,8.428-2.69,12.8-3.504
			c4.366-0.81,8.581-1.219,12.647-1.219c8.938,0,17.524,1.424,25.752,4.267c8.228,2.848,15.542,7.214,21.942,13.104
			c6.4,5.896,11.528,13.514,15.39,22.857c3.857,9.348,5.791,20.419,5.791,33.219V314.413z"/>
		<path fill="#4D4D4D" d="M933.811,310.451c-4.471,2.848-9.652,4.976-15.541,6.4c-5.896,1.419-11.787,2.133-17.676,2.133
			c-10.363,0-19.102-1.271-26.211-3.81c-7.113-2.538-12.799-6.447-17.064-11.733c-4.268-5.281-7.367-11.986-9.296-20.114
			c-1.933-8.124-2.896-17.676-2.896-28.647v-77.104h-23.161v-19.809c14.219-5.891,25.752-14.628,34.59-26.209
			c8.837-11.581,14.88-26.614,18.132-45.104h14.324v51.504h44.494v39.619h-44.494v80.151c0,4.472,0.557,8.128,1.676,10.972
			c1.115,2.847,2.592,5.081,4.42,6.705c1.828,1.628,3.91,2.743,6.248,3.352c2.332,0.61,4.822,0.915,7.465,0.915
			c3.453,0,7.619-0.61,12.496-1.829c4.877-1.219,9.037-3.248,12.494-6.095V310.451z"/>
		<path fill="#4D4D4D" d="M1086.189,156.548l-23.467,37.18c-4.266-4.671-8.99-8.785-14.17-12.342
			c-5.182-3.553-10.414-5.333-15.695-5.333c-2.848,0-5.943,0.662-9.295,1.981c-3.354,1.324-6.506,3.505-9.447,6.552
			c-2.947,3.048-5.438,7.062-7.467,12.038c-2.033,4.981-3.047,11.124-3.047,18.438v99.351h-43.887v-176.15h43.887v18.895
			c5.279-7.514,11.123-13.305,17.523-17.371c6.398-4.062,13.561-6.095,21.484-6.095c7.719,0,15.285,2.086,22.705,6.248
			C1072.729,144.105,1079.686,149.644,1086.189,156.548z"/>
		<path fill="#4D4D4D" d="M1244.66,314.413h-43.885v-9.447c-7.725,5.286-15.9,8.942-24.533,10.971
			c-8.639,2.028-17.523,3.047-26.666,3.047c-8.533,0-16.258-1.271-23.162-3.81c-6.908-2.538-12.904-6.195-17.98-10.971
			c-5.08-4.771-8.99-10.409-11.732-16.914c-2.744-6.5-4.115-13.714-4.115-21.638c0-9.952,2.182-18.638,6.553-26.057
			c4.367-7.414,10.309-13.609,17.828-18.59c7.514-4.976,16.305-8.686,26.361-11.124s20.877-3.657,32.457-3.657h25.295
			c0-10.362-3.352-18.59-10.057-24.685s-16.357-9.143-28.953-9.143c-6.094,0-12.395,1.119-18.895,3.353
			c-6.504,2.238-13.004,6.3-19.504,12.19l-25.904-26.209c9.342-8.938,20.162-15.847,32.457-20.723
			c12.289-4.876,24.938-7.314,37.941-7.314c12.191,0,23.043,1.934,32.563,5.791c9.514,3.862,17.199,8.838,23.051,14.933
			c7.668,7.724,13.063,16.357,16.191,25.904c3.123,9.552,4.689,21.743,4.689,36.571V314.413z M1200.775,270.527v-32.609h-20.113
			c-6.096,0-11.838,0.41-17.219,1.219c-5.387,0.814-10.059,2.186-14.02,4.114c-3.961,1.933-7.113,4.419-9.447,7.466
			c-2.338,3.048-3.506,6.705-3.506,10.971c0,6.095,2.387,11.076,7.162,14.933c4.771,3.862,10.92,5.791,18.438,5.791
			c6.5,0,12.953-1.014,19.354-3.047C1187.822,277.337,1194.271,274.389,1200.775,270.527z"/>
		<path fill="#4D4D4D" d="M1418.977,232.738c0,16.457-2.895,30.171-8.686,41.142c-5.789,10.971-12.852,19.809-21.18,26.514
			c-8.334,6.705-17.219,11.481-26.666,14.324s-17.934,4.267-25.447,4.267c-13.818,0-26.971-3.252-39.467-9.752
			c-12.494-6.5-22.908-15.133-31.238-25.905l31.086-30.78c4.063,6.505,9.344,11.581,15.848,15.238
			c6.5,3.657,13.205,5.486,20.113,5.486c4.672,0,9.244-0.862,13.715-2.591c4.467-1.724,8.48-4.214,12.037-7.466
			c3.553-3.248,6.4-7.209,8.533-11.886c2.135-4.671,3.201-10.057,3.201-16.152V70.912h48.15V232.738z"/>
		<path fill="#4D4D4D" d="M1637.486,226.033c0,2.847-0.152,5.79-0.457,8.838c-0.305,3.047-0.662,6.2-1.066,9.447h-140.797
			c1.623,5.081,3.908,9.905,6.855,14.476c2.943,4.571,6.553,8.533,10.82,11.885c4.266,3.353,9.09,5.996,14.475,7.924
			c5.381,1.934,11.324,2.896,17.828,2.896c7.924,0,15.848-1.372,23.771-4.114c7.924-2.743,14.523-6.448,19.811-11.124l27.732,27.733
			c-12.191,9.143-24.129,15.595-35.809,19.352c-11.686,3.757-24.029,5.638-37.029,5.638c-13.209,0-25.551-2.438-37.027-7.314
			c-11.48-4.876-21.438-11.476-29.867-19.81c-8.432-8.328-15.084-18.133-19.961-29.409c-4.877-11.276-7.314-23.314-7.314-36.114
			s2.438-24.838,7.314-36.114c4.877-11.276,11.58-21.076,20.113-29.409c8.533-8.329,18.486-14.933,29.867-19.809
			c11.375-4.876,23.566-7.314,36.57-7.314c12.391,0,24.275,2.286,35.656,6.857c11.377,4.572,21.434,10.924,30.172,19.047
			c8.732,8.128,15.643,17.829,20.723,29.104C1634.943,199.976,1637.486,212.424,1637.486,226.033z M1591.469,208.967
			c-3.457-11.171-9.6-20.162-18.438-26.971c-8.838-6.805-18.848-10.209-30.02-10.209c-10.971,0-20.828,3.405-29.561,10.209
			c-8.738,6.81-14.834,15.8-18.285,26.971H1591.469z"/>
		<path fill="#4D4D4D" d="M1763.045,310.451c-4.471,2.848-9.652,4.976-15.541,6.4c-5.896,1.419-11.787,2.133-17.676,2.133
			c-10.363,0-19.102-1.271-26.211-3.81c-7.113-2.538-12.799-6.447-17.066-11.733c-4.266-5.281-7.365-11.986-9.295-20.114
			c-1.934-8.124-2.895-17.676-2.895-28.647v-77.104h-23.162v-19.809c14.219-5.891,25.752-14.628,34.59-26.209
			c8.838-11.581,14.881-26.614,18.133-45.104h14.324v51.504h44.494v39.619h-44.494v80.151c0,4.472,0.557,8.128,1.676,10.972
			c1.115,2.847,2.592,5.081,4.42,6.705c1.828,1.628,3.91,2.743,6.248,3.352c2.332,0.61,4.822,0.915,7.465,0.915
			c3.453,0,7.619-0.61,12.496-1.829c4.877-1.219,9.037-3.248,12.494-6.095V310.451z"/>
	</g>
	<g>
		<polygon fill="#F78A1C" points="3062.785,222.034 3380.865,328.432 3491.883,264.517 		"/>
		<polygon fill="#ED7D0C" points="3040.652,214.015 3508.879,254.175 3576.799,214.015 		"/>
		<polygon fill="#DD7300" points="3388.721,203.47 3592.375,203.47 3713.248,131.982 		"/>
		<path fill="#CCA77F" d="M3043.551,196.991h323.695l34.404-61.13h-32.279l-33.02,22.03h-85.527l74.445-105.06h-33.619
			l-129.396,103.073h-36.484C3125.77,155.903,3071.465,155.186,3043.551,196.991z"/>
	</g>
</g>
</svg>
