<?xml version="1.0" encoding="utf-8"?>
<!-- Generator: Adobe Illustrator 16.0.0, SVG Export Plug-In . SVG Version: 6.00 Build 0)  -->
<!DOCTYPE svg PUBLIC "-//W3C//DTD SVG 1.1//EN" "http://www.w3.org/Graphics/SVG/1.1/DTD/svg11.dtd">
<svg version="1.1" id="Layer_1" xmlns="http://www.w3.org/2000/svg" xmlns:xlink="http://www.w3.org/1999/xlink" x="0px" y="0px"
	 width="1174.248px" height="385.328px" viewBox="0 0 1174.248 385.328" enable-background="new 0 0 1174.248 385.328"
	 xml:space="preserve">
<polygon fill="#4D4D4D" points="256.883,128.442 256.883,256.883 385.328,256.883 385.328,385.328 0,385.328 0,256.883 
	128.445,256.883 128.445,128.442 0,128.442 0,0 385.328,0 385.328,128.442 "/>
<g>
	<polygon fill="#F78A1C" points="523.785,222.034 841.865,328.432 952.883,264.517 	"/>
	<polygon fill="#ED7D0C" points="501.652,214.015 969.879,254.175 1037.799,214.015 	"/>
	<polygon fill="#DD7300" points="849.721,203.47 1053.375,203.47 1174.248,131.982 	"/>
	<path fill="#CCA77F" d="M504.551,196.991h323.695l34.404-61.13h-32.279l-33.02,22.03h-85.527l74.445-105.06H752.65L623.254,155.903
		H586.77C586.77,155.903,532.465,155.186,504.551,196.991z"/>
</g>
</svg>
