<?xml version="1.0" encoding="utf-8"?>
<!-- Generator: Adobe Illustrator 16.0.0, SVG Export Plug-In . SVG Version: 6.00 Build 0)  -->
<!DOCTYPE svg PUBLIC "-//W3C//DTD SVG 1.1//EN" "http://www.w3.org/Graphics/SVG/1.1/DTD/svg11.dtd">
<svg version="1.1" id="Layer_1" xmlns="http://www.w3.org/2000/svg" xmlns:xlink="http://www.w3.org/1999/xlink" x="0px" y="0px"
	 width="2181.598px" height="385.352px" viewBox="0 0 2181.598 385.352" enable-background="new 0 0 2181.598 385.352"
	 xml:space="preserve">
<polygon fill="#4D4D4D" points="256.899,128.449 256.899,256.899 385.353,256.899 385.353,385.352 0,385.352 0,256.899 
	128.449,256.899 128.449,128.449 0,128.449 0,0 385.353,0 385.353,128.449 "/>
<g>
	<path fill="#4D4D4D" d="M602.277,314.433h-47.24V70.917h47.24V314.433z"/>
	<path fill="#4D4D4D" d="M802.208,314.433h-43.888V209.285c0-6.296-0.972-11.834-2.91-16.61c-1.938-4.772-4.538-8.734-7.805-11.886
		c-3.267-3.148-6.991-5.486-11.172-7.01c-4.181-1.524-8.52-2.286-13.005-2.286c-6.734,0-13.367,1.171-19.896,3.505
		c-6.529,2.338-12.443,6.048-17.749,11.125v128.311h-43.888V138.272h43.888l0.305,13.105c2.638-2.638,5.891-5.076,9.753-7.314
		c3.857-2.233,7.872-4.115,12.039-5.638c4.162-1.524,8.429-2.691,12.801-3.505c4.367-0.809,8.581-1.219,12.648-1.219
		c8.938,0,17.525,1.424,25.753,4.267c8.229,2.848,15.544,7.215,21.944,13.105c6.4,5.896,11.529,13.515,15.392,22.858
		c3.857,9.348,5.791,20.42,5.791,33.22V314.433z"/>
	<path fill="#4D4D4D" d="M933.868,310.471c-4.473,2.848-9.654,4.976-15.544,6.4c-5.896,1.419-11.787,2.134-17.678,2.134
		c-10.362,0-19.101-1.271-26.211-3.81c-7.114-2.538-12.801-6.448-17.066-11.734c-4.268-5.281-7.367-11.986-9.297-20.115
		c-1.933-8.125-2.895-17.677-2.895-28.649v-77.108h-23.163v-19.811c14.22-5.891,25.753-14.629,34.592-26.21
		c8.839-11.582,14.882-26.616,18.134-45.107h14.324v51.507h44.497v39.621h-44.497v80.156c0,4.472,0.559,8.129,1.678,10.972
		c1.113,2.848,2.59,5.081,4.418,6.705c1.829,1.628,3.91,2.743,6.248,3.353c2.334,0.609,4.824,0.914,7.467,0.914
		c3.453,0,7.62-0.609,12.496-1.829c4.876-1.219,9.038-3.248,12.497-6.095V310.471z"/>
	<path fill="#4D4D4D" d="M1086.255,156.559l-23.468,37.183c-4.267-4.671-8.991-8.786-14.172-12.343
		c-5.182-3.553-10.415-5.333-15.696-5.333c-2.848,0-5.943,0.662-9.296,1.981c-3.353,1.324-6.505,3.505-9.447,6.553
		c-2.948,3.048-5.438,7.062-7.468,12.039c-2.033,4.981-3.048,11.125-3.048,18.439v99.357h-43.888V138.272h43.888v18.896
		c5.281-7.515,11.125-13.306,17.525-17.373c6.4-4.062,13.563-6.095,21.486-6.095c7.72,0,15.286,2.085,22.706,6.248
		C1072.792,144.115,1079.75,149.654,1086.255,156.559z"/>
	<path fill="#4D4D4D" d="M1244.734,314.433h-43.888v-9.448c-7.725,5.286-15.901,8.943-24.534,10.972
		c-8.639,2.029-17.525,3.048-26.668,3.048c-8.534,0-16.258-1.271-23.163-3.81c-6.91-2.538-12.905-6.195-17.982-10.972
		c-5.081-4.771-8.99-10.41-11.733-16.915c-2.743-6.5-4.114-13.715-4.114-21.639c0-9.953,2.181-18.639,6.553-26.058
		c4.366-7.415,10.31-13.61,17.829-18.591c7.515-4.977,16.306-8.687,26.363-11.125s20.877-3.657,32.458-3.657h25.297
		c0-10.362-3.353-18.591-10.058-24.687c-6.705-6.095-16.358-9.143-28.954-9.143c-6.095,0-12.396,1.119-18.896,3.353
		c-6.505,2.238-13.006,6.3-19.506,12.191l-25.906-26.211c9.344-8.938,20.163-15.848,32.459-20.725
		c12.291-4.876,24.939-7.314,37.944-7.314c12.191,0,23.044,1.933,32.563,5.791c9.515,3.862,17.201,8.838,23.054,14.934
		c7.667,7.724,13.063,16.358,16.191,25.906c3.124,9.553,4.69,21.744,4.69,36.573V314.433z M1200.847,270.545v-32.611h-20.115
		c-6.096,0-11.839,0.409-17.22,1.219c-5.386,0.814-10.058,2.186-14.02,4.115c-3.963,1.933-7.115,4.419-9.448,7.467
		c-2.339,3.048-3.505,6.705-3.505,10.972c0,6.095,2.386,11.077,7.162,14.934c4.771,3.862,10.919,5.791,18.438,5.791
		c6.501,0,12.953-1.014,19.354-3.048C1187.894,277.354,1194.342,274.407,1200.847,270.545z"/>
	<path fill="#4D4D4D" d="M1451.978,112.976h-67.355v201.457h-47.85V112.976h-67.355V70.917h182.561V112.976z"/>
	<path fill="#4D4D4D" d="M1580.896,156.559l-23.468,37.183c-4.267-4.671-8.991-8.786-14.172-12.343
		c-5.182-3.553-10.415-5.333-15.696-5.333c-2.848,0-5.943,0.662-9.296,1.981c-3.353,1.324-6.505,3.505-9.447,6.553
		c-2.948,3.048-5.438,7.062-7.468,12.039c-2.033,4.981-3.048,11.125-3.048,18.439v99.357h-43.888V138.272h43.888v18.896
		c5.281-7.515,11.125-13.306,17.525-17.373c6.4-4.062,13.563-6.095,21.486-6.095c7.72,0,15.286,2.085,22.706,6.248
		C1567.434,144.115,1574.392,149.654,1580.896,156.559z"/>
	<path fill="#4D4D4D" d="M1739.377,314.433h-43.888v-9.448c-7.725,5.286-15.901,8.943-24.534,10.972
		c-8.639,2.029-17.525,3.048-26.668,3.048c-8.534,0-16.258-1.271-23.163-3.81c-6.91-2.538-12.905-6.195-17.982-10.972
		c-5.081-4.771-8.99-10.41-11.733-16.915c-2.743-6.5-4.114-13.715-4.114-21.639c0-9.953,2.181-18.639,6.553-26.058
		c4.366-7.415,10.31-13.61,17.829-18.591c7.515-4.977,16.306-8.687,26.363-11.125s20.877-3.657,32.458-3.657h25.297
		c0-10.362-3.353-18.591-10.058-24.687c-6.705-6.095-16.358-9.143-28.954-9.143c-6.095,0-12.396,1.119-18.896,3.353
		c-6.505,2.238-13.006,6.3-19.506,12.191l-25.906-26.211c9.344-8.938,20.163-15.848,32.459-20.725
		c12.291-4.876,24.939-7.314,37.944-7.314c12.191,0,23.044,1.933,32.563,5.791c9.515,3.862,17.201,8.838,23.054,14.934
		c7.667,7.724,13.063,16.358,16.191,25.906c3.124,9.553,4.69,21.744,4.69,36.573V314.433z M1695.489,270.545v-32.611h-20.115
		c-6.096,0-11.839,0.409-17.22,1.219c-5.386,0.814-10.058,2.186-14.02,4.115c-3.963,1.933-7.115,4.419-9.448,7.467
		c-2.339,3.048-3.505,6.705-3.505,10.972c0,6.095,2.386,11.077,7.162,14.934c4.771,3.862,10.919,5.791,18.438,5.791
		c6.501,0,12.953-1.014,19.354-3.048C1682.536,277.354,1688.984,274.407,1695.489,270.545z"/>
	<path fill="#4D4D4D" d="M1818.919,107.49h-45.717V61.773h45.717V107.49z M1818.31,314.433h-44.497V137.967h44.497V314.433z"/>
	<path fill="#4D4D4D" d="M2018.852,314.433h-43.888V209.285c0-6.296-0.972-11.834-2.91-16.61c-1.938-4.772-4.538-8.734-7.805-11.886
		c-3.267-3.148-6.991-5.486-11.172-7.01c-4.182-1.524-8.52-2.286-13.006-2.286c-6.733,0-13.367,1.171-19.896,3.505
		c-6.529,2.338-12.443,6.048-17.749,11.125v128.311h-43.888V138.272h43.888l0.306,13.105c2.638-2.638,5.891-5.076,9.752-7.314
		c3.857-2.233,7.872-4.115,12.039-5.638c4.162-1.524,8.429-2.691,12.801-3.505c4.366-0.809,8.581-1.219,12.648-1.219
		c8.938,0,17.524,1.424,25.753,4.267c8.229,2.848,15.544,7.215,21.944,13.105c6.4,5.896,11.528,13.515,15.391,22.858
		c3.857,9.348,5.791,20.42,5.791,33.22V314.433z"/>
	<path fill="#4D4D4D" d="M2181.598,265.059c0,8.738-2.038,16.51-6.11,23.315c-4.076,6.81-9.371,12.496-15.886,17.067
		c-6.515,4.571-13.849,8.029-21.992,10.362c-8.147,2.333-16.19,3.505-24.129,3.505c-13.444,0-25.815-2.491-37.116-7.467
		c-11.306-4.976-21.229-12.953-29.782-23.925l26.516-26.82c5.281,6.705,11.376,11.939,18.286,15.696
		c6.905,3.762,14.324,5.638,22.249,5.638c6.904,0,12.647-1.267,17.22-3.81c4.571-2.539,6.857-6.348,6.857-11.429
		c0-5.281-3.253-9.701-9.753-13.258c-6.505-3.553-15.648-7.058-27.43-10.515c-6.91-2.029-13.615-4.619-20.115-7.772
		c-6.505-3.147-12.296-7.01-17.372-11.582c-5.082-4.571-9.144-9.8-12.191-15.696c-3.048-5.891-4.571-12.696-4.571-20.42
		c0-8.534,1.985-16.201,5.957-23.011c3.972-6.805,9.162-12.496,15.577-17.067c6.414-4.572,13.695-8.077,21.844-10.515
		c8.144-2.438,16.391-3.657,24.744-3.657c26.877,0,48.873,10.162,65.979,30.478l-26.21,26.516
		c-5.082-6.296-10.872-11.277-17.373-14.934c-6.505-3.657-13.614-5.486-21.334-5.486c-2.643,0-5.438,0.357-8.381,1.067
		c-2.948,0.714-5.691,1.729-8.229,3.048c-2.543,1.324-4.624,3.048-6.248,5.181c-1.628,2.133-2.438,4.524-2.438,7.162
		c0,4.677,3.095,8.739,9.295,12.191c6.196,3.458,15.087,6.91,26.668,10.363c7.515,2.238,14.63,5.081,21.335,8.534
		c6.705,3.457,12.596,7.467,17.677,12.039c5.076,4.572,9.091,9.753,12.038,15.543
		C2180.121,251.191,2181.598,257.744,2181.598,265.059z"/>
</g>
</svg>
