<?xml version="1.0" encoding="utf-8"?>
<!-- Generator: Adobe Illustrator 16.0.0, SVG Export Plug-In . SVG Version: 6.00 Build 0)  -->
<!DOCTYPE svg PUBLIC "-//W3C//DTD SVG 1.1//EN" "http://www.w3.org/Graphics/SVG/1.1/DTD/svg11.dtd">
<svg version="1.1" id="Layer_1" xmlns="http://www.w3.org/2000/svg" xmlns:xlink="http://www.w3.org/1999/xlink" x="0px" y="0px"
	 width="2339.45px" height="642.25px" viewBox="0 0 2339.45 642.25" enable-background="new 0 0 2339.45 642.25"
	 xml:space="preserve">
<polygon fill="#4D4D4D" points="385.348,256.898 385.348,385.349 513.802,385.349 513.802,513.801 128.449,513.801 128.449,385.349 
	256.898,385.349 256.898,256.898 128.449,256.898 128.449,128.449 513.802,128.449 513.802,256.898 "/>
<g>
	<path fill="#4D4D4D" d="M730.727,442.882h-47.24V199.366h47.24V442.882z"/>
	<path fill="#4D4D4D" d="M930.658,442.882H886.77V337.734c0-6.296-0.972-11.834-2.91-16.61c-1.938-4.772-4.538-8.734-7.805-11.886
		c-3.267-3.148-6.991-5.486-11.172-7.01c-4.181-1.524-8.52-2.286-13.005-2.286c-6.734,0-13.367,1.171-19.896,3.505
		c-6.529,2.338-12.443,6.048-17.749,11.125v128.311h-43.888V266.721h43.888l0.305,13.105c2.638-2.638,5.891-5.076,9.753-7.314
		c3.857-2.233,7.872-4.115,12.039-5.638c4.162-1.524,8.429-2.691,12.801-3.505c4.367-0.809,8.581-1.219,12.648-1.219
		c8.938,0,17.525,1.424,25.753,4.267c8.229,2.848,15.544,7.215,21.944,13.105c6.4,5.896,11.529,13.515,15.392,22.858
		c3.857,9.348,5.791,20.42,5.791,33.22V442.882z"/>
	<path fill="#4D4D4D" d="M1062.317,438.92c-4.472,2.848-9.653,4.976-15.544,6.4c-5.896,1.419-11.786,2.134-17.678,2.134
		c-10.361,0-19.1-1.271-26.21-3.81c-7.114-2.538-12.801-6.448-17.067-11.734c-4.268-5.281-7.367-11.986-9.296-20.115
		c-1.933-8.125-2.896-17.677-2.896-28.649v-77.108h-23.163v-19.811c14.219-5.891,25.753-14.629,34.592-26.21
		c8.838-11.582,14.881-26.616,18.134-45.107h14.324v51.507h44.497v39.621h-44.497v80.156c0,4.472,0.558,8.129,1.677,10.972
		c1.114,2.848,2.59,5.081,4.419,6.705c1.829,1.628,3.909,2.743,6.248,3.353c2.333,0.609,4.823,0.914,7.467,0.914
		c3.452,0,7.62-0.609,12.496-1.829c4.876-1.219,9.038-3.248,12.496-6.095V438.92z"/>
	<path fill="#4D4D4D" d="M1214.704,285.008l-23.468,37.183c-4.267-4.671-8.991-8.786-14.172-12.343
		c-5.182-3.553-10.415-5.333-15.696-5.333c-2.848,0-5.943,0.662-9.296,1.981c-3.353,1.324-6.505,3.505-9.447,6.553
		c-2.948,3.048-5.438,7.062-7.468,12.039c-2.033,4.981-3.048,11.125-3.048,18.439v99.357h-43.888V266.721h43.888v18.896
		c5.281-7.515,11.125-13.306,17.525-17.373c6.4-4.062,13.563-6.095,21.486-6.095c7.72,0,15.286,2.085,22.706,6.248
		C1201.241,272.564,1208.199,278.103,1214.704,285.008z"/>
	<path fill="#4D4D4D" d="M1373.184,442.882h-43.888v-9.448c-7.725,5.286-15.901,8.943-24.534,10.972
		c-8.639,2.029-17.525,3.048-26.668,3.048c-8.534,0-16.258-1.271-23.163-3.81c-6.91-2.538-12.905-6.195-17.982-10.972
		c-5.081-4.771-8.99-10.41-11.733-16.915c-2.743-6.5-4.114-13.715-4.114-21.639c0-9.953,2.181-18.639,6.553-26.058
		c4.366-7.415,10.31-13.61,17.829-18.591c7.515-4.977,16.306-8.687,26.363-11.125s20.877-3.657,32.458-3.657h25.297
		c0-10.362-3.353-18.591-10.058-24.687c-6.705-6.095-16.358-9.143-28.954-9.143c-6.095,0-12.396,1.119-18.896,3.353
		c-6.505,2.238-13.006,6.3-19.506,12.191l-25.906-26.211c9.344-8.938,20.163-15.848,32.459-20.725
		c12.291-4.876,24.939-7.314,37.944-7.314c12.191,0,23.044,1.933,32.563,5.791c9.515,3.862,17.201,8.838,23.054,14.934
		c7.667,7.724,13.063,16.358,16.191,25.906c3.124,9.553,4.69,21.744,4.69,36.573V442.882z M1329.296,398.994v-32.611h-20.115
		c-6.096,0-11.839,0.409-17.22,1.219c-5.386,0.814-10.058,2.186-14.02,4.115c-3.963,1.933-7.115,4.419-9.448,7.467
		c-2.339,3.048-3.505,6.705-3.505,10.972c0,6.095,2.386,11.077,7.162,14.934c4.771,3.862,10.919,5.791,18.438,5.791
		c6.501,0,12.953-1.014,19.354-3.048C1316.343,405.804,1322.791,402.856,1329.296,398.994z"/>
	<path fill="#4D4D4D" d="M1574.026,239.901h-114.596v56.688h113.072v38.402h-113.072v107.891h-46.326V199.366h160.922V239.901z"/>
	<path fill="#4D4D4D" d="M1672.771,441.967c-3.457,1.624-7.366,2.943-11.733,3.962c-4.372,1.014-8.891,1.524-13.563,1.524
		c-6.505,0-12.753-0.867-18.744-2.591c-5.995-1.729-11.229-4.519-15.695-8.381c-4.472-3.857-8.029-8.886-10.667-15.086
		c-2.644-6.195-3.963-13.663-3.963-22.401V189.918h44.803v201.457c0,7.315,1.472,12.344,4.419,15.086
		c2.943,2.743,6.448,4.115,10.515,4.115c5.076,0,9.953-1.524,14.629-4.572V441.967z"/>
	<path fill="#4D4D4D" d="M1876.055,354.497c0,2.848-0.152,5.791-0.457,8.838s-0.662,6.2-1.066,9.448h-140.807
		c1.624,5.082,3.91,9.905,6.857,14.477c2.943,4.572,6.553,8.534,10.819,11.886c4.268,3.353,9.092,5.996,14.478,7.924
		c5.381,1.933,11.324,2.895,17.829,2.895c7.924,0,15.849-1.371,23.772-4.114s14.524-6.448,19.811-11.125l27.734,27.735
		c-12.19,9.143-24.13,15.596-35.811,19.353c-11.687,3.757-24.03,5.639-37.03,5.639c-13.211,0-25.554-2.438-37.03-7.315
		c-11.481-4.876-21.439-11.477-29.868-19.81c-8.434-8.329-15.087-18.134-19.963-29.411c-4.877-11.277-7.314-23.315-7.314-36.116
		c0-12.801,2.438-24.839,7.314-36.116c4.876-11.276,11.581-21.077,20.115-29.411c8.533-8.329,18.486-14.934,29.868-19.811
		c11.376-4.876,23.567-7.314,36.572-7.314c12.392,0,24.277,2.286,35.659,6.857c11.377,4.572,21.435,10.924,30.173,19.048
		c8.733,8.129,15.644,17.83,20.725,29.106C1873.512,328.438,1876.055,340.887,1876.055,354.497z M1830.034,337.429
		c-3.458-11.172-9.601-20.163-18.439-26.973c-8.838-6.805-18.849-10.21-30.021-10.21c-10.972,0-20.829,3.405-29.563,10.21
		c-8.739,6.81-14.834,15.801-18.287,26.973H1830.034z"/>
	<path fill="#4D4D4D" d="M2085.435,354.497c0,2.848-0.152,5.791-0.457,8.838s-0.662,6.2-1.066,9.448h-140.807
		c1.624,5.082,3.91,9.905,6.857,14.477c2.943,4.572,6.553,8.534,10.819,11.886c4.268,3.353,9.092,5.996,14.478,7.924
		c5.381,1.933,11.324,2.895,17.829,2.895c7.924,0,15.849-1.371,23.772-4.114s14.524-6.448,19.811-11.125l27.734,27.735
		c-12.19,9.143-24.13,15.596-35.811,19.353c-11.687,3.757-24.03,5.639-37.03,5.639c-13.211,0-25.554-2.438-37.03-7.315
		c-11.481-4.876-21.439-11.477-29.868-19.81c-8.434-8.329-15.087-18.134-19.963-29.411c-4.877-11.277-7.314-23.315-7.314-36.116
		c0-12.801,2.438-24.839,7.314-36.116c4.876-11.276,11.581-21.077,20.115-29.411c8.533-8.329,18.486-14.934,29.868-19.811
		c11.376-4.876,23.567-7.314,36.572-7.314c12.392,0,24.277,2.286,35.659,6.857c11.377,4.572,21.435,10.924,30.173,19.048
		c8.733,8.129,15.644,17.83,20.725,29.106C2082.892,328.438,2085.435,340.887,2085.435,354.497z M2039.414,337.429
		c-3.458-11.172-9.601-20.163-18.439-26.973c-8.838-6.805-18.849-10.21-30.021-10.21c-10.972,0-20.829,3.405-29.563,10.21
		c-8.739,6.81-14.834,15.801-18.287,26.973H2039.414z"/>
	<path fill="#4D4D4D" d="M2211.002,438.92c-4.472,2.848-9.653,4.976-15.544,6.4c-5.896,1.419-11.786,2.134-17.677,2.134
		c-10.362,0-19.102-1.271-26.211-3.81c-7.114-2.538-12.801-6.448-17.067-11.734c-4.267-5.281-7.367-11.986-9.296-20.115
		c-1.934-8.125-2.896-17.677-2.896-28.649v-77.108h-23.163v-19.811c14.22-5.891,25.754-14.629,34.593-26.21
		c8.838-11.582,14.881-26.616,18.134-45.107h14.324v51.507h44.497v39.621h-44.497v80.156c0,4.472,0.558,8.129,1.677,10.972
		c1.114,2.848,2.591,5.081,4.419,6.705c1.829,1.628,3.91,2.743,6.248,3.353c2.333,0.609,4.824,0.914,7.467,0.914
		c3.453,0,7.619-0.609,12.496-1.829c4.876-1.219,9.038-3.248,12.496-6.095V438.92z"/>
</g>
</svg>
