<?xml version="1.0" encoding="utf-8"?>
<!-- Generator: Adobe Illustrator 16.0.0, SVG Export Plug-In . SVG Version: 6.00 Build 0)  -->
<!DOCTYPE svg PUBLIC "-//W3C//DTD SVG 1.1//EN" "http://www.w3.org/Graphics/SVG/1.1/DTD/svg11.dtd">
<svg version="1.1" id="Layer_1" xmlns="http://www.w3.org/2000/svg" xmlns:xlink="http://www.w3.org/1999/xlink" x="0px" y="0px"
	 width="892px" height="232px" viewBox="0 0 892 232" enable-background="new 0 0 892 232" xml:space="preserve">
<g>
	<path fill="#FF7BAC" d="M263.248,165.449c-2.173,0-3.944-0.684-5.312-2.054c-1.37-1.368-2.054-3.093-2.054-5.171V73.51
		c0-2.076,0.708-3.8,2.125-5.17c1.417-1.368,3.258-2.054,5.525-2.054c2.171,0,3.917,0.686,5.241,2.054
		c1.321,1.37,1.983,3.094,1.983,5.17v84.714c-0.095,2.078-0.804,3.803-2.125,5.171C267.307,164.765,265.514,165.449,263.248,165.449
		z M325.721,65.861c1.888,0,3.446,0.757,4.675,2.267c1.226,1.512,1.841,3.07,1.841,4.675c0,1.7-0.708,3.258-2.125,4.675
		l-61.056,57.939l-0.85-16.716l51.848-50.148C321.754,66.759,323.642,65.861,325.721,65.861z M325.012,165.59
		c-2.174,0-3.92-0.896-5.242-2.691l-35.273-45.474l10.908-11.049l35.982,46.89c1.133,1.512,1.7,3.165,1.7,4.958
		c0,2.267-0.85,4.062-2.55,5.383C328.837,164.931,326.996,165.59,325.012,165.59z"/>
	<path fill="#FF7BAC" d="M409.158,89.801c2.076,0,3.776,0.687,5.1,2.054c1.321,1.37,1.983,3.094,1.983,5.171v61.198
		c0,2.078-0.662,3.803-1.983,5.171c-1.324,1.37-3.023,2.054-5.1,2.054c-1.983,0-3.661-0.684-5.029-2.054
		c-1.37-1.368-2.054-3.093-2.054-5.171v-10.2l2.975,0.426c0,1.699-0.686,3.59-2.054,5.666c-1.37,2.078-3.236,4.086-5.596,6.021
		c-2.362,1.937-5.148,3.542-8.358,4.816c-3.211,1.275-6.658,1.913-10.341,1.913c-6.516,0-12.373-1.676-17.566-5.029
		c-5.195-3.352-9.303-7.955-12.325-13.813c-3.023-5.854-4.533-12.512-4.533-19.974c0-7.65,1.51-14.379,4.533-20.187
		c3.021-5.808,7.105-10.363,12.254-13.67c5.146-3.305,10.883-4.958,17.212-4.958c4.06,0,7.813,0.662,11.262,1.983
		c3.446,1.323,6.445,3.023,8.995,5.1c2.55,2.079,4.509,4.274,5.879,6.587c1.368,2.315,2.054,4.511,2.054,6.587l-4.392,0.425V97.026
		c0-1.983,0.684-3.684,2.054-5.1C405.497,90.51,407.174,89.801,409.158,89.801z M380.259,153.833c4.438,0,8.358-1.134,11.758-3.4
		s6.042-5.358,7.933-9.278c1.888-3.918,2.833-8.287,2.833-13.104c0-4.91-0.945-9.301-2.833-13.175
		c-1.891-3.871-4.533-6.941-7.933-9.208s-7.32-3.4-11.758-3.4c-4.345,0-8.194,1.133-11.546,3.4
		c-3.353,2.267-5.998,5.337-7.933,9.208c-1.937,3.874-2.904,8.265-2.904,13.175c0,4.816,0.967,9.186,2.904,13.104
		c1.935,3.92,4.58,7.012,7.933,9.278C372.064,152.699,375.914,153.833,380.259,153.833z"/>
	<path fill="#FF7BAC" d="M435.08,91.785h33.291c1.888,0,3.471,0.638,4.746,1.913s1.912,2.857,1.912,4.746
		c0,1.795-0.637,3.307-1.912,4.533c-1.275,1.229-2.858,1.841-4.746,1.841H435.08c-1.891,0-3.471-0.637-4.746-1.912
		s-1.913-2.809-1.913-4.604c0-1.888,0.638-3.446,1.913-4.675C431.609,92.4,433.189,91.785,435.08,91.785z M449.955,73.369
		c2.076,0,3.776,0.686,5.1,2.054c1.321,1.37,1.983,3.094,1.983,5.17v65.731c0,1.699,0.283,3.069,0.85,4.107
		c0.566,1.041,1.346,1.749,2.337,2.125c0.991,0.379,2.005,0.567,3.045,0.567c1.038,0,1.959-0.188,2.763-0.567
		c0.801-0.376,1.771-0.566,2.904-0.566s2.171,0.521,3.117,1.559c0.943,1.04,1.417,2.457,1.417,4.25c0,2.267-1.229,4.107-3.683,5.524
		c-2.457,1.417-5.1,2.125-7.933,2.125c-1.607,0-3.495-0.142-5.667-0.425c-2.174-0.283-4.274-0.992-6.304-2.125
		c-2.032-1.134-3.708-2.95-5.029-5.454c-1.324-2.501-1.983-6.021-1.983-10.554V80.593c0-2.076,0.684-3.8,2.054-5.17
		C446.293,74.055,447.971,73.369,449.955,73.369z"/>
	<path fill="#FF7BAC" d="M496.842,81.019c-2.74,0-4.724-0.496-5.95-1.488c-1.229-0.991-1.842-2.667-1.842-5.029v-2.267
		c0-2.359,0.66-4.013,1.983-4.958c1.321-0.943,3.305-1.417,5.95-1.417c2.833,0,4.863,0.496,6.091,1.487
		c1.227,0.992,1.842,2.621,1.842,4.887v2.267c0,2.457-0.638,4.157-1.913,5.1C501.729,80.547,499.675,81.019,496.842,81.019z
		 M504.067,158.224c0,2.078-0.662,3.803-1.983,5.171c-1.323,1.37-3.023,2.054-5.1,2.054c-1.983,0-3.661-0.684-5.029-2.054
		c-1.37-1.368-2.054-3.093-2.054-5.171V97.593c0-2.076,0.684-3.8,2.054-5.17c1.368-1.368,3.045-2.054,5.029-2.054
		c2.076,0,3.776,0.686,5.1,2.054c1.322,1.37,1.983,3.094,1.983,5.17V158.224z"/>
	<path fill="#FF7BAC" d="M557.897,166.866c-7.84,0-14.64-1.63-20.399-4.888c-5.762-3.258-10.224-7.743-13.387-13.458
		c-3.165-5.713-4.746-12.253-4.746-19.62c0-8.309,1.676-15.417,5.029-21.32c3.351-5.901,7.72-10.435,13.104-13.6
		c5.383-3.163,11.096-4.746,17.141-4.746c4.626,0,9.018,0.921,13.174,2.762c4.155,1.842,7.862,4.392,11.121,7.65
		s5.83,7.083,7.721,11.475c1.888,4.392,2.879,9.186,2.975,14.378c-0.095,1.891-0.85,3.449-2.267,4.675
		c-1.417,1.229-3.07,1.842-4.958,1.842h-55.106l-3.4-12.041h53.265l-2.691,2.55v-3.542c-0.19-3.305-1.275-6.209-3.258-8.712
		c-1.983-2.501-4.44-4.438-7.366-5.808c-2.928-1.368-5.999-2.054-9.208-2.054c-2.833,0-5.549,0.45-8.146,1.346
		c-2.599,0.899-4.912,2.337-6.941,4.321c-2.032,1.983-3.637,4.604-4.816,7.862c-1.182,3.258-1.771,7.295-1.771,12.112
		c0,5.195,1.084,9.728,3.258,13.599c2.171,3.874,5.1,6.871,8.783,8.996c3.683,2.125,7.743,3.188,12.183,3.188
		c3.493,0,6.375-0.354,8.642-1.063s4.154-1.58,5.667-2.621c1.509-1.038,2.833-2.029,3.966-2.975c1.417-0.85,2.833-1.274,4.25-1.274
		c1.7,0,3.116,0.591,4.25,1.771c1.133,1.182,1.7,2.574,1.7,4.179c0,2.078-1.041,3.967-3.117,5.667
		c-2.55,2.456-6.069,4.628-10.554,6.516C567.505,165.92,562.806,166.866,557.897,166.866z"/>
	<path fill="#FFB8D5" d="M601.243,153.833c-0.85-1.321-1.229-2.855-1.133-4.604c0.093-1.746,1.085-3.233,2.975-4.462
		c1.321-0.85,2.714-1.204,4.18-1.063c1.463,0.142,2.854,0.874,4.179,2.196c2.643,2.928,5.596,5.241,8.854,6.941
		c3.259,1.699,7.2,2.55,11.829,2.55c1.888-0.094,3.824-0.401,5.808-0.921c1.983-0.519,3.684-1.463,5.101-2.833
		c1.416-1.368,2.124-3.376,2.124-6.021c0-2.359-0.757-4.25-2.267-5.666c-1.512-1.417-3.494-2.572-5.949-3.471
		c-2.457-0.896-5.1-1.722-7.934-2.479c-3.023-0.85-6.069-1.793-9.137-2.833c-3.07-1.038-5.832-2.384-8.287-4.037
		c-2.457-1.651-4.463-3.801-6.021-6.446c-1.559-2.643-2.338-5.901-2.338-9.774c0-4.438,1.251-8.263,3.754-11.475
		c2.502-3.209,5.76-5.713,9.775-7.508c4.013-1.793,8.38-2.691,13.104-2.691c2.738,0,5.617,0.354,8.642,1.063
		c3.021,0.708,5.949,1.819,8.782,3.329c2.834,1.512,5.288,3.495,7.367,5.95c0.942,1.229,1.487,2.691,1.629,4.392
		c0.142,1.7-0.638,3.211-2.338,4.533c-1.133,0.945-2.503,1.37-4.108,1.275c-1.606-0.093-2.928-0.613-3.966-1.559
		c-1.795-2.267-4.108-4.037-6.941-5.312s-6.045-1.913-9.633-1.913c-1.796,0-3.661,0.261-5.596,0.779
		c-1.938,0.52-3.566,1.441-4.888,2.762c-1.323,1.324-1.983,3.258-1.983,5.808c0,2.362,0.779,4.25,2.338,5.667
		c1.558,1.417,3.612,2.599,6.162,3.542c2.55,0.945,5.334,1.795,8.357,2.55c2.927,0.757,5.831,1.654,8.713,2.692
		c2.88,1.04,5.476,2.386,7.791,4.037c2.313,1.653,4.201,3.778,5.667,6.375c1.463,2.599,2.195,5.879,2.195,9.845
		c0,4.629-1.346,8.57-4.037,11.829c-2.691,3.258-6.092,5.737-10.2,7.438c-4.107,1.699-8.429,2.55-12.962,2.55
		c-5.383,0-10.744-0.97-16.078-2.904C609.435,162.027,604.926,158.649,601.243,153.833z"/>
	<path fill="#FFB8D5" d="M744.746,128.192c0,7.557-1.653,14.237-4.958,20.045c-3.307,5.809-7.791,10.365-13.458,13.67
		c-5.666,3.308-12.041,4.959-19.124,4.959s-13.458-1.651-19.124-4.959c-5.667-3.305-10.178-7.861-13.529-13.67
		c-3.354-5.808-5.028-12.488-5.028-20.045c0-7.65,1.675-14.379,5.028-20.187c3.352-5.808,7.862-10.388,13.529-13.741
		c5.666-3.351,12.041-5.029,19.124-5.029s13.458,1.678,19.124,5.029c5.667,3.354,10.151,7.933,13.458,13.741
		C743.092,113.813,744.746,120.542,744.746,128.192z M730.58,128.192c0-5.193-1.04-9.704-3.116-13.529
		c-2.079-3.825-4.888-6.846-8.429-9.066c-3.542-2.218-7.486-3.329-11.829-3.329c-4.345,0-8.312,1.111-11.899,3.329
		c-3.591,2.22-6.424,5.242-8.5,9.066c-2.078,3.825-3.116,8.336-3.116,13.529c0,5.007,1.038,9.445,3.116,13.316
		c2.076,3.874,4.909,6.895,8.5,9.067c3.588,2.173,7.555,3.258,11.899,3.258c4.343,0,8.287-1.085,11.829-3.258
		c3.541-2.172,6.35-5.193,8.429-9.067C729.54,137.637,730.58,133.199,730.58,128.192z"/>
	<path fill="#FFB8D5" d="M798.292,92.209c1.888,0,3.446,0.616,4.675,1.842c1.226,1.229,1.841,2.787,1.841,4.675
		c0,1.89-0.615,3.449-1.841,4.675c-1.229,1.229-2.787,1.842-4.675,1.842h-36.69c-1.796,0-3.329-0.613-4.604-1.842
		c-1.274-1.226-1.912-2.785-1.912-4.675c0-1.888,0.638-3.446,1.912-4.675c1.275-1.226,2.809-1.842,4.604-1.842H798.292z
		 M795.458,60.761c1.793,0,3.635,0.237,5.525,0.708c1.888,0.474,3.471,1.253,4.745,2.337c1.275,1.087,1.913,2.574,1.913,4.462
		c0,1.89-0.567,3.424-1.7,4.604c-1.134,1.182-2.457,1.771-3.967,1.771c-0.945,0-2.22-0.212-3.824-0.637
		c-1.607-0.425-3.212-0.638-4.817-0.638c-2.173,0-3.92,0.496-5.241,1.487c-1.323,0.992-2.267,2.22-2.833,3.684
		c-0.566,1.465-0.85,2.904-0.85,4.32v75.364c0,2.078-0.687,3.803-2.055,5.171c-1.37,1.37-3.046,2.054-5.029,2.054
		c-2.078,0-3.778-0.684-5.1-2.054c-1.323-1.368-1.983-3.093-1.983-5.171V83.001c0-6.516,2.147-11.851,6.446-16.007
		C780.985,62.839,787.243,60.761,795.458,60.761z"/>
	<path fill="#FFB8D5" d="M818.407,91.785h33.29c1.889,0,3.471,0.638,4.746,1.913c1.274,1.275,1.912,2.857,1.912,4.746
		c0,1.795-0.638,3.307-1.912,4.533c-1.275,1.229-2.857,1.841-4.746,1.841h-33.29c-1.891,0-3.471-0.637-4.746-1.912
		c-1.274-1.275-1.912-2.809-1.912-4.604c0-1.888,0.638-3.446,1.912-4.675C814.936,92.4,816.516,91.785,818.407,91.785z
		 M833.281,73.369c2.076,0,3.776,0.686,5.101,2.054c1.321,1.37,1.982,3.094,1.982,5.17v65.731c0,1.699,0.284,3.069,0.851,4.107
		c0.566,1.041,1.346,1.749,2.337,2.125c0.992,0.379,2.006,0.567,3.046,0.567c1.038,0,1.959-0.188,2.763-0.567
		c0.801-0.376,1.771-0.566,2.904-0.566c1.133,0,2.171,0.521,3.116,1.559c0.942,1.04,1.417,2.457,1.417,4.25
		c0,2.267-1.229,4.107-3.684,5.524c-2.457,1.417-5.1,2.125-7.934,2.125c-1.606,0-3.494-0.142-5.666-0.425
		c-2.174-0.283-4.274-0.992-6.304-2.125c-2.032-1.134-3.708-2.95-5.029-5.454c-1.323-2.501-1.983-6.021-1.983-10.554V80.593
		c0-2.076,0.685-3.8,2.055-5.17C829.62,74.055,831.297,73.369,833.281,73.369z"/>
</g>
<g>
	<path fill="#FFB8D5" d="M111,100c0,6.05-4.95,11-11,11H47.333c-6.05,0-11-4.95-11-11V47.333c0-6.05,4.95-11,11-11H100
		c6.05,0,11,4.95,11,11V100z"/>
</g>
<g>
	<path fill="#FF7BAC" d="M195.667,100c0,6.05-4.95,11-11,11H132c-6.05,0-11-4.95-11-11V47.333c0-6.05,4.95-11,11-11h52.667
		c6.05,0,11,4.95,11,11V100z"/>
</g>
<g>
	<path fill="#FF7BAC" d="M111,184.666c0,6.05-4.95,11-11,11H47.333c-6.05,0-11-4.95-11-11V132c0-6.05,4.95-11,11-11H100
		c6.05,0,11,4.95,11,11V184.666z"/>
</g>
<g>
	<path fill="#FFB8D5" d="M195.667,184.666c0,6.05-4.95,11-11,11H132c-6.05,0-11-4.95-11-11V132c0-6.05,4.95-11,11-11h52.667
		c6.05,0,11,4.95,11,11V184.666z"/>
</g>
</svg>
