<?xml version="1.0" encoding="utf-8"?>
<!-- Generator: Adobe Illustrator 16.0.0, SVG Export Plug-In . SVG Version: 6.00 Build 0)  -->
<!DOCTYPE svg PUBLIC "-//W3C//DTD SVG 1.1//EN" "http://www.w3.org/Graphics/SVG/1.1/DTD/svg11.dtd">
<svg version="1.1" id="Layer_1" xmlns="http://www.w3.org/2000/svg" xmlns:xlink="http://www.w3.org/1999/xlink" x="0px" y="0px"
	 width="232px" height="232px" viewBox="0 0 232 232" enable-background="new 0 0 232 232" xml:space="preserve">
<g>
	<path fill="#FFB8D5" d="M111,100c0,6.05-4.95,11-11,11H47.333c-6.05,0-11-4.95-11-11V47.333c0-6.05,4.95-11,11-11H100
		c6.05,0,11,4.95,11,11V100z"/>
</g>
<g>
	<path fill="#FF7BAC" d="M195.667,100c0,6.05-4.95,11-11,11H132c-6.05,0-11-4.95-11-11V47.333c0-6.05,4.95-11,11-11h52.667
		c6.05,0,11,4.95,11,11V100z"/>
</g>
<g>
	<path fill="#FF7BAC" d="M111,184.666c0,6.05-4.95,11-11,11H47.333c-6.05,0-11-4.95-11-11V132c0-6.05,4.95-11,11-11H100
		c6.05,0,11,4.95,11,11V184.666z"/>
</g>
<g>
	<path fill="#FFB8D5" d="M195.667,184.666c0,6.05-4.95,11-11,11H132c-6.05,0-11-4.95-11-11V132c0-6.05,4.95-11,11-11h52.667
		c6.05,0,11,4.95,11,11V184.666z"/>
</g>
</svg>
