<?xml version="1.0" encoding="utf-8"?>
<!-- Generator: Adobe Illustrator 16.0.0, SVG Export Plug-In . SVG Version: 6.00 Build 0)  -->
<!DOCTYPE svg PUBLIC "-//W3C//DTD SVG 1.1//EN" "http://www.w3.org/Graphics/SVG/1.1/DTD/svg11.dtd">
<svg version="1.1" id="mbs" xmlns="http://www.w3.org/2000/svg" xmlns:xlink="http://www.w3.org/1999/xlink" x="0px" y="0px"
	 width="512.929px" height="139.107px" viewBox="0 0 512.929 139.107" enable-background="new 0 0 512.929 139.107"
	 xml:space="preserve">
<g>
	<g>
		<path d="M284.871,120.767l-0.146-66.52l-24.563,56.285h-16.958l-24.561-56.285v66.52h-23.245V18.284h28.508l27.777,60.963
			l27.777-60.963h28.36v102.482L284.871,120.767L284.871,120.767z"/>
		<path d="M376.824,18.431c22.953,0,37.57,9.94,37.57,25.584c0,10.817-6.725,19.442-17.543,22.514
			c12.865,2.485,21.053,12.573,21.053,25.877c0,17.396-15.203,28.361-39.326,28.361h-50.146V18.431H376.824z M354.31,59.365h21.052
			c7.603,0,12.427-4.094,12.427-10.672c0-6.579-4.824-10.38-12.427-10.38H354.31V59.365z M354.31,100.738h21.052
			c9.649,0,15.644-4.24,15.644-11.55c0-6.871-5.994-11.11-15.644-11.11H354.31V100.738z"/>
		<path d="M512.636,28.664l-9.795,20.321c-10.818-6.287-24.414-10.672-32.748-10.672c-6.725,0-11.258,2.484-11.258,7.456
			c0,17.688,54.094,7.602,54.094,44.589c0,20.467-18.129,31.285-40.936,31.285c-17.105,0-34.648-6.434-46.781-16.374l10.086-20.028
			c10.527,9.21,26.316,15.351,36.988,15.351c8.186,0,13.303-3.069,13.303-8.918c0-18.128-54.092-7.31-54.092-43.565
			c0-18.859,16.229-30.848,40.789-30.848C487.052,17.26,502.111,21.793,512.636,28.664z"/>
	</g>
	<g>
		<rect x="46.37" y="0" width="46.368" height="46.369"/>
		<rect x="92.738" y="46.369" width="46.37" height="46.37"/>
		<rect y="46.369" width="46.37" height="46.37"/>
		<rect x="46.37" y="92.739" width="46.368" height="46.368"/>
	</g>
</g>
</svg>
