<?xml version="1.0" encoding="utf-8"?>
<!-- Generator: Adobe Illustrator 16.0.0, SVG Export Plug-In . SVG Version: 6.00 Build 0)  -->
<!DOCTYPE svg PUBLIC "-//W3C//DTD SVG 1.1//EN" "http://www.w3.org/Graphics/SVG/1.1/DTD/svg11.dtd">
<svg version="1.1" id="Layer_1" xmlns="http://www.w3.org/2000/svg" xmlns:xlink="http://www.w3.org/1999/xlink" x="0px" y="0px"
	 width="1949.342px" height="881.395px" viewBox="0 0 1949.342 881.395" enable-background="new 0 0 1949.342 881.395"
	 xml:space="preserve">
<g>
	<path fill="#003875" d="M312.5,150.397h37.727v31.439L237.396,351.958l-63.927-96.064v139.031h-49.254V150.397h37.727
		l75.454,113.531L312.5,150.397z M300.972,394.924V266.373l49.255-33.885v162.436H300.972z"/>
	<path fill="#003875" d="M459.913,217.467c12.576,0,24.333,2.391,35.282,7.161c10.944,4.776,20.49,11.239,28.645,19.388
		c8.149,8.155,14.612,17.701,19.388,28.645c4.771,10.949,7.161,22.592,7.161,34.933c0,12.346-2.391,23.989-7.161,34.933
		c-4.776,10.949-11.238,20.495-19.388,28.645c-8.154,8.154-17.701,14.617-28.645,19.387c-10.949,4.771-22.706,7.161-35.282,7.161
		s-24.338-2.391-35.282-7.161c-10.949-4.771-20.496-11.233-28.645-19.387c-8.155-8.149-14.617-17.696-19.388-28.645
		c-4.776-10.944-7.161-22.586-7.161-34.933c0-12.341,2.385-23.983,7.161-34.933c4.771-10.943,11.233-20.49,19.388-28.645
		c8.149-8.149,17.695-14.611,28.645-19.388C435.575,219.858,447.337,217.467,459.913,217.467z M459.913,356.149
		c5.818,0,11.233-1.277,16.244-3.843c5.005-2.56,9.432-6.113,13.274-10.654c3.842-4.541,6.866-9.781,9.083-15.72
		c2.21-5.938,3.318-12.401,3.318-19.387c0-6.517-1.108-12.75-3.318-18.689c-2.216-5.938-5.24-11.059-9.083-15.37
		c-3.843-4.307-8.269-7.74-13.274-10.305c-5.011-2.56-10.425-3.843-16.244-3.843c-5.824,0-11.298,1.283-16.418,3.843
		c-5.125,2.565-9.606,5.999-13.449,10.305c-3.842,4.312-6.872,9.432-9.083,15.37c-2.216,5.938-3.318,12.172-3.318,18.689
		c0,6.986,1.103,13.449,3.318,19.387c2.211,5.938,5.24,11.179,9.083,15.72c3.843,4.541,8.324,8.095,13.449,10.654
		C448.615,354.872,454.089,356.149,459.913,356.149z"/>
	<path fill="#003875" d="M643.66,291.175c7.685,2.565,14.726,5.186,21.134,7.86c6.402,2.68,11.992,5.884,16.768,9.606
		c4.771,3.728,8.498,8.209,11.178,13.449c2.674,5.24,4.017,11.473,4.017,18.688v0.35c0,17.701-5.884,31.559-17.641,41.569
		c-11.763,10.016-28.241,15.021-49.43,15.021c-13.274,0-26.319-2.292-39.124-6.866c-12.811-4.58-24.802-11.097-35.98-19.557
		l-0.35-0.35l0.35-0.354l23.754-37.498l0.349,0.35c6.987,7.456,14.901,13.1,23.754,16.942c8.848,3.843,18.279,5.764,28.295,5.764
		c13.738,0,20.61-4.41,20.61-13.242c0-4.181-2.216-7.314-6.637-9.404c-4.426-2.091-9.667-4.066-15.72-5.928
		c-1.168-0.458-2.271-0.748-3.318-0.868c-1.048-0.115-2.156-0.404-3.318-0.874c-6.987-1.856-13.973-3.892-20.959-6.097
		c-6.987-2.205-13.274-5.229-18.864-9.061c-5.589-3.832-10.19-8.706-13.798-14.634c-3.613-5.922-5.415-13.531-5.415-22.826v-0.693
		c0-8.133,1.512-15.567,4.542-22.302c3.023-6.735,7.335-12.543,12.925-17.423c5.589-4.879,12.341-8.651,20.261-11.326
		c7.915-2.669,16.647-4.006,26.199-4.006c11.179,0,22.472,1.692,33.885,5.065c11.408,3.378,22.007,8.329,31.789,14.846v0.699
		l-21.309,38.775l-0.349-0.349c-5.36-5.354-11.997-9.606-19.912-12.75c-7.92-3.144-16.304-4.716-25.151-4.716
		c-1.632,0-3.493,0.12-5.589,0.349c-2.096,0.235-4.017,0.819-5.764,1.747c-1.747,0.934-3.204,2.156-4.367,3.668
		c-1.168,1.518-1.747,3.668-1.747,6.463c0,2.096,0.928,4.017,2.795,5.764c1.861,1.747,4.246,3.378,7.161,4.891
		c2.909,1.517,6.167,2.969,9.781,4.366c3.608,1.397,7.161,2.68,10.655,3.843c0.698,0,1.452,0.12,2.271,0.349
		C642.203,290.711,642.961,290.946,643.66,291.175z"/>
	<path fill="#003875" d="M800.157,291.175c7.685,2.565,14.726,5.186,21.134,7.86c6.402,2.68,11.992,5.884,16.768,9.606
		c4.771,3.728,8.498,8.209,11.178,13.449c2.674,5.24,4.017,11.473,4.017,18.688v0.35c0,17.701-5.884,31.559-17.641,41.569
		c-11.763,10.016-28.241,15.021-49.43,15.021c-13.274,0-26.319-2.292-39.124-6.866c-12.811-4.58-24.802-11.097-35.98-19.557
		l-0.35-0.35l0.35-0.354l23.754-37.498l0.349,0.35c6.987,7.456,14.901,13.1,23.754,16.942c8.848,3.843,18.279,5.764,28.295,5.764
		c13.738,0,20.61-4.41,20.61-13.242c0-4.181-2.216-7.314-6.637-9.404c-4.426-2.091-9.667-4.066-15.72-5.928
		c-1.168-0.458-2.271-0.748-3.318-0.868c-1.048-0.115-2.156-0.404-3.318-0.874c-6.987-1.856-13.973-3.892-20.959-6.097
		c-6.987-2.205-13.274-5.229-18.864-9.061c-5.589-3.832-10.19-8.706-13.798-14.634c-3.613-5.922-5.415-13.531-5.415-22.826v-0.693
		c0-8.133,1.512-15.567,4.542-22.302c3.023-6.735,7.335-12.543,12.925-17.423c5.589-4.879,12.341-8.651,20.261-11.326
		c7.915-2.669,16.647-4.006,26.199-4.006c11.179,0,22.472,1.692,33.885,5.065c11.408,3.378,22.007,8.329,31.789,14.846v0.699
		l-21.309,38.775l-0.349-0.349c-5.36-5.354-11.997-9.606-19.912-12.75c-7.92-3.144-16.304-4.716-25.151-4.716
		c-1.632,0-3.493,0.12-5.589,0.349c-2.096,0.235-4.017,0.819-5.764,1.747c-1.747,0.934-3.204,2.156-4.367,3.668
		c-1.168,1.518-1.747,3.668-1.747,6.463c0,2.096,0.928,4.017,2.795,5.764c1.861,1.747,4.246,3.378,7.161,4.891
		c2.909,1.517,6.167,2.969,9.781,4.366c3.608,1.397,7.161,2.68,10.655,3.843c0.698,0,1.452,0.12,2.271,0.349
		C798.699,290.711,799.458,290.946,800.157,291.175z"/>
	<path fill="#003875" d="M1058.307,220.262v174.662h-45.762V307.37c0-6.769-1.283-13.073-3.842-18.913
		c-2.566-5.834-6.113-10.971-10.654-15.408s-9.781-7.882-15.721-10.333c-5.938-2.451-12.172-3.679-18.688-3.679
		c-6.758,0-13.046,1.288-18.864,3.859c-5.824,2.571-11.004,6.021-15.545,10.343c-4.542,4.323-8.095,9.464-10.654,15.425
		c-2.565,5.96-3.843,12.325-3.843,19.104c0,6.55,1.277,12.745,3.843,18.585c2.56,5.84,6.113,10.982,10.654,15.425
		c4.541,4.443,9.721,7.947,15.545,10.518c5.818,2.571,12.106,3.854,18.864,3.854c7.215,0,13.389-1.277,18.514-3.843h0.35v0.699
		l17.465,31.09l-0.348,0.35c-11.414,8.853-25.502,13.274-42.269,13.274c-12.347,0-23.989-2.331-34.933-6.986
		c-10.949-4.656-20.496-11.058-28.645-19.213c-8.155-8.149-14.617-17.695-19.388-28.645c-4.776-10.944-7.161-22.586-7.161-34.933
		c0-12.576,2.385-24.333,7.161-35.282c4.771-10.943,11.233-20.49,19.388-28.645c8.149-8.149,17.695-14.611,28.645-19.388
		c10.944-4.77,22.586-7.161,34.933-7.161c12.107,0,22.707,2.254,31.789,6.757s16.883,11.026,23.404,19.568v-23.53H1058.307z"/>
	<path fill="#003875" d="M1203.977,328.203l37.727,24.802l-0.349,0.349c-8.155,13.973-19.159,24.922-33.012,32.837
		c-13.858,7.919-28.819,11.877-44.888,11.877c-12.576,0-24.339-2.391-35.282-7.161c-10.949-4.771-20.495-11.233-28.645-19.388
		c-8.154-8.149-14.617-17.695-19.388-28.645c-4.775-10.944-7.161-22.586-7.161-34.933c0-12.341,2.386-23.983,7.161-34.932
		c4.771-10.944,11.233-20.49,19.388-28.645c8.149-8.149,17.695-14.612,28.645-19.388c10.943-4.771,22.706-7.161,35.282-7.161
		c16.068,0,31.029,3.962,44.888,11.877c13.853,7.92,24.856,18.863,33.012,32.836l0.349,0.35l-38.076,24.802l-0.35-0.349
		c-3.728-8.613-9.143-15.6-16.243-20.959c-7.106-5.354-14.967-8.035-23.579-8.035c-6.288,0-12.172,1.343-17.642,4.017
		c-5.475,2.68-10.19,6.288-14.147,10.829c-3.963,4.542-7.106,9.781-9.432,15.72c-2.331,5.938-3.493,12.287-3.493,19.038
		c0,6.757,1.162,13.045,3.493,18.864c2.325,5.824,5.469,10.889,9.432,15.195c3.957,4.312,8.673,7.686,14.147,10.13
		c5.47,2.445,11.354,3.668,17.642,3.668c8.612,0,16.473-2.385,23.579-7.161c7.101-4.771,12.516-11.467,16.243-20.086l0.35-0.699
		L1203.977,328.203z"/>
	<path fill="#003875" d="M1433.826,220.262c-21.893,21.658-41.804,41.455-59.734,59.385l-71.961,71.96v43.316h-46.46V150.397h46.46
		v140.778l74.058-70.913H1433.826z M1349.64,312.833c10.709,10.714,19.388,19.333,26.024,25.85
		c6.637,6.522,12.052,11.877,16.243,16.069c4.192,4.192,7.511,7.511,9.956,9.956c2.445,2.445,4.945,4.891,7.511,7.336
		c2.56,2.445,5.529,5.415,8.907,8.908c3.374,3.494,8.09,8.155,14.148,13.973h-57.29l-0.349-0.349l-37.728-37.727L1349.64,312.833z"
		/>
</g>
<g>
	<path fill="#003875" d="M124.206,428.694h209.342v52.667H186.611v257.584h-62.405V428.694z M226.443,614.579l-28.768-57.536h98.253
		v57.536H226.443z"/>
	<path fill="#003875" d="M423.389,514.113c15.933,0,30.829,3.029,44.701,9.073c13.865,6.051,25.96,14.239,36.292,24.563
		c10.325,10.331,18.513,22.427,24.563,36.292c6.044,13.872,9.073,28.623,9.073,44.258c0,15.643-3.029,30.394-9.073,44.259
		c-6.051,13.872-14.239,25.968-24.563,36.292c-10.332,10.332-22.426,18.52-36.292,24.563c-13.873,6.044-28.768,9.073-44.701,9.073
		s-30.835-3.029-44.701-9.073c-13.872-6.044-25.967-14.231-36.292-24.563c-10.332-10.324-18.52-22.42-24.563-36.292
		c-6.051-13.865-9.073-28.616-9.073-44.259c0-15.635,3.022-30.386,9.073-44.258c6.044-13.865,14.231-25.961,24.563-36.292
		c10.324-10.325,22.419-18.513,36.292-24.563C392.554,517.142,407.456,514.113,423.389,514.113z M423.389,689.818
		c7.372,0,14.232-1.618,20.58-4.868c6.341-3.243,11.95-7.745,16.818-13.499c4.868-5.754,8.699-12.393,11.507-19.916
		c2.801-7.523,4.205-15.712,4.205-24.563c0-8.257-1.404-16.154-4.205-23.679c-2.808-7.523-6.639-14.01-11.507-19.473
		c-4.869-5.457-10.477-9.807-16.818-13.057c-6.348-3.244-13.208-4.869-20.58-4.869c-7.379,0-14.315,1.625-20.801,4.869
		c-6.494,3.25-12.171,7.6-17.04,13.057c-4.869,5.463-8.707,11.949-11.507,19.473c-2.808,7.524-4.205,15.422-4.205,23.679
		c0,8.852,1.397,17.04,4.205,24.563c2.801,7.523,6.639,14.162,11.507,19.916c4.868,5.754,10.546,10.256,17.04,13.499
		C409.074,688.2,416.01,689.818,423.389,689.818z"/>
	<path fill="#003875" d="M556.608,517.653H616.8v221.292h-60.191V517.653z M761.083,543.323
		c7.372,9.149,12.683,20.656,15.933,34.521c3.243,13.872,4.868,30.981,4.868,51.34v109.761h-60.191V628.9
		c0-8.284-0.221-16.195-0.664-23.74c-0.442-7.537-1.991-14.197-4.647-19.965c-2.655-5.768-6.936-10.275-12.835-13.533
		c-5.906-3.25-14.315-4.882-25.227-4.882c-10.332,0-19.917,2.213-28.768,6.639v0.442l-0.443-0.442l-21.687-38.242l0.443-0.436
		c15.338-13.748,34.521-20.628,57.536-20.628C720.807,514.113,746.035,523.85,761.083,543.323z"/>
	<path fill="#003875" d="M915.1,607.498c9.737,3.25,18.658,6.569,26.776,9.958c8.111,3.396,15.193,7.454,21.244,12.171
		c6.044,4.723,10.767,10.4,14.162,17.039c3.389,6.639,5.09,14.537,5.09,23.679v0.442c0,22.427-7.455,39.985-22.35,52.668
		c-14.903,12.689-35.78,19.031-62.626,19.031c-16.818,0-33.346-2.905-49.569-8.7c-16.23-5.802-31.423-14.059-45.586-24.777
		l-0.443-0.442l0.443-0.45l30.096-47.509l0.442,0.443c8.852,9.446,18.879,16.597,30.096,21.465
		c11.21,4.869,23.16,7.303,35.849,7.303c17.406,0,26.113-5.588,26.113-16.776c0-5.298-2.808-9.267-8.409-11.915
		c-5.608-2.648-12.247-5.152-19.917-7.51c-1.479-0.582-2.876-0.948-4.205-1.1c-1.328-0.146-2.731-0.512-4.204-1.107
		c-8.852-2.352-17.704-4.93-26.555-7.725c-8.852-2.793-16.818-6.625-23.899-11.479c-7.082-4.855-12.911-11.031-17.482-18.541
		c-4.578-7.503-6.86-17.143-6.86-28.92v-0.878c0-10.304,1.916-19.723,5.753-28.257c3.831-8.533,9.294-15.891,16.376-22.073
		c7.081-6.183,15.635-10.961,25.669-14.35c10.027-3.381,21.092-5.076,33.194-5.076c14.163,0,28.471,2.144,42.931,6.417
		c14.453,4.28,27.883,10.553,40.275,18.81v0.885l-26.998,49.126l-0.443-0.442c-6.791-6.784-15.2-12.171-25.227-16.154
		c-10.034-3.983-20.656-5.975-31.866-5.975c-2.068,0-4.426,0.151-7.081,0.442c-2.656,0.297-5.09,1.037-7.303,2.213
		c-2.213,1.183-4.06,2.731-5.532,4.647c-1.48,1.923-2.213,4.647-2.213,8.188c0,2.655,1.175,5.09,3.541,7.303
		c2.358,2.213,5.38,4.28,9.073,6.196c3.686,1.922,7.814,3.762,12.393,5.532c4.571,1.771,9.073,3.396,13.499,4.868
		c0.885,0,1.84,0.152,2.877,0.443C913.253,606.91,914.214,607.207,915.1,607.498z"/>
	<path fill="#003875" d="M1115.146,514.113c15.636,0,30.386,3.029,44.258,9.073c13.865,6.051,25.961,14.239,36.292,24.563
		c10.325,10.331,18.513,22.427,24.563,36.292c6.044,13.872,9.073,28.768,9.073,44.701c0,8.561-0.886,16.818-2.655,24.784
		l-0.443,0.886h-112.416l-28.325-45.145h84.091c-4.136-12.392-10.995-22.571-20.58-30.537c-9.592-7.967-20.878-11.95-33.857-11.95
		c-7.967,0-15.491,1.618-22.572,4.854s-13.208,7.572-18.367,13.008c-5.166,5.436-9.225,11.908-12.171,19.404
		c-2.953,7.496-4.426,15.656-4.426,24.474c0,6.763,1.328,13.748,3.983,20.946c2.655,7.207,6.486,13.748,11.507,19.627
		c5.014,5.877,11.064,10.801,18.146,14.771c7.081,3.97,15.048,5.954,23.899,5.954c7.966,0,15.269-1.106,21.907-3.319
		s12.904-7.15,18.811-14.827l0.442-0.441l0.885,0.441l51.34,22.607l-0.885,0.898c-10.622,14.882-24.121,26.486-40.497,34.813
		c-16.375,8.333-33.712,12.496-52.003,12.496c-15.934,0-30.912-2.953-44.923-8.852c-14.018-5.899-26.188-14.011-36.513-24.343
		c-10.332-10.324-18.52-22.419-24.563-36.292c-6.051-13.865-9.073-28.615-9.073-44.258c0-15.934,3.022-30.829,9.073-44.701
		c6.044-13.865,14.231-25.961,24.563-36.292c10.324-10.325,22.495-18.513,36.513-24.563
		C1084.234,517.142,1099.213,514.113,1115.146,514.113z"/>
	<path fill="#003875" d="M1413.004,654.412l47.8,31.424l-0.443,0.441c-10.331,17.704-24.272,31.576-41.824,41.604
		c-17.558,10.034-36.513,15.048-56.872,15.048c-15.933,0-30.835-3.029-44.7-9.073c-13.873-6.044-25.968-14.231-36.292-24.563
		c-10.332-10.324-18.52-22.419-24.563-36.292c-6.051-13.865-9.073-28.615-9.073-44.258c0-15.636,3.022-30.387,9.073-44.259
		c6.044-13.865,14.231-25.96,24.563-36.292c10.324-10.324,22.419-18.512,36.292-24.563c13.865-6.044,28.768-9.073,44.7-9.073
		c20.359,0,39.314,5.021,56.872,15.048c17.552,10.034,31.493,23.899,41.824,41.603l0.443,0.442l-48.242,31.424l-0.442-0.443
		c-4.724-10.912-11.583-19.764-20.58-26.555c-9.004-6.783-18.962-10.18-29.875-10.18c-7.966,0-15.421,1.701-22.35,5.09
		c-6.937,3.396-12.911,7.967-17.925,13.721c-5.021,5.754-9.004,12.393-11.95,19.916c-2.953,7.523-4.426,15.566-4.426,24.121
		c0,8.561,1.473,16.527,4.426,23.899c2.946,7.378,6.93,13.796,11.95,19.253c5.014,5.463,10.988,9.736,17.925,12.834
		c6.929,3.098,14.384,4.647,22.35,4.647c10.913,0,20.871-3.022,29.875-9.073c8.997-6.044,15.856-14.529,20.58-25.448l0.442-0.886
		L1413.004,654.412z"/>
	<path fill="#003875" d="M1702.892,517.653v221.292h-57.979v-110.93c0-8.574-1.625-16.563-4.868-23.961
		c-3.251-7.393-7.746-13.9-13.499-19.523c-5.754-5.621-12.393-9.985-19.916-13.09c-7.524-3.105-15.422-4.661-23.679-4.661
		c-8.562,0-16.527,1.632-23.899,4.89c-7.379,3.256-13.941,7.627-19.695,13.104c-5.753,5.478-10.255,11.992-13.499,19.543
		c-3.25,7.552-4.868,15.615-4.868,24.204c0,8.298,1.618,16.147,4.868,23.547c3.244,7.399,7.746,13.913,13.499,19.543
		c5.754,5.629,12.316,10.069,19.695,13.325c7.372,3.258,15.338,4.883,23.899,4.883c9.143,0,16.964-1.618,23.457-4.868h0.442v0.886
		l22.129,39.39l-0.442,0.442c-14.46,11.217-32.309,16.818-53.553,16.818c-15.643,0-30.393-2.953-44.258-8.852
		c-13.873-5.899-25.968-14.011-36.292-24.343c-10.332-10.324-18.52-22.419-24.563-36.292c-6.051-13.865-9.073-28.615-9.073-44.258
		c0-15.934,3.022-30.829,9.073-44.701c6.044-13.865,14.231-25.961,24.563-36.292c10.324-10.325,22.419-18.513,36.292-24.563
		c13.865-6.044,28.615-9.073,44.258-9.073c15.339,0,28.769,2.856,40.275,8.561s21.39,13.969,29.653,24.791v-29.812H1702.892z"/>
</g>
<g>
	<polygon fill-rule="evenodd" clip-rule="evenodd" fill="#003875" points="1730.967,233.519 1663.334,165.888 1824.739,72.114 	"/>
	<polygon fill-rule="evenodd" clip-rule="evenodd" fill="#003875" points="1663.334,301.152 1730.967,233.519 1824.739,394.925 	"/>
	<polygon fill-rule="evenodd" clip-rule="evenodd" fill="#003875" points="1595.702,233.519 1663.334,301.152 1501.93,394.924 	"/>
	<polygon fill-rule="evenodd" clip-rule="evenodd" fill="#003875" points="1663.334,165.886 1595.703,233.519 1501.929,72.113 	"/>
</g>
</svg>
