<?xml version="1.0" encoding="utf-8"?>
<!-- Generator: Adobe Illustrator 16.0.0, SVG Export Plug-In . SVG Version: 6.00 Build 0)  -->
<!DOCTYPE svg PUBLIC "-//W3C//DTD SVG 1.1//EN" "http://www.w3.org/Graphics/SVG/1.1/DTD/svg11.dtd">
<svg version="1.1" id="Layer_1" xmlns="http://www.w3.org/2000/svg" xmlns:xlink="http://www.w3.org/1999/xlink" x="0px" y="0px"
	 width="1559.502px" height="231.779px" viewBox="0 0 1559.502 231.779" enable-background="new 0 0 1559.502 231.779"
	 xml:space="preserve">
<g enable-background="new    ">
	<path fill="#5A86A8" d="M91.427,138.302h-0.731H70.959v28.801H44.937V64.766h45.759c27.046,0,42.542,12.865,42.542,35.671
		c0,15.644-6.579,26.9-18.567,32.895l21.491,33.771h-29.531L91.427,138.302z M90.696,117.835c11.257,0,17.835-5.701,17.835-16.52
		c0-10.673-6.579-16.082-17.835-16.082H70.959v32.602H90.696z"/>
	<path fill="#5A86A8" d="M254.724,115.788c0,29.824-23.684,52.484-55.408,52.484c-31.578,0-55.261-22.515-55.261-52.484
		c0-29.823,23.684-51.898,55.261-51.898C231.041,63.889,254.724,86.11,254.724,115.788z M170.663,115.934
		c0,17.251,13.304,30.555,28.946,30.555c15.789,0,28.362-13.304,28.362-30.555s-12.573-30.263-28.362-30.263
		S170.663,98.683,170.663,115.934z"/>
	<path fill="#5A86A8" d="M319.634,167.102h-25.876v-32.309l-37.864-70.027h26.022l24.707,44.589l24.122-44.589h26.022
		l-37.133,69.296V167.102z"/>
	<path fill="#5A86A8" d="M444.188,64.766c32.163,0,54.384,20.76,54.384,51.168c0,30.262-22.514,51.168-55.408,51.168h-42.981V64.766
		H444.188z M426.206,146.343h18.566c15.936,0,27.338-12.28,27.338-30.262c0-18.129-11.988-30.555-28.508-30.555h-17.397V146.343z"/>
	<path fill="#5A86A8" d="M512.313,167.102V64.766h26.023v102.336H512.313z"/>
	<path fill="#5A86A8" d="M638.477,75l-9.795,20.321c-10.818-6.286-24.415-10.673-32.748-10.673c-6.725,0-11.257,2.485-11.257,7.456
		c0,17.689,54.092,7.603,54.092,44.59c0,20.467-18.128,31.285-40.935,31.285c-17.105,0-34.648-6.433-46.782-16.374l10.087-20.028
		c10.526,9.21,26.315,15.351,36.987,15.351c8.187,0,13.304-3.07,13.304-8.918c0-18.128-54.092-7.31-54.092-43.565
		c0-18.859,16.228-30.848,40.789-30.848C612.893,63.596,627.951,68.129,638.477,75z"/>
	<path fill="#5A86A8" d="M724.438,167.102l-47.075-63.01v63.01h-24.415V64.766h22.953l47.221,63.156V64.766h24.269v102.336H724.438z
		"/>
	<path fill="#5A86A8" d="M793.878,85.233v20.321h48.828v20.467h-48.828v20.614h55.7v20.467h-81.723V64.766h80.115v20.467H793.878z"
		/>
	<path fill="#5A86A8" d="M919.165,167.102h-25.877v-32.309l-37.864-70.027h26.022l24.707,44.589l24.122-44.589h26.022
		l-37.133,69.296V167.102z"/>
	<path fill="#5A86A8" d="M1089.186,167.102l-0.146-66.519l-24.561,56.285h-16.959l-24.561-56.285v66.519h-23.245V64.62h28.508
		l27.777,60.963l27.777-60.963h28.361v102.482H1089.186z"/>
	<path fill="#5A86A8" d="M1181.138,64.766c22.952,0,37.572,9.941,37.572,25.584c0,10.818-6.726,19.443-17.544,22.514
		c12.865,2.485,21.053,12.573,21.053,25.877c0,17.396-15.205,28.361-39.327,28.361h-50.145V64.766H1181.138z M1158.624,105.701
		h21.052c7.602,0,12.427-4.094,12.427-10.673c0-6.578-4.825-10.38-12.427-10.38h-21.052V105.701z M1158.624,147.074h21.052
		c9.648,0,15.643-4.24,15.643-11.55c0-6.871-5.994-11.11-15.643-11.11h-21.052V147.074z"/>
	<path fill="#5A86A8" d="M1316.95,75l-9.795,20.321c-10.818-6.286-24.414-10.673-32.747-10.673c-6.726,0-11.257,2.485-11.257,7.456
		c0,17.689,54.092,7.603,54.092,44.59c0,20.467-18.128,31.285-40.935,31.285c-17.104,0-34.648-6.433-46.782-16.374l10.087-20.028
		c10.526,9.21,26.315,15.351,36.987,15.351c8.188,0,13.304-3.07,13.304-8.918c0-18.128-54.092-7.31-54.092-43.565
		c0-18.859,16.228-30.848,40.788-30.848C1291.366,63.596,1306.425,68.129,1316.95,75z"/>
</g>
<g>
	<rect x="1420.428" y="46.336" fill="#5A86A8" width="46.368" height="46.369"/>
	<rect x="1466.796" y="92.705" fill="#5A86A8" width="46.37" height="46.37"/>
	<rect x="1374.058" y="92.705" fill="#5A86A8" width="46.37" height="46.37"/>
	<rect x="1420.428" y="139.075" fill="#5A86A8" width="46.368" height="46.368"/>
</g>
</svg>
