<?xml version="1.0" encoding="utf-8"?>
<!-- Generator: Adobe Illustrator 16.0.0, SVG Export Plug-In . SVG Version: 6.00 Build 0)  -->
<!DOCTYPE svg PUBLIC "-//W3C//DTD SVG 1.1//EN" "http://www.w3.org/Graphics/SVG/1.1/DTD/svg11.dtd">
<svg version="1.1" xmlns="http://www.w3.org/2000/svg" xmlns:xlink="http://www.w3.org/1999/xlink" x="0px" y="0px" width="1277px"
	 height="818.959px" viewBox="-119.624 349.152 1277 818.959" enable-background="new -119.624 349.152 1277 818.959"
	 xml:space="preserve">
<g id="Layer_2" display="none">
	<rect x="-119.624" display="inline" fill-rule="evenodd" clip-rule="evenodd" fill="#E22525" width="1277" height="1413.088"/>
</g>
<g id="Layer_1">
	<g>
		<path fill-rule="evenodd" clip-rule="evenodd" fill="#FFFFFF" d="M797.712,311.918c-50.311,2.211-99.781,9.392-147.698,25.413
			c-34.221,11.438-66.267,27.298-95.923,47.962c-3.424,2.386-4.943,4.689-4.955,8.953c-0.2,79.394,0.252,158.742,16.445,236.982
			c1.154,5.573,0.264,8.267-5.298,10.68c-25.065,10.878-24.35,10.899-29.318-16.088c-15.082-81.896-14.695-164.637-14.748-247.395
			c-0.002-5.213,2.186-7.736,6.139-10.427c60.834-41.443,127.768-67.653,200.169-79.986
			c124.602-21.227,241.904,0.141,352.168,61.327c10.639,5.905,20.386,13.404,30.897,19.564c5.292,3.103,4.861,7.455,4.83,12.206
			c-0.47,69.515,0.075,139.072-9.404,208.19c-14.619,106.601-51.858,202.345-132.403,277.504
			c-44.799,41.807-96.107,73.636-151.281,99.662c-3.376,1.592-6.188,1.708-9.592,0.096c-67.712-32.063-129.504-72.33-179.389-129.14
			c-2.419-2.759-4.561-5.765-7.031-8.906c9.17-3.156,17.771-5.927,26.218-9.102c4.273-1.604,6.765-0.089,9.535,3.058
			c41.654,47.319,92.72,81.876,148.856,109.537c3.938,1.941,7.29,3.908,12.236,1.478c62.126-30.537,118.246-68.981,162.095-123.395
			c45.954-57.033,71.106-123.133,84.064-194.555c13.276-73.175,12.772-147.125,13.536-221.037c0.054-5.498-2.992-7.621-6.706-10.192
			c-52.578-36.412-111.367-56.328-174.112-65.867c-22.137-3.366-44.389-5.465-66.75-6.487
			C819.435,310.15,808.573,309.787,797.712,311.918z"/>
		<path fill-rule="evenodd" clip-rule="evenodd" fill="#FFFFFF" d="M1041.051,415.963c0.958,51.476,1.937,100.635-3.16,149.639
			c-7.91,76.008-28.952,147.528-75.749,209.238c-38.613,50.924-88.809,87.888-146.165,115.438c-2.376,1.143-4.313,2.32-7.44,0.817
			c-45.235-21.704-86.324-49.17-121.69-85.864C855.617,721.98,975.754,595.415,1041.051,415.963z"/>
		<path fill-rule="evenodd" clip-rule="evenodd" fill="#FFFFFF" d="M797.712,311.894c10.864-3.944,21.723-3.33,32.58,0.036
			C819.435,311.918,808.571,311.906,797.712,311.894z"/>
		<path fill-rule="evenodd" clip-rule="evenodd" fill="#FFFFFF" d="M743.869,347.44c0,0,66.999-12.72,134.925,0.484
			c67.925,13.204,7.082,16.078,7.082,16.078L743.869,347.44z"/>
		<path fill-rule="evenodd" clip-rule="evenodd" fill="#FFFFFF" d="M587.233,564.293c0,0-4.84-47.432-5.333-68.141l14.966,4.123
			L587.233,564.293z"/>
		<path fill-rule="evenodd" clip-rule="evenodd" fill="#FFFFFF" d="M1016.091,393.99c-14.984-6.983-28.349-17.206-44.324-22.136
			c-4.125-1.272-8.654-1.534-12.513-3.31c-29.049-13.362-59.96-18.702-91.427-21.803c-6.27-2.276-13.045,0.755-19.287-1.829
			c-1.417-0.315-2.83-0.633-4.245-0.948c-10.079-0.69-20.23,0.992-30.269-0.905c-12.949-0.146-25.948-1.58-38.773,1.481
			c-6.643,3.482-14.072-0.43-20.802,2.223c-6.479-0.385-12.729,1.11-19.08,2.065c-53.496,8.039-102.923,26.439-147.743,56.987
			c-4.517,3.081-5.94,6.426-5.875,11.684c0.289,22.713,0.058,45.431,0.264,68.143c0.072,8.078-0.887,16.271,1.655,24.198
			c3.566,10.996-0.542,22.491,2.177,33.543l-0.332,0.418l0.313,0.431c2.827,6.522,0.265,13.421,1.404,20.06
			c2.056,25.947,6.029,51.589,12.955,76.696c1.615,5.848-0.27,8.481-5.543,10.648c-15.331,6.305-30.738,12.306-46.602,17.196
			c-19.244,5.929-39.001,9.798-58.484,15.032c1.99,0.832,3.856,0.942,5.724,0.994c60.49,1.71,119.488-7.67,177.338-24.624
			c84.069-24.64,161.189-63.071,229.457-118.32c47.034-38.065,86.852-82.497,116.769-135.471
			C1022.229,400.451,1021.183,396.361,1016.091,393.99z M662.558,466.595L638.465,484.1l9.202-28.325l-24.093-17.504h29.78
			l9.203-28.325l9.204,28.325h29.782l-24.096,17.504l9.204,28.325L662.558,466.595z M755.671,587.982l-24.093-17.505l-24.093,17.505
			l9.202-28.324l-24.093-17.505h29.781l9.202-28.324l9.204,28.324h29.779l-24.092,17.505L755.671,587.982z M824.762,484.1
			l-24.094-17.504L776.575,484.1l9.202-28.325l-24.093-17.504h29.781l9.202-28.325l9.203,28.325h29.781l-24.095,17.504
			L824.762,484.1z"/>
	</g>
	<g>
		<rect x="133.016" y="505.871" fill-rule="evenodd" clip-rule="evenodd" fill="#FFFFFF" width="230.667" height="230.667"/>
		<rect x="363.683" y="736.537" fill-rule="evenodd" clip-rule="evenodd" fill="#FFFFFF" width="230.667" height="230.667"/>
		<rect x="-97.651" y="736.537" fill-rule="evenodd" clip-rule="evenodd" fill="#FFFFFF" width="230.667" height="230.667"/>
		<rect x="133.016" y="967.204" fill-rule="evenodd" clip-rule="evenodd" fill="#FFFFFF" width="230.667" height="230.667"/>
	</g>
	<g>
		<path fill-rule="evenodd" clip-rule="evenodd" fill="#1A2859" d="M-725.782,196.841c-50.311,2.211-99.781,9.392-147.698,25.413
			c-34.221,11.438-66.267,27.298-95.923,47.962c-3.424,2.386-4.943,4.689-4.955,8.953c-0.2,79.394,0.252,158.742,16.445,236.982
			c1.154,5.573,0.264,8.267-5.298,10.68c-25.065,10.878-24.35,10.899-29.318-16.088c-15.082-81.896-14.695-164.637-14.748-247.395
			c-0.002-5.213,2.186-7.736,6.139-10.427c60.834-41.443,127.768-67.653,200.169-79.986
			c124.602-21.227,241.904,0.141,352.168,61.327c10.639,5.905,20.386,13.404,30.897,19.564c5.292,3.103,4.861,7.455,4.83,12.206
			c-0.47,69.515,0.075,139.072-9.404,208.19c-14.619,106.601-51.858,202.345-132.403,277.503
			c-44.799,41.807-96.107,73.637-151.281,99.662c-3.376,1.592-6.188,1.709-9.592,0.096
			c-67.712-32.063-129.504-72.33-179.389-129.139c-2.419-2.76-4.561-5.766-7.031-8.906c9.17-3.156,17.771-5.928,26.218-9.102
			c4.273-1.604,6.765-0.089,9.535,3.057c41.654,47.32,92.72,81.877,148.856,109.537c3.938,1.941,7.29,3.908,12.236,1.479
			c62.126-30.537,118.246-68.982,162.095-123.395c45.954-57.033,71.106-123.133,84.064-194.555
			c13.276-73.175,12.772-147.125,13.536-221.037c0.054-5.498-2.992-7.621-6.706-10.192
			c-52.578-36.412-111.367-56.328-174.112-65.867c-22.137-3.366-44.389-5.465-66.75-6.487
			C-704.06,195.074-714.921,194.71-725.782,196.841z"/>
		<path fill-rule="evenodd" clip-rule="evenodd" fill="#1A2859" d="M-482.443,300.886c0.958,51.476,1.937,100.635-3.16,149.639
			c-7.91,76.008-28.952,147.528-75.749,209.238c-38.613,50.923-88.809,87.888-146.165,115.439c-2.376,1.143-4.313,2.32-7.44,0.816
			c-45.235-21.703-86.324-49.17-121.69-85.864C-667.877,606.904-547.74,480.338-482.443,300.886z"/>
		<path fill-rule="evenodd" clip-rule="evenodd" fill="#1A2859" d="M-725.782,196.817c10.864-3.944,21.723-3.33,32.58,0.036
			C-704.06,196.841-714.923,196.829-725.782,196.817z"/>
		<path fill-rule="evenodd" clip-rule="evenodd" fill="#E22525" d="M-779.625,232.363c0,0,66.999-12.72,134.925,0.484
			c67.925,13.204,7.082,16.078,7.082,16.078L-779.625,232.363z"/>
		<path fill-rule="evenodd" clip-rule="evenodd" fill="#E22525" d="M-936.261,449.216c0,0-4.84-47.432-5.333-68.141l14.966,4.123
			L-936.261,449.216z"/>
		<path fill-rule="evenodd" clip-rule="evenodd" fill="#E22525" d="M-507.403,278.913c-14.984-6.983-28.349-17.206-44.324-22.136
			c-4.125-1.272-8.654-1.534-12.513-3.31c-29.049-13.362-59.96-18.702-91.427-21.803c-6.27-2.276-13.045,0.755-19.287-1.829
			c-1.417-0.315-2.83-0.633-4.245-0.948c-10.079-0.69-20.23,0.992-30.269-0.905c-12.949-0.146-25.948-1.58-38.773,1.481
			c-6.643,3.482-14.072-0.43-20.802,2.223c-6.479-0.385-12.729,1.11-19.08,2.065c-53.496,8.039-102.923,26.439-147.743,56.987
			c-4.517,3.081-5.94,6.426-5.875,11.684c0.289,22.713,0.058,45.431,0.264,68.143c0.072,8.078-0.887,16.271,1.655,24.198
			c3.566,10.996-0.542,22.491,2.177,33.543l-0.332,0.418l0.313,0.431c2.827,6.522,0.265,13.421,1.404,20.06
			c2.056,25.947,6.029,51.589,12.955,76.696c1.615,5.848-0.27,8.481-5.543,10.648c-15.331,6.305-30.738,12.306-46.602,17.196
			c-19.244,5.929-39.001,9.798-58.484,15.032c1.99,0.832,3.856,0.942,5.724,0.994c60.49,1.71,119.488-7.67,177.338-24.624
			c84.069-24.64,161.189-63.071,229.457-118.32c47.034-38.065,86.852-82.497,116.769-135.471
			C-501.265,285.374-502.312,281.285-507.403,278.913z M-860.937,351.519l-24.093,17.504l9.202-28.325l-24.093-17.504h29.78
			l9.203-28.325l9.204,28.325h29.782l-24.096,17.504l9.204,28.325L-860.937,351.519z M-767.823,472.905l-24.093-17.505
			l-24.093,17.505l9.202-28.324l-24.093-17.505h29.781l9.202-28.324l9.204,28.324h29.779l-24.092,17.505L-767.823,472.905z
			 M-698.732,369.023l-24.094-17.504l-24.093,17.504l9.202-28.325l-24.093-17.504h29.781l9.202-28.325l9.203,28.325h29.781
			l-24.095,17.504L-698.732,369.023z"/>
	</g>
	<g>
		<rect x="-1390.479" y="390.794" fill-rule="evenodd" clip-rule="evenodd" fill="#0000FF" width="230.667" height="230.667"/>
		<rect x="-1159.811" y="621.46" fill-rule="evenodd" clip-rule="evenodd" fill="#FF0000" width="230.667" height="230.667"/>
		<rect x="-1621.145" y="621.46" fill-rule="evenodd" clip-rule="evenodd" fill="#00FF00" width="230.667" height="230.667"/>
		<rect x="-1390.479" y="852.128" fill-rule="evenodd" clip-rule="evenodd" fill="#FFFF00" width="230.667" height="230.666"/>
	</g>
</g>
</svg>
