<?xml version="1.0" encoding="utf-8"?>
<!-- Generator: Adobe Illustrator 16.0.0, SVG Export Plug-In . SVG Version: 6.00 Build 0)  -->
<!DOCTYPE svg PUBLIC "-//W3C//DTD SVG 1.1//EN" "http://www.w3.org/Graphics/SVG/1.1/DTD/svg11.dtd">
<svg version="1.1" id="Layer_1" xmlns="http://www.w3.org/2000/svg" xmlns:xlink="http://www.w3.org/1999/xlink" x="0px" y="0px"
	 width="1334.191px" height="303.178px" viewBox="79.601 386.664 1334.191 303.178"
	 enable-background="new 79.601 386.664 1334.191 303.178" xml:space="preserve">
<g enable-background="new    ">
	<path fill="#999999" d="M163.699,522.842h-34.141v-42.628l-49.958-92.393h34.333l32.598,58.83l31.826-58.83h34.333l-48.993,91.428
		V522.842z"/>
	<path fill="#999999" d="M357.55,455.139c0,39.349-31.248,69.246-73.104,69.246c-41.664,0-72.911-29.704-72.911-69.246
		c0-39.349,31.248-68.475,72.911-68.475C326.303,386.664,357.55,415.982,357.55,455.139z M246.641,455.332
		c0,22.76,17.553,40.313,38.192,40.313c20.832,0,37.42-17.553,37.42-40.313c0-22.761-16.588-39.928-37.42-39.928
		C264,415.404,246.641,432.571,246.641,455.332z"/>
	<path fill="#999999" d="M497.199,466.133c0,35.685-23.725,58.252-61.531,58.252c-37.999,0-62.302-22.567-62.302-58.252v-78.312
		H407.7v78.312c0,18.324,11.766,29.512,28.162,29.512c16.203,0,27.197-11.188,27.197-29.512v-78.312h34.141V466.133z"/>
	<path fill="#999999" d="M583.226,484.843h-0.964h-26.04v37.999h-34.334V387.821h60.374c35.684,0,56.13,16.974,56.13,47.064
		c0,20.639-8.68,35.491-24.497,43.399l28.354,44.557h-38.963L583.226,484.843z M582.262,457.839
		c14.852,0,23.532-7.522,23.532-21.796c0-14.081-8.68-21.218-23.532-21.218h-26.04v43.014H582.262z"/>
	<path fill="#999999" d="M770.132,387.821c30.283,0,49.572,13.116,49.572,33.755c0,14.273-8.873,25.654-23.146,29.705
		c16.975,3.278,27.775,16.588,27.775,34.141c0,22.953-20.061,37.42-51.886,37.42h-66.16V387.821H770.132z M740.428,441.829h27.775
		c10.03,0,16.396-5.4,16.396-14.08s-6.365-13.695-16.396-13.695h-27.775V441.829z M740.428,496.416h27.775
		c12.73,0,20.64-5.594,20.64-15.237c0-9.066-7.909-14.66-20.64-14.66h-27.775V496.416z"/>
	<path fill="#999999" d="M905.538,484.843h-0.965h-26.039v37.999H844.2V387.821h60.373c35.685,0,56.131,16.974,56.131,47.064
		c0,20.639-8.68,35.491-24.497,43.399l28.354,44.557h-38.963L905.538,484.843z M904.573,457.839
		c14.853,0,23.533-7.522,23.533-21.796c0-14.081-8.681-21.218-23.533-21.218h-26.039v43.014H904.573z"/>
	<path fill="#999999" d="M1014.519,497.959l-9.836,24.883h-35.299l58.252-135.021h35.298l56.901,135.021h-36.648l-9.645-24.883
		H1014.519z M1044.224,421.962l-19.674,49.958h38.963L1044.224,421.962z"/>
	<path fill="#999999" d="M1226.692,522.842l-62.109-83.134v83.134h-32.212V387.821h30.283l62.303,83.327v-83.327h32.019v135.021
		H1226.692z"/>
	<path fill="#999999" d="M1342.038,387.821c42.436,0,71.754,27.39,71.754,67.511c0,39.927-29.704,67.51-73.104,67.51h-56.709
		V387.821H1342.038z M1318.313,495.452h24.496c21.025,0,36.07-16.203,36.07-39.928c0-23.918-15.816-40.313-37.613-40.313h-22.953
		V495.452z"/>
</g>
<g enable-background="new    ">
	<path fill="#999999" d="M184.338,689.842v-52.465h-55.937v52.465H94.067V554.821h34.334v55.552h55.937v-55.552h34.333v135.021
		H184.338z"/>
	<path fill="#999999" d="M280.01,581.825v26.812h64.424v27.004H280.01v27.197h73.49v27.004H245.676V554.821h105.702v27.004H280.01z"
		/>
	<path fill="#999999" d="M437.019,651.843h-0.964h-26.04v37.999h-34.334V554.821h60.374c35.684,0,56.13,16.974,56.13,47.064
		c0,20.639-8.68,35.491-24.497,43.399l28.354,44.557h-38.963L437.019,651.843z M436.054,624.839
		c14.852,0,23.532-7.522,23.532-21.796c0-14.081-8.68-21.218-23.532-21.218h-26.04v43.014H436.054z"/>
	<path fill="#999999" d="M549.665,581.825v26.812h64.424v27.004h-64.424v27.197h73.49v27.004H515.331V554.821h105.702v27.004
		H549.665z"/>
</g>
<g>
	<rect x="719.388" y="554.501" fill="#0000FF" width="45.108" height="45.107"/>
	<rect x="764.496" y="599.608" fill="#FF0000" width="45.105" height="45.107"/>
	<rect x="719.388" y="644.717" fill="#FFFF00" width="45.108" height="45.107"/>
	<rect x="674.28" y="599.608" fill="#00FF00" width="45.107" height="45.107"/>
</g>
</svg>
